<?xml version="1.0" encoding="utf-8" standalone="no"?>
<!DOCTYPE svg PUBLIC "-//W3C//DTD SVG 1.1//EN"
  "http://www.w3.org/Graphics/SVG/1.1/DTD/svg11.dtd">
<svg xmlns:xlink="http://www.w3.org/1999/xlink" width="894.96pt" height="424.08pt" viewBox="0 0 894.96 424.08" xmlns="http://www.w3.org/2000/svg" version="1.1">
 <metadata>
  <rdf:RDF xmlns:dc="http://purl.org/dc/elements/1.1/" xmlns:cc="http://creativecommons.org/ns#" xmlns:rdf="http://www.w3.org/1999/02/22-rdf-syntax-ns#">
   <cc:Work>
    <dc:type rdf:resource="http://purl.org/dc/dcmitype/StillImage"/>
    <dc:date>2023-05-29T00:33:51.949142</dc:date>
    <dc:format>image/svg+xml</dc:format>
    <dc:creator>
     <cc:Agent>
      <dc:title>Matplotlib v3.7.1, https://matplotlib.org/</dc:title>
     </cc:Agent>
    </dc:creator>
   </cc:Work>
  </rdf:RDF>
 </metadata>
 <defs>
  <style type="text/css">*{stroke-linejoin: round; stroke-linecap: butt}</style>
 </defs>
 <g id="figure_1">
  <g id="patch_1">
   <path d="M 0 424.08 
L 894.96 424.08 
L 894.96 0 
L 0 0 
z
" style="fill: #ffffff"/>
  </g>
  <g id="axes_1">
   <g id="patch_2">
    <path d="M 75.543325 379.144655 
L 878.1795 379.144655 
L 878.1795 27.243927 
L 75.543325 27.243927 
z
" style="fill: #eaeaf2"/>
   </g>
   <g id="matplotlib.axis_1">
    <g id="xtick_1">
     <g id="line2d_1"/>
     <g id="text_1">
      <!-- 0 -->
      <g style="fill: #262626" transform="translate(73.429144 393.39153) scale(0.1 -0.1)">
       <defs>
        <path id="LiberationSans-30" d="M 3309 2203 
Q 3309 1100 2920 518 
Q 2531 -63 1772 -63 
Q 1013 -63 631 515 
Q 250 1094 250 2203 
Q 250 3338 620 3903 
Q 991 4469 1791 4469 
Q 2569 4469 2939 3897 
Q 3309 3325 3309 2203 
z
M 2738 2203 
Q 2738 3156 2517 3584 
Q 2297 4013 1791 4013 
Q 1272 4013 1045 3591 
Q 819 3169 819 2203 
Q 819 1266 1048 831 
Q 1278 397 1778 397 
Q 2275 397 2506 840 
Q 2738 1284 2738 2203 
z
" transform="scale(0.015625)"/>
       </defs>
       <use xlink:href="#LiberationSans-30"/>
      </g>
     </g>
    </g>
    <g id="xtick_2">
     <g id="line2d_2"/>
     <g id="text_2">
      <!-- 25 -->
      <g style="fill: #262626" transform="translate(170.601835 393.39153) scale(0.1 -0.1)">
       <defs>
        <path id="LiberationSans-32" d="M 322 0 
L 322 397 
Q 481 763 711 1042 
Q 941 1322 1194 1548 
Q 1447 1775 1695 1969 
Q 1944 2163 2144 2356 
Q 2344 2550 2467 2762 
Q 2591 2975 2591 3244 
Q 2591 3606 2378 3806 
Q 2166 4006 1788 4006 
Q 1428 4006 1195 3811 
Q 963 3616 922 3263 
L 347 3316 
Q 409 3844 795 4156 
Q 1181 4469 1788 4469 
Q 2453 4469 2811 4155 
Q 3169 3841 3169 3263 
Q 3169 3006 3051 2753 
Q 2934 2500 2703 2247 
Q 2472 1994 1819 1463 
Q 1459 1169 1246 933 
Q 1034 697 941 478 
L 3238 478 
L 3238 0 
L 322 0 
z
" transform="scale(0.015625)"/>
        <path id="LiberationSans-35" d="M 3291 1434 
Q 3291 738 2877 337 
Q 2463 -63 1728 -63 
Q 1113 -63 734 206 
Q 356 475 256 984 
L 825 1050 
Q 1003 397 1741 397 
Q 2194 397 2450 670 
Q 2706 944 2706 1422 
Q 2706 1838 2448 2094 
Q 2191 2350 1753 2350 
Q 1525 2350 1328 2278 
Q 1131 2206 934 2034 
L 384 2034 
L 531 4403 
L 3034 4403 
L 3034 3925 
L 1044 3925 
L 959 2528 
Q 1325 2809 1869 2809 
Q 2519 2809 2905 2428 
Q 3291 2047 3291 1434 
z
" transform="scale(0.015625)"/>
       </defs>
       <use xlink:href="#LiberationSans-32"/>
       <use xlink:href="#LiberationSans-35" x="55.615234"/>
      </g>
     </g>
    </g>
    <g id="xtick_3">
     <g id="line2d_3"/>
     <g id="text_3">
      <!-- 50 -->
      <g style="fill: #262626" transform="translate(270.554995 393.39153) scale(0.1 -0.1)">
       <use xlink:href="#LiberationSans-35"/>
       <use xlink:href="#LiberationSans-30" x="55.615234"/>
      </g>
     </g>
    </g>
    <g id="xtick_4">
     <g id="line2d_4"/>
     <g id="text_4">
      <!-- 75 -->
      <g style="fill: #262626" transform="translate(370.508155 393.39153) scale(0.1 -0.1)">
       <defs>
        <path id="LiberationSans-37" d="M 3238 3947 
Q 2563 2916 2284 2331 
Q 2006 1747 1867 1178 
Q 1728 609 1728 0 
L 1141 0 
Q 1141 844 1498 1776 
Q 1856 2709 2694 3925 
L 328 3925 
L 328 4403 
L 3238 4403 
L 3238 3947 
z
" transform="scale(0.015625)"/>
       </defs>
       <use xlink:href="#LiberationSans-37"/>
       <use xlink:href="#LiberationSans-35" x="55.615234"/>
      </g>
     </g>
    </g>
    <g id="xtick_5">
     <g id="line2d_5"/>
     <g id="text_5">
      <!-- 100 -->
      <g style="fill: #262626" transform="translate(467.680847 393.39153) scale(0.1 -0.1)">
       <defs>
        <path id="LiberationSans-31" d="M 488 0 
L 488 478 
L 1609 478 
L 1609 3866 
L 616 3156 
L 616 3688 
L 1656 4403 
L 2175 4403 
L 2175 478 
L 3247 478 
L 3247 0 
L 488 0 
z
" transform="scale(0.015625)"/>
       </defs>
       <use xlink:href="#LiberationSans-31"/>
       <use xlink:href="#LiberationSans-30" x="55.615234"/>
       <use xlink:href="#LiberationSans-30" x="111.230469"/>
      </g>
     </g>
    </g>
    <g id="xtick_6">
     <g id="line2d_6"/>
     <g id="text_6">
      <!-- 125 -->
      <g style="fill: #262626" transform="translate(567.634007 393.39153) scale(0.1 -0.1)">
       <use xlink:href="#LiberationSans-31"/>
       <use xlink:href="#LiberationSans-32" x="55.615234"/>
       <use xlink:href="#LiberationSans-35" x="111.230469"/>
      </g>
     </g>
    </g>
    <g id="xtick_7">
     <g id="line2d_7"/>
     <g id="text_7">
      <!-- 150 -->
      <g style="fill: #262626" transform="translate(667.587167 393.39153) scale(0.1 -0.1)">
       <use xlink:href="#LiberationSans-31"/>
       <use xlink:href="#LiberationSans-35" x="55.615234"/>
       <use xlink:href="#LiberationSans-30" x="111.230469"/>
      </g>
     </g>
    </g>
    <g id="xtick_8">
     <g id="line2d_8"/>
     <g id="text_8">
      <!-- 175 -->
      <g style="fill: #262626" transform="translate(767.540327 393.39153) scale(0.1 -0.1)">
       <use xlink:href="#LiberationSans-31"/>
       <use xlink:href="#LiberationSans-37" x="55.615234"/>
       <use xlink:href="#LiberationSans-35" x="111.230469"/>
      </g>
     </g>
    </g>
    <g id="xtick_9">
     <g id="line2d_9"/>
     <g id="text_9">
      <!-- 200 -->
      <g style="fill: #262626" transform="translate(867.493487 393.39153) scale(0.1 -0.1)">
       <use xlink:href="#LiberationSans-32"/>
       <use xlink:href="#LiberationSans-30" x="55.615234"/>
       <use xlink:href="#LiberationSans-30" x="111.230469"/>
      </g>
     </g>
    </g>
    <g id="text_10">
     <!-- Simulation time (s) -->
     <g style="fill: #262626" transform="translate(431.32485 407.438092) scale(0.11 -0.11)">
      <defs>
       <path id="LiberationSans-53" d="M 3975 1216 
Q 3975 606 3498 271 
Q 3022 -63 2156 -63 
Q 547 -63 291 1056 
L 869 1172 
Q 969 775 1294 589 
Q 1619 403 2178 403 
Q 2756 403 3070 601 
Q 3384 800 3384 1184 
Q 3384 1400 3286 1534 
Q 3188 1669 3009 1756 
Q 2831 1844 2584 1903 
Q 2338 1963 2038 2031 
Q 1516 2147 1245 2262 
Q 975 2378 819 2520 
Q 663 2663 580 2853 
Q 497 3044 497 3291 
Q 497 3856 930 4162 
Q 1363 4469 2169 4469 
Q 2919 4469 3316 4239 
Q 3713 4009 3872 3456 
L 3284 3353 
Q 3188 3703 2916 3861 
Q 2644 4019 2163 4019 
Q 1634 4019 1356 3844 
Q 1078 3669 1078 3322 
Q 1078 3119 1186 2986 
Q 1294 2853 1497 2761 
Q 1700 2669 2306 2534 
Q 2509 2488 2711 2439 
Q 2913 2391 3097 2323 
Q 3281 2256 3442 2165 
Q 3603 2075 3722 1944 
Q 3841 1813 3908 1634 
Q 3975 1456 3975 1216 
z
" transform="scale(0.015625)"/>
       <path id="LiberationSans-69" d="M 428 4100 
L 428 4638 
L 991 4638 
L 991 4100 
L 428 4100 
z
M 428 0 
L 428 3381 
L 991 3381 
L 991 0 
L 428 0 
z
" transform="scale(0.015625)"/>
       <path id="LiberationSans-6d" d="M 2400 0 
L 2400 2144 
Q 2400 2634 2265 2821 
Q 2131 3009 1781 3009 
Q 1422 3009 1212 2734 
Q 1003 2459 1003 1959 
L 1003 0 
L 444 0 
L 444 2659 
Q 444 3250 425 3381 
L 956 3381 
Q 959 3366 962 3297 
Q 966 3228 970 3139 
Q 975 3050 981 2803 
L 991 2803 
Q 1172 3163 1406 3303 
Q 1641 3444 1978 3444 
Q 2363 3444 2586 3291 
Q 2809 3138 2897 2803 
L 2906 2803 
Q 3081 3144 3329 3294 
Q 3578 3444 3931 3444 
Q 4444 3444 4676 3166 
Q 4909 2888 4909 2253 
L 4909 0 
L 4353 0 
L 4353 2144 
Q 4353 2634 4218 2821 
Q 4084 3009 3734 3009 
Q 3366 3009 3161 2736 
Q 2956 2463 2956 1959 
L 2956 0 
L 2400 0 
z
" transform="scale(0.015625)"/>
       <path id="LiberationSans-75" d="M 981 3381 
L 981 1238 
Q 981 903 1047 718 
Q 1113 534 1256 453 
Q 1400 372 1678 372 
Q 2084 372 2318 650 
Q 2553 928 2553 1422 
L 2553 3381 
L 3116 3381 
L 3116 722 
Q 3116 131 3134 0 
L 2603 0 
Q 2600 16 2597 84 
Q 2594 153 2589 242 
Q 2584 331 2578 578 
L 2569 578 
Q 2375 228 2120 82 
Q 1866 -63 1488 -63 
Q 931 -63 673 214 
Q 416 491 416 1128 
L 416 3381 
L 981 3381 
z
" transform="scale(0.015625)"/>
       <path id="LiberationSans-6c" d="M 431 0 
L 431 4638 
L 994 4638 
L 994 0 
L 431 0 
z
" transform="scale(0.015625)"/>
       <path id="LiberationSans-61" d="M 1294 -63 
Q 784 -63 528 206 
Q 272 475 272 944 
Q 272 1469 617 1750 
Q 963 2031 1731 2050 
L 2491 2063 
L 2491 2247 
Q 2491 2659 2316 2837 
Q 2141 3016 1766 3016 
Q 1388 3016 1216 2887 
Q 1044 2759 1009 2478 
L 422 2531 
Q 566 3444 1778 3444 
Q 2416 3444 2737 3151 
Q 3059 2859 3059 2306 
L 3059 850 
Q 3059 600 3125 473 
Q 3191 347 3375 347 
Q 3456 347 3559 369 
L 3559 19 
Q 3347 -31 3125 -31 
Q 2813 -31 2670 133 
Q 2528 297 2509 647 
L 2491 647 
Q 2275 259 1989 98 
Q 1703 -63 1294 -63 
z
M 1422 359 
Q 1731 359 1972 500 
Q 2213 641 2352 886 
Q 2491 1131 2491 1391 
L 2491 1669 
L 1875 1656 
Q 1478 1650 1273 1575 
Q 1069 1500 959 1344 
Q 850 1188 850 934 
Q 850 659 998 509 
Q 1147 359 1422 359 
z
" transform="scale(0.015625)"/>
       <path id="LiberationSans-74" d="M 1731 25 
Q 1453 -50 1163 -50 
Q 488 -50 488 716 
L 488 2972 
L 97 2972 
L 97 3381 
L 509 3381 
L 675 4138 
L 1050 4138 
L 1050 3381 
L 1675 3381 
L 1675 2972 
L 1050 2972 
L 1050 838 
Q 1050 594 1129 495 
Q 1209 397 1406 397 
Q 1519 397 1731 441 
L 1731 25 
z
" transform="scale(0.015625)"/>
       <path id="LiberationSans-6f" d="M 3291 1694 
Q 3291 806 2900 371 
Q 2509 -63 1766 -63 
Q 1025 -63 647 389 
Q 269 841 269 1694 
Q 269 3444 1784 3444 
Q 2559 3444 2925 3017 
Q 3291 2591 3291 1694 
z
M 2700 1694 
Q 2700 2394 2492 2711 
Q 2284 3028 1794 3028 
Q 1300 3028 1079 2704 
Q 859 2381 859 1694 
Q 859 1025 1076 689 
Q 1294 353 1759 353 
Q 2266 353 2483 678 
Q 2700 1003 2700 1694 
z
" transform="scale(0.015625)"/>
       <path id="LiberationSans-6e" d="M 2578 0 
L 2578 2144 
Q 2578 2478 2512 2662 
Q 2447 2847 2303 2928 
Q 2159 3009 1881 3009 
Q 1475 3009 1240 2731 
Q 1006 2453 1006 1959 
L 1006 0 
L 444 0 
L 444 2659 
Q 444 3250 425 3381 
L 956 3381 
Q 959 3366 962 3297 
Q 966 3228 970 3139 
Q 975 3050 981 2803 
L 991 2803 
Q 1184 3153 1439 3298 
Q 1694 3444 2072 3444 
Q 2628 3444 2886 3167 
Q 3144 2891 3144 2253 
L 3144 0 
L 2578 0 
z
" transform="scale(0.015625)"/>
       <path id="LiberationSans-20" transform="scale(0.015625)"/>
       <path id="LiberationSans-65" d="M 863 1572 
Q 863 991 1103 675 
Q 1344 359 1806 359 
Q 2172 359 2392 506 
Q 2613 653 2691 878 
L 3184 738 
Q 2881 -63 1806 -63 
Q 1056 -63 664 384 
Q 272 831 272 1713 
Q 272 2550 664 2997 
Q 1056 3444 1784 3444 
Q 3275 3444 3275 1647 
L 3275 1572 
L 863 1572 
z
M 2694 2003 
Q 2647 2538 2422 2783 
Q 2197 3028 1775 3028 
Q 1366 3028 1127 2754 
Q 888 2481 869 2003 
L 2694 2003 
z
" transform="scale(0.015625)"/>
       <path id="LiberationSans-28" d="M 397 1663 
Q 397 2566 680 3284 
Q 963 4003 1550 4638 
L 2094 4638 
Q 1509 3988 1236 3256 
Q 963 2525 963 1656 
Q 963 791 1233 62 
Q 1503 -666 2094 -1325 
L 1550 -1325 
Q 959 -688 678 32 
Q 397 753 397 1650 
L 397 1663 
z
" transform="scale(0.015625)"/>
       <path id="LiberationSans-73" d="M 2969 934 
Q 2969 456 2608 196 
Q 2247 -63 1597 -63 
Q 966 -63 623 145 
Q 281 353 178 794 
L 675 891 
Q 747 619 972 492 
Q 1197 366 1597 366 
Q 2025 366 2223 497 
Q 2422 628 2422 891 
Q 2422 1091 2284 1216 
Q 2147 1341 1841 1422 
L 1438 1528 
Q 953 1653 748 1773 
Q 544 1894 428 2066 
Q 313 2238 313 2488 
Q 313 2950 642 3192 
Q 972 3434 1603 3434 
Q 2163 3434 2492 3237 
Q 2822 3041 2909 2606 
L 2403 2544 
Q 2356 2769 2151 2889 
Q 1947 3009 1603 3009 
Q 1222 3009 1040 2893 
Q 859 2778 859 2544 
Q 859 2400 934 2306 
Q 1009 2213 1156 2147 
Q 1303 2081 1775 1966 
Q 2222 1853 2419 1758 
Q 2616 1663 2730 1547 
Q 2844 1431 2906 1279 
Q 2969 1128 2969 934 
z
" transform="scale(0.015625)"/>
       <path id="LiberationSans-29" d="M 1734 1650 
Q 1734 747 1451 28 
Q 1169 -691 581 -1325 
L 38 -1325 
Q 625 -669 897 57 
Q 1169 784 1169 1656 
Q 1169 2528 895 3256 
Q 622 3984 38 4638 
L 581 4638 
Q 1172 4000 1453 3279 
Q 1734 2559 1734 1663 
L 1734 1650 
z
" transform="scale(0.015625)"/>
      </defs>
      <use xlink:href="#LiberationSans-53"/>
      <use xlink:href="#LiberationSans-69" x="66.699219"/>
      <use xlink:href="#LiberationSans-6d" x="88.916016"/>
      <use xlink:href="#LiberationSans-75" x="172.216797"/>
      <use xlink:href="#LiberationSans-6c" x="227.832031"/>
      <use xlink:href="#LiberationSans-61" x="250.048828"/>
      <use xlink:href="#LiberationSans-74" x="305.664062"/>
      <use xlink:href="#LiberationSans-69" x="333.447266"/>
      <use xlink:href="#LiberationSans-6f" x="355.664062"/>
      <use xlink:href="#LiberationSans-6e" x="411.279297"/>
      <use xlink:href="#LiberationSans-20" x="466.894531"/>
      <use xlink:href="#LiberationSans-74" x="494.677734"/>
      <use xlink:href="#LiberationSans-69" x="522.460938"/>
      <use xlink:href="#LiberationSans-6d" x="544.677734"/>
      <use xlink:href="#LiberationSans-65" x="627.978516"/>
      <use xlink:href="#LiberationSans-20" x="683.59375"/>
      <use xlink:href="#LiberationSans-28" x="711.376953"/>
      <use xlink:href="#LiberationSans-73" x="744.677734"/>
      <use xlink:href="#LiberationSans-29" x="794.677734"/>
     </g>
    </g>
   </g>
   <g id="matplotlib.axis_2">
    <g id="ytick_1">
     <g id="line2d_10"/>
     <g id="text_11">
      <!-- 0 -->
      <g style="fill: #262626" transform="translate(62.982388 378.435819) scale(0.1 -0.1)">
       <use xlink:href="#LiberationSans-30"/>
      </g>
     </g>
    </g>
    <g id="ytick_2">
     <g id="line2d_11"/>
     <g id="text_12">
      <!-- 25 -->
      <g style="fill: #262626" transform="translate(57.42145 333.417906) scale(0.1 -0.1)">
       <use xlink:href="#LiberationSans-32"/>
       <use xlink:href="#LiberationSans-35" x="55.615234"/>
      </g>
     </g>
    </g>
    <g id="ytick_3">
     <g id="line2d_12"/>
     <g id="text_13">
      <!-- 50 -->
      <g style="fill: #262626" transform="translate(57.42145 288.399994) scale(0.1 -0.1)">
       <use xlink:href="#LiberationSans-35"/>
       <use xlink:href="#LiberationSans-30" x="55.615234"/>
      </g>
     </g>
    </g>
    <g id="ytick_4">
     <g id="line2d_13"/>
     <g id="text_14">
      <!-- 75 -->
      <g style="fill: #262626" transform="translate(57.42145 243.382081) scale(0.1 -0.1)">
       <use xlink:href="#LiberationSans-37"/>
       <use xlink:href="#LiberationSans-35" x="55.615234"/>
      </g>
     </g>
    </g>
    <g id="ytick_5">
     <g id="line2d_14"/>
     <g id="text_15">
      <!-- 100 -->
      <g style="fill: #262626" transform="translate(51.860513 198.364168) scale(0.1 -0.1)">
       <use xlink:href="#LiberationSans-31"/>
       <use xlink:href="#LiberationSans-30" x="55.615234"/>
       <use xlink:href="#LiberationSans-30" x="111.230469"/>
      </g>
     </g>
    </g>
    <g id="ytick_6">
     <g id="line2d_15"/>
     <g id="text_16">
      <!-- 125 -->
      <g style="fill: #262626" transform="translate(51.860513 153.346255) scale(0.1 -0.1)">
       <use xlink:href="#LiberationSans-31"/>
       <use xlink:href="#LiberationSans-32" x="55.615234"/>
       <use xlink:href="#LiberationSans-35" x="111.230469"/>
      </g>
     </g>
    </g>
    <g id="ytick_7">
     <g id="line2d_16"/>
     <g id="text_17">
      <!-- 150 -->
      <g style="fill: #262626" transform="translate(51.860513 108.328343) scale(0.1 -0.1)">
       <use xlink:href="#LiberationSans-31"/>
       <use xlink:href="#LiberationSans-35" x="55.615234"/>
       <use xlink:href="#LiberationSans-30" x="111.230469"/>
      </g>
     </g>
    </g>
    <g id="ytick_8">
     <g id="line2d_17"/>
     <g id="text_18">
      <!-- 175 -->
      <g style="fill: #262626" transform="translate(51.860513 63.31043) scale(0.1 -0.1)">
       <use xlink:href="#LiberationSans-31"/>
       <use xlink:href="#LiberationSans-37" x="55.615234"/>
       <use xlink:href="#LiberationSans-35" x="111.230469"/>
      </g>
     </g>
    </g>
    <g id="text_19">
     <!-- Buffer size (Packets) -->
     <g style="fill: #262626" transform="translate(45.578013 253.833822) rotate(-90) scale(0.11 -0.11)">
      <defs>
       <path id="LiberationSans-42" d="M 3931 1241 
Q 3931 653 3503 326 
Q 3075 0 2313 0 
L 525 0 
L 525 4403 
L 2125 4403 
Q 3675 4403 3675 3334 
Q 3675 2944 3456 2678 
Q 3238 2413 2838 2322 
Q 3363 2259 3647 1970 
Q 3931 1681 3931 1241 
z
M 3075 3263 
Q 3075 3619 2831 3772 
Q 2588 3925 2125 3925 
L 1122 3925 
L 1122 2531 
L 2125 2531 
Q 2603 2531 2839 2711 
Q 3075 2891 3075 3263 
z
M 3328 1288 
Q 3328 2066 2234 2066 
L 1122 2066 
L 1122 478 
L 2281 478 
Q 2828 478 3078 681 
Q 3328 884 3328 1288 
z
" transform="scale(0.015625)"/>
       <path id="LiberationSans-66" d="M 1128 2972 
L 1128 0 
L 566 0 
L 566 2972 
L 91 2972 
L 91 3381 
L 566 3381 
L 566 3763 
Q 566 4225 769 4428 
Q 972 4631 1391 4631 
Q 1625 4631 1788 4594 
L 1788 4166 
Q 1647 4191 1538 4191 
Q 1322 4191 1225 4081 
Q 1128 3972 1128 3684 
L 1128 3381 
L 1788 3381 
L 1788 2972 
L 1128 2972 
z
" transform="scale(0.015625)"/>
       <path id="LiberationSans-72" d="M 444 0 
L 444 2594 
Q 444 2950 425 3381 
L 956 3381 
Q 981 2806 981 2691 
L 994 2691 
Q 1128 3125 1303 3284 
Q 1478 3444 1797 3444 
Q 1909 3444 2025 3413 
L 2025 2897 
Q 1913 2928 1725 2928 
Q 1375 2928 1190 2626 
Q 1006 2325 1006 1763 
L 1006 0 
L 444 0 
z
" transform="scale(0.015625)"/>
       <path id="LiberationSans-7a" d="M 259 0 
L 259 428 
L 2150 2947 
L 366 2947 
L 366 3381 
L 2816 3381 
L 2816 2953 
L 922 434 
L 2881 434 
L 2881 0 
L 259 0 
z
" transform="scale(0.015625)"/>
       <path id="LiberationSans-50" d="M 3931 3078 
Q 3931 2453 3523 2084 
Q 3116 1716 2416 1716 
L 1122 1716 
L 1122 0 
L 525 0 
L 525 4403 
L 2378 4403 
Q 3119 4403 3525 4056 
Q 3931 3709 3931 3078 
z
M 3331 3072 
Q 3331 3925 2306 3925 
L 1122 3925 
L 1122 2188 
L 2331 2188 
Q 3331 2188 3331 3072 
z
" transform="scale(0.015625)"/>
       <path id="LiberationSans-63" d="M 859 1706 
Q 859 1031 1071 706 
Q 1284 381 1713 381 
Q 2013 381 2214 543 
Q 2416 706 2463 1044 
L 3031 1006 
Q 2966 519 2616 228 
Q 2266 -63 1728 -63 
Q 1019 -63 645 385 
Q 272 834 272 1694 
Q 272 2547 647 2995 
Q 1022 3444 1722 3444 
Q 2241 3444 2583 3175 
Q 2925 2906 3013 2434 
L 2434 2391 
Q 2391 2672 2212 2837 
Q 2034 3003 1706 3003 
Q 1259 3003 1059 2706 
Q 859 2409 859 1706 
z
" transform="scale(0.015625)"/>
       <path id="LiberationSans-6b" d="M 2550 0 
L 1406 1544 
L 994 1203 
L 994 0 
L 431 0 
L 431 4638 
L 994 4638 
L 994 1741 
L 2478 3381 
L 3138 3381 
L 1766 1928 
L 3209 0 
L 2550 0 
z
" transform="scale(0.015625)"/>
      </defs>
      <use xlink:href="#LiberationSans-42"/>
      <use xlink:href="#LiberationSans-75" x="66.699219"/>
      <use xlink:href="#LiberationSans-66" x="122.314453"/>
      <use xlink:href="#LiberationSans-66" x="148.347656"/>
      <use xlink:href="#LiberationSans-65" x="176.130859"/>
      <use xlink:href="#LiberationSans-72" x="231.746094"/>
      <use xlink:href="#LiberationSans-20" x="265.046875"/>
      <use xlink:href="#LiberationSans-73" x="292.830078"/>
      <use xlink:href="#LiberationSans-69" x="342.830078"/>
      <use xlink:href="#LiberationSans-7a" x="365.046875"/>
      <use xlink:href="#LiberationSans-65" x="415.046875"/>
      <use xlink:href="#LiberationSans-20" x="470.662109"/>
      <use xlink:href="#LiberationSans-28" x="498.445312"/>
      <use xlink:href="#LiberationSans-50" x="531.746094"/>
      <use xlink:href="#LiberationSans-61" x="598.445312"/>
      <use xlink:href="#LiberationSans-63" x="654.060547"/>
      <use xlink:href="#LiberationSans-6b" x="704.060547"/>
      <use xlink:href="#LiberationSans-65" x="754.060547"/>
      <use xlink:href="#LiberationSans-74" x="809.675781"/>
      <use xlink:href="#LiberationSans-73" x="837.458984"/>
      <use xlink:href="#LiberationSans-29" x="887.458984"/>
     </g>
    </g>
   </g>
   <g id="line2d_18">
    <path d="M 79.802171 373.011665 
L 79.802171 374.812382 
L 83.493334 373.011665 
L 83.800297 374.812382 
L 91.295859 373.011665 
L 91.295859 374.812382 
L 91.641598 373.011665 
L 93.49902 371.210949 
L 95.293985 373.011665 
L 95.639725 371.210949 
L 97.405215 369.410232 
L 99.292112 371.210949 
L 99.344819 369.410232 
L 100.756794 367.609516 
L 100.990223 365.808799 
L 102.301264 364.008083 
L 103.290238 365.808799 
L 106.451956 364.008083 
L 107.288364 365.808799 
L 110.450082 364.008083 
L 111.286491 365.808799 
L 114.243662 364.008083 
L 115.284617 365.808799 
L 117.642886 364.008083 
L 119.282744 365.808799 
L 121.641012 362.207366 
L 123.28087 364.008083 
L 123.525593 362.207366 
L 125.639139 360.40665 
L 126.881751 358.605933 
L 127.278996 360.40665 
L 129.637265 358.605933 
L 131.277123 360.40665 
L 133.635391 358.605933 
L 134.11184 356.805216 
L 134.406444 355.0045 
L 135.275249 356.805216 
L 136.051985 355.0045 
L 136.416458 353.203783 
L 137.633518 351.403067 
L 139.273376 353.203783 
L 140.592951 351.403067 
L 141.631644 349.60235 
L 143.271502 351.403067 
L 145.629771 349.60235 
L 147.269628 351.403067 
L 149.627897 349.60235 
L 151.267755 351.403067 
L 153.187728 349.60235 
L 153.626023 347.801634 
L 155.265881 349.60235 
L 157.62415 347.801634 
L 159.264008 349.60235 
L 161.347473 347.801634 
L 161.622276 346.000917 
L 163.262134 347.801634 
L 163.913108 346.000917 
L 165.620403 344.200201 
L 167.26026 346.000917 
L 169.618529 344.200201 
L 170.331058 342.399484 
L 171.258387 344.200201 
L 175.256513 346.000917 
L 176.784043 344.200201 
L 179.25464 346.000917 
L 179.722523 344.200201 
L 183.252766 346.000917 
L 184.264151 344.200201 
L 184.348974 342.399484 
L 184.767413 340.598768 
L 187.250892 342.399484 
L 188.347101 340.598768 
L 189.865934 338.798051 
L 190.484563 336.997335 
L 191.249019 338.798051 
L 192.886835 336.997335 
L 193.566457 335.196618 
L 195.247145 336.997335 
L 196.970649 335.196618 
L 199.245272 336.997335 
L 199.249253 335.196618 
L 200.968775 333.395902 
L 202.19918 331.595185 
L 202.646755 329.794469 
L 203.243398 331.595185 
L 204.788014 329.794469 
L 206.01656 327.993752 
L 206.840987 326.193036 
L 207.241524 327.993752 
L 211.239651 329.794469 
L 212.030558 327.993752 
L 212.179646 326.193036 
L 214.614834 324.392319 
L 215.195674 322.591603 
L 215.237777 324.392319 
L 215.271513 322.591603 
L 216.837862 318.99017 
L 219.235904 320.790886 
L 220.546366 318.99017 
L 220.681584 317.189453 
L 221.686881 315.388737 
L 223.23403 317.189453 
L 223.640194 315.388737 
L 224.544492 313.58802 
L 227.232156 315.388737 
L 228.542618 313.58802 
L 231.230283 315.388737 
L 232.540745 313.58802 
L 235.146462 311.787304 
L 235.228409 313.58802 
L 236.538871 311.787304 
L 237.536326 309.986587 
L 239.226536 311.787304 
L 239.317566 309.986587 
L 240.536998 308.185871 
L 241.614619 306.385154 
L 243.224662 308.185871 
L 244.535124 306.385154 
L 247.222788 308.185871 
L 248.53325 306.385154 
L 250.915664 304.584438 
L 251.220915 306.385154 
L 252.531377 304.584438 
L 255.219041 306.385154 
L 255.309255 304.584438 
L 256.529503 302.783721 
L 259.217168 304.584438 
L 259.542608 302.783721 
L 260.52763 300.983005 
L 263.215294 302.783721 
L 263.982917 300.983005 
L 264.525756 299.182288 
L 264.534773 297.381572 
L 267.21342 299.182288 
L 270.088341 297.381572 
L 270.281496 295.580855 
L 271.211547 297.381572 
L 271.895903 295.580855 
L 274.279622 293.780139 
L 275.209673 295.580855 
L 275.272032 293.780139 
L 278.277749 291.979422 
L 279.2078 293.780139 
L 282.275875 291.979422 
L 283.205926 293.780139 
L 286.274001 291.979422 
L 287.204052 293.780139 
L 290.272128 291.979422 
L 291.202179 293.780139 
L 293.081673 291.979422 
L 294.01844 290.178706 
L 294.270254 288.377989 
L 295.200305 290.178706 
L 298.048628 288.377989 
L 298.268381 286.577273 
L 299.198431 288.377989 
L 302.266507 286.577273 
L 302.281616 284.776556 
L 303.196558 286.577273 
L 305.767645 284.776556 
L 306.264633 282.97584 
L 306.93542 281.175123 
L 307.194684 282.97584 
L 309.074677 281.175123 
L 310.26276 279.374407 
L 311.192811 281.175123 
L 311.585266 279.374407 
L 314.159184 277.57369 
L 314.260886 275.772974 
L 315.190937 277.57369 
L 315.279767 275.772974 
L 318.259013 273.972257 
L 319.185393 272.171541 
L 319.189063 273.972257 
L 320.834625 272.171541 
L 322.257139 270.370824 
L 323.18719 272.171541 
L 325.104913 270.370824 
L 325.699483 268.570108 
L 326.622987 266.769391 
L 327.185316 268.570108 
L 330.621113 266.769391 
L 331.183443 268.570108 
L 331.723202 266.769391 
L 333.562396 264.968675 
L 334.61924 263.167958 
L 335.181569 264.968675 
L 337.905438 263.167958 
L 338.617366 261.367242 
L 339.179695 263.167958 
L 342.615492 261.367242 
L 343.177822 263.167958 
L 344.783541 261.367242 
L 346.613619 259.566525 
L 347.175948 261.367242 
L 349.260701 259.566525 
L 349.664651 257.765808 
L 350.611745 255.965092 
L 351.174075 257.765808 
L 354.609872 255.965092 
L 355.172201 257.765808 
L 358.607998 255.965092 
L 359.170327 257.765808 
L 362.606124 255.965092 
L 363.168454 257.765808 
L 363.952309 255.965092 
L 366.604251 254.164375 
L 367.16658 255.965092 
L 371.164707 257.765808 
L 372.369649 255.965092 
L 372.59885 254.164375 
L 373.243696 252.363659 
L 375.162833 254.164375 
L 376.311024 252.363659 
L 377.241823 250.562942 
L 378.709687 248.762226 
L 379.160959 250.562942 
L 381.239949 248.762226 
L 383.159086 250.562942 
L 384.08415 248.762226 
L 384.324703 245.160793 
L 386.655124 243.360076 
L 387.157212 245.160793 
L 391.155339 246.961509 
L 393.661518 245.160793 
L 395.153465 246.961509 
L 397.659645 245.160793 
L 399.151591 246.961509 
L 401.657771 245.160793 
L 402.214114 243.360076 
L 403.149718 245.160793 
L 405.655897 241.55936 
L 407.147844 243.360076 
L 409.654024 241.55936 
L 411.145971 243.360076 
L 413.65215 241.55936 
L 414.363605 239.758643 
L 415.144097 241.55936 
L 417.650277 239.758643 
L 417.693418 237.957927 
L 419.142223 239.758643 
L 421.648403 237.957927 
L 423.14035 239.758643 
L 425.646529 237.957927 
L 425.702627 236.15721 
L 426.097044 234.356494 
L 427.138476 236.15721 
L 429.644656 234.356494 
L 431.136603 236.15721 
L 433.642782 234.356494 
L 435.134729 236.15721 
L 436.253502 234.356494 
L 436.600422 232.555777 
L 437.640909 230.755061 
L 439.132855 232.555777 
L 441.639035 230.755061 
L 443.130982 232.555777 
L 445.637161 230.755061 
L 447.129108 232.555777 
L 447.192482 230.755061 
L 447.75754 228.954344 
L 449.635288 227.153628 
L 451.127235 228.954344 
L 451.92271 227.153628 
L 453.633414 225.352911 
L 455.125361 227.153628 
L 456.960085 225.352911 
L 458.326062 221.751478 
L 459.123487 223.552195 
L 459.555556 221.751478 
L 460.364579 219.950762 
L 461.629667 218.150045 
L 463.121614 219.950762 
L 463.895441 218.150045 
L 463.976652 216.349329 
L 464.697324 214.548612 
L 465.627793 212.747896 
L 467.11974 214.548612 
L 469.62592 212.747896 
L 471.117867 214.548612 
L 471.75698 212.747896 
L 473.624046 210.947179 
L 475.115993 212.747896 
L 475.127732 210.947179 
L 477.622173 209.146463 
L 479.114119 210.947179 
L 480.440274 209.146463 
L 482.710827 205.54503 
L 483.112246 207.345746 
L 483.854375 205.54503 
L 485.618425 203.744313 
L 487.110372 205.54503 
L 489.495829 203.744313 
L 489.616552 201.943597 
L 491.108499 203.744313 
L 492.927792 201.943597 
L 493.614678 200.14288 
L 494.944222 198.342164 
L 495.106625 200.14288 
L 497.612805 198.342164 
L 499.104751 200.14288 
L 501.610931 198.342164 
L 503.102878 200.14288 
L 505.004122 196.541447 
L 505.609057 194.740731 
L 507.101004 196.541447 
L 509.607184 194.740731 
L 511.099131 196.541447 
L 513.60531 194.740731 
L 515.097257 196.541447 
L 517.20753 194.740731 
L 517.603437 192.940014 
L 519.095383 194.740731 
L 519.576916 192.940014 
L 521.601563 191.139298 
L 523.09351 192.940014 
L 525.599689 191.139298 
L 527.067245 189.338581 
L 527.091636 191.139298 
L 529.597816 189.338581 
L 531.089763 191.139298 
L 531.873947 189.338581 
L 532.367822 187.537865 
L 533.595942 185.737148 
L 533.779241 183.936432 
L 535.087889 185.737148 
L 537.594069 183.936432 
L 539.086015 185.737148 
L 539.603786 183.936432 
L 541.592195 182.135715 
L 541.725682 180.334999 
L 543.084142 182.135715 
L 543.744811 180.334999 
L 545.590321 178.534282 
L 547.082268 180.334999 
L 549.588448 178.534282 
L 551.080395 180.334999 
L 552.258818 178.534282 
L 553.586574 176.733566 
L 555.078521 178.534282 
L 557.584701 176.733566 
L 559.076647 178.534282 
L 560.79414 176.733566 
L 561.582827 174.932849 
L 563.074774 176.733566 
L 565.509462 174.932849 
L 565.580953 173.132133 
L 567.0729 174.932849 
L 569.059245 173.132133 
L 569.57908 171.331416 
L 571.071027 173.132133 
L 573.368565 171.331416 
L 573.577206 169.5307 
L 575.069153 171.331416 
L 576.414608 169.5307 
L 577.462346 167.729983 
L 577.575333 165.929267 
L 579.067279 167.729983 
L 581.573459 165.929267 
L 581.591599 164.12855 
L 583.065406 165.929267 
L 583.599901 164.12855 
L 585.571585 162.327834 
L 585.804452 160.527117 
L 587.063532 162.327834 
L 589.569712 160.527117 
L 589.660459 158.726401 
L 591.061659 160.527117 
L 592.235672 158.726401 
L 593.670708 156.925684 
L 594.563712 155.124967 
L 595.059785 156.925684 
L 597.985966 155.124967 
L 598.561839 153.324251 
L 599.057911 155.124967 
L 599.355723 153.324251 
L 602.559965 151.523534 
L 603.056038 153.324251 
L 603.20342 151.523534 
L 605.442215 149.722818 
L 606.558091 147.922101 
L 607.054164 149.722818 
L 610.556218 147.922101 
L 611.052291 149.722818 
L 613.868057 147.922101 
L 614.554344 146.121385 
L 615.050417 147.922101 
L 617.441299 146.121385 
L 618.552471 144.320668 
L 619.048543 146.121385 
L 622.550597 142.519952 
L 623.04667 144.320668 
L 626.548723 142.519952 
L 627.044796 144.320668 
L 630.54685 142.519952 
L 631.042923 144.320668 
L 634.544976 142.519952 
L 634.739654 140.719235 
L 635.041049 142.519952 
L 635.348543 140.719235 
L 637.180376 138.918519 
L 637.589467 137.117802 
L 638.543103 135.317086 
L 639.039175 137.117802 
L 639.87824 135.317086 
L 642.541229 133.516369 
L 643.037302 135.317086 
L 646.539355 133.516369 
L 647.035428 135.317086 
L 650.537482 133.516369 
L 651.033555 135.317086 
L 654.535608 133.516369 
L 655.031681 135.317086 
L 656.421727 133.516369 
L 658.533735 131.715653 
L 659.029807 133.516369 
L 659.500591 131.715653 
L 661.875772 129.914936 
L 662.298025 128.11422 
L 662.531861 126.313503 
L 663.027934 128.11422 
L 666.529987 126.313503 
L 667.02606 128.11422 
L 670.528114 126.313503 
L 671.024187 128.11422 
L 672.370433 126.313503 
L 674.52624 124.512787 
L 675.022313 126.313503 
L 678.524367 124.512787 
L 679.020439 126.313503 
L 680.373095 122.71207 
L 682.522493 120.911354 
L 683.018566 122.71207 
L 686.520619 120.911354 
L 687.016692 122.71207 
L 689.7694 120.911354 
L 690.518746 119.110637 
L 691.014819 120.911354 
L 694.516872 119.110637 
L 695.012945 120.911354 
L 697.86924 119.110637 
L 698.0223 117.309921 
L 698.514999 115.509204 
L 698.73127 113.708488 
L 699.011071 115.509204 
L 702.513125 113.708488 
L 702.553345 111.907771 
L 703.009198 113.708488 
L 706.511251 111.907771 
L 707.007324 113.708488 
L 708.58981 111.907771 
L 710.509378 110.107055 
L 711.005451 111.907771 
L 714.507504 110.107055 
L 715.003577 111.907771 
L 716.594005 110.107055 
L 718.505631 108.306338 
L 718.713023 106.505622 
L 719.001703 108.306338 
L 719.315905 106.505622 
L 721.406405 104.704905 
L 722.503757 102.904189 
L 722.99983 104.704905 
L 726.18592 102.904189 
L 726.501883 101.103472 
L 726.997956 102.904189 
L 728.054134 101.103472 
L 730.470198 99.302756 
L 730.50001 97.502039 
L 730.996083 99.302756 
L 732.648606 97.502039 
L 734.498136 95.701323 
L 734.994209 97.502039 
L 737.767544 95.701323 
L 738.496263 93.900606 
L 738.992335 95.701323 
L 739.586339 93.900606 
L 742.494389 92.09989 
L 742.990462 93.900606 
L 746.492515 92.09989 
L 746.988588 93.900606 
L 750.490642 92.09989 
L 750.986715 93.900606 
L 754.419231 92.09989 
L 754.488768 90.299173 
L 754.984841 92.09989 
L 756.203406 90.299173 
L 758.486895 88.498457 
L 758.982967 90.299173 
L 762.485021 88.498457 
L 762.981094 90.299173 
L 766.483147 88.498457 
L 766.97922 90.299173 
L 768.489275 86.69774 
L 770.146949 84.897024 
L 770.481274 83.096307 
L 770.977347 84.897024 
L 773.090094 83.096307 
L 773.313469 81.295591 
L 774.205608 79.494874 
L 774.4794 77.694158 
L 774.975473 79.494874 
L 774.996555 77.694158 
L 778.477527 75.893441 
L 778.973599 77.694158 
L 781.307249 75.893441 
L 782.475653 74.092725 
L 782.971726 75.893441 
L 783.001084 74.092725 
L 786.473779 72.292008 
L 786.969852 74.092725 
L 790.471906 72.292008 
L 790.967979 74.092725 
L 794.470032 72.292008 
L 794.533856 70.491292 
L 794.966105 72.292008 
L 798.280655 70.491292 
L 798.468159 68.690575 
L 798.964231 70.491292 
L 801.91081 68.690575 
L 802.040177 66.889859 
L 802.466285 65.089142 
L 802.962358 66.889859 
L 806.464411 65.089142 
L 806.960484 66.889859 
L 808.160634 65.089142 
L 808.367268 63.288426 
L 810.462538 61.487709 
L 810.958611 63.288426 
L 811.80935 61.487709 
L 812.895513 59.686993 
L 814.460664 57.886276 
L 814.956737 59.686993 
L 818.458791 57.886276 
L 818.954863 59.686993 
L 822.456917 57.886276 
L 822.95299 59.686993 
L 826.455043 57.886276 
L 826.951116 59.686993 
L 830.45317 57.886276 
L 830.949243 59.686993 
L 832.402903 57.886276 
L 834.451296 56.08556 
L 834.947369 57.886276 
L 835.469785 56.08556 
L 838.449423 54.284843 
L 838.945495 56.08556 
L 842.447549 54.284843 
L 842.943622 56.08556 
L 843.454731 54.284843 
L 846.445675 52.484126 
L 846.941748 54.284843 
L 848.691418 52.484126 
L 850.186264 50.68341 
L 850.443802 48.882693 
L 850.939875 50.68341 
L 853.41667 48.882693 
L 854.441928 47.081977 
L 854.938001 48.882693 
L 855.447179 47.081977 
L 858.349323 41.679827 
L 858.440055 39.879111 
L 858.936127 41.679827 
L 859.336298 39.879111 
L 862.438181 38.078394 
L 862.706633 36.277678 
L 862.934254 38.078394 
L 866.436307 36.277678 
L 866.93238 38.078394 
L 868.085503 36.277678 
L 870.434434 34.476961 
L 870.491091 32.676245 
L 870.930507 34.476961 
L 874.928633 36.277678 
L 874.928633 36.277678 
" clip-path="url(#pf513025e58)" style="fill: none; stroke: #4c72b0; stroke-width: 1.5; stroke-linecap: round"/>
   </g>
   <g id="line2d_19">
    <path d="M 87.643072 373.011665 
L 87.643072 374.812382 
L 91.641198 373.011665 
L 91.641198 374.812382 
L 98.302737 373.011665 
L 98.302737 374.812382 
L 102.453429 373.011665 
L 102.453429 374.812382 
L 106.451556 373.011665 
L 106.451556 374.812382 
L 113.64436 373.011665 
L 113.64436 374.812382 
L 117.642486 373.011665 
L 117.642486 374.812382 
L 121.640612 373.011665 
L 121.640612 374.812382 
L 125.638739 373.011665 
L 125.638739 374.812382 
L 129.636865 373.011665 
L 129.636865 374.812382 
L 133.634992 373.011665 
L 133.634992 374.812382 
L 137.633118 373.011665 
L 137.633118 374.812382 
L 141.631244 373.011665 
L 141.631244 374.812382 
L 145.629371 373.011665 
L 145.629371 374.812382 
L 149.627497 373.011665 
L 149.627497 374.812382 
L 153.625624 373.011665 
L 153.625624 374.812382 
L 157.62375 373.011665 
L 157.62375 374.812382 
L 161.621876 373.011665 
L 161.621876 374.812382 
L 165.620003 373.011665 
L 165.620003 374.812382 
L 180.350448 373.011665 
L 180.350448 374.812382 
L 184.348575 373.011665 
L 184.348575 374.812382 
L 188.888309 373.011665 
L 188.888309 374.812382 
L 192.972123 373.011665 
L 192.972123 374.812382 
L 196.970249 373.011665 
L 196.970249 374.812382 
L 208.032032 373.011665 
L 208.032032 374.812382 
L 212.030158 373.011665 
L 212.030158 374.812382 
L 216.547839 373.011665 
L 216.547839 374.812382 
L 220.545966 373.011665 
L 220.545966 374.812382 
L 224.544092 373.011665 
L 224.544092 374.812382 
L 228.542219 373.011665 
L 228.542219 374.812382 
L 232.540345 373.011665 
L 232.540345 374.812382 
L 236.538471 373.011665 
L 236.538471 374.812382 
L 240.536598 373.011665 
L 240.536598 374.812382 
L 244.534724 373.011665 
L 244.534724 374.812382 
L 248.532851 373.011665 
L 248.532851 374.812382 
L 252.530977 373.011665 
L 252.530977 374.812382 
L 256.529103 373.011665 
L 256.529103 374.812382 
L 260.52723 373.011665 
L 260.52723 374.812382 
L 266.28297 373.011665 
L 266.28297 374.812382 
L 270.281096 373.011665 
L 270.281096 374.812382 
L 274.279222 373.011665 
L 274.279222 374.812382 
L 278.277349 373.011665 
L 278.277349 374.812382 
L 282.275475 373.011665 
L 282.275475 374.812382 
L 286.273602 373.011665 
L 286.273602 374.812382 
L 290.271728 373.011665 
L 290.271728 374.812382 
L 294.269854 373.011665 
L 294.269854 374.812382 
L 298.267981 373.011665 
L 298.267981 374.812382 
L 302.266107 373.011665 
L 302.266107 374.812382 
L 306.264234 373.011665 
L 306.264234 374.812382 
L 310.26236 373.011665 
L 310.26236 374.812382 
L 314.260486 373.011665 
L 314.260486 374.812382 
L 318.258613 373.011665 
L 318.258613 374.812382 
L 322.624461 373.011665 
L 322.624461 374.812382 
L 326.622587 373.011665 
L 326.622587 374.812382 
L 330.620713 373.011665 
L 330.620713 374.812382 
L 334.61884 373.011665 
L 334.61884 374.812382 
L 338.616966 373.011665 
L 338.616966 374.812382 
L 342.615093 373.011665 
L 342.615093 374.812382 
L 346.613219 373.011665 
L 346.613219 374.812382 
L 350.611345 373.011665 
L 350.611345 374.812382 
L 354.609472 373.011665 
L 354.609472 374.812382 
L 358.607598 373.011665 
L 358.607598 374.812382 
L 362.605725 373.011665 
L 362.605725 374.812382 
L 369.24517 373.011665 
L 369.24517 374.812382 
L 373.243297 373.011665 
L 373.243297 374.812382 
L 377.241423 373.011665 
L 377.241423 374.812382 
L 389.662992 373.011665 
L 389.662992 374.812382 
L 393.661118 373.011665 
L 393.661118 374.812382 
L 397.659245 373.011665 
L 397.659245 374.812382 
L 401.657371 373.011665 
L 401.657371 374.812382 
L 405.655498 373.011665 
L 405.655498 374.812382 
L 409.653624 373.011665 
L 409.653624 374.812382 
L 413.65175 373.011665 
L 413.65175 374.812382 
L 417.649877 373.011665 
L 417.649877 374.812382 
L 421.648003 373.011665 
L 421.648003 374.812382 
L 425.64613 373.011665 
L 425.64613 374.812382 
L 429.644256 373.011665 
L 429.644256 374.812382 
L 433.642382 373.011665 
L 433.642382 374.812382 
L 437.640509 373.011665 
L 437.640509 374.812382 
L 441.638635 373.011665 
L 441.638635 374.812382 
L 445.636762 373.011665 
L 445.636762 374.812382 
L 449.634888 373.011665 
L 449.634888 374.812382 
L 453.633014 373.011665 
L 453.633014 374.812382 
L 457.631141 373.011665 
L 457.631141 374.812382 
L 461.629267 373.011665 
L 461.629267 374.812382 
L 465.627394 373.011665 
L 465.627394 374.812382 
L 469.62552 373.011665 
L 469.62552 374.812382 
L 473.623646 373.011665 
L 473.623646 374.812382 
L 477.621773 373.011665 
L 477.621773 374.812382 
L 481.619899 373.011665 
L 481.619899 374.812382 
L 485.618026 373.011665 
L 485.618026 374.812382 
L 489.616152 373.011665 
L 489.616152 374.812382 
L 493.614278 373.011665 
L 493.614278 374.812382 
L 497.612405 373.011665 
L 497.612405 374.812382 
L 501.610531 373.011665 
L 501.610531 374.812382 
L 505.608658 373.011665 
L 505.608658 374.812382 
L 509.606784 373.011665 
L 509.606784 374.812382 
L 513.60491 373.011665 
L 513.60491 374.812382 
L 517.603037 373.011665 
L 517.603037 374.812382 
L 521.601163 373.011665 
L 521.601163 374.812382 
L 525.59929 373.011665 
L 525.59929 374.812382 
L 529.597416 373.011665 
L 529.597416 374.812382 
L 533.595542 373.011665 
L 533.595542 374.812382 
L 537.593669 373.011665 
L 537.593669 374.812382 
L 541.591795 373.011665 
L 541.591795 374.812382 
L 545.589922 373.011665 
L 545.589922 374.812382 
L 549.588048 373.011665 
L 549.588048 374.812382 
L 553.586174 373.011665 
L 553.586174 374.812382 
L 557.584301 373.011665 
L 557.584301 374.812382 
L 561.582427 373.011665 
L 561.582427 374.812382 
L 565.580554 373.011665 
L 565.580554 374.812382 
L 569.57868 373.011665 
L 569.57868 374.812382 
L 573.576806 373.011665 
L 573.576806 374.812382 
L 577.574933 373.011665 
L 577.574933 374.812382 
L 581.573059 373.011665 
L 581.573059 374.812382 
L 585.571186 373.011665 
L 585.571186 374.812382 
L 590.565186 373.011665 
L 590.565186 374.812382 
L 594.563312 373.011665 
L 594.563312 374.812382 
L 598.561439 373.011665 
L 598.561439 374.812382 
L 602.559565 373.011665 
L 602.559565 374.812382 
L 606.557692 373.011665 
L 606.557692 374.812382 
L 610.555818 373.011665 
L 610.555818 374.812382 
L 614.553944 373.011665 
L 614.553944 374.812382 
L 618.552071 373.011665 
L 618.552071 374.812382 
L 622.550197 373.011665 
L 622.550197 374.812382 
L 626.548324 373.011665 
L 626.548324 374.812382 
L 630.54645 373.011665 
L 630.54645 374.812382 
L 634.544576 373.011665 
L 634.544576 374.812382 
L 638.542703 373.011665 
L 638.542703 374.812382 
L 642.540829 373.011665 
L 642.540829 374.812382 
L 646.538956 373.011665 
L 646.538956 374.812382 
L 650.537082 373.011665 
L 650.537082 374.812382 
L 654.535208 373.011665 
L 654.535208 374.812382 
L 658.533335 373.011665 
L 658.533335 374.812382 
L 662.531461 373.011665 
L 662.531461 374.812382 
L 666.529588 373.011665 
L 666.529588 374.812382 
L 670.527714 373.011665 
L 670.527714 374.812382 
L 674.52584 373.011665 
L 674.52584 374.812382 
L 678.523967 373.011665 
L 678.523967 374.812382 
L 682.522093 373.011665 
L 682.522093 374.812382 
L 686.52022 373.011665 
L 686.52022 374.812382 
L 690.518346 373.011665 
L 690.518346 374.812382 
L 694.516472 373.011665 
L 694.516472 374.812382 
L 698.514599 373.011665 
L 698.514599 374.812382 
L 702.512725 373.011665 
L 702.512725 374.812382 
L 706.510852 373.011665 
L 706.510852 374.812382 
L 710.508978 373.011665 
L 710.508978 374.812382 
L 714.507104 373.011665 
L 714.507104 374.812382 
L 718.505231 373.011665 
L 718.505231 374.812382 
L 722.503357 373.011665 
L 722.503357 374.812382 
L 726.501484 373.011665 
L 726.501484 374.812382 
L 730.49961 373.011665 
L 730.49961 374.812382 
L 734.497736 373.011665 
L 734.497736 374.812382 
L 738.495863 373.011665 
L 738.495863 374.812382 
L 742.493989 373.011665 
L 742.493989 374.812382 
L 746.492116 373.011665 
L 746.492116 374.812382 
L 750.490242 373.011665 
L 750.490242 374.812382 
L 754.488368 373.011665 
L 754.488368 374.812382 
L 758.486495 373.011665 
L 758.486495 374.812382 
L 762.484621 373.011665 
L 762.484621 374.812382 
L 766.482748 373.011665 
L 766.482748 374.812382 
L 770.480874 373.011665 
L 770.480874 374.812382 
L 774.479 373.011665 
L 774.479 374.812382 
L 778.477127 373.011665 
L 778.477127 374.812382 
L 782.475253 373.011665 
L 782.475253 374.812382 
L 786.47338 373.011665 
L 786.47338 374.812382 
L 790.471506 373.011665 
L 790.471506 374.812382 
L 794.469632 373.011665 
L 794.469632 374.812382 
L 798.467759 373.011665 
L 798.467759 374.812382 
L 802.465885 373.011665 
L 802.465885 374.812382 
L 806.464012 373.011665 
L 806.464012 374.812382 
L 810.462138 373.011665 
L 810.462138 374.812382 
L 814.460264 373.011665 
L 814.460264 374.812382 
L 818.458391 373.011665 
L 818.458391 374.812382 
L 822.456517 373.011665 
L 822.456517 374.812382 
L 826.454644 373.011665 
L 826.454644 374.812382 
L 830.45277 373.011665 
L 830.45277 374.812382 
L 834.450896 373.011665 
L 834.450896 374.812382 
L 838.449023 373.011665 
L 838.449023 374.812382 
L 842.447149 373.011665 
L 842.447149 374.812382 
L 846.445276 373.011665 
L 846.445276 374.812382 
L 850.443402 373.011665 
L 850.443402 374.812382 
L 854.441528 373.011665 
L 854.441528 374.812382 
L 858.439655 373.011665 
L 858.439655 374.812382 
L 862.437781 373.011665 
L 862.437781 374.812382 
L 866.435908 373.011665 
L 866.435908 374.812382 
L 874.431492 373.011665 
L 874.431492 374.812382 
L 874.431492 374.812382 
" clip-path="url(#pf513025e58)" style="fill: none; stroke: #55a868; stroke-width: 1.5; stroke-linecap: round"/>
   </g>
   <g id="line2d_20">
    <path d="M 83.644546 373.011665 
L 83.644546 374.812382 
L 86.791875 373.011665 
L 87.642672 374.812382 
L 94.304211 373.011665 
L 94.304211 374.812382 
L 98.454903 373.011665 
L 98.454903 374.812382 
L 100.755902 373.011665 
L 102.45303 374.812382 
L 109.645833 373.011665 
L 109.645833 374.812382 
L 110.918662 373.011665 
L 112.852164 371.210949 
L 113.64396 373.011665 
L 115.448732 371.210949 
L 117.642086 373.011665 
L 121.640213 374.812382 
L 122.134444 373.011665 
L 124.748749 371.210949 
L 125.638339 373.011665 
L 126.743303 371.210949 
L 129.636465 373.011665 
L 133.634592 374.812382 
L 137.131451 373.011665 
L 137.213115 371.210949 
L 137.632718 373.011665 
L 139.049247 371.210949 
L 141.630845 373.011665 
L 145.628971 374.812382 
L 146.195849 373.011665 
L 149.627097 374.812382 
L 152.216165 373.011665 
L 152.820805 371.210949 
L 153.625224 373.011665 
L 157.62335 374.812382 
L 160.978239 373.011665 
L 161.621477 374.812382 
L 176.351922 373.011665 
L 176.351922 374.812382 
L 178.82648 373.011665 
L 180.350048 374.812382 
L 184.889783 373.011665 
L 184.889783 374.812382 
L 188.973596 373.011665 
L 188.973596 374.812382 
L 192.461247 373.011665 
L 192.971723 374.812382 
L 204.033506 373.011665 
L 204.033506 374.812382 
L 206.599082 373.011665 
L 208.031632 374.812382 
L 212.549313 373.011665 
L 212.549313 374.812382 
L 213.52505 373.011665 
L 216.54744 374.812382 
L 216.884814 373.011665 
L 217.533056 371.210949 
L 220.545566 373.011665 
L 221.319269 371.210949 
L 224.543692 373.011665 
L 225.155663 371.210949 
L 228.541819 373.011665 
L 232.539945 374.812382 
L 234.466953 373.011665 
L 236.538072 374.812382 
L 239.045363 373.011665 
L 240.536198 374.812382 
L 242.841563 373.011665 
L 244.534324 374.812382 
L 247.623753 373.011665 
L 248.041802 371.210949 
L 248.290147 369.410232 
L 248.532451 371.210949 
L 256.528704 374.812382 
L 262.284443 373.011665 
L 262.284443 374.812382 
L 263.033796 373.011665 
L 263.978181 371.210949 
L 265.750966 369.410232 
L 266.28257 371.210949 
L 267.266104 369.410232 
L 270.280696 371.210949 
L 271.008596 369.410232 
L 272.58031 367.609516 
L 272.736969 365.808799 
L 274.278823 367.609516 
L 275.045185 365.808799 
L 278.276949 367.609516 
L 279.066784 365.808799 
L 282.275075 367.609516 
L 290.271328 371.210949 
L 291.832589 369.410232 
L 292.262927 367.609516 
L 294.269455 369.410232 
L 296.492251 367.609516 
L 297.195576 365.808799 
L 298.267581 367.609516 
L 314.260087 374.812382 
L 318.625934 373.011665 
L 318.625934 374.812382 
L 319.31812 373.011665 
L 319.785722 371.210949 
L 322.624061 373.011665 
L 325.8018 369.410232 
L 326.622187 371.210949 
L 326.676912 369.410232 
L 338.616566 374.812382 
L 338.674707 371.210949 
L 339.083096 369.410232 
L 342.614693 371.210949 
L 342.981676 369.410232 
L 346.612819 371.210949 
L 350.257542 369.410232 
L 350.610946 371.210949 
L 358.607198 374.812382 
L 365.246644 373.011665 
L 365.246644 374.812382 
L 367.774806 373.011665 
L 369.24477 374.812382 
L 370.623805 373.011665 
L 373.242897 374.812382 
L 385.664466 373.011665 
L 385.664466 374.812382 
L 386.993484 373.011665 
L 387.505471 371.210949 
L 389.286314 369.410232 
L 389.662592 371.210949 
L 390.690361 369.410232 
L 393.311717 367.609516 
L 393.660719 369.410232 
L 393.817035 367.609516 
L 397.658845 369.410232 
L 398.482343 367.609516 
L 400.01243 365.808799 
L 401.656971 367.609516 
L 405.655098 369.410232 
L 408.505399 367.609516 
L 408.770464 365.808799 
L 409.653224 367.609516 
L 409.747588 365.808799 
L 413.651351 367.609516 
L 414.462137 365.808799 
L 417.649477 367.609516 
L 417.80496 365.808799 
L 419.038042 364.008083 
L 421.647603 365.808799 
L 421.881701 364.008083 
L 424.843349 362.207366 
L 425.64573 364.008083 
L 433.641983 367.609516 
L 434.781021 365.808799 
L 437.640109 367.609516 
L 438.210997 365.808799 
L 439.511749 364.008083 
L 441.045271 362.207366 
L 441.082856 360.40665 
L 441.638235 362.207366 
L 445.484177 360.40665 
L 445.636362 362.207366 
L 449.634488 364.008083 
L 452.870027 362.207366 
L 453.632615 364.008083 
L 457.630741 365.808799 
L 460.231707 364.008083 
L 461.628867 365.808799 
L 462.259557 364.008083 
L 465.477239 362.207366 
L 465.626994 364.008083 
L 467.323297 362.207366 
L 467.342115 360.40665 
L 467.975184 358.605933 
L 469.62512 360.40665 
L 472.503598 358.605933 
L 473.623247 360.40665 
L 473.761895 358.605933 
L 477.621373 360.40665 
L 478.625651 358.605933 
L 479.9864 356.805216 
L 481.619499 358.605933 
L 489.615752 362.207366 
L 493.080836 360.40665 
L 493.613879 362.207366 
L 496.66552 360.40665 
L 497.612005 362.207366 
L 500.060812 360.40665 
L 501.610131 362.207366 
L 504.133539 360.40665 
L 505.608258 362.207366 
L 509.606384 364.008083 
L 513.015404 362.207366 
L 513.604511 364.008083 
L 517.571701 362.207366 
L 517.602637 364.008083 
L 519.956101 362.207366 
L 521.600763 364.008083 
L 533.595143 369.410232 
L 535.320927 367.609516 
L 537.593269 369.410232 
L 541.591395 371.210949 
L 542.041466 369.410232 
L 545.589522 371.210949 
L 546.540486 369.410232 
L 547.68959 367.609516 
L 549.587648 369.410232 
L 552.672353 365.808799 
L 553.585775 367.609516 
L 565.580154 373.011665 
L 566.123531 371.210949 
L 569.57828 373.011665 
L 571.288748 371.210949 
L 573.576407 373.011665 
L 574.070642 371.210949 
L 577.574533 373.011665 
L 581.572659 374.812382 
L 586.56666 373.011665 
L 586.56666 374.812382 
L 590.294524 373.011665 
L 590.372007 371.210949 
L 590.564786 373.011665 
L 592.911328 371.210949 
L 594.562913 373.011665 
L 597.945143 371.210949 
L 598.561039 373.011665 
L 599.303166 371.210949 
L 601.236802 369.410232 
L 602.559165 371.210949 
L 606.557292 373.011665 
L 606.766128 371.210949 
L 607.348151 369.410232 
L 607.782136 367.609516 
L 609.198369 365.808799 
L 609.585878 364.008083 
L 610.555418 365.808799 
L 612.959851 364.008083 
L 614.553545 365.808799 
L 614.707144 364.008083 
L 617.915849 362.207366 
L 618.052598 360.40665 
L 618.551671 362.207366 
L 622.286652 360.40665 
L 622.549797 362.207366 
L 626.508072 360.40665 
L 626.547924 362.207366 
L 628.055867 360.40665 
L 630.313251 358.605933 
L 630.54605 360.40665 
L 631.313109 358.605933 
L 634.544177 360.40665 
L 638.542303 362.207366 
L 640.383394 360.40665 
L 642.540429 362.207366 
L 646.538556 364.008083 
L 649.278884 362.207366 
L 650.484583 360.40665 
L 650.536682 362.207366 
L 654.534809 364.008083 
L 657.045099 362.207366 
L 658.532935 364.008083 
L 661.910896 362.207366 
L 662.330227 360.40665 
L 662.531061 362.207366 
L 664.066796 360.40665 
L 666.529188 362.207366 
L 669.074879 360.40665 
L 670.527314 362.207366 
L 671.607543 360.40665 
L 674.525441 362.207366 
L 698.514199 373.011665 
L 698.656429 371.210949 
L 701.494771 369.410232 
L 702.224583 367.609516 
L 702.512325 369.410232 
L 702.753071 367.609516 
L 706.510452 369.410232 
L 710.285256 367.609516 
L 710.508578 369.410232 
L 714.506705 371.210949 
L 716.869047 369.410232 
L 718.504831 371.210949 
L 720.234994 369.410232 
L 720.370078 367.609516 
L 720.656645 365.808799 
L 722.502957 367.609516 
L 734.497337 373.011665 
L 736.848445 371.210949 
L 737.055998 369.410232 
L 738.495463 371.210949 
L 742.493589 373.011665 
L 745.103317 371.210949 
L 745.170357 369.410232 
L 746.491716 371.210949 
L 750.489842 373.011665 
L 752.913038 371.210949 
L 753.961863 369.410232 
L 754.008974 367.609516 
L 754.487969 369.410232 
L 758.486095 371.210949 
L 759.797438 369.410232 
L 762.484221 371.210949 
L 765.032178 369.410232 
L 766.482348 371.210949 
L 770.480474 373.011665 
L 770.574746 371.210949 
L 773.263328 369.410232 
L 774.478601 371.210949 
L 774.918469 369.410232 
L 774.993215 367.609516 
L 775.74294 365.808799 
L 778.232163 364.008083 
L 778.476727 365.808799 
L 779.245711 364.008083 
L 782.474853 365.808799 
L 786.47298 367.609516 
L 787.545945 365.808799 
L 790.471106 367.609516 
L 794.469233 369.410232 
L 798.069889 367.609516 
L 798.467359 369.410232 
L 802.465485 371.210949 
L 802.942793 369.410232 
L 803.662285 367.609516 
L 806.433785 365.808799 
L 806.463612 367.609516 
L 810.317894 365.808799 
L 810.461738 367.609516 
L 814.459865 369.410232 
L 815.119527 367.609516 
L 818.457991 369.410232 
L 822.456117 371.210949 
L 825.999821 369.410232 
L 826.454244 371.210949 
L 827.24311 369.410232 
L 830.45237 371.210949 
L 831.048645 369.410232 
L 834.450497 371.210949 
L 835.592902 369.410232 
L 838.448623 371.210949 
L 839.156746 369.410232 
L 842.446749 371.210949 
L 844.712851 369.410232 
L 846.444876 371.210949 
L 854.441129 374.812382 
L 858.058334 373.011665 
L 858.439255 374.812382 
L 858.882076 373.011665 
L 862.437381 374.812382 
L 870.432966 373.011665 
L 870.432966 374.812382 
L 873.128681 373.011665 
L 874.160248 371.210949 
L 874.431092 373.011665 
L 874.431092 373.011665 
" clip-path="url(#pf513025e58)" style="fill: none; stroke: #c44e52; stroke-width: 1.5; stroke-linecap: round"/>
   </g>
   <g id="line2d_21">
    <path d="M 87.799223 373.011665 
L 87.799223 374.812382 
L 91.79735 373.011665 
L 91.79735 374.812382 
L 99.292911 373.011665 
L 99.292911 374.812382 
L 103.291038 373.011665 
L 103.291038 374.812382 
L 107.289164 373.011665 
L 107.289164 374.812382 
L 111.28729 373.011665 
L 111.28729 374.812382 
L 115.285417 373.011665 
L 115.285417 374.812382 
L 119.283543 373.011665 
L 119.283543 374.812382 
L 123.28167 373.011665 
L 123.28167 374.812382 
L 127.279796 373.011665 
L 127.279796 374.812382 
L 131.277922 373.011665 
L 131.277922 374.812382 
L 135.276049 373.011665 
L 135.276049 374.812382 
L 139.274175 373.011665 
L 139.274175 374.812382 
L 143.272302 373.011665 
L 143.272302 374.812382 
L 147.270428 373.011665 
L 147.270428 374.812382 
L 151.268554 373.011665 
L 151.268554 374.812382 
L 155.266681 373.011665 
L 155.266681 374.812382 
L 159.264807 373.011665 
L 159.264807 374.812382 
L 163.262934 373.011665 
L 163.262934 374.812382 
L 167.26106 373.011665 
L 167.26106 374.812382 
L 171.259186 373.011665 
L 171.259186 374.812382 
L 175.257313 373.011665 
L 175.257313 374.812382 
L 179.255439 373.011665 
L 179.255439 374.812382 
L 183.253566 373.011665 
L 183.253566 374.812382 
L 187.251692 373.011665 
L 187.251692 374.812382 
L 191.249818 373.011665 
L 191.249818 374.812382 
L 195.247945 373.011665 
L 195.247945 374.812382 
L 199.246071 373.011665 
L 199.246071 374.812382 
L 203.244198 373.011665 
L 203.244198 374.812382 
L 207.242324 373.011665 
L 207.242324 374.812382 
L 211.24045 373.011665 
L 211.24045 374.812382 
L 215.238577 373.011665 
L 215.238577 374.812382 
L 219.236703 373.011665 
L 219.236703 374.812382 
L 223.23483 373.011665 
L 223.23483 374.812382 
L 227.232956 373.011665 
L 227.232956 374.812382 
L 231.231082 373.011665 
L 231.231082 374.812382 
L 235.229209 373.011665 
L 235.229209 374.812382 
L 239.227335 373.011665 
L 239.227335 374.812382 
L 243.225462 373.011665 
L 243.225462 374.812382 
L 247.223588 373.011665 
L 247.223588 374.812382 
L 251.221714 373.011665 
L 251.221714 374.812382 
L 255.219841 373.011665 
L 255.219841 374.812382 
L 259.217967 373.011665 
L 259.217967 374.812382 
L 263.216094 373.011665 
L 263.216094 374.812382 
L 267.21422 373.011665 
L 267.21422 374.812382 
L 271.212346 373.011665 
L 271.212346 374.812382 
L 275.210473 373.011665 
L 275.210473 374.812382 
L 279.208599 373.011665 
L 279.208599 374.812382 
L 283.206726 373.011665 
L 283.206726 374.812382 
L 287.204852 373.011665 
L 287.204852 374.812382 
L 291.202978 373.011665 
L 291.202978 374.812382 
L 295.201105 373.011665 
L 295.201105 374.812382 
L 299.199231 373.011665 
L 299.199231 374.812382 
L 303.197358 373.011665 
L 303.197358 374.812382 
L 307.195484 373.011665 
L 307.195484 374.812382 
L 311.19361 373.011665 
L 311.19361 374.812382 
L 315.191737 373.011665 
L 315.191737 374.812382 
L 319.189863 373.011665 
L 319.189863 374.812382 
L 323.18799 373.011665 
L 323.18799 374.812382 
L 327.186116 373.011665 
L 327.186116 374.812382 
L 331.184242 373.011665 
L 331.184242 374.812382 
L 335.182369 373.011665 
L 335.182369 374.812382 
L 339.180495 373.011665 
L 339.180495 374.812382 
L 343.178622 373.011665 
L 343.178622 374.812382 
L 347.176748 373.011665 
L 347.176748 374.812382 
L 351.174874 373.011665 
L 351.174874 374.812382 
L 355.173001 373.011665 
L 355.173001 374.812382 
L 359.171127 373.011665 
L 359.171127 374.812382 
L 363.169254 373.011665 
L 363.169254 374.812382 
L 367.16738 373.011665 
L 367.16738 374.812382 
L 371.165506 373.011665 
L 371.165506 374.812382 
L 375.163633 373.011665 
L 375.163633 374.812382 
L 379.161759 373.011665 
L 379.161759 374.812382 
L 383.159886 373.011665 
L 383.159886 374.812382 
L 387.158012 373.011665 
L 387.158012 374.812382 
L 391.156138 373.011665 
L 391.156138 374.812382 
L 395.154265 373.011665 
L 395.154265 374.812382 
L 399.152391 373.011665 
L 399.152391 374.812382 
L 403.150518 373.011665 
L 403.150518 374.812382 
L 407.148644 373.011665 
L 407.148644 374.812382 
L 411.14677 373.011665 
L 411.14677 374.812382 
L 415.144897 373.011665 
L 415.144897 374.812382 
L 419.143023 373.011665 
L 419.143023 374.812382 
L 423.14115 373.011665 
L 423.14115 374.812382 
L 427.139276 373.011665 
L 427.139276 374.812382 
L 431.137402 373.011665 
L 431.137402 374.812382 
L 435.135529 373.011665 
L 435.135529 374.812382 
L 439.133655 373.011665 
L 439.133655 374.812382 
L 443.131782 373.011665 
L 443.131782 374.812382 
L 447.129908 373.011665 
L 447.129908 374.812382 
L 451.128034 373.011665 
L 451.128034 374.812382 
L 455.126161 373.011665 
L 455.126161 374.812382 
L 459.124287 373.011665 
L 459.124287 374.812382 
L 463.122414 373.011665 
L 463.122414 374.812382 
L 467.12054 373.011665 
L 467.12054 374.812382 
L 471.118666 373.011665 
L 471.118666 374.812382 
L 475.116793 373.011665 
L 475.116793 374.812382 
L 479.114919 373.011665 
L 479.114919 374.812382 
L 483.113046 373.011665 
L 483.113046 374.812382 
L 487.111172 373.011665 
L 487.111172 374.812382 
L 491.109298 373.011665 
L 491.109298 374.812382 
L 495.107425 373.011665 
L 495.107425 374.812382 
L 499.105551 373.011665 
L 499.105551 374.812382 
L 503.103678 373.011665 
L 503.103678 374.812382 
L 507.101804 373.011665 
L 507.101804 374.812382 
L 511.09993 373.011665 
L 511.09993 374.812382 
L 515.098057 373.011665 
L 515.098057 374.812382 
L 519.096183 373.011665 
L 519.096183 374.812382 
L 523.09431 373.011665 
L 523.09431 374.812382 
L 527.092436 373.011665 
L 527.092436 374.812382 
L 531.090562 373.011665 
L 531.090562 374.812382 
L 535.088689 373.011665 
L 535.088689 374.812382 
L 539.086815 373.011665 
L 539.086815 374.812382 
L 543.084941 373.011665 
L 543.084941 374.812382 
L 547.083068 373.011665 
L 547.083068 374.812382 
L 551.081194 373.011665 
L 551.081194 374.812382 
L 555.079321 373.011665 
L 555.079321 374.812382 
L 559.077447 373.011665 
L 559.077447 374.812382 
L 563.075573 373.011665 
L 563.075573 374.812382 
L 567.0737 373.011665 
L 567.0737 374.812382 
L 571.071826 373.011665 
L 571.071826 374.812382 
L 575.069953 373.011665 
L 575.069953 374.812382 
L 579.068079 373.011665 
L 579.068079 374.812382 
L 583.066205 373.011665 
L 583.066205 374.812382 
L 587.064332 373.011665 
L 587.064332 374.812382 
L 591.062458 373.011665 
L 591.062458 374.812382 
L 595.060585 373.011665 
L 595.060585 374.812382 
L 599.058711 373.011665 
L 599.058711 374.812382 
L 603.056837 373.011665 
L 603.056837 374.812382 
L 607.054964 373.011665 
L 607.054964 374.812382 
L 611.05309 373.011665 
L 611.05309 374.812382 
L 615.051217 373.011665 
L 615.051217 374.812382 
L 619.049343 373.011665 
L 619.049343 374.812382 
L 623.047469 373.011665 
L 623.047469 374.812382 
L 627.045596 373.011665 
L 627.045596 374.812382 
L 631.043722 373.011665 
L 631.043722 374.812382 
L 635.041849 373.011665 
L 635.041849 374.812382 
L 639.039975 373.011665 
L 639.039975 374.812382 
L 643.038101 373.011665 
L 643.038101 374.812382 
L 647.036228 373.011665 
L 647.036228 374.812382 
L 651.034354 373.011665 
L 651.034354 374.812382 
L 655.032481 373.011665 
L 655.032481 374.812382 
L 659.030607 373.011665 
L 659.030607 374.812382 
L 663.028733 373.011665 
L 663.028733 374.812382 
L 667.02686 373.011665 
L 667.02686 374.812382 
L 671.024986 373.011665 
L 671.024986 374.812382 
L 675.023113 373.011665 
L 675.023113 374.812382 
L 679.021239 373.011665 
L 679.021239 374.812382 
L 683.019365 373.011665 
L 683.019365 374.812382 
L 687.017492 373.011665 
L 687.017492 374.812382 
L 691.015618 373.011665 
L 691.015618 374.812382 
L 695.013745 373.011665 
L 695.013745 374.812382 
L 699.011871 373.011665 
L 699.011871 374.812382 
L 703.009997 373.011665 
L 703.009997 374.812382 
L 707.008124 373.011665 
L 707.008124 374.812382 
L 711.00625 373.011665 
L 711.00625 374.812382 
L 715.004377 373.011665 
L 715.004377 374.812382 
L 719.002503 373.011665 
L 719.002503 374.812382 
L 723.000629 373.011665 
L 723.000629 374.812382 
L 726.998756 373.011665 
L 726.998756 374.812382 
L 730.996882 373.011665 
L 730.996882 374.812382 
L 734.995009 373.011665 
L 734.995009 374.812382 
L 738.993135 373.011665 
L 738.993135 374.812382 
L 742.991261 373.011665 
L 742.991261 374.812382 
L 746.989388 373.011665 
L 746.989388 374.812382 
L 750.987514 373.011665 
L 750.987514 374.812382 
L 754.985641 373.011665 
L 754.985641 374.812382 
L 758.983767 373.011665 
L 758.983767 374.812382 
L 762.981893 373.011665 
L 762.981893 374.812382 
L 766.98002 373.011665 
L 766.98002 374.812382 
L 770.978146 373.011665 
L 770.978146 374.812382 
L 774.976273 373.011665 
L 774.976273 374.812382 
L 778.974399 373.011665 
L 778.974399 374.812382 
L 782.972525 373.011665 
L 782.972525 374.812382 
L 786.970652 373.011665 
L 786.970652 374.812382 
L 790.968778 373.011665 
L 790.968778 374.812382 
L 794.966905 373.011665 
L 794.966905 374.812382 
L 798.965031 373.011665 
L 798.965031 374.812382 
L 802.963157 373.011665 
L 802.963157 374.812382 
L 806.961284 373.011665 
L 806.961284 374.812382 
L 810.95941 373.011665 
L 810.95941 374.812382 
L 814.957537 373.011665 
L 814.957537 374.812382 
L 818.955663 373.011665 
L 818.955663 374.812382 
L 822.953789 373.011665 
L 822.953789 374.812382 
L 826.951916 373.011665 
L 826.951916 374.812382 
L 830.950042 373.011665 
L 830.950042 374.812382 
L 834.948169 373.011665 
L 834.948169 374.812382 
L 838.946295 373.011665 
L 838.946295 374.812382 
L 842.944421 373.011665 
L 842.944421 374.812382 
L 846.942548 373.011665 
L 846.942548 374.812382 
L 850.940674 373.011665 
L 850.940674 374.812382 
L 854.938801 373.011665 
L 854.938801 374.812382 
L 858.936927 373.011665 
L 858.936927 374.812382 
L 862.935053 373.011665 
L 862.935053 374.812382 
L 866.93318 373.011665 
L 866.93318 374.812382 
L 870.931306 373.011665 
L 870.931306 374.812382 
L 874.929433 373.011665 
L 874.929433 374.812382 
L 874.929433 374.812382 
" clip-path="url(#pf513025e58)" style="fill: none; stroke: #8172b2; stroke-width: 1.5; stroke-linecap: round"/>
   </g>
   <g id="line2d_22">
    <path d="M 83.800697 373.011665 
L 83.800697 374.812382 
L 87.798824 373.011665 
L 87.798824 374.812382 
L 95.294385 373.011665 
L 95.294385 374.812382 
L 99.292511 373.011665 
L 99.292511 374.812382 
L 103.290638 373.011665 
L 103.290638 374.812382 
L 107.288764 373.011665 
L 107.288764 374.812382 
L 111.286891 373.011665 
L 111.286891 374.812382 
L 115.285017 373.011665 
L 115.285017 374.812382 
L 119.283143 373.011665 
L 119.283143 374.812382 
L 123.28127 373.011665 
L 123.28127 374.812382 
L 127.279396 373.011665 
L 127.279396 374.812382 
L 131.277523 373.011665 
L 131.277523 374.812382 
L 135.275649 373.011665 
L 135.275649 374.812382 
L 139.273775 373.011665 
L 139.273775 374.812382 
L 143.271902 373.011665 
L 143.271902 374.812382 
L 147.270028 373.011665 
L 147.270028 374.812382 
L 151.268155 373.011665 
L 151.268155 374.812382 
L 155.266281 373.011665 
L 155.266281 374.812382 
L 159.264407 373.011665 
L 159.264407 374.812382 
L 163.262534 373.011665 
L 163.262534 374.812382 
L 167.26066 373.011665 
L 167.26066 374.812382 
L 171.258787 373.011665 
L 171.258787 374.812382 
L 175.256913 373.011665 
L 175.256913 374.812382 
L 179.255039 373.011665 
L 179.255039 374.812382 
L 183.253166 373.011665 
L 183.253166 374.812382 
L 187.251292 373.011665 
L 187.251292 374.812382 
L 191.249419 373.011665 
L 191.249419 374.812382 
L 195.247545 373.011665 
L 195.247545 374.812382 
L 199.245671 373.011665 
L 199.245671 374.812382 
L 203.243798 373.011665 
L 203.243798 374.812382 
L 207.241924 373.011665 
L 207.241924 374.812382 
L 211.240051 373.011665 
L 211.240051 374.812382 
L 215.238177 373.011665 
L 215.238177 374.812382 
L 219.236303 373.011665 
L 219.236303 374.812382 
L 223.23443 373.011665 
L 223.23443 374.812382 
L 227.232556 373.011665 
L 227.232556 374.812382 
L 231.230683 373.011665 
L 231.230683 374.812382 
L 235.228809 373.011665 
L 235.228809 374.812382 
L 239.226935 373.011665 
L 239.226935 374.812382 
L 243.225062 373.011665 
L 243.225062 374.812382 
L 247.223188 373.011665 
L 247.223188 374.812382 
L 251.221315 373.011665 
L 251.221315 374.812382 
L 255.219441 373.011665 
L 255.219441 374.812382 
L 259.217567 373.011665 
L 259.217567 374.812382 
L 263.215694 373.011665 
L 263.215694 374.812382 
L 267.21382 373.011665 
L 267.21382 374.812382 
L 271.211947 373.011665 
L 271.211947 374.812382 
L 275.210073 373.011665 
L 275.210073 374.812382 
L 279.208199 373.011665 
L 279.208199 374.812382 
L 283.206326 373.011665 
L 283.206326 374.812382 
L 287.204452 373.011665 
L 287.204452 374.812382 
L 291.202579 373.011665 
L 291.202579 374.812382 
L 295.200705 373.011665 
L 295.200705 374.812382 
L 299.198831 373.011665 
L 299.198831 374.812382 
L 303.196958 373.011665 
L 303.196958 374.812382 
L 307.195084 373.011665 
L 307.195084 374.812382 
L 311.193211 373.011665 
L 311.193211 374.812382 
L 315.191337 373.011665 
L 315.191337 374.812382 
L 319.189463 373.011665 
L 319.189463 374.812382 
L 323.18759 373.011665 
L 323.18759 374.812382 
L 327.185716 373.011665 
L 327.185716 374.812382 
L 331.183843 373.011665 
L 331.183843 374.812382 
L 335.181969 373.011665 
L 335.181969 374.812382 
L 339.180095 373.011665 
L 339.180095 374.812382 
L 343.178222 373.011665 
L 343.178222 374.812382 
L 347.176348 373.011665 
L 347.176348 374.812382 
L 351.174475 373.011665 
L 351.174475 374.812382 
L 355.172601 373.011665 
L 355.172601 374.812382 
L 359.170727 373.011665 
L 359.170727 374.812382 
L 363.168854 373.011665 
L 363.168854 374.812382 
L 367.16698 373.011665 
L 367.16698 374.812382 
L 371.165107 373.011665 
L 371.165107 374.812382 
L 375.163233 373.011665 
L 375.163233 374.812382 
L 379.161359 373.011665 
L 379.161359 374.812382 
L 383.159486 373.011665 
L 383.159486 374.812382 
L 387.157612 373.011665 
L 387.157612 374.812382 
L 391.155739 373.011665 
L 391.155739 374.812382 
L 395.153865 373.011665 
L 395.153865 374.812382 
L 399.151991 373.011665 
L 399.151991 374.812382 
L 403.150118 373.011665 
L 403.150118 374.812382 
L 407.148244 373.011665 
L 407.148244 374.812382 
L 411.14637 373.011665 
L 411.14637 374.812382 
L 415.144497 373.011665 
L 415.144497 374.812382 
L 419.142623 373.011665 
L 419.142623 374.812382 
L 423.14075 373.011665 
L 423.14075 374.812382 
L 427.138876 373.011665 
L 427.138876 374.812382 
L 431.137002 373.011665 
L 431.137002 374.812382 
L 435.135129 373.011665 
L 435.135129 374.812382 
L 439.133255 373.011665 
L 439.133255 374.812382 
L 443.131382 373.011665 
L 443.131382 374.812382 
L 447.129508 373.011665 
L 447.129508 374.812382 
L 451.127634 373.011665 
L 451.127634 374.812382 
L 455.125761 373.011665 
L 455.125761 374.812382 
L 459.123887 373.011665 
L 459.123887 374.812382 
L 463.122014 373.011665 
L 463.122014 374.812382 
L 467.12014 373.011665 
L 467.12014 374.812382 
L 471.118266 373.011665 
L 471.118266 374.812382 
L 475.116393 373.011665 
L 475.116393 374.812382 
L 479.114519 373.011665 
L 479.114519 374.812382 
L 483.112646 373.011665 
L 483.112646 374.812382 
L 487.110772 373.011665 
L 487.110772 374.812382 
L 491.108898 373.011665 
L 491.108898 374.812382 
L 495.107025 373.011665 
L 495.107025 374.812382 
L 499.105151 373.011665 
L 499.105151 374.812382 
L 503.103278 373.011665 
L 503.103278 374.812382 
L 507.101404 373.011665 
L 507.101404 374.812382 
L 511.09953 373.011665 
L 511.09953 374.812382 
L 515.097657 373.011665 
L 515.097657 374.812382 
L 519.095783 373.011665 
L 519.095783 374.812382 
L 523.09391 373.011665 
L 523.09391 374.812382 
L 527.092036 373.011665 
L 527.092036 374.812382 
L 531.090162 373.011665 
L 531.090162 374.812382 
L 535.088289 373.011665 
L 535.088289 374.812382 
L 539.086415 373.011665 
L 539.086415 374.812382 
L 543.084542 373.011665 
L 543.084542 374.812382 
L 547.082668 373.011665 
L 547.082668 374.812382 
L 551.080794 373.011665 
L 551.080794 374.812382 
L 555.078921 373.011665 
L 555.078921 374.812382 
L 559.077047 373.011665 
L 559.077047 374.812382 
L 563.075174 373.011665 
L 563.075174 374.812382 
L 567.0733 373.011665 
L 567.0733 374.812382 
L 571.071426 373.011665 
L 571.071426 374.812382 
L 575.069553 373.011665 
L 575.069553 374.812382 
L 579.067679 373.011665 
L 579.067679 374.812382 
L 583.065806 373.011665 
L 583.065806 374.812382 
L 587.063932 373.011665 
L 587.063932 374.812382 
L 591.062058 373.011665 
L 591.062058 374.812382 
L 595.060185 373.011665 
L 595.060185 374.812382 
L 599.058311 373.011665 
L 599.058311 374.812382 
L 603.056438 373.011665 
L 603.056438 374.812382 
L 607.054564 373.011665 
L 607.054564 374.812382 
L 611.05269 373.011665 
L 611.05269 374.812382 
L 615.050817 373.011665 
L 615.050817 374.812382 
L 619.048943 373.011665 
L 619.048943 374.812382 
L 623.04707 373.011665 
L 623.04707 374.812382 
L 627.045196 373.011665 
L 627.045196 374.812382 
L 631.043322 373.011665 
L 631.043322 374.812382 
L 635.041449 373.011665 
L 635.041449 374.812382 
L 639.039575 373.011665 
L 639.039575 374.812382 
L 643.037702 373.011665 
L 643.037702 374.812382 
L 647.035828 373.011665 
L 647.035828 374.812382 
L 651.033954 373.011665 
L 651.033954 374.812382 
L 655.032081 373.011665 
L 655.032081 374.812382 
L 659.030207 373.011665 
L 659.030207 374.812382 
L 663.028334 373.011665 
L 663.028334 374.812382 
L 667.02646 373.011665 
L 667.02646 374.812382 
L 671.024586 373.011665 
L 671.024586 374.812382 
L 675.022713 373.011665 
L 675.022713 374.812382 
L 679.020839 373.011665 
L 679.020839 374.812382 
L 683.018966 373.011665 
L 683.018966 374.812382 
L 687.017092 373.011665 
L 687.017092 374.812382 
L 691.015218 373.011665 
L 691.015218 374.812382 
L 695.013345 373.011665 
L 695.013345 374.812382 
L 699.011471 373.011665 
L 699.011471 374.812382 
L 703.009598 373.011665 
L 703.009598 374.812382 
L 707.007724 373.011665 
L 707.007724 374.812382 
L 711.00585 373.011665 
L 711.00585 374.812382 
L 715.003977 373.011665 
L 715.003977 374.812382 
L 719.002103 373.011665 
L 719.002103 374.812382 
L 723.00023 373.011665 
L 723.00023 374.812382 
L 726.998356 373.011665 
L 726.998356 374.812382 
L 730.996482 373.011665 
L 730.996482 374.812382 
L 734.994609 373.011665 
L 734.994609 374.812382 
L 738.992735 373.011665 
L 738.992735 374.812382 
L 742.990862 373.011665 
L 742.990862 374.812382 
L 746.988988 373.011665 
L 746.988988 374.812382 
L 750.987114 373.011665 
L 750.987114 374.812382 
L 754.985241 373.011665 
L 754.985241 374.812382 
L 758.983367 373.011665 
L 758.983367 374.812382 
L 762.981494 373.011665 
L 762.981494 374.812382 
L 766.97962 373.011665 
L 766.97962 374.812382 
L 770.977746 373.011665 
L 770.977746 374.812382 
L 774.975873 373.011665 
L 774.975873 374.812382 
L 778.973999 373.011665 
L 778.973999 374.812382 
L 782.972126 373.011665 
L 782.972126 374.812382 
L 786.970252 373.011665 
L 786.970252 374.812382 
L 790.968378 373.011665 
L 790.968378 374.812382 
L 794.966505 373.011665 
L 794.966505 374.812382 
L 798.964631 373.011665 
L 798.964631 374.812382 
L 802.962758 373.011665 
L 802.962758 374.812382 
L 806.960884 373.011665 
L 806.960884 374.812382 
L 810.95901 373.011665 
L 810.95901 374.812382 
L 814.957137 373.011665 
L 814.957137 374.812382 
L 818.955263 373.011665 
L 818.955263 374.812382 
L 822.95339 373.011665 
L 822.95339 374.812382 
L 826.951516 373.011665 
L 826.951516 374.812382 
L 830.949642 373.011665 
L 830.949642 374.812382 
L 834.947769 373.011665 
L 834.947769 374.812382 
L 838.945895 373.011665 
L 838.945895 374.812382 
L 842.944022 373.011665 
L 842.944022 374.812382 
L 846.942148 373.011665 
L 846.942148 374.812382 
L 850.940274 373.011665 
L 850.940274 374.812382 
L 854.938401 373.011665 
L 854.938401 374.812382 
L 858.936527 373.011665 
L 858.936527 374.812382 
L 862.934654 373.011665 
L 862.934654 374.812382 
L 866.93278 373.011665 
L 866.93278 374.812382 
L 870.930906 373.011665 
L 870.930906 374.812382 
L 874.929033 373.011665 
L 874.929033 374.812382 
L 874.929033 374.812382 
" clip-path="url(#pf513025e58)" style="fill: none; stroke: #ccb974; stroke-width: 1.5; stroke-linecap: round"/>
   </g>
   <g id="patch_3">
    <path d="M 75.543325 379.144655 
L 75.543325 27.243927 
" style="fill: none"/>
   </g>
   <g id="patch_4">
    <path d="M 878.1795 379.144655 
L 878.1795 27.243927 
" style="fill: none"/>
   </g>
   <g id="patch_5">
    <path d="M 75.543325 379.144655 
L 878.1795 379.144655 
" style="fill: none"/>
   </g>
   <g id="patch_6">
    <path d="M 75.543325 27.243927 
L 878.1795 27.243927 
" style="fill: none"/>
   </g>
   <g id="text_20">
    <!-- Network usage - Buffer size for each node -->
    <g style="fill: #262626" transform="translate(364.916413 21.243927) scale(0.12 -0.12)">
     <defs>
      <path id="LiberationSans-4e" d="M 3381 0 
L 1025 3750 
L 1041 3447 
L 1056 2925 
L 1056 0 
L 525 0 
L 525 4403 
L 1219 4403 
L 3600 628 
Q 3563 1241 3563 1516 
L 3563 4403 
L 4100 4403 
L 4100 0 
L 3381 0 
z
" transform="scale(0.015625)"/>
      <path id="LiberationSans-77" d="M 3669 0 
L 3016 0 
L 2425 2391 
L 2313 2919 
Q 2284 2778 2225 2514 
Q 2166 2250 1588 0 
L 938 0 
L -9 3381 
L 547 3381 
L 1119 1084 
Q 1141 1009 1253 466 
L 1306 697 
L 2013 3381 
L 2616 3381 
L 3206 1059 
L 3350 466 
L 3447 900 
L 4088 3381 
L 4638 3381 
L 3669 0 
z
" transform="scale(0.015625)"/>
      <path id="LiberationSans-67" d="M 1713 -1328 
Q 1159 -1328 831 -1111 
Q 503 -894 409 -494 
L 975 -413 
Q 1031 -647 1223 -773 
Q 1416 -900 1728 -900 
Q 2569 -900 2569 84 
L 2569 628 
L 2563 628 
Q 2403 303 2125 139 
Q 1847 -25 1475 -25 
Q 853 -25 561 387 
Q 269 800 269 1684 
Q 269 2581 583 3007 
Q 897 3434 1538 3434 
Q 1897 3434 2161 3270 
Q 2425 3106 2569 2803 
L 2575 2803 
Q 2575 2897 2587 3128 
Q 2600 3359 2613 3381 
L 3147 3381 
Q 3128 3213 3128 2681 
L 3128 97 
Q 3128 -1328 1713 -1328 
z
M 2569 1691 
Q 2569 2103 2456 2401 
Q 2344 2700 2139 2858 
Q 1934 3016 1675 3016 
Q 1244 3016 1047 2703 
Q 850 2391 850 1691 
Q 850 997 1034 694 
Q 1219 391 1666 391 
Q 1931 391 2137 547 
Q 2344 703 2456 995 
Q 2569 1288 2569 1691 
z
" transform="scale(0.015625)"/>
      <path id="LiberationSans-2d" d="M 284 1450 
L 284 1950 
L 1847 1950 
L 1847 1450 
L 284 1450 
z
" transform="scale(0.015625)"/>
      <path id="LiberationSans-68" d="M 991 2803 
Q 1172 3134 1426 3289 
Q 1681 3444 2072 3444 
Q 2622 3444 2883 3170 
Q 3144 2897 3144 2253 
L 3144 0 
L 2578 0 
L 2578 2144 
Q 2578 2500 2512 2673 
Q 2447 2847 2297 2928 
Q 2147 3009 1881 3009 
Q 1484 3009 1245 2734 
Q 1006 2459 1006 1994 
L 1006 0 
L 444 0 
L 444 4638 
L 1006 4638 
L 1006 3431 
Q 1006 3241 995 3037 
Q 984 2834 981 2803 
L 991 2803 
z
" transform="scale(0.015625)"/>
      <path id="LiberationSans-64" d="M 2566 544 
Q 2409 219 2151 78 
Q 1894 -63 1513 -63 
Q 872 -63 570 368 
Q 269 800 269 1675 
Q 269 3444 1513 3444 
Q 1897 3444 2153 3303 
Q 2409 3163 2566 2856 
L 2572 2856 
L 2566 3234 
L 2566 4638 
L 3128 4638 
L 3128 697 
Q 3128 169 3147 0 
L 2609 0 
Q 2600 50 2589 231 
Q 2578 413 2578 544 
L 2566 544 
z
M 859 1694 
Q 859 984 1046 678 
Q 1234 372 1656 372 
Q 2134 372 2350 703 
Q 2566 1034 2566 1731 
Q 2566 2403 2350 2715 
Q 2134 3028 1663 3028 
Q 1238 3028 1048 2714 
Q 859 2400 859 1694 
z
" transform="scale(0.015625)"/>
     </defs>
     <use xlink:href="#LiberationSans-4e"/>
     <use xlink:href="#LiberationSans-65" x="72.216797"/>
     <use xlink:href="#LiberationSans-74" x="127.832031"/>
     <use xlink:href="#LiberationSans-77" x="155.615234"/>
     <use xlink:href="#LiberationSans-6f" x="227.832031"/>
     <use xlink:href="#LiberationSans-72" x="283.447266"/>
     <use xlink:href="#LiberationSans-6b" x="316.748047"/>
     <use xlink:href="#LiberationSans-20" x="366.748047"/>
     <use xlink:href="#LiberationSans-75" x="394.53125"/>
     <use xlink:href="#LiberationSans-73" x="450.146484"/>
     <use xlink:href="#LiberationSans-61" x="500.146484"/>
     <use xlink:href="#LiberationSans-67" x="555.761719"/>
     <use xlink:href="#LiberationSans-65" x="611.376953"/>
     <use xlink:href="#LiberationSans-20" x="666.992188"/>
     <use xlink:href="#LiberationSans-2d" x="694.775391"/>
     <use xlink:href="#LiberationSans-20" x="728.076172"/>
     <use xlink:href="#LiberationSans-42" x="755.859375"/>
     <use xlink:href="#LiberationSans-75" x="822.558594"/>
     <use xlink:href="#LiberationSans-66" x="878.173828"/>
     <use xlink:href="#LiberationSans-66" x="904.207031"/>
     <use xlink:href="#LiberationSans-65" x="931.990234"/>
     <use xlink:href="#LiberationSans-72" x="987.605469"/>
     <use xlink:href="#LiberationSans-20" x="1020.90625"/>
     <use xlink:href="#LiberationSans-73" x="1048.689453"/>
     <use xlink:href="#LiberationSans-69" x="1098.689453"/>
     <use xlink:href="#LiberationSans-7a" x="1120.90625"/>
     <use xlink:href="#LiberationSans-65" x="1170.90625"/>
     <use xlink:href="#LiberationSans-20" x="1226.521484"/>
     <use xlink:href="#LiberationSans-66" x="1254.304688"/>
     <use xlink:href="#LiberationSans-6f" x="1282.087891"/>
     <use xlink:href="#LiberationSans-72" x="1337.703125"/>
     <use xlink:href="#LiberationSans-20" x="1371.003906"/>
     <use xlink:href="#LiberationSans-65" x="1398.787109"/>
     <use xlink:href="#LiberationSans-61" x="1454.402344"/>
     <use xlink:href="#LiberationSans-63" x="1510.017578"/>
     <use xlink:href="#LiberationSans-68" x="1560.017578"/>
     <use xlink:href="#LiberationSans-20" x="1615.632812"/>
     <use xlink:href="#LiberationSans-6e" x="1643.416016"/>
     <use xlink:href="#LiberationSans-6f" x="1699.03125"/>
     <use xlink:href="#LiberationSans-64" x="1754.646484"/>
     <use xlink:href="#LiberationSans-65" x="1810.261719"/>
    </g>
   </g>
   <g id="legend_1">
    <g id="patch_7">
     <path d="M 84.543325 108.853302 
L 216.03395 108.853302 
Q 218.03395 108.853302 218.03395 106.853302 
L 218.03395 36.243927 
Q 218.03395 34.243927 216.03395 34.243927 
L 84.543325 34.243927 
Q 82.543325 34.243927 82.543325 36.243927 
L 82.543325 106.853302 
Q 82.543325 108.853302 84.543325 108.853302 
z
" style="fill: #464649; opacity: 0.5; stroke: #464649; stroke-width: 0.3; stroke-linejoin: miter"/>
    </g>
    <g id="patch_8">
     <path d="M 82.543325 106.853302 
L 214.03395 106.853302 
Q 216.03395 106.853302 216.03395 104.853302 
L 216.03395 34.243927 
Q 216.03395 32.243927 214.03395 32.243927 
L 82.543325 32.243927 
Q 80.543325 32.243927 80.543325 34.243927 
L 80.543325 104.853302 
Q 80.543325 106.853302 82.543325 106.853302 
z
" style="fill: #eaeaf2; opacity: 0.8; stroke: #cccccc; stroke-width: 0.3; stroke-linejoin: miter"/>
    </g>
    <g id="line2d_23">
     <path d="M 84.543325 39.990802 
L 94.543325 39.990802 
L 104.543325 39.990802 
" style="fill: none; stroke: #4c72b0; stroke-width: 1.5; stroke-linecap: round"/>
    </g>
    <g id="text_21">
     <!-- Network.node[0].lnk[0] -->
     <g style="fill: #262626" transform="translate(112.543325 43.490802) scale(0.1 -0.1)">
      <defs>
       <path id="LiberationSans-2e" d="M 584 0 
L 584 684 
L 1194 684 
L 1194 0 
L 584 0 
z
" transform="scale(0.015625)"/>
       <path id="LiberationSans-5b" d="M 456 -1328 
L 456 4638 
L 1728 4638 
L 1728 4234 
L 1000 4234 
L 1000 -925 
L 1728 -925 
L 1728 -1328 
L 456 -1328 
z
" transform="scale(0.015625)"/>
       <path id="LiberationSans-5d" d="M 50 -1328 
L 50 -925 
L 778 -925 
L 778 4234 
L 50 4234 
L 50 4638 
L 1322 4638 
L 1322 -1328 
L 50 -1328 
z
" transform="scale(0.015625)"/>
      </defs>
      <use xlink:href="#LiberationSans-4e"/>
      <use xlink:href="#LiberationSans-65" x="72.216797"/>
      <use xlink:href="#LiberationSans-74" x="127.832031"/>
      <use xlink:href="#LiberationSans-77" x="155.615234"/>
      <use xlink:href="#LiberationSans-6f" x="227.832031"/>
      <use xlink:href="#LiberationSans-72" x="283.447266"/>
      <use xlink:href="#LiberationSans-6b" x="316.748047"/>
      <use xlink:href="#LiberationSans-2e" x="366.748047"/>
      <use xlink:href="#LiberationSans-6e" x="394.53125"/>
      <use xlink:href="#LiberationSans-6f" x="450.146484"/>
      <use xlink:href="#LiberationSans-64" x="505.761719"/>
      <use xlink:href="#LiberationSans-65" x="561.376953"/>
      <use xlink:href="#LiberationSans-5b" x="616.992188"/>
      <use xlink:href="#LiberationSans-30" x="644.775391"/>
      <use xlink:href="#LiberationSans-5d" x="700.390625"/>
      <use xlink:href="#LiberationSans-2e" x="728.173828"/>
      <use xlink:href="#LiberationSans-6c" x="755.957031"/>
      <use xlink:href="#LiberationSans-6e" x="778.173828"/>
      <use xlink:href="#LiberationSans-6b" x="833.789062"/>
      <use xlink:href="#LiberationSans-5b" x="883.789062"/>
      <use xlink:href="#LiberationSans-30" x="911.572266"/>
      <use xlink:href="#LiberationSans-5d" x="967.1875"/>
     </g>
    </g>
    <g id="line2d_24">
     <path d="M 84.543325 54.312677 
L 94.543325 54.312677 
L 104.543325 54.312677 
" style="fill: none; stroke: #55a868; stroke-width: 1.5; stroke-linecap: round"/>
    </g>
    <g id="text_22">
     <!-- Network.node[1].lnk[0] -->
     <g style="fill: #262626" transform="translate(112.543325 57.812677) scale(0.1 -0.1)">
      <use xlink:href="#LiberationSans-4e"/>
      <use xlink:href="#LiberationSans-65" x="72.216797"/>
      <use xlink:href="#LiberationSans-74" x="127.832031"/>
      <use xlink:href="#LiberationSans-77" x="155.615234"/>
      <use xlink:href="#LiberationSans-6f" x="227.832031"/>
      <use xlink:href="#LiberationSans-72" x="283.447266"/>
      <use xlink:href="#LiberationSans-6b" x="316.748047"/>
      <use xlink:href="#LiberationSans-2e" x="366.748047"/>
      <use xlink:href="#LiberationSans-6e" x="394.53125"/>
      <use xlink:href="#LiberationSans-6f" x="450.146484"/>
      <use xlink:href="#LiberationSans-64" x="505.761719"/>
      <use xlink:href="#LiberationSans-65" x="561.376953"/>
      <use xlink:href="#LiberationSans-5b" x="616.992188"/>
      <use xlink:href="#LiberationSans-31" x="644.775391"/>
      <use xlink:href="#LiberationSans-5d" x="700.390625"/>
      <use xlink:href="#LiberationSans-2e" x="728.173828"/>
      <use xlink:href="#LiberationSans-6c" x="755.957031"/>
      <use xlink:href="#LiberationSans-6e" x="778.173828"/>
      <use xlink:href="#LiberationSans-6b" x="833.789062"/>
      <use xlink:href="#LiberationSans-5b" x="883.789062"/>
      <use xlink:href="#LiberationSans-30" x="911.572266"/>
      <use xlink:href="#LiberationSans-5d" x="967.1875"/>
     </g>
    </g>
    <g id="line2d_25">
     <path d="M 84.543325 68.634552 
L 94.543325 68.634552 
L 104.543325 68.634552 
" style="fill: none; stroke: #c44e52; stroke-width: 1.5; stroke-linecap: round"/>
    </g>
    <g id="text_23">
     <!-- Network.node[2].lnk[0] -->
     <g style="fill: #262626" transform="translate(112.543325 72.134552) scale(0.1 -0.1)">
      <use xlink:href="#LiberationSans-4e"/>
      <use xlink:href="#LiberationSans-65" x="72.216797"/>
      <use xlink:href="#LiberationSans-74" x="127.832031"/>
      <use xlink:href="#LiberationSans-77" x="155.615234"/>
      <use xlink:href="#LiberationSans-6f" x="227.832031"/>
      <use xlink:href="#LiberationSans-72" x="283.447266"/>
      <use xlink:href="#LiberationSans-6b" x="316.748047"/>
      <use xlink:href="#LiberationSans-2e" x="366.748047"/>
      <use xlink:href="#LiberationSans-6e" x="394.53125"/>
      <use xlink:href="#LiberationSans-6f" x="450.146484"/>
      <use xlink:href="#LiberationSans-64" x="505.761719"/>
      <use xlink:href="#LiberationSans-65" x="561.376953"/>
      <use xlink:href="#LiberationSans-5b" x="616.992188"/>
      <use xlink:href="#LiberationSans-32" x="644.775391"/>
      <use xlink:href="#LiberationSans-5d" x="700.390625"/>
      <use xlink:href="#LiberationSans-2e" x="728.173828"/>
      <use xlink:href="#LiberationSans-6c" x="755.957031"/>
      <use xlink:href="#LiberationSans-6e" x="778.173828"/>
      <use xlink:href="#LiberationSans-6b" x="833.789062"/>
      <use xlink:href="#LiberationSans-5b" x="883.789062"/>
      <use xlink:href="#LiberationSans-30" x="911.572266"/>
      <use xlink:href="#LiberationSans-5d" x="967.1875"/>
     </g>
    </g>
    <g id="line2d_26">
     <path d="M 84.543325 82.956427 
L 94.543325 82.956427 
L 104.543325 82.956427 
" style="fill: none; stroke: #8172b2; stroke-width: 1.5; stroke-linecap: round"/>
    </g>
    <g id="text_24">
     <!-- Network.node[6].lnk[0] -->
     <g style="fill: #262626" transform="translate(112.543325 86.456427) scale(0.1 -0.1)">
      <defs>
       <path id="LiberationSans-36" d="M 3278 1441 
Q 3278 744 2900 340 
Q 2522 -63 1856 -63 
Q 1113 -63 719 490 
Q 325 1044 325 2100 
Q 325 3244 734 3856 
Q 1144 4469 1900 4469 
Q 2897 4469 3156 3572 
L 2619 3475 
Q 2453 4013 1894 4013 
Q 1413 4013 1148 3564 
Q 884 3116 884 2266 
Q 1038 2550 1316 2698 
Q 1594 2847 1953 2847 
Q 2563 2847 2920 2465 
Q 3278 2084 3278 1441 
z
M 2706 1416 
Q 2706 1894 2472 2153 
Q 2238 2413 1819 2413 
Q 1425 2413 1183 2183 
Q 941 1953 941 1550 
Q 941 1041 1192 716 
Q 1444 391 1838 391 
Q 2244 391 2475 664 
Q 2706 938 2706 1416 
z
" transform="scale(0.015625)"/>
      </defs>
      <use xlink:href="#LiberationSans-4e"/>
      <use xlink:href="#LiberationSans-65" x="72.216797"/>
      <use xlink:href="#LiberationSans-74" x="127.832031"/>
      <use xlink:href="#LiberationSans-77" x="155.615234"/>
      <use xlink:href="#LiberationSans-6f" x="227.832031"/>
      <use xlink:href="#LiberationSans-72" x="283.447266"/>
      <use xlink:href="#LiberationSans-6b" x="316.748047"/>
      <use xlink:href="#LiberationSans-2e" x="366.748047"/>
      <use xlink:href="#LiberationSans-6e" x="394.53125"/>
      <use xlink:href="#LiberationSans-6f" x="450.146484"/>
      <use xlink:href="#LiberationSans-64" x="505.761719"/>
      <use xlink:href="#LiberationSans-65" x="561.376953"/>
      <use xlink:href="#LiberationSans-5b" x="616.992188"/>
      <use xlink:href="#LiberationSans-36" x="644.775391"/>
      <use xlink:href="#LiberationSans-5d" x="700.390625"/>
      <use xlink:href="#LiberationSans-2e" x="728.173828"/>
      <use xlink:href="#LiberationSans-6c" x="755.957031"/>
      <use xlink:href="#LiberationSans-6e" x="778.173828"/>
      <use xlink:href="#LiberationSans-6b" x="833.789062"/>
      <use xlink:href="#LiberationSans-5b" x="883.789062"/>
      <use xlink:href="#LiberationSans-30" x="911.572266"/>
      <use xlink:href="#LiberationSans-5d" x="967.1875"/>
     </g>
    </g>
    <g id="line2d_27">
     <path d="M 84.543325 97.278302 
L 94.543325 97.278302 
L 104.543325 97.278302 
" style="fill: none; stroke: #ccb974; stroke-width: 1.5; stroke-linecap: round"/>
    </g>
    <g id="text_25">
     <!-- Network.node[7].lnk[0] -->
     <g style="fill: #262626" transform="translate(112.543325 100.778302) scale(0.1 -0.1)">
      <use xlink:href="#LiberationSans-4e"/>
      <use xlink:href="#LiberationSans-65" x="72.216797"/>
      <use xlink:href="#LiberationSans-74" x="127.832031"/>
      <use xlink:href="#LiberationSans-77" x="155.615234"/>
      <use xlink:href="#LiberationSans-6f" x="227.832031"/>
      <use xlink:href="#LiberationSans-72" x="283.447266"/>
      <use xlink:href="#LiberationSans-6b" x="316.748047"/>
      <use xlink:href="#LiberationSans-2e" x="366.748047"/>
      <use xlink:href="#LiberationSans-6e" x="394.53125"/>
      <use xlink:href="#LiberationSans-6f" x="450.146484"/>
      <use xlink:href="#LiberationSans-64" x="505.761719"/>
      <use xlink:href="#LiberationSans-65" x="561.376953"/>
      <use xlink:href="#LiberationSans-5b" x="616.992188"/>
      <use xlink:href="#LiberationSans-37" x="644.775391"/>
      <use xlink:href="#LiberationSans-5d" x="700.390625"/>
      <use xlink:href="#LiberationSans-2e" x="728.173828"/>
      <use xlink:href="#LiberationSans-6c" x="755.957031"/>
      <use xlink:href="#LiberationSans-6e" x="778.173828"/>
      <use xlink:href="#LiberationSans-6b" x="833.789062"/>
      <use xlink:href="#LiberationSans-5b" x="883.789062"/>
      <use xlink:href="#LiberationSans-30" x="911.572266"/>
      <use xlink:href="#LiberationSans-5d" x="967.1875"/>
     </g>
    </g>
   </g>
  </g>
 </g>
 <defs>
  <clipPath id="pf513025e58">
   <rect x="75.543325" y="27.243927" width="802.636175" height="351.900727"/>
  </clipPath>
 </defs>
</svg>
