<?xml version="1.0" encoding="utf-8" standalone="no"?>
<!DOCTYPE svg PUBLIC "-//W3C//DTD SVG 1.1//EN"
  "http://www.w3.org/Graphics/SVG/1.1/DTD/svg11.dtd">
<svg xmlns:xlink="http://www.w3.org/1999/xlink" width="894.96pt" height="424.08pt" viewBox="0 0 894.96 424.08" xmlns="http://www.w3.org/2000/svg" version="1.1">
 <metadata>
  <rdf:RDF xmlns:dc="http://purl.org/dc/elements/1.1/" xmlns:cc="http://creativecommons.org/ns#" xmlns:rdf="http://www.w3.org/1999/02/22-rdf-syntax-ns#">
   <cc:Work>
    <dc:type rdf:resource="http://purl.org/dc/dcmitype/StillImage"/>
    <dc:date>2023-05-29T00:31:26.701073</dc:date>
    <dc:format>image/svg+xml</dc:format>
    <dc:creator>
     <cc:Agent>
      <dc:title>Matplotlib v3.7.1, https://matplotlib.org/</dc:title>
     </cc:Agent>
    </dc:creator>
   </cc:Work>
  </rdf:RDF>
 </metadata>
 <defs>
  <style type="text/css">*{stroke-linejoin: round; stroke-linecap: butt}</style>
 </defs>
 <g id="figure_1">
  <g id="patch_1">
   <path d="M 0 424.08 
L 894.96 424.08 
L 894.96 0 
L 0 0 
z
" style="fill: #ffffff"/>
  </g>
  <g id="axes_1">
   <g id="patch_2">
    <path d="M 75.403488 379.144655 
L 878.1795 379.144655 
L 878.1795 27.243927 
L 75.403488 27.243927 
z
" style="fill: #eaeaf2"/>
   </g>
   <g id="matplotlib.axis_1">
    <g id="xtick_1">
     <g id="line2d_1"/>
     <g id="text_1">
      <!-- 0 -->
      <g style="fill: #262626" transform="translate(78.146729 393.39153) scale(0.1 -0.1)">
       <defs>
        <path id="LiberationSans-30" d="M 3309 2203 
Q 3309 1100 2920 518 
Q 2531 -63 1772 -63 
Q 1013 -63 631 515 
Q 250 1094 250 2203 
Q 250 3338 620 3903 
Q 991 4469 1791 4469 
Q 2569 4469 2939 3897 
Q 3309 3325 3309 2203 
z
M 2738 2203 
Q 2738 3156 2517 3584 
Q 2297 4013 1791 4013 
Q 1272 4013 1045 3591 
Q 819 3169 819 2203 
Q 819 1266 1048 831 
Q 1278 397 1778 397 
Q 2275 397 2506 840 
Q 2738 1284 2738 2203 
z
" transform="scale(0.015625)"/>
       </defs>
       <use xlink:href="#LiberationSans-30"/>
      </g>
     </g>
    </g>
    <g id="xtick_2">
     <g id="line2d_2"/>
     <g id="text_2">
      <!-- 25 -->
      <g style="fill: #262626" transform="translate(174.181149 393.39153) scale(0.1 -0.1)">
       <defs>
        <path id="LiberationSans-32" d="M 322 0 
L 322 397 
Q 481 763 711 1042 
Q 941 1322 1194 1548 
Q 1447 1775 1695 1969 
Q 1944 2163 2144 2356 
Q 2344 2550 2467 2762 
Q 2591 2975 2591 3244 
Q 2591 3606 2378 3806 
Q 2166 4006 1788 4006 
Q 1428 4006 1195 3811 
Q 963 3616 922 3263 
L 347 3316 
Q 409 3844 795 4156 
Q 1181 4469 1788 4469 
Q 2453 4469 2811 4155 
Q 3169 3841 3169 3263 
Q 3169 3006 3051 2753 
Q 2934 2500 2703 2247 
Q 2472 1994 1819 1463 
Q 1459 1169 1246 933 
Q 1034 697 941 478 
L 3238 478 
L 3238 0 
L 322 0 
z
" transform="scale(0.015625)"/>
        <path id="LiberationSans-35" d="M 3291 1434 
Q 3291 738 2877 337 
Q 2463 -63 1728 -63 
Q 1113 -63 734 206 
Q 356 475 256 984 
L 825 1050 
Q 1003 397 1741 397 
Q 2194 397 2450 670 
Q 2706 944 2706 1422 
Q 2706 1838 2448 2094 
Q 2191 2350 1753 2350 
Q 1525 2350 1328 2278 
Q 1131 2206 934 2034 
L 384 2034 
L 531 4403 
L 3034 4403 
L 3034 3925 
L 1044 3925 
L 959 2528 
Q 1325 2809 1869 2809 
Q 2519 2809 2905 2428 
Q 3291 2047 3291 1434 
z
" transform="scale(0.015625)"/>
       </defs>
       <use xlink:href="#LiberationSans-32"/>
       <use xlink:href="#LiberationSans-35" x="55.615234"/>
      </g>
     </g>
    </g>
    <g id="xtick_3">
     <g id="line2d_3"/>
     <g id="text_3">
      <!-- 50 -->
      <g style="fill: #262626" transform="translate(272.996039 393.39153) scale(0.1 -0.1)">
       <use xlink:href="#LiberationSans-35"/>
       <use xlink:href="#LiberationSans-30" x="55.615234"/>
      </g>
     </g>
    </g>
    <g id="xtick_4">
     <g id="line2d_4"/>
     <g id="text_4">
      <!-- 75 -->
      <g style="fill: #262626" transform="translate(371.810928 393.39153) scale(0.1 -0.1)">
       <defs>
        <path id="LiberationSans-37" d="M 3238 3947 
Q 2563 2916 2284 2331 
Q 2006 1747 1867 1178 
Q 1728 609 1728 0 
L 1141 0 
Q 1141 844 1498 1776 
Q 1856 2709 2694 3925 
L 328 3925 
L 328 4403 
L 3238 4403 
L 3238 3947 
z
" transform="scale(0.015625)"/>
       </defs>
       <use xlink:href="#LiberationSans-37"/>
       <use xlink:href="#LiberationSans-35" x="55.615234"/>
      </g>
     </g>
    </g>
    <g id="xtick_5">
     <g id="line2d_5"/>
     <g id="text_5">
      <!-- 100 -->
      <g style="fill: #262626" transform="translate(467.845349 393.39153) scale(0.1 -0.1)">
       <defs>
        <path id="LiberationSans-31" d="M 488 0 
L 488 478 
L 1609 478 
L 1609 3866 
L 616 3156 
L 616 3688 
L 1656 4403 
L 2175 4403 
L 2175 478 
L 3247 478 
L 3247 0 
L 488 0 
z
" transform="scale(0.015625)"/>
       </defs>
       <use xlink:href="#LiberationSans-31"/>
       <use xlink:href="#LiberationSans-30" x="55.615234"/>
       <use xlink:href="#LiberationSans-30" x="111.230469"/>
      </g>
     </g>
    </g>
    <g id="xtick_6">
     <g id="line2d_6"/>
     <g id="text_6">
      <!-- 125 -->
      <g style="fill: #262626" transform="translate(566.660238 393.39153) scale(0.1 -0.1)">
       <use xlink:href="#LiberationSans-31"/>
       <use xlink:href="#LiberationSans-32" x="55.615234"/>
       <use xlink:href="#LiberationSans-35" x="111.230469"/>
      </g>
     </g>
    </g>
    <g id="xtick_7">
     <g id="line2d_7"/>
     <g id="text_7">
      <!-- 150 -->
      <g style="fill: #262626" transform="translate(665.475128 393.39153) scale(0.1 -0.1)">
       <use xlink:href="#LiberationSans-31"/>
       <use xlink:href="#LiberationSans-35" x="55.615234"/>
       <use xlink:href="#LiberationSans-30" x="111.230469"/>
      </g>
     </g>
    </g>
    <g id="xtick_8">
     <g id="line2d_8"/>
     <g id="text_8">
      <!-- 175 -->
      <g style="fill: #262626" transform="translate(764.290017 393.39153) scale(0.1 -0.1)">
       <use xlink:href="#LiberationSans-31"/>
       <use xlink:href="#LiberationSans-37" x="55.615234"/>
       <use xlink:href="#LiberationSans-35" x="111.230469"/>
      </g>
     </g>
    </g>
    <g id="xtick_9">
     <g id="line2d_9"/>
     <g id="text_9">
      <!-- 200 -->
      <g style="fill: #262626" transform="translate(863.104906 393.39153) scale(0.1 -0.1)">
       <use xlink:href="#LiberationSans-32"/>
       <use xlink:href="#LiberationSans-30" x="55.615234"/>
       <use xlink:href="#LiberationSans-30" x="111.230469"/>
      </g>
     </g>
    </g>
    <g id="text_10">
     <!-- Simulation time (s) -->
     <g style="fill: #262626" transform="translate(431.254931 407.438092) scale(0.11 -0.11)">
      <defs>
       <path id="LiberationSans-53" d="M 3975 1216 
Q 3975 606 3498 271 
Q 3022 -63 2156 -63 
Q 547 -63 291 1056 
L 869 1172 
Q 969 775 1294 589 
Q 1619 403 2178 403 
Q 2756 403 3070 601 
Q 3384 800 3384 1184 
Q 3384 1400 3286 1534 
Q 3188 1669 3009 1756 
Q 2831 1844 2584 1903 
Q 2338 1963 2038 2031 
Q 1516 2147 1245 2262 
Q 975 2378 819 2520 
Q 663 2663 580 2853 
Q 497 3044 497 3291 
Q 497 3856 930 4162 
Q 1363 4469 2169 4469 
Q 2919 4469 3316 4239 
Q 3713 4009 3872 3456 
L 3284 3353 
Q 3188 3703 2916 3861 
Q 2644 4019 2163 4019 
Q 1634 4019 1356 3844 
Q 1078 3669 1078 3322 
Q 1078 3119 1186 2986 
Q 1294 2853 1497 2761 
Q 1700 2669 2306 2534 
Q 2509 2488 2711 2439 
Q 2913 2391 3097 2323 
Q 3281 2256 3442 2165 
Q 3603 2075 3722 1944 
Q 3841 1813 3908 1634 
Q 3975 1456 3975 1216 
z
" transform="scale(0.015625)"/>
       <path id="LiberationSans-69" d="M 428 4100 
L 428 4638 
L 991 4638 
L 991 4100 
L 428 4100 
z
M 428 0 
L 428 3381 
L 991 3381 
L 991 0 
L 428 0 
z
" transform="scale(0.015625)"/>
       <path id="LiberationSans-6d" d="M 2400 0 
L 2400 2144 
Q 2400 2634 2265 2821 
Q 2131 3009 1781 3009 
Q 1422 3009 1212 2734 
Q 1003 2459 1003 1959 
L 1003 0 
L 444 0 
L 444 2659 
Q 444 3250 425 3381 
L 956 3381 
Q 959 3366 962 3297 
Q 966 3228 970 3139 
Q 975 3050 981 2803 
L 991 2803 
Q 1172 3163 1406 3303 
Q 1641 3444 1978 3444 
Q 2363 3444 2586 3291 
Q 2809 3138 2897 2803 
L 2906 2803 
Q 3081 3144 3329 3294 
Q 3578 3444 3931 3444 
Q 4444 3444 4676 3166 
Q 4909 2888 4909 2253 
L 4909 0 
L 4353 0 
L 4353 2144 
Q 4353 2634 4218 2821 
Q 4084 3009 3734 3009 
Q 3366 3009 3161 2736 
Q 2956 2463 2956 1959 
L 2956 0 
L 2400 0 
z
" transform="scale(0.015625)"/>
       <path id="LiberationSans-75" d="M 981 3381 
L 981 1238 
Q 981 903 1047 718 
Q 1113 534 1256 453 
Q 1400 372 1678 372 
Q 2084 372 2318 650 
Q 2553 928 2553 1422 
L 2553 3381 
L 3116 3381 
L 3116 722 
Q 3116 131 3134 0 
L 2603 0 
Q 2600 16 2597 84 
Q 2594 153 2589 242 
Q 2584 331 2578 578 
L 2569 578 
Q 2375 228 2120 82 
Q 1866 -63 1488 -63 
Q 931 -63 673 214 
Q 416 491 416 1128 
L 416 3381 
L 981 3381 
z
" transform="scale(0.015625)"/>
       <path id="LiberationSans-6c" d="M 431 0 
L 431 4638 
L 994 4638 
L 994 0 
L 431 0 
z
" transform="scale(0.015625)"/>
       <path id="LiberationSans-61" d="M 1294 -63 
Q 784 -63 528 206 
Q 272 475 272 944 
Q 272 1469 617 1750 
Q 963 2031 1731 2050 
L 2491 2063 
L 2491 2247 
Q 2491 2659 2316 2837 
Q 2141 3016 1766 3016 
Q 1388 3016 1216 2887 
Q 1044 2759 1009 2478 
L 422 2531 
Q 566 3444 1778 3444 
Q 2416 3444 2737 3151 
Q 3059 2859 3059 2306 
L 3059 850 
Q 3059 600 3125 473 
Q 3191 347 3375 347 
Q 3456 347 3559 369 
L 3559 19 
Q 3347 -31 3125 -31 
Q 2813 -31 2670 133 
Q 2528 297 2509 647 
L 2491 647 
Q 2275 259 1989 98 
Q 1703 -63 1294 -63 
z
M 1422 359 
Q 1731 359 1972 500 
Q 2213 641 2352 886 
Q 2491 1131 2491 1391 
L 2491 1669 
L 1875 1656 
Q 1478 1650 1273 1575 
Q 1069 1500 959 1344 
Q 850 1188 850 934 
Q 850 659 998 509 
Q 1147 359 1422 359 
z
" transform="scale(0.015625)"/>
       <path id="LiberationSans-74" d="M 1731 25 
Q 1453 -50 1163 -50 
Q 488 -50 488 716 
L 488 2972 
L 97 2972 
L 97 3381 
L 509 3381 
L 675 4138 
L 1050 4138 
L 1050 3381 
L 1675 3381 
L 1675 2972 
L 1050 2972 
L 1050 838 
Q 1050 594 1129 495 
Q 1209 397 1406 397 
Q 1519 397 1731 441 
L 1731 25 
z
" transform="scale(0.015625)"/>
       <path id="LiberationSans-6f" d="M 3291 1694 
Q 3291 806 2900 371 
Q 2509 -63 1766 -63 
Q 1025 -63 647 389 
Q 269 841 269 1694 
Q 269 3444 1784 3444 
Q 2559 3444 2925 3017 
Q 3291 2591 3291 1694 
z
M 2700 1694 
Q 2700 2394 2492 2711 
Q 2284 3028 1794 3028 
Q 1300 3028 1079 2704 
Q 859 2381 859 1694 
Q 859 1025 1076 689 
Q 1294 353 1759 353 
Q 2266 353 2483 678 
Q 2700 1003 2700 1694 
z
" transform="scale(0.015625)"/>
       <path id="LiberationSans-6e" d="M 2578 0 
L 2578 2144 
Q 2578 2478 2512 2662 
Q 2447 2847 2303 2928 
Q 2159 3009 1881 3009 
Q 1475 3009 1240 2731 
Q 1006 2453 1006 1959 
L 1006 0 
L 444 0 
L 444 2659 
Q 444 3250 425 3381 
L 956 3381 
Q 959 3366 962 3297 
Q 966 3228 970 3139 
Q 975 3050 981 2803 
L 991 2803 
Q 1184 3153 1439 3298 
Q 1694 3444 2072 3444 
Q 2628 3444 2886 3167 
Q 3144 2891 3144 2253 
L 3144 0 
L 2578 0 
z
" transform="scale(0.015625)"/>
       <path id="LiberationSans-20" transform="scale(0.015625)"/>
       <path id="LiberationSans-65" d="M 863 1572 
Q 863 991 1103 675 
Q 1344 359 1806 359 
Q 2172 359 2392 506 
Q 2613 653 2691 878 
L 3184 738 
Q 2881 -63 1806 -63 
Q 1056 -63 664 384 
Q 272 831 272 1713 
Q 272 2550 664 2997 
Q 1056 3444 1784 3444 
Q 3275 3444 3275 1647 
L 3275 1572 
L 863 1572 
z
M 2694 2003 
Q 2647 2538 2422 2783 
Q 2197 3028 1775 3028 
Q 1366 3028 1127 2754 
Q 888 2481 869 2003 
L 2694 2003 
z
" transform="scale(0.015625)"/>
       <path id="LiberationSans-28" d="M 397 1663 
Q 397 2566 680 3284 
Q 963 4003 1550 4638 
L 2094 4638 
Q 1509 3988 1236 3256 
Q 963 2525 963 1656 
Q 963 791 1233 62 
Q 1503 -666 2094 -1325 
L 1550 -1325 
Q 959 -688 678 32 
Q 397 753 397 1650 
L 397 1663 
z
" transform="scale(0.015625)"/>
       <path id="LiberationSans-73" d="M 2969 934 
Q 2969 456 2608 196 
Q 2247 -63 1597 -63 
Q 966 -63 623 145 
Q 281 353 178 794 
L 675 891 
Q 747 619 972 492 
Q 1197 366 1597 366 
Q 2025 366 2223 497 
Q 2422 628 2422 891 
Q 2422 1091 2284 1216 
Q 2147 1341 1841 1422 
L 1438 1528 
Q 953 1653 748 1773 
Q 544 1894 428 2066 
Q 313 2238 313 2488 
Q 313 2950 642 3192 
Q 972 3434 1603 3434 
Q 2163 3434 2492 3237 
Q 2822 3041 2909 2606 
L 2403 2544 
Q 2356 2769 2151 2889 
Q 1947 3009 1603 3009 
Q 1222 3009 1040 2893 
Q 859 2778 859 2544 
Q 859 2400 934 2306 
Q 1009 2213 1156 2147 
Q 1303 2081 1775 1966 
Q 2222 1853 2419 1758 
Q 2616 1663 2730 1547 
Q 2844 1431 2906 1279 
Q 2969 1128 2969 934 
z
" transform="scale(0.015625)"/>
       <path id="LiberationSans-29" d="M 1734 1650 
Q 1734 747 1451 28 
Q 1169 -691 581 -1325 
L 38 -1325 
Q 625 -669 897 57 
Q 1169 784 1169 1656 
Q 1169 2528 895 3256 
Q 622 3984 38 4638 
L 581 4638 
Q 1172 4000 1453 3279 
Q 1734 2559 1734 1663 
L 1734 1650 
z
" transform="scale(0.015625)"/>
      </defs>
      <use xlink:href="#LiberationSans-53"/>
      <use xlink:href="#LiberationSans-69" x="66.699219"/>
      <use xlink:href="#LiberationSans-6d" x="88.916016"/>
      <use xlink:href="#LiberationSans-75" x="172.216797"/>
      <use xlink:href="#LiberationSans-6c" x="227.832031"/>
      <use xlink:href="#LiberationSans-61" x="250.048828"/>
      <use xlink:href="#LiberationSans-74" x="305.664062"/>
      <use xlink:href="#LiberationSans-69" x="333.447266"/>
      <use xlink:href="#LiberationSans-6f" x="355.664062"/>
      <use xlink:href="#LiberationSans-6e" x="411.279297"/>
      <use xlink:href="#LiberationSans-20" x="466.894531"/>
      <use xlink:href="#LiberationSans-74" x="494.677734"/>
      <use xlink:href="#LiberationSans-69" x="522.460938"/>
      <use xlink:href="#LiberationSans-6d" x="544.677734"/>
      <use xlink:href="#LiberationSans-65" x="627.978516"/>
      <use xlink:href="#LiberationSans-20" x="683.59375"/>
      <use xlink:href="#LiberationSans-28" x="711.376953"/>
      <use xlink:href="#LiberationSans-73" x="744.677734"/>
      <use xlink:href="#LiberationSans-29" x="794.677734"/>
     </g>
    </g>
   </g>
   <g id="matplotlib.axis_2">
    <g id="ytick_1">
     <g id="line2d_10"/>
     <g id="text_11">
      <!-- 0 -->
      <g style="fill: #262626" transform="translate(62.84255 381.53831) scale(0.1 -0.1)">
       <use xlink:href="#LiberationSans-30"/>
      </g>
     </g>
    </g>
    <g id="ytick_2">
     <g id="line2d_11"/>
     <g id="text_12">
      <!-- 20 -->
      <g style="fill: #262626" transform="translate(57.281613 316.110277) scale(0.1 -0.1)">
       <use xlink:href="#LiberationSans-32"/>
       <use xlink:href="#LiberationSans-30" x="55.615234"/>
      </g>
     </g>
    </g>
    <g id="ytick_3">
     <g id="line2d_12"/>
     <g id="text_13">
      <!-- 40 -->
      <g style="fill: #262626" transform="translate(57.281613 250.682245) scale(0.1 -0.1)">
       <defs>
        <path id="LiberationSans-34" d="M 2753 997 
L 2753 0 
L 2222 0 
L 2222 997 
L 147 997 
L 147 1434 
L 2163 4403 
L 2753 4403 
L 2753 1441 
L 3372 1441 
L 3372 997 
L 2753 997 
z
M 2222 3769 
Q 2216 3750 2134 3603 
Q 2053 3456 2013 3397 
L 884 1734 
L 716 1503 
L 666 1441 
L 2222 1441 
L 2222 3769 
z
" transform="scale(0.015625)"/>
       </defs>
       <use xlink:href="#LiberationSans-34"/>
       <use xlink:href="#LiberationSans-30" x="55.615234"/>
      </g>
     </g>
    </g>
    <g id="ytick_4">
     <g id="line2d_13"/>
     <g id="text_14">
      <!-- 60 -->
      <g style="fill: #262626" transform="translate(57.281613 185.254212) scale(0.1 -0.1)">
       <defs>
        <path id="LiberationSans-36" d="M 3278 1441 
Q 3278 744 2900 340 
Q 2522 -63 1856 -63 
Q 1113 -63 719 490 
Q 325 1044 325 2100 
Q 325 3244 734 3856 
Q 1144 4469 1900 4469 
Q 2897 4469 3156 3572 
L 2619 3475 
Q 2453 4013 1894 4013 
Q 1413 4013 1148 3564 
Q 884 3116 884 2266 
Q 1038 2550 1316 2698 
Q 1594 2847 1953 2847 
Q 2563 2847 2920 2465 
Q 3278 2084 3278 1441 
z
M 2706 1416 
Q 2706 1894 2472 2153 
Q 2238 2413 1819 2413 
Q 1425 2413 1183 2183 
Q 941 1953 941 1550 
Q 941 1041 1192 716 
Q 1444 391 1838 391 
Q 2244 391 2475 664 
Q 2706 938 2706 1416 
z
" transform="scale(0.015625)"/>
       </defs>
       <use xlink:href="#LiberationSans-36"/>
       <use xlink:href="#LiberationSans-30" x="55.615234"/>
      </g>
     </g>
    </g>
    <g id="ytick_5">
     <g id="line2d_14"/>
     <g id="text_15">
      <!-- 80 -->
      <g style="fill: #262626" transform="translate(57.281613 119.826179) scale(0.1 -0.1)">
       <defs>
        <path id="LiberationSans-38" d="M 3281 1228 
Q 3281 619 2893 278 
Q 2506 -63 1781 -63 
Q 1075 -63 676 271 
Q 278 606 278 1222 
Q 278 1653 525 1947 
Q 772 2241 1156 2303 
L 1156 2316 
Q 797 2400 589 2681 
Q 381 2963 381 3341 
Q 381 3844 757 4156 
Q 1134 4469 1769 4469 
Q 2419 4469 2795 4162 
Q 3172 3856 3172 3334 
Q 3172 2956 2962 2675 
Q 2753 2394 2391 2322 
L 2391 2309 
Q 2813 2241 3047 1952 
Q 3281 1663 3281 1228 
z
M 2588 3303 
Q 2588 4050 1769 4050 
Q 1372 4050 1164 3862 
Q 956 3675 956 3303 
Q 956 2925 1170 2726 
Q 1384 2528 1775 2528 
Q 2172 2528 2380 2711 
Q 2588 2894 2588 3303 
z
M 2697 1281 
Q 2697 1691 2453 1898 
Q 2209 2106 1769 2106 
Q 1341 2106 1100 1882 
Q 859 1659 859 1269 
Q 859 359 1788 359 
Q 2247 359 2472 579 
Q 2697 800 2697 1281 
z
" transform="scale(0.015625)"/>
       </defs>
       <use xlink:href="#LiberationSans-38"/>
       <use xlink:href="#LiberationSans-30" x="55.615234"/>
      </g>
     </g>
    </g>
    <g id="ytick_6">
     <g id="line2d_15"/>
     <g id="text_16">
      <!-- 100 -->
      <g style="fill: #262626" transform="translate(51.720675 54.398146) scale(0.1 -0.1)">
       <use xlink:href="#LiberationSans-31"/>
       <use xlink:href="#LiberationSans-30" x="55.615234"/>
       <use xlink:href="#LiberationSans-30" x="111.230469"/>
      </g>
     </g>
    </g>
    <g id="text_17">
     <!-- Delay time (s) -->
     <g style="fill: #262626" transform="translate(45.438175 237.113822) rotate(-90) scale(0.11 -0.11)">
      <defs>
       <path id="LiberationSans-44" d="M 4316 2247 
Q 4316 1566 4050 1055 
Q 3784 544 3296 272 
Q 2809 0 2172 0 
L 525 0 
L 525 4403 
L 1981 4403 
Q 3100 4403 3708 3842 
Q 4316 3281 4316 2247 
z
M 3716 2247 
Q 3716 3066 3267 3495 
Q 2819 3925 1969 3925 
L 1122 3925 
L 1122 478 
L 2103 478 
Q 2588 478 2955 690 
Q 3322 903 3519 1303 
Q 3716 1703 3716 2247 
z
" transform="scale(0.015625)"/>
       <path id="LiberationSans-79" d="M 597 -1328 
Q 366 -1328 209 -1294 
L 209 -872 
Q 328 -891 472 -891 
Q 997 -891 1303 -119 
L 1356 16 
L 16 3381 
L 616 3381 
L 1328 1513 
Q 1344 1469 1366 1408 
Q 1388 1347 1506 1000 
Q 1625 653 1634 613 
L 1853 1228 
L 2594 3381 
L 3188 3381 
L 1888 0 
Q 1678 -541 1497 -805 
Q 1316 -1069 1095 -1198 
Q 875 -1328 597 -1328 
z
" transform="scale(0.015625)"/>
      </defs>
      <use xlink:href="#LiberationSans-44"/>
      <use xlink:href="#LiberationSans-65" x="72.216797"/>
      <use xlink:href="#LiberationSans-6c" x="127.832031"/>
      <use xlink:href="#LiberationSans-61" x="150.048828"/>
      <use xlink:href="#LiberationSans-79" x="205.664062"/>
      <use xlink:href="#LiberationSans-20" x="255.664062"/>
      <use xlink:href="#LiberationSans-74" x="283.447266"/>
      <use xlink:href="#LiberationSans-69" x="311.230469"/>
      <use xlink:href="#LiberationSans-6d" x="333.447266"/>
      <use xlink:href="#LiberationSans-65" x="416.748047"/>
      <use xlink:href="#LiberationSans-20" x="472.363281"/>
      <use xlink:href="#LiberationSans-28" x="500.146484"/>
      <use xlink:href="#LiberationSans-73" x="533.447266"/>
      <use xlink:href="#LiberationSans-29" x="583.447266"/>
     </g>
    </g>
   </g>
   <g id="line2d_16">
    <path d="M 96.337816 368.099686 
L 100.290411 367.848518 
L 107.700613 368.099686 
L 111.653208 358.567723 
L 115.605804 363.359584 
L 119.5584 354.60017 
L 123.510995 360.012961 
L 127.463591 358.328608 
L 131.416186 356.212532 
L 135.368782 353.13213 
L 139.321378 344.390008 
L 143.273973 344.514843 
L 147.226569 343.126195 
L 151.179164 350.890933 
L 155.13176 343.857434 
L 159.084355 349.480619 
L 163.036951 338.356101 
L 166.989547 345.400115 
L 170.942142 333.395355 
L 174.894738 341.603434 
L 178.847333 328.977151 
L 182.799929 331.176224 
L 186.752524 337.705131 
L 190.70512 334.674784 
L 194.657716 332.749819 
L 198.610311 329.776642 
L 202.562907 316.958328 
L 206.515502 326.651186 
L 210.468098 312.047536 
L 214.420693 317.276067 
L 218.373289 314.071485 
L 222.325885 323.87105 
L 226.27848 309.031067 
L 230.231076 311.607256 
L 234.183671 320.733423 
L 238.136267 309.990478 
L 242.088863 316.289909 
L 246.041458 303.942411 
L 249.994054 307.345697 
L 253.946649 311.727087 
L 257.899245 313.735734 
L 261.85184 312.868697 
L 265.804436 313.313407 
L 269.757032 303.567954 
L 273.709627 307.18239 
L 277.662223 299.049917 
L 281.614818 304.811369 
L 285.567414 302.04615 
L 289.520009 294.196911 
L 293.472605 298.025056 
L 297.425201 290.995621 
L 301.377796 296.132108 
L 305.330392 287.306531 
L 309.282987 292.003034 
L 313.235583 289.097853 
L 317.188178 287.578502 
L 321.140774 285.312338 
L 325.09337 282.71551 
L 329.045965 277.146933 
L 332.998561 280.540977 
L 336.951156 279.262129 
L 340.903752 276.46599 
L 344.856347 273.256642 
L 348.808943 262.889166 
L 352.761539 267.995479 
L 356.714134 261.215042 
L 360.66673 264.597739 
L 364.619325 262.148905 
L 368.571921 260.475769 
L 372.524517 248.927816 
L 376.477112 248.405487 
L 380.429708 245.664499 
L 384.382303 256.804979 
L 388.334899 242.219702 
L 392.287494 252.217643 
L 396.24009 250.403711 
L 400.192686 235.544564 
L 404.145281 245.740434 
L 408.097877 236.620572 
L 412.050472 237.09538 
L 416.003068 243.536658 
L 419.955663 233.658754 
L 423.908259 240.588839 
L 427.860855 231.0289 
L 431.81345 237.509907 
L 435.766046 224.828159 
L 439.718641 234.600314 
L 443.671237 218.488559 
L 447.623832 228.509058 
L 451.576428 229.781773 
L 455.529024 220.124959 
L 459.481619 224.717977 
L 463.434215 214.195302 
L 467.38681 220.937636 
L 471.339406 208.425226 
L 475.292002 206.604377 
L 479.244597 204.572712 
L 483.197193 204.363544 
L 487.149788 219.153076 
L 491.102384 216.648169 
L 495.054979 195.835368 
L 499.007575 213.403002 
L 502.960171 189.420748 
L 506.912766 188.038006 
L 510.865362 207.052369 
L 514.817957 206.633355 
L 518.770553 181.514409 
L 522.723148 201.046064 
L 526.675744 199.525074 
L 530.62834 182.145615 
L 534.580935 195.03652 
L 538.533531 193.871184 
L 542.486126 172.683528 
L 546.438722 188.24528 
L 550.391317 169.6013 
L 554.343913 184.898191 
L 558.296509 182.976247 
L 562.249104 160.362579 
L 566.2017 179.927537 
L 570.154295 177.142633 
L 574.106891 168.083415 
L 578.059486 165.378383 
L 582.012082 172.257237 
L 585.964678 170.490726 
L 589.917273 155.946786 
L 593.869869 167.501546 
L 597.822464 153.078317 
L 601.77506 151.055138 
L 605.727656 163.315237 
L 609.680251 145.228381 
L 613.632847 160.435796 
L 617.585442 157.49492 
L 621.538038 145.186474 
L 625.490633 141.959775 
L 629.443229 139.02253 
L 633.395825 138.941079 
L 637.34842 152.828555 
L 641.301016 138.351634 
L 645.253611 153.173103 
L 649.206207 150.089241 
L 653.158802 140.802017 
L 657.111398 146.583863 
L 661.063994 136.32784 
L 665.016589 142.003727 
L 668.969185 132.116184 
L 672.92178 139.85849 
L 680.826971 133.512516 
L 684.779567 132.147943 
L 688.732163 128.065951 
L 692.684758 125.881997 
L 696.637354 123.029521 
L 700.589949 131.793226 
L 704.542545 130.271646 
L 708.495141 114.672462 
L 712.447736 112.549898 
L 716.400332 111.423379 
L 720.352927 125.37734 
L 724.305523 105.294043 
L 728.258118 121.559102 
L 732.210714 102.568552 
L 736.16331 100.549119 
L 740.115905 118.298302 
L 744.068501 115.349625 
L 748.021096 97.684147 
L 751.973692 94.629631 
L 755.926287 113.845776 
L 759.878883 110.858236 
L 763.831479 85.614942 
L 767.784074 86.201143 
L 771.73667 85.664952 
L 775.689265 106.43941 
L 779.641861 103.630357 
L 783.594456 76.859696 
L 787.547052 100.495637 
L 791.499648 72.64367 
L 795.452243 98.074583 
L 799.404839 68.524187 
L 803.357434 92.649468 
L 807.31003 90.38408 
L 811.262625 87.774648 
L 815.215221 63.569918 
L 819.167817 84.120915 
L 823.120412 80.915963 
L 827.073008 78.234239 
L 831.025603 53.290833 
L 834.978199 51.083751 
L 838.930795 74.196483 
L 842.88339 45.795727 
L 846.835986 70.411743 
L 850.788581 39.283677 
L 854.741177 68.21584 
L 858.693772 36.342183 
L 862.646368 63.530879 
L 866.598964 61.195167 
L 870.551559 32.571329 
L 870.551559 32.571329 
" clip-path="url(#pa1d1dc9c2a)" style="fill: none; stroke: #4c72b0; stroke-width: 1.5; stroke-linecap: round"/>
   </g>
   <g id="patch_3">
    <path d="M 75.403488 379.144655 
L 75.403488 27.243927 
" style="fill: none"/>
   </g>
   <g id="patch_4">
    <path d="M 878.1795 379.144655 
L 878.1795 27.243927 
" style="fill: none"/>
   </g>
   <g id="patch_5">
    <path d="M 75.403488 379.144655 
L 878.1795 379.144655 
" style="fill: none"/>
   </g>
   <g id="patch_6">
    <path d="M 75.403488 27.243927 
L 878.1795 27.243927 
" style="fill: none"/>
   </g>
   <g id="text_18">
    <!-- Packets Delay to receptor node -->
    <g style="fill: #262626" transform="translate(393.083994 21.243927) scale(0.12 -0.12)">
     <defs>
      <path id="LiberationSans-50" d="M 3931 3078 
Q 3931 2453 3523 2084 
Q 3116 1716 2416 1716 
L 1122 1716 
L 1122 0 
L 525 0 
L 525 4403 
L 2378 4403 
Q 3119 4403 3525 4056 
Q 3931 3709 3931 3078 
z
M 3331 3072 
Q 3331 3925 2306 3925 
L 1122 3925 
L 1122 2188 
L 2331 2188 
Q 3331 2188 3331 3072 
z
" transform="scale(0.015625)"/>
      <path id="LiberationSans-63" d="M 859 1706 
Q 859 1031 1071 706 
Q 1284 381 1713 381 
Q 2013 381 2214 543 
Q 2416 706 2463 1044 
L 3031 1006 
Q 2966 519 2616 228 
Q 2266 -63 1728 -63 
Q 1019 -63 645 385 
Q 272 834 272 1694 
Q 272 2547 647 2995 
Q 1022 3444 1722 3444 
Q 2241 3444 2583 3175 
Q 2925 2906 3013 2434 
L 2434 2391 
Q 2391 2672 2212 2837 
Q 2034 3003 1706 3003 
Q 1259 3003 1059 2706 
Q 859 2409 859 1706 
z
" transform="scale(0.015625)"/>
      <path id="LiberationSans-6b" d="M 2550 0 
L 1406 1544 
L 994 1203 
L 994 0 
L 431 0 
L 431 4638 
L 994 4638 
L 994 1741 
L 2478 3381 
L 3138 3381 
L 1766 1928 
L 3209 0 
L 2550 0 
z
" transform="scale(0.015625)"/>
      <path id="LiberationSans-72" d="M 444 0 
L 444 2594 
Q 444 2950 425 3381 
L 956 3381 
Q 981 2806 981 2691 
L 994 2691 
Q 1128 3125 1303 3284 
Q 1478 3444 1797 3444 
Q 1909 3444 2025 3413 
L 2025 2897 
Q 1913 2928 1725 2928 
Q 1375 2928 1190 2626 
Q 1006 2325 1006 1763 
L 1006 0 
L 444 0 
z
" transform="scale(0.015625)"/>
      <path id="LiberationSans-70" d="M 3291 1706 
Q 3291 -63 2047 -63 
Q 1266 -63 997 525 
L 981 525 
Q 994 500 994 -6 
L 994 -1328 
L 431 -1328 
L 431 2691 
Q 431 3213 413 3381 
L 956 3381 
Q 959 3369 965 3292 
Q 972 3216 980 3056 
Q 988 2897 988 2838 
L 1000 2838 
Q 1150 3150 1397 3295 
Q 1644 3441 2047 3441 
Q 2672 3441 2981 3022 
Q 3291 2603 3291 1706 
z
M 2700 1694 
Q 2700 2400 2509 2703 
Q 2319 3006 1903 3006 
Q 1569 3006 1380 2865 
Q 1191 2725 1092 2426 
Q 994 2128 994 1650 
Q 994 984 1206 668 
Q 1419 353 1897 353 
Q 2316 353 2508 661 
Q 2700 969 2700 1694 
z
" transform="scale(0.015625)"/>
      <path id="LiberationSans-64" d="M 2566 544 
Q 2409 219 2151 78 
Q 1894 -63 1513 -63 
Q 872 -63 570 368 
Q 269 800 269 1675 
Q 269 3444 1513 3444 
Q 1897 3444 2153 3303 
Q 2409 3163 2566 2856 
L 2572 2856 
L 2566 3234 
L 2566 4638 
L 3128 4638 
L 3128 697 
Q 3128 169 3147 0 
L 2609 0 
Q 2600 50 2589 231 
Q 2578 413 2578 544 
L 2566 544 
z
M 859 1694 
Q 859 984 1046 678 
Q 1234 372 1656 372 
Q 2134 372 2350 703 
Q 2566 1034 2566 1731 
Q 2566 2403 2350 2715 
Q 2134 3028 1663 3028 
Q 1238 3028 1048 2714 
Q 859 2400 859 1694 
z
" transform="scale(0.015625)"/>
     </defs>
     <use xlink:href="#LiberationSans-50"/>
     <use xlink:href="#LiberationSans-61" x="66.699219"/>
     <use xlink:href="#LiberationSans-63" x="122.314453"/>
     <use xlink:href="#LiberationSans-6b" x="172.314453"/>
     <use xlink:href="#LiberationSans-65" x="222.314453"/>
     <use xlink:href="#LiberationSans-74" x="277.929688"/>
     <use xlink:href="#LiberationSans-73" x="305.712891"/>
     <use xlink:href="#LiberationSans-20" x="355.712891"/>
     <use xlink:href="#LiberationSans-44" x="383.496094"/>
     <use xlink:href="#LiberationSans-65" x="455.712891"/>
     <use xlink:href="#LiberationSans-6c" x="511.328125"/>
     <use xlink:href="#LiberationSans-61" x="533.544922"/>
     <use xlink:href="#LiberationSans-79" x="589.160156"/>
     <use xlink:href="#LiberationSans-20" x="639.160156"/>
     <use xlink:href="#LiberationSans-74" x="666.943359"/>
     <use xlink:href="#LiberationSans-6f" x="694.726562"/>
     <use xlink:href="#LiberationSans-20" x="750.341797"/>
     <use xlink:href="#LiberationSans-72" x="778.125"/>
     <use xlink:href="#LiberationSans-65" x="811.425781"/>
     <use xlink:href="#LiberationSans-63" x="867.041016"/>
     <use xlink:href="#LiberationSans-65" x="917.041016"/>
     <use xlink:href="#LiberationSans-70" x="972.65625"/>
     <use xlink:href="#LiberationSans-74" x="1028.271484"/>
     <use xlink:href="#LiberationSans-6f" x="1056.054688"/>
     <use xlink:href="#LiberationSans-72" x="1111.669922"/>
     <use xlink:href="#LiberationSans-20" x="1144.970703"/>
     <use xlink:href="#LiberationSans-6e" x="1172.753906"/>
     <use xlink:href="#LiberationSans-6f" x="1228.369141"/>
     <use xlink:href="#LiberationSans-64" x="1283.984375"/>
     <use xlink:href="#LiberationSans-65" x="1339.599609"/>
    </g>
   </g>
  </g>
 </g>
 <defs>
  <clipPath id="pa1d1dc9c2a">
   <rect x="75.403488" y="27.243927" width="802.776012" height="351.900727"/>
  </clipPath>
 </defs>
</svg>
