<?xml version="1.0" encoding="utf-8" standalone="no"?>
<!DOCTYPE svg PUBLIC "-//W3C//DTD SVG 1.1//EN"
  "http://www.w3.org/Graphics/SVG/1.1/DTD/svg11.dtd">
<svg xmlns:xlink="http://www.w3.org/1999/xlink" width="716.4pt" height="349.2pt" viewBox="0 0 716.4 349.2" xmlns="http://www.w3.org/2000/svg" version="1.1">
 <metadata>
  <rdf:RDF xmlns:dc="http://purl.org/dc/elements/1.1/" xmlns:cc="http://creativecommons.org/ns#" xmlns:rdf="http://www.w3.org/1999/02/22-rdf-syntax-ns#">
   <cc:Work>
    <dc:type rdf:resource="http://purl.org/dc/dcmitype/StillImage"/>
    <dc:date>2023-06-07T22:10:32.927609</dc:date>
    <dc:format>image/svg+xml</dc:format>
    <dc:creator>
     <cc:Agent>
      <dc:title>Matplotlib v3.7.1, https://matplotlib.org/</dc:title>
     </cc:Agent>
    </dc:creator>
   </cc:Work>
  </rdf:RDF>
 </metadata>
 <defs>
  <style type="text/css">*{stroke-linejoin: round; stroke-linecap: butt}</style>
 </defs>
 <g id="figure_1">
  <g id="patch_1">
   <path d="M 0 349.2 
L 716.4 349.2 
L 716.4 0 
L 0 0 
z
" style="fill: #ffffff"/>
  </g>
  <g id="axes_1">
   <g id="patch_2">
    <path d="M 68.748281 310.339375 
L 699.609375 310.339375 
L 699.609375 27.16 
L 68.748281 27.16 
z
" style="fill: #eaeaf2"/>
   </g>
   <g id="matplotlib.axis_1">
    <g id="xtick_1">
     <g id="line2d_1"/>
     <g id="text_1">
      <!-- 0 -->
      <g style="fill: #262626" transform="translate(89.95121 321.437813) scale(0.1 -0.1)">
       <defs>
        <path id="DejaVuSans-30" d="M 2034 4250 
Q 1547 4250 1301 3770 
Q 1056 3291 1056 2328 
Q 1056 1369 1301 889 
Q 1547 409 2034 409 
Q 2525 409 2770 889 
Q 3016 1369 3016 2328 
Q 3016 3291 2770 3770 
Q 2525 4250 2034 4250 
z
M 2034 4750 
Q 2819 4750 3233 4129 
Q 3647 3509 3647 2328 
Q 3647 1150 3233 529 
Q 2819 -91 2034 -91 
Q 1250 -91 836 529 
Q 422 1150 422 2328 
Q 422 3509 836 4129 
Q 1250 4750 2034 4750 
z
" transform="scale(0.015625)"/>
       </defs>
       <use xlink:href="#DejaVuSans-30"/>
      </g>
     </g>
    </g>
    <g id="xtick_2">
     <g id="line2d_2"/>
     <g id="text_2">
      <!-- 25 -->
      <g style="fill: #262626" transform="translate(159.003404 321.437813) scale(0.1 -0.1)">
       <defs>
        <path id="DejaVuSans-32" d="M 1228 531 
L 3431 531 
L 3431 0 
L 469 0 
L 469 531 
Q 828 903 1448 1529 
Q 2069 2156 2228 2338 
Q 2531 2678 2651 2914 
Q 2772 3150 2772 3378 
Q 2772 3750 2511 3984 
Q 2250 4219 1831 4219 
Q 1534 4219 1204 4116 
Q 875 4013 500 3803 
L 500 4441 
Q 881 4594 1212 4672 
Q 1544 4750 1819 4750 
Q 2544 4750 2975 4387 
Q 3406 4025 3406 3419 
Q 3406 3131 3298 2873 
Q 3191 2616 2906 2266 
Q 2828 2175 2409 1742 
Q 1991 1309 1228 531 
z
" transform="scale(0.015625)"/>
        <path id="DejaVuSans-35" d="M 691 4666 
L 3169 4666 
L 3169 4134 
L 1269 4134 
L 1269 2991 
Q 1406 3038 1543 3061 
Q 1681 3084 1819 3084 
Q 2600 3084 3056 2656 
Q 3513 2228 3513 1497 
Q 3513 744 3044 326 
Q 2575 -91 1722 -91 
Q 1428 -91 1123 -41 
Q 819 9 494 109 
L 494 744 
Q 775 591 1075 516 
Q 1375 441 1709 441 
Q 2250 441 2565 725 
Q 2881 1009 2881 1497 
Q 2881 1984 2565 2268 
Q 2250 2553 1709 2553 
Q 1456 2553 1204 2497 
Q 953 2441 691 2322 
L 691 4666 
z
" transform="scale(0.015625)"/>
       </defs>
       <use xlink:href="#DejaVuSans-32"/>
       <use xlink:href="#DejaVuSans-35" x="63.623047"/>
      </g>
     </g>
    </g>
    <g id="xtick_3">
     <g id="line2d_3"/>
     <g id="text_3">
      <!-- 50 -->
      <g style="fill: #262626" transform="translate(231.236849 321.437813) scale(0.1 -0.1)">
       <use xlink:href="#DejaVuSans-35"/>
       <use xlink:href="#DejaVuSans-30" x="63.623047"/>
      </g>
     </g>
    </g>
    <g id="xtick_4">
     <g id="line2d_4"/>
     <g id="text_4">
      <!-- 75 -->
      <g style="fill: #262626" transform="translate(303.470294 321.437813) scale(0.1 -0.1)">
       <defs>
        <path id="DejaVuSans-37" d="M 525 4666 
L 3525 4666 
L 3525 4397 
L 1831 0 
L 1172 0 
L 2766 4134 
L 525 4134 
L 525 4666 
z
" transform="scale(0.015625)"/>
       </defs>
       <use xlink:href="#DejaVuSans-37"/>
       <use xlink:href="#DejaVuSans-35" x="63.623047"/>
      </g>
     </g>
    </g>
    <g id="xtick_5">
     <g id="line2d_5"/>
     <g id="text_5">
      <!-- 100 -->
      <g style="fill: #262626" transform="translate(372.522489 321.437813) scale(0.1 -0.1)">
       <defs>
        <path id="DejaVuSans-31" d="M 794 531 
L 1825 531 
L 1825 4091 
L 703 3866 
L 703 4441 
L 1819 4666 
L 2450 4666 
L 2450 531 
L 3481 531 
L 3481 0 
L 794 0 
L 794 531 
z
" transform="scale(0.015625)"/>
       </defs>
       <use xlink:href="#DejaVuSans-31"/>
       <use xlink:href="#DejaVuSans-30" x="63.623047"/>
       <use xlink:href="#DejaVuSans-30" x="127.246094"/>
      </g>
     </g>
    </g>
    <g id="xtick_6">
     <g id="line2d_6"/>
     <g id="text_6">
      <!-- 125 -->
      <g style="fill: #262626" transform="translate(444.755934 321.437813) scale(0.1 -0.1)">
       <use xlink:href="#DejaVuSans-31"/>
       <use xlink:href="#DejaVuSans-32" x="63.623047"/>
       <use xlink:href="#DejaVuSans-35" x="127.246094"/>
      </g>
     </g>
    </g>
    <g id="xtick_7">
     <g id="line2d_7"/>
     <g id="text_7">
      <!-- 150 -->
      <g style="fill: #262626" transform="translate(516.989378 321.437813) scale(0.1 -0.1)">
       <use xlink:href="#DejaVuSans-31"/>
       <use xlink:href="#DejaVuSans-35" x="63.623047"/>
       <use xlink:href="#DejaVuSans-30" x="127.246094"/>
      </g>
     </g>
    </g>
    <g id="xtick_8">
     <g id="line2d_8"/>
     <g id="text_8">
      <!-- 175 -->
      <g style="fill: #262626" transform="translate(589.222823 321.437813) scale(0.1 -0.1)">
       <use xlink:href="#DejaVuSans-31"/>
       <use xlink:href="#DejaVuSans-37" x="63.623047"/>
       <use xlink:href="#DejaVuSans-35" x="127.246094"/>
      </g>
     </g>
    </g>
    <g id="xtick_9">
     <g id="line2d_9"/>
     <g id="text_9">
      <!-- 200 -->
      <g style="fill: #262626" transform="translate(661.456268 321.437813) scale(0.1 -0.1)">
       <use xlink:href="#DejaVuSans-32"/>
       <use xlink:href="#DejaVuSans-30" x="63.623047"/>
       <use xlink:href="#DejaVuSans-30" x="127.246094"/>
      </g>
     </g>
    </g>
    <g id="text_10">
     <!-- Arrival time (s) -->
     <g style="fill: #262626" transform="translate(346.953047 335.115938) scale(0.1 -0.1)">
      <defs>
       <path id="DejaVuSans-41" d="M 2188 4044 
L 1331 1722 
L 3047 1722 
L 2188 4044 
z
M 1831 4666 
L 2547 4666 
L 4325 0 
L 3669 0 
L 3244 1197 
L 1141 1197 
L 716 0 
L 50 0 
L 1831 4666 
z
" transform="scale(0.015625)"/>
       <path id="DejaVuSans-72" d="M 2631 2963 
Q 2534 3019 2420 3045 
Q 2306 3072 2169 3072 
Q 1681 3072 1420 2755 
Q 1159 2438 1159 1844 
L 1159 0 
L 581 0 
L 581 3500 
L 1159 3500 
L 1159 2956 
Q 1341 3275 1631 3429 
Q 1922 3584 2338 3584 
Q 2397 3584 2469 3576 
Q 2541 3569 2628 3553 
L 2631 2963 
z
" transform="scale(0.015625)"/>
       <path id="DejaVuSans-69" d="M 603 3500 
L 1178 3500 
L 1178 0 
L 603 0 
L 603 3500 
z
M 603 4863 
L 1178 4863 
L 1178 4134 
L 603 4134 
L 603 4863 
z
" transform="scale(0.015625)"/>
       <path id="DejaVuSans-76" d="M 191 3500 
L 800 3500 
L 1894 563 
L 2988 3500 
L 3597 3500 
L 2284 0 
L 1503 0 
L 191 3500 
z
" transform="scale(0.015625)"/>
       <path id="DejaVuSans-61" d="M 2194 1759 
Q 1497 1759 1228 1600 
Q 959 1441 959 1056 
Q 959 750 1161 570 
Q 1363 391 1709 391 
Q 2188 391 2477 730 
Q 2766 1069 2766 1631 
L 2766 1759 
L 2194 1759 
z
M 3341 1997 
L 3341 0 
L 2766 0 
L 2766 531 
Q 2569 213 2275 61 
Q 1981 -91 1556 -91 
Q 1019 -91 701 211 
Q 384 513 384 1019 
Q 384 1609 779 1909 
Q 1175 2209 1959 2209 
L 2766 2209 
L 2766 2266 
Q 2766 2663 2505 2880 
Q 2244 3097 1772 3097 
Q 1472 3097 1187 3025 
Q 903 2953 641 2809 
L 641 3341 
Q 956 3463 1253 3523 
Q 1550 3584 1831 3584 
Q 2591 3584 2966 3190 
Q 3341 2797 3341 1997 
z
" transform="scale(0.015625)"/>
       <path id="DejaVuSans-6c" d="M 603 4863 
L 1178 4863 
L 1178 0 
L 603 0 
L 603 4863 
z
" transform="scale(0.015625)"/>
       <path id="DejaVuSans-20" transform="scale(0.015625)"/>
       <path id="DejaVuSans-74" d="M 1172 4494 
L 1172 3500 
L 2356 3500 
L 2356 3053 
L 1172 3053 
L 1172 1153 
Q 1172 725 1289 603 
Q 1406 481 1766 481 
L 2356 481 
L 2356 0 
L 1766 0 
Q 1100 0 847 248 
Q 594 497 594 1153 
L 594 3053 
L 172 3053 
L 172 3500 
L 594 3500 
L 594 4494 
L 1172 4494 
z
" transform="scale(0.015625)"/>
       <path id="DejaVuSans-6d" d="M 3328 2828 
Q 3544 3216 3844 3400 
Q 4144 3584 4550 3584 
Q 5097 3584 5394 3201 
Q 5691 2819 5691 2113 
L 5691 0 
L 5113 0 
L 5113 2094 
Q 5113 2597 4934 2840 
Q 4756 3084 4391 3084 
Q 3944 3084 3684 2787 
Q 3425 2491 3425 1978 
L 3425 0 
L 2847 0 
L 2847 2094 
Q 2847 2600 2669 2842 
Q 2491 3084 2119 3084 
Q 1678 3084 1418 2786 
Q 1159 2488 1159 1978 
L 1159 0 
L 581 0 
L 581 3500 
L 1159 3500 
L 1159 2956 
Q 1356 3278 1631 3431 
Q 1906 3584 2284 3584 
Q 2666 3584 2933 3390 
Q 3200 3197 3328 2828 
z
" transform="scale(0.015625)"/>
       <path id="DejaVuSans-65" d="M 3597 1894 
L 3597 1613 
L 953 1613 
Q 991 1019 1311 708 
Q 1631 397 2203 397 
Q 2534 397 2845 478 
Q 3156 559 3463 722 
L 3463 178 
Q 3153 47 2828 -22 
Q 2503 -91 2169 -91 
Q 1331 -91 842 396 
Q 353 884 353 1716 
Q 353 2575 817 3079 
Q 1281 3584 2069 3584 
Q 2775 3584 3186 3129 
Q 3597 2675 3597 1894 
z
M 3022 2063 
Q 3016 2534 2758 2815 
Q 2500 3097 2075 3097 
Q 1594 3097 1305 2825 
Q 1016 2553 972 2059 
L 3022 2063 
z
" transform="scale(0.015625)"/>
       <path id="DejaVuSans-28" d="M 1984 4856 
Q 1566 4138 1362 3434 
Q 1159 2731 1159 2009 
Q 1159 1288 1364 580 
Q 1569 -128 1984 -844 
L 1484 -844 
Q 1016 -109 783 600 
Q 550 1309 550 2009 
Q 550 2706 781 3412 
Q 1013 4119 1484 4856 
L 1984 4856 
z
" transform="scale(0.015625)"/>
       <path id="DejaVuSans-73" d="M 2834 3397 
L 2834 2853 
Q 2591 2978 2328 3040 
Q 2066 3103 1784 3103 
Q 1356 3103 1142 2972 
Q 928 2841 928 2578 
Q 928 2378 1081 2264 
Q 1234 2150 1697 2047 
L 1894 2003 
Q 2506 1872 2764 1633 
Q 3022 1394 3022 966 
Q 3022 478 2636 193 
Q 2250 -91 1575 -91 
Q 1294 -91 989 -36 
Q 684 19 347 128 
L 347 722 
Q 666 556 975 473 
Q 1284 391 1588 391 
Q 1994 391 2212 530 
Q 2431 669 2431 922 
Q 2431 1156 2273 1281 
Q 2116 1406 1581 1522 
L 1381 1569 
Q 847 1681 609 1914 
Q 372 2147 372 2553 
Q 372 3047 722 3315 
Q 1072 3584 1716 3584 
Q 2034 3584 2315 3537 
Q 2597 3491 2834 3397 
z
" transform="scale(0.015625)"/>
       <path id="DejaVuSans-29" d="M 513 4856 
L 1013 4856 
Q 1481 4119 1714 3412 
Q 1947 2706 1947 2009 
Q 1947 1309 1714 600 
Q 1481 -109 1013 -844 
L 513 -844 
Q 928 -128 1133 580 
Q 1338 1288 1338 2009 
Q 1338 2731 1133 3434 
Q 928 4138 513 4856 
z
" transform="scale(0.015625)"/>
      </defs>
      <use xlink:href="#DejaVuSans-41"/>
      <use xlink:href="#DejaVuSans-72" x="68.408203"/>
      <use xlink:href="#DejaVuSans-72" x="107.771484"/>
      <use xlink:href="#DejaVuSans-69" x="148.884766"/>
      <use xlink:href="#DejaVuSans-76" x="176.667969"/>
      <use xlink:href="#DejaVuSans-61" x="235.847656"/>
      <use xlink:href="#DejaVuSans-6c" x="297.126953"/>
      <use xlink:href="#DejaVuSans-20" x="324.910156"/>
      <use xlink:href="#DejaVuSans-74" x="356.697266"/>
      <use xlink:href="#DejaVuSans-69" x="395.90625"/>
      <use xlink:href="#DejaVuSans-6d" x="423.689453"/>
      <use xlink:href="#DejaVuSans-65" x="521.101562"/>
      <use xlink:href="#DejaVuSans-20" x="582.625"/>
      <use xlink:href="#DejaVuSans-28" x="614.412109"/>
      <use xlink:href="#DejaVuSans-73" x="653.425781"/>
      <use xlink:href="#DejaVuSans-29" x="705.525391"/>
     </g>
    </g>
   </g>
   <g id="matplotlib.axis_2">
    <g id="ytick_1">
     <g id="line2d_10"/>
     <g id="text_11">
      <!-- 1.0 -->
      <g style="fill: #262626" transform="translate(49.345156 301.266804) scale(0.1 -0.1)">
       <defs>
        <path id="DejaVuSans-2e" d="M 684 794 
L 1344 794 
L 1344 0 
L 684 0 
L 684 794 
z
" transform="scale(0.015625)"/>
       </defs>
       <use xlink:href="#DejaVuSans-31"/>
       <use xlink:href="#DejaVuSans-2e" x="63.623047"/>
       <use xlink:href="#DejaVuSans-30" x="95.410156"/>
      </g>
     </g>
    </g>
    <g id="ytick_2">
     <g id="line2d_11"/>
     <g id="text_12">
      <!-- 1.5 -->
      <g style="fill: #262626" transform="translate(49.345156 258.360838) scale(0.1 -0.1)">
       <use xlink:href="#DejaVuSans-31"/>
       <use xlink:href="#DejaVuSans-2e" x="63.623047"/>
       <use xlink:href="#DejaVuSans-35" x="95.410156"/>
      </g>
     </g>
    </g>
    <g id="ytick_3">
     <g id="line2d_12"/>
     <g id="text_13">
      <!-- 2.0 -->
      <g style="fill: #262626" transform="translate(49.345156 215.454872) scale(0.1 -0.1)">
       <use xlink:href="#DejaVuSans-32"/>
       <use xlink:href="#DejaVuSans-2e" x="63.623047"/>
       <use xlink:href="#DejaVuSans-30" x="95.410156"/>
      </g>
     </g>
    </g>
    <g id="ytick_4">
     <g id="line2d_13"/>
     <g id="text_14">
      <!-- 2.5 -->
      <g style="fill: #262626" transform="translate(49.345156 172.548906) scale(0.1 -0.1)">
       <use xlink:href="#DejaVuSans-32"/>
       <use xlink:href="#DejaVuSans-2e" x="63.623047"/>
       <use xlink:href="#DejaVuSans-35" x="95.410156"/>
      </g>
     </g>
    </g>
    <g id="ytick_5">
     <g id="line2d_14"/>
     <g id="text_15">
      <!-- 3.0 -->
      <g style="fill: #262626" transform="translate(49.345156 129.64294) scale(0.1 -0.1)">
       <defs>
        <path id="DejaVuSans-33" d="M 2597 2516 
Q 3050 2419 3304 2112 
Q 3559 1806 3559 1356 
Q 3559 666 3084 287 
Q 2609 -91 1734 -91 
Q 1441 -91 1130 -33 
Q 819 25 488 141 
L 488 750 
Q 750 597 1062 519 
Q 1375 441 1716 441 
Q 2309 441 2620 675 
Q 2931 909 2931 1356 
Q 2931 1769 2642 2001 
Q 2353 2234 1838 2234 
L 1294 2234 
L 1294 2753 
L 1863 2753 
Q 2328 2753 2575 2939 
Q 2822 3125 2822 3475 
Q 2822 3834 2567 4026 
Q 2313 4219 1838 4219 
Q 1578 4219 1281 4162 
Q 984 4106 628 3988 
L 628 4550 
Q 988 4650 1302 4700 
Q 1616 4750 1894 4750 
Q 2613 4750 3031 4423 
Q 3450 4097 3450 3541 
Q 3450 3153 3228 2886 
Q 3006 2619 2597 2516 
z
" transform="scale(0.015625)"/>
       </defs>
       <use xlink:href="#DejaVuSans-33"/>
       <use xlink:href="#DejaVuSans-2e" x="63.623047"/>
       <use xlink:href="#DejaVuSans-30" x="95.410156"/>
      </g>
     </g>
    </g>
    <g id="ytick_6">
     <g id="line2d_15"/>
     <g id="text_16">
      <!-- 3.5 -->
      <g style="fill: #262626" transform="translate(49.345156 86.736974) scale(0.1 -0.1)">
       <use xlink:href="#DejaVuSans-33"/>
       <use xlink:href="#DejaVuSans-2e" x="63.623047"/>
       <use xlink:href="#DejaVuSans-35" x="95.410156"/>
      </g>
     </g>
    </g>
    <g id="ytick_7">
     <g id="line2d_16"/>
     <g id="text_17">
      <!-- 4.0 -->
      <g style="fill: #262626" transform="translate(49.345156 43.831009) scale(0.1 -0.1)">
       <defs>
        <path id="DejaVuSans-34" d="M 2419 4116 
L 825 1625 
L 2419 1625 
L 2419 4116 
z
M 2253 4666 
L 3047 4666 
L 3047 1625 
L 3713 1625 
L 3713 1100 
L 3047 1100 
L 3047 0 
L 2419 0 
L 2419 1100 
L 313 1100 
L 313 1709 
L 2253 4666 
z
" transform="scale(0.015625)"/>
       </defs>
       <use xlink:href="#DejaVuSans-34"/>
       <use xlink:href="#DejaVuSans-2e" x="63.623047"/>
       <use xlink:href="#DejaVuSans-30" x="95.410156"/>
      </g>
     </g>
    </g>
    <g id="text_18">
     <!-- Packet jumps -->
     <g style="fill: #262626" transform="translate(43.265469 201.899687) rotate(-90) scale(0.1 -0.1)">
      <defs>
       <path id="DejaVuSans-50" d="M 1259 4147 
L 1259 2394 
L 2053 2394 
Q 2494 2394 2734 2622 
Q 2975 2850 2975 3272 
Q 2975 3691 2734 3919 
Q 2494 4147 2053 4147 
L 1259 4147 
z
M 628 4666 
L 2053 4666 
Q 2838 4666 3239 4311 
Q 3641 3956 3641 3272 
Q 3641 2581 3239 2228 
Q 2838 1875 2053 1875 
L 1259 1875 
L 1259 0 
L 628 0 
L 628 4666 
z
" transform="scale(0.015625)"/>
       <path id="DejaVuSans-63" d="M 3122 3366 
L 3122 2828 
Q 2878 2963 2633 3030 
Q 2388 3097 2138 3097 
Q 1578 3097 1268 2742 
Q 959 2388 959 1747 
Q 959 1106 1268 751 
Q 1578 397 2138 397 
Q 2388 397 2633 464 
Q 2878 531 3122 666 
L 3122 134 
Q 2881 22 2623 -34 
Q 2366 -91 2075 -91 
Q 1284 -91 818 406 
Q 353 903 353 1747 
Q 353 2603 823 3093 
Q 1294 3584 2113 3584 
Q 2378 3584 2631 3529 
Q 2884 3475 3122 3366 
z
" transform="scale(0.015625)"/>
       <path id="DejaVuSans-6b" d="M 581 4863 
L 1159 4863 
L 1159 1991 
L 2875 3500 
L 3609 3500 
L 1753 1863 
L 3688 0 
L 2938 0 
L 1159 1709 
L 1159 0 
L 581 0 
L 581 4863 
z
" transform="scale(0.015625)"/>
       <path id="DejaVuSans-6a" d="M 603 3500 
L 1178 3500 
L 1178 -63 
Q 1178 -731 923 -1031 
Q 669 -1331 103 -1331 
L -116 -1331 
L -116 -844 
L 38 -844 
Q 366 -844 484 -692 
Q 603 -541 603 -63 
L 603 3500 
z
M 603 4863 
L 1178 4863 
L 1178 4134 
L 603 4134 
L 603 4863 
z
" transform="scale(0.015625)"/>
       <path id="DejaVuSans-75" d="M 544 1381 
L 544 3500 
L 1119 3500 
L 1119 1403 
Q 1119 906 1312 657 
Q 1506 409 1894 409 
Q 2359 409 2629 706 
Q 2900 1003 2900 1516 
L 2900 3500 
L 3475 3500 
L 3475 0 
L 2900 0 
L 2900 538 
Q 2691 219 2414 64 
Q 2138 -91 1772 -91 
Q 1169 -91 856 284 
Q 544 659 544 1381 
z
M 1991 3584 
L 1991 3584 
z
" transform="scale(0.015625)"/>
       <path id="DejaVuSans-70" d="M 1159 525 
L 1159 -1331 
L 581 -1331 
L 581 3500 
L 1159 3500 
L 1159 2969 
Q 1341 3281 1617 3432 
Q 1894 3584 2278 3584 
Q 2916 3584 3314 3078 
Q 3713 2572 3713 1747 
Q 3713 922 3314 415 
Q 2916 -91 2278 -91 
Q 1894 -91 1617 61 
Q 1341 213 1159 525 
z
M 3116 1747 
Q 3116 2381 2855 2742 
Q 2594 3103 2138 3103 
Q 1681 3103 1420 2742 
Q 1159 2381 1159 1747 
Q 1159 1113 1420 752 
Q 1681 391 2138 391 
Q 2594 391 2855 752 
Q 3116 1113 3116 1747 
z
" transform="scale(0.015625)"/>
      </defs>
      <use xlink:href="#DejaVuSans-50"/>
      <use xlink:href="#DejaVuSans-61" x="55.802734"/>
      <use xlink:href="#DejaVuSans-63" x="117.082031"/>
      <use xlink:href="#DejaVuSans-6b" x="172.0625"/>
      <use xlink:href="#DejaVuSans-65" x="226.347656"/>
      <use xlink:href="#DejaVuSans-74" x="287.871094"/>
      <use xlink:href="#DejaVuSans-20" x="327.080078"/>
      <use xlink:href="#DejaVuSans-6a" x="358.867188"/>
      <use xlink:href="#DejaVuSans-75" x="386.650391"/>
      <use xlink:href="#DejaVuSans-6d" x="450.029297"/>
      <use xlink:href="#DejaVuSans-70" x="547.441406"/>
      <use xlink:href="#DejaVuSans-73" x="610.917969"/>
     </g>
    </g>
   </g>
   <g id="line2d_17">
    <path d="M 97.423786 297.467585 
L 101.734326 297.467585 
L 103.202461 211.655653 
L 104.623664 211.655653 
L 106.091799 125.843722 
L 107.513001 297.467585 
L 110.402339 297.467585 
L 111.870474 211.655653 
L 113.291677 297.467585 
L 116.181015 297.467585 
L 117.64915 125.843722 
L 119.070353 211.655653 
L 120.538488 125.843722 
L 121.95969 125.843722 
L 123.427826 297.467585 
L 126.317163 297.467585 
L 129.206501 125.843722 
L 130.627704 297.467585 
L 132.095839 297.467585 
L 133.517041 125.843722 
L 134.985177 211.655653 
L 136.406379 211.655653 
L 137.874515 297.467585 
L 139.295717 297.467585 
L 140.763852 40.03179 
L 142.185055 297.467585 
L 143.65319 297.467585 
L 145.074393 125.843722 
L 147.96373 297.467585 
L 149.431866 125.843722 
L 150.853068 125.843722 
L 152.321204 211.655653 
L 153.742406 211.655653 
L 155.210541 297.467585 
L 156.631744 125.843722 
L 158.099879 40.03179 
L 159.521082 297.467585 
L 162.410419 297.467585 
L 163.878555 211.655653 
L 165.299757 297.467585 
L 166.767893 40.03179 
L 168.189095 211.655653 
L 169.65723 211.655653 
L 171.078433 297.467585 
L 172.546568 297.467585 
L 173.967771 125.843722 
L 175.435906 125.843722 
L 176.857108 297.467585 
L 179.746446 125.843722 
L 181.214581 125.843722 
L 182.635784 297.467585 
L 186.993257 297.467585 
L 188.41446 211.655653 
L 189.882595 211.655653 
L 191.303797 297.467585 
L 199.971811 297.467585 
L 201.439946 40.03179 
L 202.861148 211.655653 
L 204.329284 297.467585 
L 208.639824 297.467585 
L 210.107959 211.655653 
L 211.529162 297.467585 
L 212.997297 297.467585 
L 214.4185 125.843722 
L 217.307837 297.467585 
L 218.775973 211.655653 
L 220.197175 211.655653 
L 221.665311 297.467585 
L 224.554648 125.843722 
L 225.975851 125.843722 
L 227.443986 297.467585 
L 228.865189 125.843722 
L 230.333324 297.467585 
L 231.754526 297.467585 
L 233.222662 211.655653 
L 234.643864 297.467585 
L 237.533202 297.467585 
L 239.001337 125.843722 
L 241.890675 297.467585 
L 243.311878 297.467585 
L 244.780013 125.843722 
L 246.201215 211.655653 
L 247.669351 125.843722 
L 249.090553 297.467585 
L 250.558688 125.843722 
L 251.979891 297.467585 
L 254.869229 125.843722 
L 256.337364 297.467585 
L 257.758567 211.655653 
L 259.226702 40.03179 
L 260.647904 211.655653 
L 262.11604 297.467585 
L 263.537242 297.467585 
L 265.005377 125.843722 
L 266.42658 125.843722 
L 267.894715 297.467585 
L 269.315918 297.467585 
L 270.784053 211.655653 
L 272.205255 211.655653 
L 273.673391 125.843722 
L 275.094593 297.467585 
L 276.562729 211.655653 
L 277.983931 211.655653 
L 279.452066 297.467585 
L 280.873269 297.467585 
L 282.341404 40.03179 
L 283.762607 125.843722 
L 285.230742 297.467585 
L 286.651944 211.655653 
L 288.12008 211.655653 
L 289.541282 297.467585 
L 292.43062 297.467585 
L 293.898755 40.03179 
L 295.319958 297.467585 
L 296.788093 297.467585 
L 298.209296 211.655653 
L 299.677431 297.467585 
L 301.098633 211.655653 
L 302.566769 211.655653 
L 303.987971 125.843722 
L 305.456107 297.467585 
L 308.345444 297.467585 
L 311.234782 125.843722 
L 312.655985 297.467585 
L 314.12412 211.655653 
L 315.545322 297.467585 
L 317.013458 40.03179 
L 318.43466 297.467585 
L 319.902795 297.467585 
L 321.323998 125.843722 
L 322.792133 211.655653 
L 324.213336 211.655653 
L 325.681471 125.843722 
L 327.102674 297.467585 
L 328.570809 297.467585 
L 329.992011 211.655653 
L 331.460147 211.655653 
L 332.881349 297.467585 
L 334.349484 297.467585 
L 335.770687 125.843722 
L 337.238822 211.655653 
L 338.660025 125.843722 
L 340.12816 297.467585 
L 341.549362 297.467585 
L 343.017498 40.03179 
L 345.906836 211.655653 
L 348.796173 211.655653 
L 350.217376 125.843722 
L 351.685511 297.467585 
L 353.106714 125.843722 
L 354.574849 297.467585 
L 357.464187 125.843722 
L 360.353525 297.467585 
L 361.774727 125.843722 
L 363.242862 297.467585 
L 364.664065 297.467585 
L 367.553403 125.843722 
L 370.44274 297.467585 
L 371.910876 125.843722 
L 373.332078 297.467585 
L 376.221416 125.843722 
L 379.110754 297.467585 
L 382.000092 297.467585 
L 383.468227 125.843722 
L 384.889429 211.655653 
L 386.357565 211.655653 
L 387.778767 297.467585 
L 389.246902 297.467585 
L 390.668105 211.655653 
L 392.13624 211.655653 
L 393.557443 297.467585 
L 395.025578 297.467585 
L 396.446781 211.655653 
L 397.914916 40.03179 
L 399.336118 125.843722 
L 400.804254 297.467585 
L 405.114794 297.467585 
L 406.582929 40.03179 
L 408.004132 211.655653 
L 409.472267 211.655653 
L 410.893469 297.467585 
L 412.361605 297.467585 
L 413.782807 211.655653 
L 415.250943 297.467585 
L 416.672145 297.467585 
L 418.14028 40.03179 
L 421.029618 211.655653 
L 422.450821 211.655653 
L 423.918956 297.467585 
L 425.340158 125.843722 
L 426.808294 40.03179 
L 428.229496 211.655653 
L 429.697632 297.467585 
L 431.118834 297.467585 
L 432.586969 40.03179 
L 434.008172 125.843722 
L 435.476307 297.467585 
L 438.365645 297.467585 
L 439.786847 211.655653 
L 442.676185 211.655653 
L 444.144321 297.467585 
L 448.454861 297.467585 
L 449.922996 125.843722 
L 451.344199 297.467585 
L 452.812334 297.467585 
L 454.233536 125.843722 
L 455.701672 297.467585 
L 457.122874 125.843722 
L 460.012212 297.467585 
L 462.90155 297.467585 
L 464.369685 40.03179 
L 465.790888 125.843722 
L 467.259023 297.467585 
L 468.680225 125.843722 
L 471.569563 297.467585 
L 473.037698 40.03179 
L 474.458901 211.655653 
L 475.927036 297.467585 
L 478.816374 297.467585 
L 480.237576 125.843722 
L 483.126914 297.467585 
L 484.59505 297.467585 
L 486.016252 125.843722 
L 488.90559 297.467585 
L 493.263063 297.467585 
L 494.684265 125.843722 
L 496.152401 211.655653 
L 497.573603 211.655653 
L 499.041739 297.467585 
L 500.462941 297.467585 
L 501.931076 40.03179 
L 506.241617 297.467585 
L 507.709752 40.03179 
L 509.130954 297.467585 
L 510.59909 211.655653 
L 512.020292 211.655653 
L 513.488428 297.467585 
L 514.90963 297.467585 
L 516.377765 125.843722 
L 519.267103 297.467585 
L 520.688306 211.655653 
L 522.156441 297.467585 
L 523.577643 125.843722 
L 525.045779 40.03179 
L 526.466981 211.655653 
L 527.935116 211.655653 
L 529.356319 297.467585 
L 533.713792 40.03179 
L 535.134995 211.655653 
L 536.60313 297.467585 
L 538.024332 297.467585 
L 539.492468 125.843722 
L 540.91367 297.467585 
L 542.381805 297.467585 
L 543.803008 211.655653 
L 546.692346 211.655653 
L 548.160481 40.03179 
L 549.581683 297.467585 
L 551.049819 297.467585 
L 552.471021 125.843722 
L 555.360359 125.843722 
L 556.828494 297.467585 
L 558.249697 211.655653 
L 559.717832 297.467585 
L 561.139035 211.655653 
L 562.60717 297.467585 
L 564.028372 297.467585 
L 565.496508 211.655653 
L 568.385846 211.655653 
L 569.807048 297.467585 
L 572.696386 297.467585 
L 574.164521 40.03179 
L 575.585724 297.467585 
L 577.053859 297.467585 
L 578.475061 125.843722 
L 579.943197 125.843722 
L 581.364399 297.467585 
L 584.253737 297.467585 
L 585.721872 40.03179 
L 587.143075 211.655653 
L 588.61121 297.467585 
L 590.032413 297.467585 
L 591.500548 125.843722 
L 592.92175 297.467585 
L 594.389886 297.467585 
L 595.811088 211.655653 
L 597.279223 297.467585 
L 598.700426 297.467585 
L 603.057899 40.03179 
L 604.479102 297.467585 
L 607.368439 297.467585 
L 608.836575 125.843722 
L 610.257777 125.843722 
L 611.725912 40.03179 
L 613.147115 211.655653 
L 614.61525 297.467585 
L 617.504588 297.467585 
L 618.92579 211.655653 
L 620.393926 211.655653 
L 621.815128 125.843722 
L 623.283264 297.467585 
L 626.172601 297.467585 
L 629.061939 125.843722 
L 630.483142 297.467585 
L 631.951277 297.467585 
L 633.372479 211.655653 
L 634.840615 40.03179 
L 636.261817 297.467585 
L 639.151155 297.467585 
L 640.61929 211.655653 
L 642.040493 211.655653 
L 643.508628 297.467585 
L 644.929831 297.467585 
L 646.397966 125.843722 
L 647.819168 125.843722 
L 649.287304 297.467585 
L 650.708506 211.655653 
L 652.176642 297.467585 
L 653.597844 297.467585 
L 655.065979 211.655653 
L 656.487182 297.467585 
L 657.955317 211.655653 
L 659.37652 297.467585 
L 662.265857 297.467585 
L 663.733993 40.03179 
L 665.155195 125.843722 
L 666.62333 297.467585 
L 669.512668 125.843722 
L 670.933871 211.655653 
L 670.933871 211.655653 
" clip-path="url(#pc9be7c0463)" style="fill: none; stroke: #1f77b4; stroke-width: 1.5; stroke-linecap: round"/>
   </g>
   <g id="patch_3">
    <path d="M 68.748281 310.339375 
L 68.748281 27.16 
" style="fill: none"/>
   </g>
   <g id="patch_4">
    <path d="M 699.609375 310.339375 
L 699.609375 27.16 
" style="fill: none"/>
   </g>
   <g id="patch_5">
    <path d="M 68.748281 310.339375 
L 699.609375 310.339375 
" style="fill: none"/>
   </g>
   <g id="patch_6">
    <path d="M 68.748281 27.16 
L 699.609375 27.16 
" style="fill: none"/>
   </g>
   <g id="text_19">
    <!-- Jumps per packet arrived in time -->
    <g style="fill: #262626" transform="translate(285.990703 21.16) scale(0.12 -0.12)">
     <defs>
      <path id="DejaVuSans-4a" d="M 628 4666 
L 1259 4666 
L 1259 325 
Q 1259 -519 939 -900 
Q 619 -1281 -91 -1281 
L -331 -1281 
L -331 -750 
L -134 -750 
Q 284 -750 456 -515 
Q 628 -281 628 325 
L 628 4666 
z
" transform="scale(0.015625)"/>
      <path id="DejaVuSans-64" d="M 2906 2969 
L 2906 4863 
L 3481 4863 
L 3481 0 
L 2906 0 
L 2906 525 
Q 2725 213 2448 61 
Q 2172 -91 1784 -91 
Q 1150 -91 751 415 
Q 353 922 353 1747 
Q 353 2572 751 3078 
Q 1150 3584 1784 3584 
Q 2172 3584 2448 3432 
Q 2725 3281 2906 2969 
z
M 947 1747 
Q 947 1113 1208 752 
Q 1469 391 1925 391 
Q 2381 391 2643 752 
Q 2906 1113 2906 1747 
Q 2906 2381 2643 2742 
Q 2381 3103 1925 3103 
Q 1469 3103 1208 2742 
Q 947 2381 947 1747 
z
" transform="scale(0.015625)"/>
      <path id="DejaVuSans-6e" d="M 3513 2113 
L 3513 0 
L 2938 0 
L 2938 2094 
Q 2938 2591 2744 2837 
Q 2550 3084 2163 3084 
Q 1697 3084 1428 2787 
Q 1159 2491 1159 1978 
L 1159 0 
L 581 0 
L 581 3500 
L 1159 3500 
L 1159 2956 
Q 1366 3272 1645 3428 
Q 1925 3584 2291 3584 
Q 2894 3584 3203 3211 
Q 3513 2838 3513 2113 
z
" transform="scale(0.015625)"/>
     </defs>
     <use xlink:href="#DejaVuSans-4a"/>
     <use xlink:href="#DejaVuSans-75" x="29.492188"/>
     <use xlink:href="#DejaVuSans-6d" x="92.871094"/>
     <use xlink:href="#DejaVuSans-70" x="190.283203"/>
     <use xlink:href="#DejaVuSans-73" x="253.759766"/>
     <use xlink:href="#DejaVuSans-20" x="305.859375"/>
     <use xlink:href="#DejaVuSans-70" x="337.646484"/>
     <use xlink:href="#DejaVuSans-65" x="401.123047"/>
     <use xlink:href="#DejaVuSans-72" x="462.646484"/>
     <use xlink:href="#DejaVuSans-20" x="503.759766"/>
     <use xlink:href="#DejaVuSans-70" x="535.546875"/>
     <use xlink:href="#DejaVuSans-61" x="599.023438"/>
     <use xlink:href="#DejaVuSans-63" x="660.302734"/>
     <use xlink:href="#DejaVuSans-6b" x="715.283203"/>
     <use xlink:href="#DejaVuSans-65" x="769.568359"/>
     <use xlink:href="#DejaVuSans-74" x="831.091797"/>
     <use xlink:href="#DejaVuSans-20" x="870.300781"/>
     <use xlink:href="#DejaVuSans-61" x="902.087891"/>
     <use xlink:href="#DejaVuSans-72" x="963.367188"/>
     <use xlink:href="#DejaVuSans-72" x="1002.730469"/>
     <use xlink:href="#DejaVuSans-69" x="1043.84375"/>
     <use xlink:href="#DejaVuSans-76" x="1071.626953"/>
     <use xlink:href="#DejaVuSans-65" x="1130.806641"/>
     <use xlink:href="#DejaVuSans-64" x="1192.330078"/>
     <use xlink:href="#DejaVuSans-20" x="1255.806641"/>
     <use xlink:href="#DejaVuSans-69" x="1287.59375"/>
     <use xlink:href="#DejaVuSans-6e" x="1315.376953"/>
     <use xlink:href="#DejaVuSans-20" x="1378.755859"/>
     <use xlink:href="#DejaVuSans-74" x="1410.542969"/>
     <use xlink:href="#DejaVuSans-69" x="1449.751953"/>
     <use xlink:href="#DejaVuSans-6d" x="1477.535156"/>
     <use xlink:href="#DejaVuSans-65" x="1574.947266"/>
    </g>
   </g>
  </g>
 </g>
 <defs>
  <clipPath id="pc9be7c0463">
   <rect x="68.748281" y="27.16" width="630.861094" height="283.179375"/>
  </clipPath>
 </defs>
</svg>
