<?xml version="1.0" encoding="utf-8" standalone="no"?>
<!DOCTYPE svg PUBLIC "-//W3C//DTD SVG 1.1//EN"
  "http://www.w3.org/Graphics/SVG/1.1/DTD/svg11.dtd">
<svg xmlns:xlink="http://www.w3.org/1999/xlink" width="716.4pt" height="349.2pt" viewBox="0 0 716.4 349.2" xmlns="http://www.w3.org/2000/svg" version="1.1">
 <metadata>
  <rdf:RDF xmlns:dc="http://purl.org/dc/elements/1.1/" xmlns:cc="http://creativecommons.org/ns#" xmlns:rdf="http://www.w3.org/1999/02/22-rdf-syntax-ns#">
   <cc:Work>
    <dc:type rdf:resource="http://purl.org/dc/dcmitype/StillImage"/>
    <dc:date>2023-06-07T22:02:40.857737</dc:date>
    <dc:format>image/svg+xml</dc:format>
    <dc:creator>
     <cc:Agent>
      <dc:title>Matplotlib v3.7.1, https://matplotlib.org/</dc:title>
     </cc:Agent>
    </dc:creator>
   </cc:Work>
  </rdf:RDF>
 </metadata>
 <defs>
  <style type="text/css">*{stroke-linejoin: round; stroke-linecap: butt}</style>
 </defs>
 <g id="figure_1">
  <g id="patch_1">
   <path d="M 0 349.2 
L 716.4 349.2 
L 716.4 0 
L 0 0 
z
" style="fill: #ffffff"/>
  </g>
  <g id="axes_1">
   <g id="patch_2">
    <path d="M 73.645547 310.339375 
L 699.609375 310.339375 
L 699.609375 27.16 
L 73.645547 27.16 
z
" style="fill: #eaeaf2"/>
   </g>
   <g id="matplotlib.axis_1">
    <g id="xtick_1">
     <g id="line2d_1"/>
     <g id="text_1">
      <!-- 0 -->
      <g style="fill: #262626" transform="translate(94.659185 321.437813) scale(0.1 -0.1)">
       <defs>
        <path id="DejaVuSans-30" d="M 2034 4250 
Q 1547 4250 1301 3770 
Q 1056 3291 1056 2328 
Q 1056 1369 1301 889 
Q 1547 409 2034 409 
Q 2525 409 2770 889 
Q 3016 1369 3016 2328 
Q 3016 3291 2770 3770 
Q 2525 4250 2034 4250 
z
M 2034 4750 
Q 2819 4750 3233 4129 
Q 3647 3509 3647 2328 
Q 3647 1150 3233 529 
Q 2819 -91 2034 -91 
Q 1250 -91 836 529 
Q 422 1150 422 2328 
Q 422 3509 836 4129 
Q 1250 4750 2034 4750 
z
" transform="scale(0.015625)"/>
       </defs>
       <use xlink:href="#DejaVuSans-30"/>
      </g>
     </g>
    </g>
    <g id="xtick_2">
     <g id="line2d_2"/>
     <g id="text_2">
      <!-- 25 -->
      <g style="fill: #262626" transform="translate(163.150644 321.437813) scale(0.1 -0.1)">
       <defs>
        <path id="DejaVuSans-32" d="M 1228 531 
L 3431 531 
L 3431 0 
L 469 0 
L 469 531 
Q 828 903 1448 1529 
Q 2069 2156 2228 2338 
Q 2531 2678 2651 2914 
Q 2772 3150 2772 3378 
Q 2772 3750 2511 3984 
Q 2250 4219 1831 4219 
Q 1534 4219 1204 4116 
Q 875 4013 500 3803 
L 500 4441 
Q 881 4594 1212 4672 
Q 1544 4750 1819 4750 
Q 2544 4750 2975 4387 
Q 3406 4025 3406 3419 
Q 3406 3131 3298 2873 
Q 3191 2616 2906 2266 
Q 2828 2175 2409 1742 
Q 1991 1309 1228 531 
z
" transform="scale(0.015625)"/>
        <path id="DejaVuSans-35" d="M 691 4666 
L 3169 4666 
L 3169 4134 
L 1269 4134 
L 1269 2991 
Q 1406 3038 1543 3061 
Q 1681 3084 1819 3084 
Q 2600 3084 3056 2656 
Q 3513 2228 3513 1497 
Q 3513 744 3044 326 
Q 2575 -91 1722 -91 
Q 1428 -91 1123 -41 
Q 819 9 494 109 
L 494 744 
Q 775 591 1075 516 
Q 1375 441 1709 441 
Q 2250 441 2565 725 
Q 2881 1009 2881 1497 
Q 2881 1984 2565 2268 
Q 2250 2553 1709 2553 
Q 1456 2553 1204 2497 
Q 953 2441 691 2322 
L 691 4666 
z
" transform="scale(0.015625)"/>
       </defs>
       <use xlink:href="#DejaVuSans-32"/>
       <use xlink:href="#DejaVuSans-35" x="63.623047"/>
      </g>
     </g>
    </g>
    <g id="xtick_3">
     <g id="line2d_3"/>
     <g id="text_3">
      <!-- 50 -->
      <g style="fill: #262626" transform="translate(234.823353 321.437813) scale(0.1 -0.1)">
       <use xlink:href="#DejaVuSans-35"/>
       <use xlink:href="#DejaVuSans-30" x="63.623047"/>
      </g>
     </g>
    </g>
    <g id="xtick_4">
     <g id="line2d_4"/>
     <g id="text_4">
      <!-- 75 -->
      <g style="fill: #262626" transform="translate(306.496062 321.437813) scale(0.1 -0.1)">
       <defs>
        <path id="DejaVuSans-37" d="M 525 4666 
L 3525 4666 
L 3525 4397 
L 1831 0 
L 1172 0 
L 2766 4134 
L 525 4134 
L 525 4666 
z
" transform="scale(0.015625)"/>
       </defs>
       <use xlink:href="#DejaVuSans-37"/>
       <use xlink:href="#DejaVuSans-35" x="63.623047"/>
      </g>
     </g>
    </g>
    <g id="xtick_5">
     <g id="line2d_5"/>
     <g id="text_5">
      <!-- 100 -->
      <g style="fill: #262626" transform="translate(374.987521 321.437813) scale(0.1 -0.1)">
       <defs>
        <path id="DejaVuSans-31" d="M 794 531 
L 1825 531 
L 1825 4091 
L 703 3866 
L 703 4441 
L 1819 4666 
L 2450 4666 
L 2450 531 
L 3481 531 
L 3481 0 
L 794 0 
L 794 531 
z
" transform="scale(0.015625)"/>
       </defs>
       <use xlink:href="#DejaVuSans-31"/>
       <use xlink:href="#DejaVuSans-30" x="63.623047"/>
       <use xlink:href="#DejaVuSans-30" x="127.246094"/>
      </g>
     </g>
    </g>
    <g id="xtick_6">
     <g id="line2d_6"/>
     <g id="text_6">
      <!-- 125 -->
      <g style="fill: #262626" transform="translate(446.66023 321.437813) scale(0.1 -0.1)">
       <use xlink:href="#DejaVuSans-31"/>
       <use xlink:href="#DejaVuSans-32" x="63.623047"/>
       <use xlink:href="#DejaVuSans-35" x="127.246094"/>
      </g>
     </g>
    </g>
    <g id="xtick_7">
     <g id="line2d_7"/>
     <g id="text_7">
      <!-- 150 -->
      <g style="fill: #262626" transform="translate(518.332939 321.437813) scale(0.1 -0.1)">
       <use xlink:href="#DejaVuSans-31"/>
       <use xlink:href="#DejaVuSans-35" x="63.623047"/>
       <use xlink:href="#DejaVuSans-30" x="127.246094"/>
      </g>
     </g>
    </g>
    <g id="xtick_8">
     <g id="line2d_8"/>
     <g id="text_8">
      <!-- 175 -->
      <g style="fill: #262626" transform="translate(590.005648 321.437813) scale(0.1 -0.1)">
       <use xlink:href="#DejaVuSans-31"/>
       <use xlink:href="#DejaVuSans-37" x="63.623047"/>
       <use xlink:href="#DejaVuSans-35" x="127.246094"/>
      </g>
     </g>
    </g>
    <g id="xtick_9">
     <g id="line2d_9"/>
     <g id="text_9">
      <!-- 200 -->
      <g style="fill: #262626" transform="translate(661.678357 321.437813) scale(0.1 -0.1)">
       <use xlink:href="#DejaVuSans-32"/>
       <use xlink:href="#DejaVuSans-30" x="63.623047"/>
       <use xlink:href="#DejaVuSans-30" x="127.246094"/>
      </g>
     </g>
    </g>
    <g id="text_10">
     <!-- Simulation time (s) -->
     <g style="fill: #262626" transform="translate(339.01418 335.115938) scale(0.1 -0.1)">
      <defs>
       <path id="DejaVuSans-53" d="M 3425 4513 
L 3425 3897 
Q 3066 4069 2747 4153 
Q 2428 4238 2131 4238 
Q 1616 4238 1336 4038 
Q 1056 3838 1056 3469 
Q 1056 3159 1242 3001 
Q 1428 2844 1947 2747 
L 2328 2669 
Q 3034 2534 3370 2195 
Q 3706 1856 3706 1288 
Q 3706 609 3251 259 
Q 2797 -91 1919 -91 
Q 1588 -91 1214 -16 
Q 841 59 441 206 
L 441 856 
Q 825 641 1194 531 
Q 1563 422 1919 422 
Q 2459 422 2753 634 
Q 3047 847 3047 1241 
Q 3047 1584 2836 1778 
Q 2625 1972 2144 2069 
L 1759 2144 
Q 1053 2284 737 2584 
Q 422 2884 422 3419 
Q 422 4038 858 4394 
Q 1294 4750 2059 4750 
Q 2388 4750 2728 4690 
Q 3069 4631 3425 4513 
z
" transform="scale(0.015625)"/>
       <path id="DejaVuSans-69" d="M 603 3500 
L 1178 3500 
L 1178 0 
L 603 0 
L 603 3500 
z
M 603 4863 
L 1178 4863 
L 1178 4134 
L 603 4134 
L 603 4863 
z
" transform="scale(0.015625)"/>
       <path id="DejaVuSans-6d" d="M 3328 2828 
Q 3544 3216 3844 3400 
Q 4144 3584 4550 3584 
Q 5097 3584 5394 3201 
Q 5691 2819 5691 2113 
L 5691 0 
L 5113 0 
L 5113 2094 
Q 5113 2597 4934 2840 
Q 4756 3084 4391 3084 
Q 3944 3084 3684 2787 
Q 3425 2491 3425 1978 
L 3425 0 
L 2847 0 
L 2847 2094 
Q 2847 2600 2669 2842 
Q 2491 3084 2119 3084 
Q 1678 3084 1418 2786 
Q 1159 2488 1159 1978 
L 1159 0 
L 581 0 
L 581 3500 
L 1159 3500 
L 1159 2956 
Q 1356 3278 1631 3431 
Q 1906 3584 2284 3584 
Q 2666 3584 2933 3390 
Q 3200 3197 3328 2828 
z
" transform="scale(0.015625)"/>
       <path id="DejaVuSans-75" d="M 544 1381 
L 544 3500 
L 1119 3500 
L 1119 1403 
Q 1119 906 1312 657 
Q 1506 409 1894 409 
Q 2359 409 2629 706 
Q 2900 1003 2900 1516 
L 2900 3500 
L 3475 3500 
L 3475 0 
L 2900 0 
L 2900 538 
Q 2691 219 2414 64 
Q 2138 -91 1772 -91 
Q 1169 -91 856 284 
Q 544 659 544 1381 
z
M 1991 3584 
L 1991 3584 
z
" transform="scale(0.015625)"/>
       <path id="DejaVuSans-6c" d="M 603 4863 
L 1178 4863 
L 1178 0 
L 603 0 
L 603 4863 
z
" transform="scale(0.015625)"/>
       <path id="DejaVuSans-61" d="M 2194 1759 
Q 1497 1759 1228 1600 
Q 959 1441 959 1056 
Q 959 750 1161 570 
Q 1363 391 1709 391 
Q 2188 391 2477 730 
Q 2766 1069 2766 1631 
L 2766 1759 
L 2194 1759 
z
M 3341 1997 
L 3341 0 
L 2766 0 
L 2766 531 
Q 2569 213 2275 61 
Q 1981 -91 1556 -91 
Q 1019 -91 701 211 
Q 384 513 384 1019 
Q 384 1609 779 1909 
Q 1175 2209 1959 2209 
L 2766 2209 
L 2766 2266 
Q 2766 2663 2505 2880 
Q 2244 3097 1772 3097 
Q 1472 3097 1187 3025 
Q 903 2953 641 2809 
L 641 3341 
Q 956 3463 1253 3523 
Q 1550 3584 1831 3584 
Q 2591 3584 2966 3190 
Q 3341 2797 3341 1997 
z
" transform="scale(0.015625)"/>
       <path id="DejaVuSans-74" d="M 1172 4494 
L 1172 3500 
L 2356 3500 
L 2356 3053 
L 1172 3053 
L 1172 1153 
Q 1172 725 1289 603 
Q 1406 481 1766 481 
L 2356 481 
L 2356 0 
L 1766 0 
Q 1100 0 847 248 
Q 594 497 594 1153 
L 594 3053 
L 172 3053 
L 172 3500 
L 594 3500 
L 594 4494 
L 1172 4494 
z
" transform="scale(0.015625)"/>
       <path id="DejaVuSans-6f" d="M 1959 3097 
Q 1497 3097 1228 2736 
Q 959 2375 959 1747 
Q 959 1119 1226 758 
Q 1494 397 1959 397 
Q 2419 397 2687 759 
Q 2956 1122 2956 1747 
Q 2956 2369 2687 2733 
Q 2419 3097 1959 3097 
z
M 1959 3584 
Q 2709 3584 3137 3096 
Q 3566 2609 3566 1747 
Q 3566 888 3137 398 
Q 2709 -91 1959 -91 
Q 1206 -91 779 398 
Q 353 888 353 1747 
Q 353 2609 779 3096 
Q 1206 3584 1959 3584 
z
" transform="scale(0.015625)"/>
       <path id="DejaVuSans-6e" d="M 3513 2113 
L 3513 0 
L 2938 0 
L 2938 2094 
Q 2938 2591 2744 2837 
Q 2550 3084 2163 3084 
Q 1697 3084 1428 2787 
Q 1159 2491 1159 1978 
L 1159 0 
L 581 0 
L 581 3500 
L 1159 3500 
L 1159 2956 
Q 1366 3272 1645 3428 
Q 1925 3584 2291 3584 
Q 2894 3584 3203 3211 
Q 3513 2838 3513 2113 
z
" transform="scale(0.015625)"/>
       <path id="DejaVuSans-20" transform="scale(0.015625)"/>
       <path id="DejaVuSans-65" d="M 3597 1894 
L 3597 1613 
L 953 1613 
Q 991 1019 1311 708 
Q 1631 397 2203 397 
Q 2534 397 2845 478 
Q 3156 559 3463 722 
L 3463 178 
Q 3153 47 2828 -22 
Q 2503 -91 2169 -91 
Q 1331 -91 842 396 
Q 353 884 353 1716 
Q 353 2575 817 3079 
Q 1281 3584 2069 3584 
Q 2775 3584 3186 3129 
Q 3597 2675 3597 1894 
z
M 3022 2063 
Q 3016 2534 2758 2815 
Q 2500 3097 2075 3097 
Q 1594 3097 1305 2825 
Q 1016 2553 972 2059 
L 3022 2063 
z
" transform="scale(0.015625)"/>
       <path id="DejaVuSans-28" d="M 1984 4856 
Q 1566 4138 1362 3434 
Q 1159 2731 1159 2009 
Q 1159 1288 1364 580 
Q 1569 -128 1984 -844 
L 1484 -844 
Q 1016 -109 783 600 
Q 550 1309 550 2009 
Q 550 2706 781 3412 
Q 1013 4119 1484 4856 
L 1984 4856 
z
" transform="scale(0.015625)"/>
       <path id="DejaVuSans-73" d="M 2834 3397 
L 2834 2853 
Q 2591 2978 2328 3040 
Q 2066 3103 1784 3103 
Q 1356 3103 1142 2972 
Q 928 2841 928 2578 
Q 928 2378 1081 2264 
Q 1234 2150 1697 2047 
L 1894 2003 
Q 2506 1872 2764 1633 
Q 3022 1394 3022 966 
Q 3022 478 2636 193 
Q 2250 -91 1575 -91 
Q 1294 -91 989 -36 
Q 684 19 347 128 
L 347 722 
Q 666 556 975 473 
Q 1284 391 1588 391 
Q 1994 391 2212 530 
Q 2431 669 2431 922 
Q 2431 1156 2273 1281 
Q 2116 1406 1581 1522 
L 1381 1569 
Q 847 1681 609 1914 
Q 372 2147 372 2553 
Q 372 3047 722 3315 
Q 1072 3584 1716 3584 
Q 2034 3584 2315 3537 
Q 2597 3491 2834 3397 
z
" transform="scale(0.015625)"/>
       <path id="DejaVuSans-29" d="M 513 4856 
L 1013 4856 
Q 1481 4119 1714 3412 
Q 1947 2706 1947 2009 
Q 1947 1309 1714 600 
Q 1481 -109 1013 -844 
L 513 -844 
Q 928 -128 1133 580 
Q 1338 1288 1338 2009 
Q 1338 2731 1133 3434 
Q 928 4138 513 4856 
z
" transform="scale(0.015625)"/>
      </defs>
      <use xlink:href="#DejaVuSans-53"/>
      <use xlink:href="#DejaVuSans-69" x="63.476562"/>
      <use xlink:href="#DejaVuSans-6d" x="91.259766"/>
      <use xlink:href="#DejaVuSans-75" x="188.671875"/>
      <use xlink:href="#DejaVuSans-6c" x="252.050781"/>
      <use xlink:href="#DejaVuSans-61" x="279.833984"/>
      <use xlink:href="#DejaVuSans-74" x="341.113281"/>
      <use xlink:href="#DejaVuSans-69" x="380.322266"/>
      <use xlink:href="#DejaVuSans-6f" x="408.105469"/>
      <use xlink:href="#DejaVuSans-6e" x="469.287109"/>
      <use xlink:href="#DejaVuSans-20" x="532.666016"/>
      <use xlink:href="#DejaVuSans-74" x="564.453125"/>
      <use xlink:href="#DejaVuSans-69" x="603.662109"/>
      <use xlink:href="#DejaVuSans-6d" x="631.445312"/>
      <use xlink:href="#DejaVuSans-65" x="728.857422"/>
      <use xlink:href="#DejaVuSans-20" x="790.380859"/>
      <use xlink:href="#DejaVuSans-28" x="822.167969"/>
      <use xlink:href="#DejaVuSans-73" x="861.181641"/>
      <use xlink:href="#DejaVuSans-29" x="913.28125"/>
     </g>
    </g>
   </g>
   <g id="matplotlib.axis_2">
    <g id="ytick_1">
     <g id="line2d_10"/>
     <g id="text_11">
      <!-- 0 -->
      <g style="fill: #262626" transform="translate(63.783047 302.822941) scale(0.1 -0.1)">
       <use xlink:href="#DejaVuSans-30"/>
      </g>
     </g>
    </g>
    <g id="ytick_2">
     <g id="line2d_11"/>
     <g id="text_12">
      <!-- 25 -->
      <g style="fill: #262626" transform="translate(57.420547 263.923412) scale(0.1 -0.1)">
       <use xlink:href="#DejaVuSans-32"/>
       <use xlink:href="#DejaVuSans-35" x="63.623047"/>
      </g>
     </g>
    </g>
    <g id="ytick_3">
     <g id="line2d_12"/>
     <g id="text_13">
      <!-- 50 -->
      <g style="fill: #262626" transform="translate(57.420547 225.023882) scale(0.1 -0.1)">
       <use xlink:href="#DejaVuSans-35"/>
       <use xlink:href="#DejaVuSans-30" x="63.623047"/>
      </g>
     </g>
    </g>
    <g id="ytick_4">
     <g id="line2d_13"/>
     <g id="text_14">
      <!-- 75 -->
      <g style="fill: #262626" transform="translate(57.420547 186.124353) scale(0.1 -0.1)">
       <use xlink:href="#DejaVuSans-37"/>
       <use xlink:href="#DejaVuSans-35" x="63.623047"/>
      </g>
     </g>
    </g>
    <g id="ytick_5">
     <g id="line2d_14"/>
     <g id="text_15">
      <!-- 100 -->
      <g style="fill: #262626" transform="translate(51.058047 147.224824) scale(0.1 -0.1)">
       <use xlink:href="#DejaVuSans-31"/>
       <use xlink:href="#DejaVuSans-30" x="63.623047"/>
       <use xlink:href="#DejaVuSans-30" x="127.246094"/>
      </g>
     </g>
    </g>
    <g id="ytick_6">
     <g id="line2d_15"/>
     <g id="text_16">
      <!-- 125 -->
      <g style="fill: #262626" transform="translate(51.058047 108.325295) scale(0.1 -0.1)">
       <use xlink:href="#DejaVuSans-31"/>
       <use xlink:href="#DejaVuSans-32" x="63.623047"/>
       <use xlink:href="#DejaVuSans-35" x="127.246094"/>
      </g>
     </g>
    </g>
    <g id="ytick_7">
     <g id="line2d_16"/>
     <g id="text_17">
      <!-- 150 -->
      <g style="fill: #262626" transform="translate(51.058047 69.425766) scale(0.1 -0.1)">
       <use xlink:href="#DejaVuSans-31"/>
       <use xlink:href="#DejaVuSans-35" x="63.623047"/>
       <use xlink:href="#DejaVuSans-30" x="127.246094"/>
      </g>
     </g>
    </g>
    <g id="text_18">
     <!-- Delay time (s) -->
     <g style="fill: #262626" transform="translate(44.978359 204.069219) rotate(-90) scale(0.1 -0.1)">
      <defs>
       <path id="DejaVuSans-44" d="M 1259 4147 
L 1259 519 
L 2022 519 
Q 2988 519 3436 956 
Q 3884 1394 3884 2338 
Q 3884 3275 3436 3711 
Q 2988 4147 2022 4147 
L 1259 4147 
z
M 628 4666 
L 1925 4666 
Q 3281 4666 3915 4102 
Q 4550 3538 4550 2338 
Q 4550 1131 3912 565 
Q 3275 0 1925 0 
L 628 0 
L 628 4666 
z
" transform="scale(0.015625)"/>
       <path id="DejaVuSans-79" d="M 2059 -325 
Q 1816 -950 1584 -1140 
Q 1353 -1331 966 -1331 
L 506 -1331 
L 506 -850 
L 844 -850 
Q 1081 -850 1212 -737 
Q 1344 -625 1503 -206 
L 1606 56 
L 191 3500 
L 800 3500 
L 1894 763 
L 2988 3500 
L 3597 3500 
L 2059 -325 
z
" transform="scale(0.015625)"/>
      </defs>
      <use xlink:href="#DejaVuSans-44"/>
      <use xlink:href="#DejaVuSans-65" x="77.001953"/>
      <use xlink:href="#DejaVuSans-6c" x="138.525391"/>
      <use xlink:href="#DejaVuSans-61" x="166.308594"/>
      <use xlink:href="#DejaVuSans-79" x="227.587891"/>
      <use xlink:href="#DejaVuSans-20" x="286.767578"/>
      <use xlink:href="#DejaVuSans-74" x="318.554688"/>
      <use xlink:href="#DejaVuSans-69" x="357.763672"/>
      <use xlink:href="#DejaVuSans-6d" x="385.546875"/>
      <use xlink:href="#DejaVuSans-65" x="482.958984"/>
      <use xlink:href="#DejaVuSans-20" x="544.482422"/>
      <use xlink:href="#DejaVuSans-28" x="576.269531"/>
      <use xlink:href="#DejaVuSans-73" x="615.283203"/>
      <use xlink:href="#DejaVuSans-29" x="667.382812"/>
     </g>
    </g>
   </g>
   <g id="line2d_17">
    <path d="M 102.098448 297.467585 
L 103.508618 297.467585 
L 104.965357 296.00245 
L 106.375526 296.66408 
L 107.832265 294.150282 
L 109.242435 295.759052 
L 110.699173 293.442934 
L 112.109343 295.99329 
L 113.566082 296.492447 
L 114.976252 294.579154 
L 116.43299 292.9421 
L 117.84316 293.054955 
L 119.299898 293.615797 
L 120.710068 292.213555 
L 122.166807 287.714366 
L 123.576977 288.996575 
L 125.033715 287.168911 
L 126.443885 286.5361 
L 127.900623 292.122544 
L 129.310793 289.888583 
L 130.767532 291.710154 
L 132.177702 285.104867 
L 133.63444 283.672114 
L 135.04461 289.274344 
L 136.501348 290.18752 
L 137.911518 281.618317 
L 139.368257 284.537085 
L 140.778427 282.062321 
L 142.235165 287.908888 
L 143.645335 286.59063 
L 145.102074 276.266527 
L 146.512243 285.512772 
L 147.968982 286.874612 
L 149.379152 275.509046 
L 150.83589 280.824517 
L 152.24606 284.716506 
L 153.702799 275.594035 
L 155.112969 273.037491 
L 156.569707 279.06987 
L 157.979877 275.902024 
L 159.436615 285.128669 
L 160.846785 272.706826 
L 162.303524 269.532569 
L 163.713694 282.116326 
L 165.170432 283.473201 
L 166.580602 280.851977 
L 168.03734 273.993991 
L 169.44751 279.510766 
L 170.904249 269.76623 
L 172.314419 270.481819 
L 173.771157 271.82975 
L 175.181327 278.560128 
L 176.638066 282.217441 
L 178.048235 264.369426 
L 179.504974 267.573297 
L 180.915144 277.016624 
L 182.371882 268.657697 
L 183.782052 262.220506 
L 185.238791 264.782183 
L 186.648961 274.737212 
L 188.105699 280.641528 
L 189.515869 273.617337 
L 190.972607 279.174746 
L 192.382777 261.801568 
L 193.839516 264.215587 
L 195.249686 271.147219 
L 196.706424 276.99629 
L 198.116594 270.184931 
L 199.573332 275.471724 
L 200.983502 268.860344 
L 202.440241 273.977945 
L 203.850411 267.644937 
L 205.307149 251.290315 
L 206.717319 254.273943 
L 208.174058 271.772931 
L 209.584227 265.248747 
L 211.040966 270.910014 
L 212.451136 263.714028 
L 213.907874 255.033606 
L 215.318044 262.316982 
L 216.774783 268.818225 
L 218.184953 245.316232 
L 219.641691 252.289177 
L 221.051861 260.72226 
L 222.508599 251.322853 
L 223.918769 246.411565 
L 225.375508 268.046321 
L 226.785678 245.548803 
L 228.242416 241.8222 
L 229.652586 243.595971 
L 231.109324 265.440582 
L 232.519494 242.933951 
L 233.976233 263.899228 
L 235.386403 258.775777 
L 236.843141 244.154623 
L 238.253311 257.322953 
L 239.71005 262.500161 
L 241.120219 256.147247 
L 242.576958 234.268345 
L 243.987128 239.832674 
L 245.443866 262.2532 
L 246.854036 254.870081 
L 248.310775 231.185897 
L 249.720945 236.78168 
L 251.177683 230.239504 
L 252.587853 252.910726 
L 254.044591 229.074762 
L 255.454761 251.489758 
L 258.32167 229.092816 
L 259.778408 259.569355 
L 261.188578 231.456061 
L 262.645316 220.411448 
L 264.055486 230.067558 
L 265.512225 258.724175 
L 266.922395 249.388025 
L 268.379133 222.055041 
L 269.789303 222.965542 
L 271.246042 256.196855 
L 272.656211 248.03842 
L 274.11295 233.689585 
L 275.52312 225.489591 
L 276.979858 218.317179 
L 278.390028 247.121985 
L 279.846767 231.686389 
L 281.256936 222.832101 
L 282.713675 255.207828 
L 284.123845 245.783232 
L 285.580583 209.163003 
L 286.990753 219.075921 
L 288.447492 253.593303 
L 289.857662 219.141223 
L 291.3144 227.554085 
L 292.72457 242.985949 
L 294.181308 251.794415 
L 295.591478 242.215767 
L 297.048217 203.113264 
L 298.458387 241.106991 
L 299.915125 250.325335 
L 301.325295 213.186681 
L 302.782033 249.238585 
L 304.192203 211.81268 
L 305.648942 221.589812 
L 307.059112 209.540738 
L 308.51585 247.324847 
L 309.92602 238.204823 
L 311.382759 246.693233 
L 312.792928 208.806637 
L 314.249667 199.950545 
L 315.659837 236.699873 
L 317.116575 216.66684 
L 318.526745 235.702376 
L 319.983484 191.66388 
L 321.393654 234.898923 
L 322.850392 244.389264 
L 324.260562 201.724833 
L 325.7173 213.105585 
L 327.12747 202.716946 
L 328.584209 193.898708 
L 329.994379 233.510128 
L 331.451117 242.836374 
L 332.861287 199.762192 
L 334.318025 209.772511 
L 335.728195 230.557375 
L 337.184934 241.716588 
L 338.595104 196.289223 
L 340.051842 206.880456 
L 341.462012 196.475652 
L 342.918751 239.298986 
L 344.32892 229.351356 
L 345.785659 178.967594 
L 347.195829 194.347594 
L 348.652567 203.833504 
L 350.062737 195.986741 
L 351.519476 202.756014 
L 352.929646 192.680326 
L 354.386384 237.563463 
L 355.796554 191.641569 
L 357.253292 237.420257 
L 358.663462 194.624071 
L 360.120201 178.096829 
L 361.530371 193.221587 
L 362.987109 235.3869 
L 364.397279 187.17288 
L 365.854017 234.25363 
L 367.264187 227.430327 
L 368.720926 194.672377 
L 370.131096 184.607341 
L 371.587834 193.606097 
L 372.998004 226.475408 
L 374.454743 170.681492 
L 375.864912 225.57863 
L 377.321651 191.023708 
L 378.731821 180.136056 
L 380.188559 189.91277 
L 381.598729 223.924837 
L 383.055468 232.509582 
L 384.465638 222.419203 
L 385.922376 164.731286 
L 387.332546 183.170423 
L 388.789284 186.580469 
L 390.199454 219.587251 
L 391.656193 231.153809 
L 393.066363 180.847654 
L 394.523101 183.861268 
L 395.933271 217.986896 
L 397.390009 228.982563 
L 398.800179 177.743015 
L 400.256918 150.89699 
L 401.667088 168.283682 
L 403.123826 227.822118 
L 404.533996 217.553319 
L 405.990735 226.495793 
L 407.400904 216.388821 
L 408.857643 147.706443 
L 410.267813 171.765467 
L 411.724551 177.982004 
L 413.134721 214.588518 
L 414.59146 224.03794 
L 416.00163 169.965326 
L 417.458368 223.092795 
L 418.868538 213.252145 
L 420.325276 143.130044 
L 421.735446 158.224084 
L 423.192185 172.583873 
L 424.602355 166.181031 
L 426.059093 221.191609 
L 427.469263 156.40801 
L 428.926001 139.152029 
L 430.336171 163.853818 
L 431.79291 219.889429 
L 433.20308 211.302025 
L 434.659818 136.743529 
L 436.069988 152.219954 
L 437.526727 217.233293 
L 438.936896 208.665578 
L 440.393635 216.263029 
L 441.803805 159.214907 
L 443.260543 165.005466 
L 444.670713 158.586881 
L 446.127452 214.287287 
L 447.537621 207.317419 
L 448.99436 213.093111 
L 450.40453 206.343006 
L 451.861268 137.283934 
L 453.271438 205.284277 
L 454.728177 212.020997 
L 456.138347 145.195605 
L 457.595085 210.659564 
L 459.005255 144.171232 
L 460.461993 156.855031 
L 461.872163 203.105467 
L 463.328902 209.295685 
L 464.739072 201.955037 
L 466.19581 121.192852 
L 467.60598 139.818142 
L 469.062718 207.480443 
L 470.472888 138.293766 
L 471.929627 152.131778 
L 473.339797 200.590047 
L 474.796535 118.172293 
L 476.206705 147.450734 
L 477.663444 204.804816 
L 479.073613 199.09507 
L 480.530352 203.384374 
L 481.940522 132.350311 
L 483.39726 147.866901 
L 484.80743 197.116677 
L 486.264169 202.424826 
L 487.674339 131.985808 
L 489.131077 145.434946 
L 490.541247 195.901454 
L 491.997985 201.072552 
L 493.408155 194.393594 
L 494.864894 200.03146 
L 496.275064 128.712943 
L 497.731802 140.820223 
L 499.141972 139.866055 
L 500.59871 198.293243 
L 502.00888 191.864102 
L 503.465619 103.614192 
L 504.875789 128.794293 
L 506.332527 137.800078 
L 507.742697 190.79923 
L 509.199436 102.249858 
L 510.609605 189.344563 
L 512.066344 135.401024 
L 513.476514 133.415081 
L 514.933252 196.416767 
L 516.343422 187.494721 
L 517.800161 107.349855 
L 519.210331 130.692241 
L 520.667069 195.223143 
L 522.077239 129.373225 
L 523.533977 193.687896 
L 524.944147 119.256962 
L 526.400886 95.590775 
L 527.811056 127.152002 
L 529.267794 128.618343 
L 530.677964 186.181427 
L 532.134702 128.048017 
L 533.544872 116.599205 
L 535.001611 94.198672 
L 536.411781 124.377718 
L 537.868519 191.602348 
L 539.278689 184.011548 
L 540.735428 98.01901 
L 542.145597 183.528314 
L 543.602336 189.28816 
L 545.012506 119.874106 
L 546.469244 123.420388 
L 547.879414 118.481319 
L 549.336153 92.473976 
L 550.746323 181.169823 
L 552.203061 187.704001 
L 553.613231 106.115093 
L 555.069969 92.199538 
L 556.480139 105.417073 
L 557.936878 186.906451 
L 559.347048 114.206428 
L 560.803786 185.76167 
L 562.213956 112.710015 
L 563.670694 184.291123 
L 565.080864 179.927932 
L 566.537603 115.090783 
L 567.947773 109.873967 
L 569.404511 114.38259 
L 570.814681 177.64058 
L 572.27142 181.635294 
L 573.681589 176.777242 
L 575.138328 79.066958 
L 576.548498 175.851718 
L 578.005236 180.258075 
L 579.415406 92.999379 
L 580.872145 79.56984 
L 582.282315 172.87136 
L 583.739053 179.316503 
L 585.149223 171.874433 
L 586.605961 75.71744 
L 588.016131 100.086718 
L 589.47287 177.245963 
L 590.88304 171.084979 
L 592.339778 75.413437 
L 593.749948 169.65793 
L 595.206686 175.984835 
L 596.616856 95.702801 
L 598.073595 174.78894 
L 599.483765 166.692034 
L 600.940503 103.039426 
L 602.350673 81.539776 
L 603.807411 67.099998 
L 605.217581 165.340476 
L 606.67432 172.467751 
L 608.08449 164.633528 
L 609.541228 67.398922 
L 610.951398 77.404911 
L 612.408137 64.324919 
L 613.818306 89.298272 
L 615.275045 171.263552 
L 616.685215 163.030957 
L 618.141953 170.005224 
L 619.552123 87.126588 
L 621.008862 96.635854 
L 622.419032 72.052275 
L 623.87577 168.507196 
L 625.28594 161.342472 
L 626.742678 167.222259 
L 628.152848 83.166479 
L 629.609587 57.429165 
L 631.019757 160.010071 
L 632.476495 164.351918 
L 633.886665 80.462696 
L 635.343403 55.399396 
L 636.753573 157.856467 
L 638.210312 163.01968 
L 639.620482 156.425087 
L 641.07722 88.851548 
L 642.48739 75.813087 
L 643.944129 161.253545 
L 645.354298 154.299511 
L 646.811037 51.008347 
L 648.221207 58.274955 
L 649.677945 160.145627 
L 651.088115 73.397884 
L 652.544854 159.381956 
L 653.955024 152.966191 
L 655.411762 81.86187 
L 656.821932 151.916169 
L 658.27867 81.24209 
L 659.68884 150.574841 
L 661.145579 156.585412 
L 662.555749 149.266279 
L 664.012487 40.03179 
L 665.422657 49.490234 
L 666.879395 155.73983 
L 668.289565 64.35498 
L 669.746304 40.311415 
L 671.156474 63.944405 
L 671.156474 63.944405 
" clip-path="url(#pf824fd8ccc)" style="fill: none; stroke: #1f77b4; stroke-width: 1.5; stroke-linecap: round"/>
   </g>
   <g id="patch_3">
    <path d="M 73.645547 310.339375 
L 73.645547 27.16 
" style="fill: none"/>
   </g>
   <g id="patch_4">
    <path d="M 699.609375 310.339375 
L 699.609375 27.16 
" style="fill: none"/>
   </g>
   <g id="patch_5">
    <path d="M 73.645547 310.339375 
L 699.609375 310.339375 
" style="fill: none"/>
   </g>
   <g id="patch_6">
    <path d="M 73.645547 27.16 
L 699.609375 27.16 
" style="fill: none"/>
   </g>
   <g id="text_19">
    <!-- Packets Delay to receptor node -->
    <g style="fill: #262626" transform="translate(292.731211 21.16) scale(0.12 -0.12)">
     <defs>
      <path id="DejaVuSans-50" d="M 1259 4147 
L 1259 2394 
L 2053 2394 
Q 2494 2394 2734 2622 
Q 2975 2850 2975 3272 
Q 2975 3691 2734 3919 
Q 2494 4147 2053 4147 
L 1259 4147 
z
M 628 4666 
L 2053 4666 
Q 2838 4666 3239 4311 
Q 3641 3956 3641 3272 
Q 3641 2581 3239 2228 
Q 2838 1875 2053 1875 
L 1259 1875 
L 1259 0 
L 628 0 
L 628 4666 
z
" transform="scale(0.015625)"/>
      <path id="DejaVuSans-63" d="M 3122 3366 
L 3122 2828 
Q 2878 2963 2633 3030 
Q 2388 3097 2138 3097 
Q 1578 3097 1268 2742 
Q 959 2388 959 1747 
Q 959 1106 1268 751 
Q 1578 397 2138 397 
Q 2388 397 2633 464 
Q 2878 531 3122 666 
L 3122 134 
Q 2881 22 2623 -34 
Q 2366 -91 2075 -91 
Q 1284 -91 818 406 
Q 353 903 353 1747 
Q 353 2603 823 3093 
Q 1294 3584 2113 3584 
Q 2378 3584 2631 3529 
Q 2884 3475 3122 3366 
z
" transform="scale(0.015625)"/>
      <path id="DejaVuSans-6b" d="M 581 4863 
L 1159 4863 
L 1159 1991 
L 2875 3500 
L 3609 3500 
L 1753 1863 
L 3688 0 
L 2938 0 
L 1159 1709 
L 1159 0 
L 581 0 
L 581 4863 
z
" transform="scale(0.015625)"/>
      <path id="DejaVuSans-72" d="M 2631 2963 
Q 2534 3019 2420 3045 
Q 2306 3072 2169 3072 
Q 1681 3072 1420 2755 
Q 1159 2438 1159 1844 
L 1159 0 
L 581 0 
L 581 3500 
L 1159 3500 
L 1159 2956 
Q 1341 3275 1631 3429 
Q 1922 3584 2338 3584 
Q 2397 3584 2469 3576 
Q 2541 3569 2628 3553 
L 2631 2963 
z
" transform="scale(0.015625)"/>
      <path id="DejaVuSans-70" d="M 1159 525 
L 1159 -1331 
L 581 -1331 
L 581 3500 
L 1159 3500 
L 1159 2969 
Q 1341 3281 1617 3432 
Q 1894 3584 2278 3584 
Q 2916 3584 3314 3078 
Q 3713 2572 3713 1747 
Q 3713 922 3314 415 
Q 2916 -91 2278 -91 
Q 1894 -91 1617 61 
Q 1341 213 1159 525 
z
M 3116 1747 
Q 3116 2381 2855 2742 
Q 2594 3103 2138 3103 
Q 1681 3103 1420 2742 
Q 1159 2381 1159 1747 
Q 1159 1113 1420 752 
Q 1681 391 2138 391 
Q 2594 391 2855 752 
Q 3116 1113 3116 1747 
z
" transform="scale(0.015625)"/>
      <path id="DejaVuSans-64" d="M 2906 2969 
L 2906 4863 
L 3481 4863 
L 3481 0 
L 2906 0 
L 2906 525 
Q 2725 213 2448 61 
Q 2172 -91 1784 -91 
Q 1150 -91 751 415 
Q 353 922 353 1747 
Q 353 2572 751 3078 
Q 1150 3584 1784 3584 
Q 2172 3584 2448 3432 
Q 2725 3281 2906 2969 
z
M 947 1747 
Q 947 1113 1208 752 
Q 1469 391 1925 391 
Q 2381 391 2643 752 
Q 2906 1113 2906 1747 
Q 2906 2381 2643 2742 
Q 2381 3103 1925 3103 
Q 1469 3103 1208 2742 
Q 947 2381 947 1747 
z
" transform="scale(0.015625)"/>
     </defs>
     <use xlink:href="#DejaVuSans-50"/>
     <use xlink:href="#DejaVuSans-61" x="55.802734"/>
     <use xlink:href="#DejaVuSans-63" x="117.082031"/>
     <use xlink:href="#DejaVuSans-6b" x="172.0625"/>
     <use xlink:href="#DejaVuSans-65" x="226.347656"/>
     <use xlink:href="#DejaVuSans-74" x="287.871094"/>
     <use xlink:href="#DejaVuSans-73" x="327.080078"/>
     <use xlink:href="#DejaVuSans-20" x="379.179688"/>
     <use xlink:href="#DejaVuSans-44" x="410.966797"/>
     <use xlink:href="#DejaVuSans-65" x="487.96875"/>
     <use xlink:href="#DejaVuSans-6c" x="549.492188"/>
     <use xlink:href="#DejaVuSans-61" x="577.275391"/>
     <use xlink:href="#DejaVuSans-79" x="638.554688"/>
     <use xlink:href="#DejaVuSans-20" x="697.734375"/>
     <use xlink:href="#DejaVuSans-74" x="729.521484"/>
     <use xlink:href="#DejaVuSans-6f" x="768.730469"/>
     <use xlink:href="#DejaVuSans-20" x="829.912109"/>
     <use xlink:href="#DejaVuSans-72" x="861.699219"/>
     <use xlink:href="#DejaVuSans-65" x="900.5625"/>
     <use xlink:href="#DejaVuSans-63" x="962.085938"/>
     <use xlink:href="#DejaVuSans-65" x="1017.066406"/>
     <use xlink:href="#DejaVuSans-70" x="1078.589844"/>
     <use xlink:href="#DejaVuSans-74" x="1142.066406"/>
     <use xlink:href="#DejaVuSans-6f" x="1181.275391"/>
     <use xlink:href="#DejaVuSans-72" x="1242.457031"/>
     <use xlink:href="#DejaVuSans-20" x="1283.570312"/>
     <use xlink:href="#DejaVuSans-6e" x="1315.357422"/>
     <use xlink:href="#DejaVuSans-6f" x="1378.736328"/>
     <use xlink:href="#DejaVuSans-64" x="1439.917969"/>
     <use xlink:href="#DejaVuSans-65" x="1503.394531"/>
    </g>
   </g>
  </g>
 </g>
 <defs>
  <clipPath id="pf824fd8ccc">
   <rect x="73.645547" y="27.16" width="625.963828" height="283.179375"/>
  </clipPath>
 </defs>
</svg>
