<?xml version="1.0" encoding="utf-8" standalone="no"?>
<!DOCTYPE svg PUBLIC "-//W3C//DTD SVG 1.1//EN"
  "http://www.w3.org/Graphics/SVG/1.1/DTD/svg11.dtd">
<svg xmlns:xlink="http://www.w3.org/1999/xlink" width="716.4pt" height="349.2pt" viewBox="0 0 716.4 349.2" xmlns="http://www.w3.org/2000/svg" version="1.1">
 <metadata>
  <rdf:RDF xmlns:dc="http://purl.org/dc/elements/1.1/" xmlns:cc="http://creativecommons.org/ns#" xmlns:rdf="http://www.w3.org/1999/02/22-rdf-syntax-ns#">
   <cc:Work>
    <dc:type rdf:resource="http://purl.org/dc/dcmitype/StillImage"/>
    <dc:date>2023-06-07T22:24:09.216238</dc:date>
    <dc:format>image/svg+xml</dc:format>
    <dc:creator>
     <cc:Agent>
      <dc:title>Matplotlib v3.7.1, https://matplotlib.org/</dc:title>
     </cc:Agent>
    </dc:creator>
   </cc:Work>
  </rdf:RDF>
 </metadata>
 <defs>
  <style type="text/css">*{stroke-linejoin: round; stroke-linecap: butt}</style>
 </defs>
 <g id="figure_1">
  <g id="patch_1">
   <path d="M 0 349.2 
L 716.4 349.2 
L 716.4 0 
L 0 0 
z
" style="fill: #ffffff"/>
  </g>
  <g id="axes_1">
   <g id="patch_2">
    <path d="M 63.851016 310.339375 
L 699.609375 310.339375 
L 699.609375 27.16 
L 63.851016 27.16 
z
" style="fill: #eaeaf2"/>
   </g>
   <g id="matplotlib.axis_1">
    <g id="xtick_1">
     <g id="line2d_1"/>
     <g id="text_1">
      <!-- 0 -->
      <g style="fill: #262626" transform="translate(89.567873 321.437813) scale(0.1 -0.1)">
       <defs>
        <path id="DejaVuSans-30" d="M 2034 4250 
Q 1547 4250 1301 3770 
Q 1056 3291 1056 2328 
Q 1056 1369 1301 889 
Q 1547 409 2034 409 
Q 2525 409 2770 889 
Q 3016 1369 3016 2328 
Q 3016 3291 2770 3770 
Q 2525 4250 2034 4250 
z
M 2034 4750 
Q 2819 4750 3233 4129 
Q 3647 3509 3647 2328 
Q 3647 1150 3233 529 
Q 2819 -91 2034 -91 
Q 1250 -91 836 529 
Q 422 1150 422 2328 
Q 422 3509 836 4129 
Q 1250 4750 2034 4750 
z
" transform="scale(0.015625)"/>
       </defs>
       <use xlink:href="#DejaVuSans-30"/>
      </g>
     </g>
    </g>
    <g id="xtick_2">
     <g id="line2d_2"/>
     <g id="text_2">
      <!-- 25 -->
      <g style="fill: #262626" transform="translate(158.75891 321.437813) scale(0.1 -0.1)">
       <defs>
        <path id="DejaVuSans-32" d="M 1228 531 
L 3431 531 
L 3431 0 
L 469 0 
L 469 531 
Q 828 903 1448 1529 
Q 2069 2156 2228 2338 
Q 2531 2678 2651 2914 
Q 2772 3150 2772 3378 
Q 2772 3750 2511 3984 
Q 2250 4219 1831 4219 
Q 1534 4219 1204 4116 
Q 875 4013 500 3803 
L 500 4441 
Q 881 4594 1212 4672 
Q 1544 4750 1819 4750 
Q 2544 4750 2975 4387 
Q 3406 4025 3406 3419 
Q 3406 3131 3298 2873 
Q 3191 2616 2906 2266 
Q 2828 2175 2409 1742 
Q 1991 1309 1228 531 
z
" transform="scale(0.015625)"/>
        <path id="DejaVuSans-35" d="M 691 4666 
L 3169 4666 
L 3169 4134 
L 1269 4134 
L 1269 2991 
Q 1406 3038 1543 3061 
Q 1681 3084 1819 3084 
Q 2600 3084 3056 2656 
Q 3513 2228 3513 1497 
Q 3513 744 3044 326 
Q 2575 -91 1722 -91 
Q 1428 -91 1123 -41 
Q 819 9 494 109 
L 494 744 
Q 775 591 1075 516 
Q 1375 441 1709 441 
Q 2250 441 2565 725 
Q 2881 1009 2881 1497 
Q 2881 1984 2565 2268 
Q 2250 2553 1709 2553 
Q 1456 2553 1204 2497 
Q 953 2441 691 2322 
L 691 4666 
z
" transform="scale(0.015625)"/>
       </defs>
       <use xlink:href="#DejaVuSans-32"/>
       <use xlink:href="#DejaVuSans-35" x="63.623047"/>
      </g>
     </g>
    </g>
    <g id="xtick_3">
     <g id="line2d_3"/>
     <g id="text_3">
      <!-- 50 -->
      <g style="fill: #262626" transform="translate(231.131196 321.437813) scale(0.1 -0.1)">
       <use xlink:href="#DejaVuSans-35"/>
       <use xlink:href="#DejaVuSans-30" x="63.623047"/>
      </g>
     </g>
    </g>
    <g id="xtick_4">
     <g id="line2d_4"/>
     <g id="text_4">
      <!-- 75 -->
      <g style="fill: #262626" transform="translate(303.503483 321.437813) scale(0.1 -0.1)">
       <defs>
        <path id="DejaVuSans-37" d="M 525 4666 
L 3525 4666 
L 3525 4397 
L 1831 0 
L 1172 0 
L 2766 4134 
L 525 4134 
L 525 4666 
z
" transform="scale(0.015625)"/>
       </defs>
       <use xlink:href="#DejaVuSans-37"/>
       <use xlink:href="#DejaVuSans-35" x="63.623047"/>
      </g>
     </g>
    </g>
    <g id="xtick_5">
     <g id="line2d_5"/>
     <g id="text_5">
      <!-- 100 -->
      <g style="fill: #262626" transform="translate(372.69452 321.437813) scale(0.1 -0.1)">
       <defs>
        <path id="DejaVuSans-31" d="M 794 531 
L 1825 531 
L 1825 4091 
L 703 3866 
L 703 4441 
L 1819 4666 
L 2450 4666 
L 2450 531 
L 3481 531 
L 3481 0 
L 794 0 
L 794 531 
z
" transform="scale(0.015625)"/>
       </defs>
       <use xlink:href="#DejaVuSans-31"/>
       <use xlink:href="#DejaVuSans-30" x="63.623047"/>
       <use xlink:href="#DejaVuSans-30" x="127.246094"/>
      </g>
     </g>
    </g>
    <g id="xtick_6">
     <g id="line2d_6"/>
     <g id="text_6">
      <!-- 125 -->
      <g style="fill: #262626" transform="translate(445.066807 321.437813) scale(0.1 -0.1)">
       <use xlink:href="#DejaVuSans-31"/>
       <use xlink:href="#DejaVuSans-32" x="63.623047"/>
       <use xlink:href="#DejaVuSans-35" x="127.246094"/>
      </g>
     </g>
    </g>
    <g id="xtick_7">
     <g id="line2d_7"/>
     <g id="text_7">
      <!-- 150 -->
      <g style="fill: #262626" transform="translate(517.439094 321.437813) scale(0.1 -0.1)">
       <use xlink:href="#DejaVuSans-31"/>
       <use xlink:href="#DejaVuSans-35" x="63.623047"/>
       <use xlink:href="#DejaVuSans-30" x="127.246094"/>
      </g>
     </g>
    </g>
    <g id="xtick_8">
     <g id="line2d_8"/>
     <g id="text_8">
      <!-- 175 -->
      <g style="fill: #262626" transform="translate(589.81138 321.437813) scale(0.1 -0.1)">
       <use xlink:href="#DejaVuSans-31"/>
       <use xlink:href="#DejaVuSans-37" x="63.623047"/>
       <use xlink:href="#DejaVuSans-35" x="127.246094"/>
      </g>
     </g>
    </g>
    <g id="xtick_9">
     <g id="line2d_9"/>
     <g id="text_9">
      <!-- 200 -->
      <g style="fill: #262626" transform="translate(662.183667 321.437813) scale(0.1 -0.1)">
       <use xlink:href="#DejaVuSans-32"/>
       <use xlink:href="#DejaVuSans-30" x="63.623047"/>
       <use xlink:href="#DejaVuSans-30" x="127.246094"/>
      </g>
     </g>
    </g>
    <g id="text_10">
     <!-- Simulation time (s) -->
     <g style="fill: #262626" transform="translate(334.116914 335.115938) scale(0.1 -0.1)">
      <defs>
       <path id="DejaVuSans-53" d="M 3425 4513 
L 3425 3897 
Q 3066 4069 2747 4153 
Q 2428 4238 2131 4238 
Q 1616 4238 1336 4038 
Q 1056 3838 1056 3469 
Q 1056 3159 1242 3001 
Q 1428 2844 1947 2747 
L 2328 2669 
Q 3034 2534 3370 2195 
Q 3706 1856 3706 1288 
Q 3706 609 3251 259 
Q 2797 -91 1919 -91 
Q 1588 -91 1214 -16 
Q 841 59 441 206 
L 441 856 
Q 825 641 1194 531 
Q 1563 422 1919 422 
Q 2459 422 2753 634 
Q 3047 847 3047 1241 
Q 3047 1584 2836 1778 
Q 2625 1972 2144 2069 
L 1759 2144 
Q 1053 2284 737 2584 
Q 422 2884 422 3419 
Q 422 4038 858 4394 
Q 1294 4750 2059 4750 
Q 2388 4750 2728 4690 
Q 3069 4631 3425 4513 
z
" transform="scale(0.015625)"/>
       <path id="DejaVuSans-69" d="M 603 3500 
L 1178 3500 
L 1178 0 
L 603 0 
L 603 3500 
z
M 603 4863 
L 1178 4863 
L 1178 4134 
L 603 4134 
L 603 4863 
z
" transform="scale(0.015625)"/>
       <path id="DejaVuSans-6d" d="M 3328 2828 
Q 3544 3216 3844 3400 
Q 4144 3584 4550 3584 
Q 5097 3584 5394 3201 
Q 5691 2819 5691 2113 
L 5691 0 
L 5113 0 
L 5113 2094 
Q 5113 2597 4934 2840 
Q 4756 3084 4391 3084 
Q 3944 3084 3684 2787 
Q 3425 2491 3425 1978 
L 3425 0 
L 2847 0 
L 2847 2094 
Q 2847 2600 2669 2842 
Q 2491 3084 2119 3084 
Q 1678 3084 1418 2786 
Q 1159 2488 1159 1978 
L 1159 0 
L 581 0 
L 581 3500 
L 1159 3500 
L 1159 2956 
Q 1356 3278 1631 3431 
Q 1906 3584 2284 3584 
Q 2666 3584 2933 3390 
Q 3200 3197 3328 2828 
z
" transform="scale(0.015625)"/>
       <path id="DejaVuSans-75" d="M 544 1381 
L 544 3500 
L 1119 3500 
L 1119 1403 
Q 1119 906 1312 657 
Q 1506 409 1894 409 
Q 2359 409 2629 706 
Q 2900 1003 2900 1516 
L 2900 3500 
L 3475 3500 
L 3475 0 
L 2900 0 
L 2900 538 
Q 2691 219 2414 64 
Q 2138 -91 1772 -91 
Q 1169 -91 856 284 
Q 544 659 544 1381 
z
M 1991 3584 
L 1991 3584 
z
" transform="scale(0.015625)"/>
       <path id="DejaVuSans-6c" d="M 603 4863 
L 1178 4863 
L 1178 0 
L 603 0 
L 603 4863 
z
" transform="scale(0.015625)"/>
       <path id="DejaVuSans-61" d="M 2194 1759 
Q 1497 1759 1228 1600 
Q 959 1441 959 1056 
Q 959 750 1161 570 
Q 1363 391 1709 391 
Q 2188 391 2477 730 
Q 2766 1069 2766 1631 
L 2766 1759 
L 2194 1759 
z
M 3341 1997 
L 3341 0 
L 2766 0 
L 2766 531 
Q 2569 213 2275 61 
Q 1981 -91 1556 -91 
Q 1019 -91 701 211 
Q 384 513 384 1019 
Q 384 1609 779 1909 
Q 1175 2209 1959 2209 
L 2766 2209 
L 2766 2266 
Q 2766 2663 2505 2880 
Q 2244 3097 1772 3097 
Q 1472 3097 1187 3025 
Q 903 2953 641 2809 
L 641 3341 
Q 956 3463 1253 3523 
Q 1550 3584 1831 3584 
Q 2591 3584 2966 3190 
Q 3341 2797 3341 1997 
z
" transform="scale(0.015625)"/>
       <path id="DejaVuSans-74" d="M 1172 4494 
L 1172 3500 
L 2356 3500 
L 2356 3053 
L 1172 3053 
L 1172 1153 
Q 1172 725 1289 603 
Q 1406 481 1766 481 
L 2356 481 
L 2356 0 
L 1766 0 
Q 1100 0 847 248 
Q 594 497 594 1153 
L 594 3053 
L 172 3053 
L 172 3500 
L 594 3500 
L 594 4494 
L 1172 4494 
z
" transform="scale(0.015625)"/>
       <path id="DejaVuSans-6f" d="M 1959 3097 
Q 1497 3097 1228 2736 
Q 959 2375 959 1747 
Q 959 1119 1226 758 
Q 1494 397 1959 397 
Q 2419 397 2687 759 
Q 2956 1122 2956 1747 
Q 2956 2369 2687 2733 
Q 2419 3097 1959 3097 
z
M 1959 3584 
Q 2709 3584 3137 3096 
Q 3566 2609 3566 1747 
Q 3566 888 3137 398 
Q 2709 -91 1959 -91 
Q 1206 -91 779 398 
Q 353 888 353 1747 
Q 353 2609 779 3096 
Q 1206 3584 1959 3584 
z
" transform="scale(0.015625)"/>
       <path id="DejaVuSans-6e" d="M 3513 2113 
L 3513 0 
L 2938 0 
L 2938 2094 
Q 2938 2591 2744 2837 
Q 2550 3084 2163 3084 
Q 1697 3084 1428 2787 
Q 1159 2491 1159 1978 
L 1159 0 
L 581 0 
L 581 3500 
L 1159 3500 
L 1159 2956 
Q 1366 3272 1645 3428 
Q 1925 3584 2291 3584 
Q 2894 3584 3203 3211 
Q 3513 2838 3513 2113 
z
" transform="scale(0.015625)"/>
       <path id="DejaVuSans-20" transform="scale(0.015625)"/>
       <path id="DejaVuSans-65" d="M 3597 1894 
L 3597 1613 
L 953 1613 
Q 991 1019 1311 708 
Q 1631 397 2203 397 
Q 2534 397 2845 478 
Q 3156 559 3463 722 
L 3463 178 
Q 3153 47 2828 -22 
Q 2503 -91 2169 -91 
Q 1331 -91 842 396 
Q 353 884 353 1716 
Q 353 2575 817 3079 
Q 1281 3584 2069 3584 
Q 2775 3584 3186 3129 
Q 3597 2675 3597 1894 
z
M 3022 2063 
Q 3016 2534 2758 2815 
Q 2500 3097 2075 3097 
Q 1594 3097 1305 2825 
Q 1016 2553 972 2059 
L 3022 2063 
z
" transform="scale(0.015625)"/>
       <path id="DejaVuSans-28" d="M 1984 4856 
Q 1566 4138 1362 3434 
Q 1159 2731 1159 2009 
Q 1159 1288 1364 580 
Q 1569 -128 1984 -844 
L 1484 -844 
Q 1016 -109 783 600 
Q 550 1309 550 2009 
Q 550 2706 781 3412 
Q 1013 4119 1484 4856 
L 1984 4856 
z
" transform="scale(0.015625)"/>
       <path id="DejaVuSans-73" d="M 2834 3397 
L 2834 2853 
Q 2591 2978 2328 3040 
Q 2066 3103 1784 3103 
Q 1356 3103 1142 2972 
Q 928 2841 928 2578 
Q 928 2378 1081 2264 
Q 1234 2150 1697 2047 
L 1894 2003 
Q 2506 1872 2764 1633 
Q 3022 1394 3022 966 
Q 3022 478 2636 193 
Q 2250 -91 1575 -91 
Q 1294 -91 989 -36 
Q 684 19 347 128 
L 347 722 
Q 666 556 975 473 
Q 1284 391 1588 391 
Q 1994 391 2212 530 
Q 2431 669 2431 922 
Q 2431 1156 2273 1281 
Q 2116 1406 1581 1522 
L 1381 1569 
Q 847 1681 609 1914 
Q 372 2147 372 2553 
Q 372 3047 722 3315 
Q 1072 3584 1716 3584 
Q 2034 3584 2315 3537 
Q 2597 3491 2834 3397 
z
" transform="scale(0.015625)"/>
       <path id="DejaVuSans-29" d="M 513 4856 
L 1013 4856 
Q 1481 4119 1714 3412 
Q 1947 2706 1947 2009 
Q 1947 1309 1714 600 
Q 1481 -109 1013 -844 
L 513 -844 
Q 928 -128 1133 580 
Q 1338 1288 1338 2009 
Q 1338 2731 1133 3434 
Q 928 4138 513 4856 
z
" transform="scale(0.015625)"/>
      </defs>
      <use xlink:href="#DejaVuSans-53"/>
      <use xlink:href="#DejaVuSans-69" x="63.476562"/>
      <use xlink:href="#DejaVuSans-6d" x="91.259766"/>
      <use xlink:href="#DejaVuSans-75" x="188.671875"/>
      <use xlink:href="#DejaVuSans-6c" x="252.050781"/>
      <use xlink:href="#DejaVuSans-61" x="279.833984"/>
      <use xlink:href="#DejaVuSans-74" x="341.113281"/>
      <use xlink:href="#DejaVuSans-69" x="380.322266"/>
      <use xlink:href="#DejaVuSans-6f" x="408.105469"/>
      <use xlink:href="#DejaVuSans-6e" x="469.287109"/>
      <use xlink:href="#DejaVuSans-20" x="532.666016"/>
      <use xlink:href="#DejaVuSans-74" x="564.453125"/>
      <use xlink:href="#DejaVuSans-69" x="603.662109"/>
      <use xlink:href="#DejaVuSans-6d" x="631.445312"/>
      <use xlink:href="#DejaVuSans-65" x="728.857422"/>
      <use xlink:href="#DejaVuSans-20" x="790.380859"/>
      <use xlink:href="#DejaVuSans-28" x="822.167969"/>
      <use xlink:href="#DejaVuSans-73" x="861.181641"/>
      <use xlink:href="#DejaVuSans-29" x="913.28125"/>
     </g>
    </g>
   </g>
   <g id="matplotlib.axis_2">
    <g id="ytick_1">
     <g id="line2d_10"/>
     <g id="text_11">
      <!-- 0 -->
      <g style="fill: #262626" transform="translate(53.988516 301.266804) scale(0.1 -0.1)">
       <use xlink:href="#DejaVuSans-30"/>
      </g>
     </g>
    </g>
    <g id="ytick_2">
     <g id="line2d_11"/>
     <g id="text_12">
      <!-- 2 -->
      <g style="fill: #262626" transform="translate(53.988516 249.779645) scale(0.1 -0.1)">
       <use xlink:href="#DejaVuSans-32"/>
      </g>
     </g>
    </g>
    <g id="ytick_3">
     <g id="line2d_12"/>
     <g id="text_13">
      <!-- 4 -->
      <g style="fill: #262626" transform="translate(53.988516 198.292486) scale(0.1 -0.1)">
       <defs>
        <path id="DejaVuSans-34" d="M 2419 4116 
L 825 1625 
L 2419 1625 
L 2419 4116 
z
M 2253 4666 
L 3047 4666 
L 3047 1625 
L 3713 1625 
L 3713 1100 
L 3047 1100 
L 3047 0 
L 2419 0 
L 2419 1100 
L 313 1100 
L 313 1709 
L 2253 4666 
z
" transform="scale(0.015625)"/>
       </defs>
       <use xlink:href="#DejaVuSans-34"/>
      </g>
     </g>
    </g>
    <g id="ytick_4">
     <g id="line2d_13"/>
     <g id="text_14">
      <!-- 6 -->
      <g style="fill: #262626" transform="translate(53.988516 146.805327) scale(0.1 -0.1)">
       <defs>
        <path id="DejaVuSans-36" d="M 2113 2584 
Q 1688 2584 1439 2293 
Q 1191 2003 1191 1497 
Q 1191 994 1439 701 
Q 1688 409 2113 409 
Q 2538 409 2786 701 
Q 3034 994 3034 1497 
Q 3034 2003 2786 2293 
Q 2538 2584 2113 2584 
z
M 3366 4563 
L 3366 3988 
Q 3128 4100 2886 4159 
Q 2644 4219 2406 4219 
Q 1781 4219 1451 3797 
Q 1122 3375 1075 2522 
Q 1259 2794 1537 2939 
Q 1816 3084 2150 3084 
Q 2853 3084 3261 2657 
Q 3669 2231 3669 1497 
Q 3669 778 3244 343 
Q 2819 -91 2113 -91 
Q 1303 -91 875 529 
Q 447 1150 447 2328 
Q 447 3434 972 4092 
Q 1497 4750 2381 4750 
Q 2619 4750 2861 4703 
Q 3103 4656 3366 4563 
z
" transform="scale(0.015625)"/>
       </defs>
       <use xlink:href="#DejaVuSans-36"/>
      </g>
     </g>
    </g>
    <g id="ytick_5">
     <g id="line2d_14"/>
     <g id="text_15">
      <!-- 8 -->
      <g style="fill: #262626" transform="translate(53.988516 95.318168) scale(0.1 -0.1)">
       <defs>
        <path id="DejaVuSans-38" d="M 2034 2216 
Q 1584 2216 1326 1975 
Q 1069 1734 1069 1313 
Q 1069 891 1326 650 
Q 1584 409 2034 409 
Q 2484 409 2743 651 
Q 3003 894 3003 1313 
Q 3003 1734 2745 1975 
Q 2488 2216 2034 2216 
z
M 1403 2484 
Q 997 2584 770 2862 
Q 544 3141 544 3541 
Q 544 4100 942 4425 
Q 1341 4750 2034 4750 
Q 2731 4750 3128 4425 
Q 3525 4100 3525 3541 
Q 3525 3141 3298 2862 
Q 3072 2584 2669 2484 
Q 3125 2378 3379 2068 
Q 3634 1759 3634 1313 
Q 3634 634 3220 271 
Q 2806 -91 2034 -91 
Q 1263 -91 848 271 
Q 434 634 434 1313 
Q 434 1759 690 2068 
Q 947 2378 1403 2484 
z
M 1172 3481 
Q 1172 3119 1398 2916 
Q 1625 2713 2034 2713 
Q 2441 2713 2670 2916 
Q 2900 3119 2900 3481 
Q 2900 3844 2670 4047 
Q 2441 4250 2034 4250 
Q 1625 4250 1398 4047 
Q 1172 3844 1172 3481 
z
" transform="scale(0.015625)"/>
       </defs>
       <use xlink:href="#DejaVuSans-38"/>
      </g>
     </g>
    </g>
    <g id="ytick_6">
     <g id="line2d_15"/>
     <g id="text_16">
      <!-- 10 -->
      <g style="fill: #262626" transform="translate(47.626016 43.831009) scale(0.1 -0.1)">
       <use xlink:href="#DejaVuSans-31"/>
       <use xlink:href="#DejaVuSans-30" x="63.623047"/>
      </g>
     </g>
    </g>
    <g id="text_17">
     <!-- Buffer size (packet) -->
     <g style="fill: #262626" transform="translate(41.546328 217.51375) rotate(-90) scale(0.1 -0.1)">
      <defs>
       <path id="DejaVuSans-42" d="M 1259 2228 
L 1259 519 
L 2272 519 
Q 2781 519 3026 730 
Q 3272 941 3272 1375 
Q 3272 1813 3026 2020 
Q 2781 2228 2272 2228 
L 1259 2228 
z
M 1259 4147 
L 1259 2741 
L 2194 2741 
Q 2656 2741 2882 2914 
Q 3109 3088 3109 3444 
Q 3109 3797 2882 3972 
Q 2656 4147 2194 4147 
L 1259 4147 
z
M 628 4666 
L 2241 4666 
Q 2963 4666 3353 4366 
Q 3744 4066 3744 3513 
Q 3744 3084 3544 2831 
Q 3344 2578 2956 2516 
Q 3422 2416 3680 2098 
Q 3938 1781 3938 1306 
Q 3938 681 3513 340 
Q 3088 0 2303 0 
L 628 0 
L 628 4666 
z
" transform="scale(0.015625)"/>
       <path id="DejaVuSans-66" d="M 2375 4863 
L 2375 4384 
L 1825 4384 
Q 1516 4384 1395 4259 
Q 1275 4134 1275 3809 
L 1275 3500 
L 2222 3500 
L 2222 3053 
L 1275 3053 
L 1275 0 
L 697 0 
L 697 3053 
L 147 3053 
L 147 3500 
L 697 3500 
L 697 3744 
Q 697 4328 969 4595 
Q 1241 4863 1831 4863 
L 2375 4863 
z
" transform="scale(0.015625)"/>
       <path id="DejaVuSans-72" d="M 2631 2963 
Q 2534 3019 2420 3045 
Q 2306 3072 2169 3072 
Q 1681 3072 1420 2755 
Q 1159 2438 1159 1844 
L 1159 0 
L 581 0 
L 581 3500 
L 1159 3500 
L 1159 2956 
Q 1341 3275 1631 3429 
Q 1922 3584 2338 3584 
Q 2397 3584 2469 3576 
Q 2541 3569 2628 3553 
L 2631 2963 
z
" transform="scale(0.015625)"/>
       <path id="DejaVuSans-7a" d="M 353 3500 
L 3084 3500 
L 3084 2975 
L 922 459 
L 3084 459 
L 3084 0 
L 275 0 
L 275 525 
L 2438 3041 
L 353 3041 
L 353 3500 
z
" transform="scale(0.015625)"/>
       <path id="DejaVuSans-70" d="M 1159 525 
L 1159 -1331 
L 581 -1331 
L 581 3500 
L 1159 3500 
L 1159 2969 
Q 1341 3281 1617 3432 
Q 1894 3584 2278 3584 
Q 2916 3584 3314 3078 
Q 3713 2572 3713 1747 
Q 3713 922 3314 415 
Q 2916 -91 2278 -91 
Q 1894 -91 1617 61 
Q 1341 213 1159 525 
z
M 3116 1747 
Q 3116 2381 2855 2742 
Q 2594 3103 2138 3103 
Q 1681 3103 1420 2742 
Q 1159 2381 1159 1747 
Q 1159 1113 1420 752 
Q 1681 391 2138 391 
Q 2594 391 2855 752 
Q 3116 1113 3116 1747 
z
" transform="scale(0.015625)"/>
       <path id="DejaVuSans-63" d="M 3122 3366 
L 3122 2828 
Q 2878 2963 2633 3030 
Q 2388 3097 2138 3097 
Q 1578 3097 1268 2742 
Q 959 2388 959 1747 
Q 959 1106 1268 751 
Q 1578 397 2138 397 
Q 2388 397 2633 464 
Q 2878 531 3122 666 
L 3122 134 
Q 2881 22 2623 -34 
Q 2366 -91 2075 -91 
Q 1284 -91 818 406 
Q 353 903 353 1747 
Q 353 2603 823 3093 
Q 1294 3584 2113 3584 
Q 2378 3584 2631 3529 
Q 2884 3475 3122 3366 
z
" transform="scale(0.015625)"/>
       <path id="DejaVuSans-6b" d="M 581 4863 
L 1159 4863 
L 1159 1991 
L 2875 3500 
L 3609 3500 
L 1753 1863 
L 3688 0 
L 2938 0 
L 1159 1709 
L 1159 0 
L 581 0 
L 581 4863 
z
" transform="scale(0.015625)"/>
      </defs>
      <use xlink:href="#DejaVuSans-42"/>
      <use xlink:href="#DejaVuSans-75" x="68.603516"/>
      <use xlink:href="#DejaVuSans-66" x="131.982422"/>
      <use xlink:href="#DejaVuSans-66" x="167.1875"/>
      <use xlink:href="#DejaVuSans-65" x="202.392578"/>
      <use xlink:href="#DejaVuSans-72" x="263.916016"/>
      <use xlink:href="#DejaVuSans-20" x="305.029297"/>
      <use xlink:href="#DejaVuSans-73" x="336.816406"/>
      <use xlink:href="#DejaVuSans-69" x="388.916016"/>
      <use xlink:href="#DejaVuSans-7a" x="416.699219"/>
      <use xlink:href="#DejaVuSans-65" x="469.189453"/>
      <use xlink:href="#DejaVuSans-20" x="530.712891"/>
      <use xlink:href="#DejaVuSans-28" x="562.5"/>
      <use xlink:href="#DejaVuSans-70" x="601.513672"/>
      <use xlink:href="#DejaVuSans-61" x="664.990234"/>
      <use xlink:href="#DejaVuSans-63" x="726.269531"/>
      <use xlink:href="#DejaVuSans-6b" x="781.25"/>
      <use xlink:href="#DejaVuSans-65" x="835.535156"/>
      <use xlink:href="#DejaVuSans-74" x="897.058594"/>
      <use xlink:href="#DejaVuSans-29" x="936.267578"/>
     </g>
    </g>
   </g>
   <g id="line2d_16">
    <path d="M 92.749123 271.724006 
L 92.749123 297.467585 
L 92.751149 297.467585 
L 95.350358 271.724006 
L 95.350358 297.467585 
L 98.022988 271.724006 
L 98.245249 297.467585 
L 103.6725 271.724006 
L 103.6725 297.467585 
L 105.267726 271.724006 
L 106.567392 297.467585 
L 108.096054 271.724006 
L 109.462283 297.467585 
L 109.500447 271.724006 
L 110.522804 245.980426 
L 110.691822 220.236847 
L 112.357175 245.980426 
L 118.146958 297.467585 
L 120.288133 271.724006 
L 121.041849 297.467585 
L 124.829917 271.724006 
L 124.829917 297.467585 
L 127.008827 271.724006 
L 127.724808 297.467585 
L 129.438894 271.724006 
L 130.6197 297.467585 
L 134.673926 271.724006 
L 134.673926 297.467585 
L 134.887238 271.724006 
L 136.078711 245.980426 
L 136.342613 220.236847 
L 137.568818 245.980426 
L 139.366652 220.236847 
L 140.463709 245.980426 
L 146.253492 297.467585 
L 148.486052 271.724006 
L 149.148384 297.467585 
L 154.394214 271.724006 
L 154.394214 297.467585 
L 156.251892 271.724006 
L 157.289105 297.467585 
L 160.898887 271.724006 
L 160.898887 297.467585 
L 165.571247 271.724006 
L 165.571247 297.467585 
L 167.69889 271.724006 
L 168.466139 297.467585 
L 170.98731 271.724006 
L 171.351702 245.980426 
L 171.36103 271.724006 
L 174.255922 297.467585 
L 175.043348 271.724006 
L 175.491274 245.980426 
L 177.150813 271.724006 
L 177.722756 245.980426 
L 180.045705 271.724006 
L 181.837453 245.980426 
L 182.940596 271.724006 
L 183.973383 245.980426 
L 184.297455 220.236847 
L 185.835488 245.980426 
L 185.84786 220.236847 
L 186.737403 194.493267 
L 187.334339 168.749687 
L 188.730379 194.493267 
L 191.199859 168.749687 
L 191.625271 194.493267 
L 192.963087 168.749687 
L 193.383651 143.006108 
L 193.438563 117.262528 
L 194.520162 143.006108 
L 194.572697 117.262528 
L 197.35579 91.518949 
L 197.415054 117.262528 
L 198.083687 91.518949 
L 199.498007 65.775369 
L 200.309945 91.518949 
L 206.099728 143.006108 
L 207.829259 117.262528 
L 208.99462 143.006108 
L 209.559669 117.262528 
L 210.849396 91.518949 
L 211.889511 117.262528 
L 212.512605 91.518949 
L 214.784402 117.262528 
L 217.679294 143.006108 
L 219.247139 117.262528 
L 220.574185 143.006108 
L 222.428371 117.262528 
L 223.469077 143.006108 
L 225.493581 117.262528 
L 226.363968 143.006108 
L 228.70864 117.262528 
L 229.108218 91.518949 
L 229.25886 117.262528 
L 232.153751 143.006108 
L 233.129346 117.262528 
L 234.438133 91.518949 
L 235.048643 117.262528 
L 236.882659 91.518949 
L 237.943534 117.262528 
L 249.5231 220.236847 
L 249.777944 194.493267 
L 250.456222 168.749687 
L 252.417992 194.493267 
L 253.374328 168.749687 
L 255.312883 194.493267 
L 256.439273 168.749687 
L 258.207775 194.493267 
L 259.808917 143.006108 
L 261.102666 168.749687 
L 261.357871 143.006108 
L 263.175694 117.262528 
L 263.997557 143.006108 
L 265.03937 117.262528 
L 265.850741 91.518949 
L 266.892449 117.262528 
L 268.678657 91.518949 
L 269.78734 117.262528 
L 269.872803 91.518949 
L 272.682232 117.262528 
L 272.964756 91.518949 
L 273.395262 65.775369 
L 275.577123 91.518949 
L 277.756808 65.775369 
L 278.472015 91.518949 
L 279.088498 65.775369 
L 281.366906 91.518949 
L 282.23313 65.775369 
L 284.261798 91.518949 
L 287.156689 117.262528 
L 287.213304 91.518949 
L 290.051581 117.262528 
L 290.747529 65.775369 
L 292.946472 91.518949 
L 298.736255 143.006108 
L 301.09268 117.262528 
L 301.631147 143.006108 
L 304.526038 168.749687 
L 307.187357 143.006108 
L 307.353312 117.262528 
L 307.42093 143.006108 
L 310.041156 117.262528 
L 310.315821 143.006108 
L 311.777937 117.262528 
L 313.210713 143.006108 
L 315.669382 117.262528 
L 315.843557 65.775369 
L 316.105604 91.518949 
L 317.530927 65.775369 
L 319.000495 91.518949 
L 327.68517 168.749687 
L 328.7966 143.006108 
L 330.345032 117.262528 
L 330.580061 143.006108 
L 336.369844 194.493267 
L 337.593585 168.749687 
L 339.264736 194.493267 
L 340.004576 168.749687 
L 342.159627 194.493267 
L 345.054519 220.236847 
L 345.80374 194.493267 
L 346.089322 168.749687 
L 347.94941 194.493267 
L 350.844302 220.236847 
L 353.443228 194.493267 
L 353.694419 168.749687 
L 353.739193 194.493267 
L 359.528976 245.980426 
L 361.363728 220.236847 
L 361.772865 194.493267 
L 362.423868 220.236847 
L 364.788707 194.493267 
L 365.318759 220.236847 
L 368.21365 245.980426 
L 368.436078 220.236847 
L 370.31536 168.749687 
L 370.901143 143.006108 
L 371.108542 168.749687 
L 373.457706 143.006108 
L 373.516508 117.262528 
L 374.003433 143.006108 
L 374.038319 117.262528 
L 376.898325 143.006108 
L 379.149948 117.262528 
L 379.793216 143.006108 
L 381.590581 117.262528 
L 382.688108 143.006108 
L 385.437191 117.262528 
L 385.582999 143.006108 
L 387.081212 117.262528 
L 387.909212 91.518949 
L 388.477891 117.262528 
L 391.372782 143.006108 
L 391.993974 117.262528 
L 394.267674 143.006108 
L 394.478929 117.262528 
L 395.938949 91.518949 
L 397.162565 117.262528 
L 400.057457 143.006108 
L 402.492212 117.262528 
L 402.952348 143.006108 
L 403.222941 117.262528 
L 405.84724 143.006108 
L 411.637023 194.493267 
L 412.058965 168.749687 
L 413.774547 143.006108 
L 414.531914 168.749687 
L 417.426805 194.493267 
L 419.19801 168.749687 
L 420.321697 194.493267 
L 422.678361 168.749687 
L 423.035957 143.006108 
L 423.216588 168.749687 
L 424.057912 143.006108 
L 426.11148 168.749687 
L 428.275243 143.006108 
L 429.006371 168.749687 
L 429.811627 143.006108 
L 431.273602 117.262528 
L 431.901263 143.006108 
L 434.796154 168.749687 
L 437.438272 143.006108 
L 437.691046 168.749687 
L 443.480829 220.236847 
L 443.618374 194.493267 
L 446.37572 220.236847 
L 447.03256 194.493267 
L 449.270612 220.236847 
L 449.602822 194.493267 
L 452.165503 220.236847 
L 452.723037 194.493267 
L 454.928562 168.749687 
L 455.060395 194.493267 
L 455.687189 168.749687 
L 457.955286 194.493267 
L 458.677024 168.749687 
L 460.131159 143.006108 
L 460.850178 168.749687 
L 461.727391 143.006108 
L 463.745069 168.749687 
L 464.519379 143.006108 
L 466.383992 117.262528 
L 466.639961 143.006108 
L 467.423048 117.262528 
L 469.534852 143.006108 
L 471.539351 91.518949 
L 472.429743 117.262528 
L 474.325323 91.518949 
L 475.324635 117.262528 
L 475.946349 91.518949 
L 478.219526 117.262528 
L 481.114418 143.006108 
L 482.047181 117.262528 
L 484.009309 143.006108 
L 484.63443 117.262528 
L 486.904201 143.006108 
L 487.106898 117.262528 
L 489.799092 143.006108 
L 495.588875 194.493267 
L 497.159512 168.749687 
L 497.600385 143.006108 
L 498.483767 168.749687 
L 498.926746 143.006108 
L 499.222953 117.262528 
L 500.880167 91.518949 
L 501.378658 117.262528 
L 510.063333 194.493267 
L 512.858677 168.749687 
L 512.958224 194.493267 
L 515.087966 168.749687 
L 515.853116 194.493267 
L 516.807744 168.749687 
L 517.113482 143.006108 
L 518.748007 168.749687 
L 521.642898 194.493267 
L 524.40653 168.749687 
L 524.53779 194.493267 
L 527.432681 220.236847 
L 529.732357 194.493267 
L 530.200953 168.749687 
L 530.327573 194.493267 
L 536.117356 245.980426 
L 537.004461 220.236847 
L 539.012247 245.980426 
L 541.907139 271.724006 
L 542.869247 245.980426 
L 542.980072 220.236847 
L 543.49341 194.493267 
L 544.80203 220.236847 
L 546.26083 194.493267 
L 547.696922 220.236847 
L 550.591813 245.980426 
L 550.631605 220.236847 
L 556.381596 271.724006 
L 556.427138 245.980426 
L 557.961439 220.236847 
L 558.397963 194.493267 
L 559.276488 220.236847 
L 559.911615 194.493267 
L 562.171379 220.236847 
L 563.37228 194.493267 
L 564.724983 168.749687 
L 565.066271 194.493267 
L 566.474363 168.749687 
L 567.961162 194.493267 
L 568.051665 168.749687 
L 570.856053 194.493267 
L 571.758094 168.749687 
L 573.075014 143.006108 
L 573.750945 168.749687 
L 582.435619 245.980426 
L 585.106801 194.493267 
L 585.330511 220.236847 
L 591.120294 271.724006 
L 593.457439 245.980426 
L 594.002533 220.236847 
L 594.015185 245.980426 
L 595.202791 220.236847 
L 596.910077 245.980426 
L 597.333811 220.236847 
L 597.495548 194.493267 
L 598.714207 143.006108 
L 599.804968 168.749687 
L 602.69986 194.493267 
L 603.283541 168.749687 
L 604.509982 143.006108 
L 605.594751 168.749687 
L 611.384534 220.236847 
L 612.860425 194.493267 
L 614.279426 220.236847 
L 615.573339 194.493267 
L 617.174317 220.236847 
L 618.201797 194.493267 
L 618.295466 168.749687 
L 620.069209 194.493267 
L 622.727056 168.749687 
L 622.876673 143.006108 
L 622.9641 168.749687 
L 625.368953 143.006108 
L 625.858991 168.749687 
L 626.155403 143.006108 
L 628.753883 168.749687 
L 637.438557 245.980426 
L 640.279963 220.236847 
L 640.333449 245.980426 
L 642.500576 220.236847 
L 643.22834 245.980426 
L 646.123232 271.724006 
L 648.282172 245.980426 
L 649.018123 271.724006 
L 651.913015 297.467585 
L 652.073858 271.724006 
L 653.156219 245.980426 
L 654.807906 271.724006 
L 655.495233 245.980426 
L 656.965448 220.236847 
L 657.656612 194.493267 
L 657.702798 220.236847 
L 659.06678 168.749687 
L 659.781411 143.006108 
L 660.597689 168.749687 
L 662.221743 143.006108 
L 663.492581 168.749687 
L 666.116378 143.006108 
L 666.387472 168.749687 
L 667.858173 143.006108 
L 669.282364 168.749687 
L 669.282364 168.749687 
" clip-path="url(#p1c105a2b08)" style="fill: none; stroke: #1f77b4; stroke-width: 1.5; stroke-linecap: round"/>
   </g>
   <g id="line2d_17">
    <path d="M 92.749123 271.724006 
L 92.749123 297.467585 
L 92.75086 297.467585 
L 98.132475 271.724006 
L 98.132475 297.467585 
L 100.411337 271.724006 
L 101.027367 297.467585 
L 105.850734 271.724006 
L 105.850734 297.467585 
L 108.856093 271.724006 
L 108.856093 297.467585 
L 110.522158 271.724006 
L 111.750984 297.467585 
L 116.95902 271.724006 
L 116.95902 297.467585 
L 117.880627 271.724006 
L 119.280602 245.980426 
L 119.853912 271.724006 
L 121.160679 245.980426 
L 122.748803 271.724006 
L 125.643695 297.467585 
L 126.001549 271.724006 
L 127.894468 245.980426 
L 128.538586 271.724006 
L 129.338648 245.980426 
L 131.433477 271.724006 
L 134.328369 297.467585 
L 136.860312 271.724006 
L 136.919442 245.980426 
L 137.22326 271.724006 
L 138.248915 245.980426 
L 140.118152 271.724006 
L 143.013043 297.467585 
L 143.423498 271.724006 
L 145.907935 297.467585 
L 147.78258 271.724006 
L 148.220377 245.980426 
L 148.802826 271.724006 
L 151.697718 297.467585 
L 154.126865 271.724006 
L 154.592609 297.467585 
L 165.258365 271.724006 
L 165.258365 297.467585 
L 167.050099 271.724006 
L 168.153257 297.467585 
L 171.440306 271.724006 
L 171.440306 297.467585 
L 174.39724 271.724006 
L 174.39724 297.467585 
L 176.922516 271.724006 
L 177.292132 297.467585 
L 185.301549 271.724006 
L 185.301549 297.467585 
L 187.159185 271.724006 
L 188.19644 297.467585 
L 191.467521 271.724006 
L 191.467521 297.467585 
L 192.174015 271.724006 
L 194.362413 297.467585 
L 194.606693 271.724006 
L 195.076061 245.980426 
L 197.257304 271.724006 
L 197.817513 245.980426 
L 200.152196 271.724006 
L 200.595301 245.980426 
L 203.047087 271.724006 
L 205.941979 297.467585 
L 207.337252 271.724006 
L 208.83687 297.467585 
L 210.652305 271.724006 
L 211.731762 297.467585 
L 213.400989 271.724006 
L 214.626653 297.467585 
L 216.863591 271.724006 
L 217.166284 245.980426 
L 217.346101 220.236847 
L 217.521545 245.980426 
L 223.311328 297.467585 
L 227.47884 271.724006 
L 227.47884 297.467585 
L 228.021418 271.724006 
L 228.705211 245.980426 
L 229.988818 220.236847 
L 230.373732 245.980426 
L 231.085871 220.236847 
L 233.268623 245.980426 
L 233.795668 220.236847 
L 234.933686 194.493267 
L 235.047117 168.749687 
L 236.163515 194.493267 
L 236.718408 168.749687 
L 239.058406 194.493267 
L 239.630296 168.749687 
L 241.953298 194.493267 
L 247.74308 245.980426 
L 248.87353 220.236847 
L 249.185122 194.493267 
L 250.637972 220.236847 
L 252.247414 194.493267 
L 252.756665 168.749687 
L 253.532863 194.493267 
L 265.112429 297.467585 
L 268.273574 271.724006 
L 268.273574 297.467585 
L 268.774759 271.724006 
L 269.113332 245.980426 
L 271.168465 271.724006 
L 273.469345 220.236847 
L 274.063357 245.980426 
L 274.102981 220.236847 
L 282.748031 297.467585 
L 282.790129 245.980426 
L 283.085827 220.236847 
L 285.642923 245.980426 
L 285.908642 220.236847 
L 288.537814 245.980426 
L 291.17682 220.236847 
L 291.432706 245.980426 
L 297.222489 297.467585 
L 302.029859 271.724006 
L 302.029859 297.467585 
L 303.860405 271.724006 
L 304.92475 297.467585 
L 305.923257 271.724006 
L 307.819642 297.467585 
L 316.813628 271.724006 
L 316.813628 297.467585 
L 317.77592 271.724006 
L 318.14663 245.980426 
L 319.436071 220.236847 
L 319.70852 245.980426 
L 320.452688 220.236847 
L 322.350713 194.493267 
L 322.603411 220.236847 
L 322.716594 194.493267 
L 325.498303 220.236847 
L 326.094566 194.493267 
L 327.202444 168.749687 
L 328.393194 194.493267 
L 331.288086 220.236847 
L 333.35188 194.493267 
L 333.543804 168.749687 
L 334.182977 194.493267 
L 334.251302 168.749687 
L 337.077869 194.493267 
L 337.664928 168.749687 
L 339.97276 194.493267 
L 340.08534 168.749687 
L 340.978167 143.006108 
L 342.867651 168.749687 
L 343.037153 143.006108 
L 345.181569 117.262528 
L 345.762543 143.006108 
L 351.552326 194.493267 
L 352.377061 168.749687 
L 354.447217 194.493267 
L 354.860575 168.749687 
L 355.802401 143.006108 
L 356.912766 117.262528 
L 356.93998 91.518949 
L 357.342109 117.262528 
L 360.126809 91.518949 
L 360.237 117.262528 
L 363.131892 143.006108 
L 365.474622 117.262528 
L 366.026783 143.006108 
L 368.921675 168.749687 
L 370.804935 143.006108 
L 371.816566 168.749687 
L 372.273225 143.006108 
L 374.603026 117.262528 
L 374.711458 143.006108 
L 375.939687 117.262528 
L 375.953312 91.518949 
L 376.411693 65.775369 
L 377.606349 91.518949 
L 379.690546 65.775369 
L 380.501241 91.518949 
L 380.601631 65.775369 
L 383.396132 91.518949 
L 384.123292 65.775369 
L 385.108558 40.03179 
L 386.291024 65.775369 
L 392.080806 117.262528 
L 394.589742 91.518949 
L 394.975698 117.262528 
L 397.185276 91.518949 
L 397.870589 117.262528 
L 399.643678 91.518949 
L 400.765481 117.262528 
L 402.592584 91.518949 
L 403.660372 117.262528 
L 406.555264 143.006108 
L 409.023606 117.262528 
L 409.450155 143.006108 
L 412.322647 117.262528 
L 412.345047 143.006108 
L 414.049101 117.262528 
L 415.239938 143.006108 
L 423.924613 220.236847 
L 425.174188 194.493267 
L 426.819504 220.236847 
L 429.714396 245.980426 
L 430.040275 220.236847 
L 432.609287 245.980426 
L 433.297844 220.236847 
L 434.129866 194.493267 
L 435.504179 220.236847 
L 437.737696 168.749687 
L 438.39907 194.493267 
L 447.083744 271.724006 
L 447.477184 245.980426 
L 449.978636 271.724006 
L 451.217121 245.980426 
L 452.873527 271.724006 
L 453.231385 245.980426 
L 455.768419 271.724006 
L 458.66331 297.467585 
L 462.279276 271.724006 
L 462.279276 297.467585 
L 464.978482 271.724006 
L 465.034584 245.980426 
L 465.174168 271.724006 
L 466.87321 245.980426 
L 468.069059 271.724006 
L 470.518004 245.980426 
L 470.963951 271.724006 
L 471.501297 245.980426 
L 472.901369 220.236847 
L 473.858842 245.980426 
L 476.753734 271.724006 
L 476.904944 245.980426 
L 477.640597 194.493267 
L 478.666038 168.749687 
L 478.946618 143.006108 
L 479.648625 168.749687 
L 481.389584 143.006108 
L 482.543517 168.749687 
L 482.654733 143.006108 
L 484.978033 117.262528 
L 485.077049 91.518949 
L 485.438408 117.262528 
L 488.142766 91.518949 
L 488.3333 117.262528 
L 491.199336 91.518949 
L 491.228191 117.262528 
L 492.320036 91.518949 
L 493.954522 65.775369 
L 494.123083 91.518949 
L 494.67848 65.775369 
L 497.017974 91.518949 
L 499.912866 117.262528 
L 501.24593 91.518949 
L 502.807757 117.262528 
L 505.702648 143.006108 
L 507.686816 117.262528 
L 508.559817 91.518949 
L 508.59754 117.262528 
L 511.492431 143.006108 
L 513.310037 117.262528 
L 514.387323 143.006108 
L 516.833176 117.262528 
L 517.136798 91.518949 
L 517.282214 117.262528 
L 518.394182 91.518949 
L 520.177106 117.262528 
L 522.020344 91.518949 
L 523.071997 117.262528 
L 523.85415 91.518949 
L 525.966889 117.262528 
L 543.336238 271.724006 
L 543.439221 245.980426 
L 545.494357 220.236847 
L 546.022786 194.493267 
L 546.231129 220.236847 
L 546.405444 194.493267 
L 549.126021 220.236847 
L 551.859213 194.493267 
L 552.020912 220.236847 
L 554.915804 245.980426 
L 556.626286 220.236847 
L 557.810695 245.980426 
L 559.06344 220.236847 
L 559.368742 168.749687 
L 560.705586 194.493267 
L 569.390261 271.724006 
L 571.092609 245.980426 
L 571.24289 220.236847 
L 572.285152 245.980426 
L 575.180044 271.724006 
L 577.069649 245.980426 
L 577.11819 220.236847 
L 578.074935 245.980426 
L 580.969827 271.724006 
L 582.724371 245.980426 
L 583.483785 220.236847 
L 583.517897 194.493267 
L 583.864718 220.236847 
L 586.75961 245.980426 
L 587.709103 220.236847 
L 589.654501 245.980426 
L 591.49938 220.236847 
L 592.549393 245.980426 
L 595.444284 271.724006 
L 595.512543 245.980426 
L 597.459243 220.236847 
L 598.339176 245.980426 
L 598.657667 220.236847 
L 598.711789 194.493267 
L 599.254636 168.749687 
L 601.056987 143.006108 
L 601.234067 168.749687 
L 601.790859 143.006108 
L 604.128959 168.749687 
L 607.02385 194.493267 
L 607.800743 168.749687 
L 609.918741 194.493267 
L 612.813633 220.236847 
L 615.420731 194.493267 
L 615.708524 220.236847 
L 618.603416 245.980426 
L 618.949016 220.236847 
L 619.469973 194.493267 
L 621.476711 168.749687 
L 621.498307 194.493267 
L 624.289046 168.749687 
L 624.393199 194.493267 
L 627.28809 220.236847 
L 627.765727 194.493267 
L 630.182982 220.236847 
L 633.077873 245.980426 
L 635.643735 220.236847 
L 635.972765 245.980426 
L 636.543953 220.236847 
L 638.867656 245.980426 
L 639.299396 220.236847 
L 641.762548 245.980426 
L 642.58972 220.236847 
L 644.657439 245.980426 
L 645.170164 220.236847 
L 647.552331 245.980426 
L 649.193128 220.236847 
L 650.447222 245.980426 
L 656.237005 297.467585 
L 658.856086 271.724006 
L 659.131897 297.467585 
L 659.452527 271.724006 
L 662.026788 297.467585 
L 667.816087 271.724006 
L 667.816087 297.467585 
L 669.767952 271.724006 
L 670.514871 245.980426 
L 670.710978 271.724006 
L 670.710978 271.724006 
" clip-path="url(#p1c105a2b08)" style="fill: none; stroke: #ff7f0e; stroke-width: 1.5; stroke-linecap: round"/>
   </g>
   <g id="line2d_18">
    <path d="M 92.749123 271.724006 
L 92.749123 297.467585 
L 92.75086 297.467585 
L 101.027656 271.724006 
L 101.027656 297.467585 
L 103.922548 271.724006 
L 103.922548 297.467585 
L 108.745915 271.724006 
L 108.745915 297.467585 
L 111.751274 271.724006 
L 111.751274 297.467585 
L 114.646165 271.724006 
L 114.646165 297.467585 
L 119.854201 271.724006 
L 119.854201 297.467585 
L 122.749093 271.724006 
L 122.749093 297.467585 
L 125.643984 271.724006 
L 125.643984 297.467585 
L 128.538876 271.724006 
L 128.538876 297.467585 
L 131.433767 271.724006 
L 131.433767 297.467585 
L 134.328658 271.724006 
L 134.328658 297.467585 
L 137.22355 271.724006 
L 137.22355 297.467585 
L 140.118441 271.724006 
L 140.118441 297.467585 
L 143.013333 271.724006 
L 143.013333 297.467585 
L 145.908224 271.724006 
L 145.908224 297.467585 
L 148.803116 271.724006 
L 148.803116 297.467585 
L 151.698007 271.724006 
L 151.698007 297.467585 
L 154.592899 271.724006 
L 154.592899 297.467585 
L 157.48779 271.724006 
L 157.48779 297.467585 
L 168.153546 271.724006 
L 168.153546 297.467585 
L 171.048438 271.724006 
L 171.048438 297.467585 
L 174.335487 271.724006 
L 174.335487 297.467585 
L 177.292421 271.724006 
L 177.292421 297.467585 
L 180.187313 271.724006 
L 180.187313 297.467585 
L 188.19673 271.724006 
L 188.19673 297.467585 
L 191.091621 271.724006 
L 191.091621 297.467585 
L 194.362702 271.724006 
L 194.362702 297.467585 
L 197.257594 271.724006 
L 197.257594 297.467585 
L 200.152485 271.724006 
L 200.152485 297.467585 
L 203.047377 271.724006 
L 203.047377 297.467585 
L 205.942268 271.724006 
L 205.942268 297.467585 
L 208.83716 271.724006 
L 208.83716 297.467585 
L 211.732051 271.724006 
L 211.732051 297.467585 
L 214.626943 271.724006 
L 214.626943 297.467585 
L 217.521834 271.724006 
L 217.521834 297.467585 
L 220.416726 271.724006 
L 220.416726 297.467585 
L 223.311617 271.724006 
L 223.311617 297.467585 
L 226.206509 271.724006 
L 226.206509 297.467585 
L 230.374021 271.724006 
L 230.374021 297.467585 
L 233.268913 271.724006 
L 233.268913 297.467585 
L 236.163804 271.724006 
L 236.163804 297.467585 
L 239.058696 271.724006 
L 239.058696 297.467585 
L 241.953587 271.724006 
L 241.953587 297.467585 
L 244.848478 271.724006 
L 244.848478 297.467585 
L 247.74337 271.724006 
L 247.74337 297.467585 
L 250.638261 271.724006 
L 250.638261 297.467585 
L 253.533153 271.724006 
L 253.533153 297.467585 
L 256.428044 271.724006 
L 256.428044 297.467585 
L 259.322936 271.724006 
L 259.322936 297.467585 
L 262.217827 271.724006 
L 262.217827 297.467585 
L 265.112719 271.724006 
L 265.112719 297.467585 
L 268.00761 271.724006 
L 268.00761 297.467585 
L 271.168755 271.724006 
L 271.168755 297.467585 
L 274.063646 271.724006 
L 274.063646 297.467585 
L 276.958538 271.724006 
L 276.958538 297.467585 
L 279.853429 271.724006 
L 279.853429 297.467585 
L 282.748321 271.724006 
L 282.748321 297.467585 
L 285.643212 271.724006 
L 285.643212 297.467585 
L 288.538104 271.724006 
L 288.538104 297.467585 
L 291.432995 271.724006 
L 291.432995 297.467585 
L 294.327887 271.724006 
L 294.327887 297.467585 
L 297.222778 271.724006 
L 297.222778 297.467585 
L 300.11767 271.724006 
L 300.11767 297.467585 
L 304.92504 271.724006 
L 304.92504 297.467585 
L 307.819931 271.724006 
L 307.819931 297.467585 
L 310.714823 271.724006 
L 310.714823 297.467585 
L 319.708809 271.724006 
L 319.708809 297.467585 
L 322.603701 271.724006 
L 322.603701 297.467585 
L 325.498592 271.724006 
L 325.498592 297.467585 
L 328.393484 271.724006 
L 328.393484 297.467585 
L 331.288375 271.724006 
L 331.288375 297.467585 
L 334.183267 271.724006 
L 334.183267 297.467585 
L 337.078158 271.724006 
L 337.078158 297.467585 
L 339.973049 271.724006 
L 339.973049 297.467585 
L 342.867941 271.724006 
L 342.867941 297.467585 
L 345.762832 271.724006 
L 345.762832 297.467585 
L 348.657724 271.724006 
L 348.657724 297.467585 
L 351.552615 271.724006 
L 351.552615 297.467585 
L 354.447507 271.724006 
L 354.447507 297.467585 
L 357.342398 271.724006 
L 357.342398 297.467585 
L 360.23729 271.724006 
L 360.23729 297.467585 
L 363.132181 271.724006 
L 363.132181 297.467585 
L 366.027073 271.724006 
L 366.027073 297.467585 
L 368.921964 271.724006 
L 368.921964 297.467585 
L 371.816856 271.724006 
L 371.816856 297.467585 
L 374.711747 271.724006 
L 374.711747 297.467585 
L 377.606639 271.724006 
L 377.606639 297.467585 
L 380.50153 271.724006 
L 380.50153 297.467585 
L 383.396422 271.724006 
L 383.396422 297.467585 
L 386.291313 271.724006 
L 386.291313 297.467585 
L 389.186205 271.724006 
L 389.186205 297.467585 
L 392.081096 271.724006 
L 392.081096 297.467585 
L 394.975987 271.724006 
L 394.975987 297.467585 
L 397.870879 271.724006 
L 397.870879 297.467585 
L 400.76577 271.724006 
L 400.76577 297.467585 
L 403.660662 271.724006 
L 403.660662 297.467585 
L 406.555553 271.724006 
L 406.555553 297.467585 
L 409.450445 271.724006 
L 409.450445 297.467585 
L 412.345336 271.724006 
L 412.345336 297.467585 
L 415.240228 271.724006 
L 415.240228 297.467585 
L 418.135119 271.724006 
L 418.135119 297.467585 
L 421.030011 271.724006 
L 421.030011 297.467585 
L 423.924902 271.724006 
L 423.924902 297.467585 
L 426.819794 271.724006 
L 426.819794 297.467585 
L 429.714685 271.724006 
L 429.714685 297.467585 
L 432.609577 271.724006 
L 432.609577 297.467585 
L 435.504468 271.724006 
L 435.504468 297.467585 
L 438.39936 271.724006 
L 438.39936 297.467585 
L 441.294251 271.724006 
L 441.294251 297.467585 
L 444.189142 271.724006 
L 444.189142 297.467585 
L 447.084034 271.724006 
L 447.084034 297.467585 
L 449.978925 271.724006 
L 449.978925 297.467585 
L 452.873817 271.724006 
L 452.873817 297.467585 
L 455.768708 271.724006 
L 455.768708 297.467585 
L 458.6636 271.724006 
L 458.6636 297.467585 
L 461.558491 271.724006 
L 461.558491 297.467585 
L 465.174457 271.724006 
L 465.174457 297.467585 
L 468.069349 271.724006 
L 468.069349 297.467585 
L 470.96424 271.724006 
L 470.96424 297.467585 
L 473.859132 271.724006 
L 473.859132 297.467585 
L 476.754023 271.724006 
L 476.754023 297.467585 
L 479.648915 271.724006 
L 479.648915 297.467585 
L 482.543806 271.724006 
L 482.543806 297.467585 
L 485.438698 271.724006 
L 485.438698 297.467585 
L 488.333589 271.724006 
L 488.333589 297.467585 
L 491.228481 271.724006 
L 491.228481 297.467585 
L 494.123372 271.724006 
L 494.123372 297.467585 
L 497.018264 271.724006 
L 497.018264 297.467585 
L 499.913155 271.724006 
L 499.913155 297.467585 
L 502.808047 271.724006 
L 502.808047 297.467585 
L 505.702938 271.724006 
L 505.702938 297.467585 
L 508.597829 271.724006 
L 508.597829 297.467585 
L 511.492721 271.724006 
L 511.492721 297.467585 
L 514.387612 271.724006 
L 514.387612 297.467585 
L 517.282504 271.724006 
L 517.282504 297.467585 
L 520.177395 271.724006 
L 520.177395 297.467585 
L 523.072287 271.724006 
L 523.072287 297.467585 
L 525.967178 271.724006 
L 525.967178 297.467585 
L 528.86207 271.724006 
L 528.86207 297.467585 
L 531.756961 271.724006 
L 531.756961 297.467585 
L 534.651853 271.724006 
L 534.651853 297.467585 
L 537.546744 271.724006 
L 537.546744 297.467585 
L 540.441636 271.724006 
L 540.441636 297.467585 
L 543.336527 271.724006 
L 543.336527 297.467585 
L 546.231419 271.724006 
L 546.231419 297.467585 
L 549.12631 271.724006 
L 549.12631 297.467585 
L 552.021202 271.724006 
L 552.021202 297.467585 
L 554.916093 271.724006 
L 554.916093 297.467585 
L 557.810984 271.724006 
L 557.810984 297.467585 
L 560.705876 271.724006 
L 560.705876 297.467585 
L 563.600767 271.724006 
L 563.600767 297.467585 
L 566.495659 271.724006 
L 566.495659 297.467585 
L 569.39055 271.724006 
L 569.39055 297.467585 
L 572.285442 271.724006 
L 572.285442 297.467585 
L 575.180333 271.724006 
L 575.180333 297.467585 
L 578.075225 271.724006 
L 578.075225 297.467585 
L 580.970116 271.724006 
L 580.970116 297.467585 
L 583.865008 271.724006 
L 583.865008 297.467585 
L 586.759899 271.724006 
L 586.759899 297.467585 
L 589.654791 271.724006 
L 589.654791 297.467585 
L 592.549682 271.724006 
L 592.549682 297.467585 
L 595.444574 271.724006 
L 595.444574 297.467585 
L 598.339465 271.724006 
L 598.339465 297.467585 
L 601.234357 271.724006 
L 601.234357 297.467585 
L 604.129248 271.724006 
L 604.129248 297.467585 
L 607.024139 271.724006 
L 607.024139 297.467585 
L 609.919031 271.724006 
L 609.919031 297.467585 
L 612.813922 271.724006 
L 612.813922 297.467585 
L 615.708814 271.724006 
L 615.708814 297.467585 
L 618.603705 271.724006 
L 618.603705 297.467585 
L 621.498597 271.724006 
L 621.498597 297.467585 
L 624.393488 271.724006 
L 624.393488 297.467585 
L 627.28838 271.724006 
L 627.28838 297.467585 
L 630.183271 271.724006 
L 630.183271 297.467585 
L 633.078163 271.724006 
L 633.078163 297.467585 
L 635.973054 271.724006 
L 635.973054 297.467585 
L 638.867946 271.724006 
L 638.867946 297.467585 
L 641.762837 271.724006 
L 641.762837 297.467585 
L 644.657729 271.724006 
L 644.657729 297.467585 
L 647.55262 271.724006 
L 647.55262 297.467585 
L 650.447512 271.724006 
L 650.447512 297.467585 
L 653.342403 271.724006 
L 653.342403 297.467585 
L 656.237295 271.724006 
L 656.237295 297.467585 
L 659.132186 271.724006 
L 659.132186 297.467585 
L 662.027077 271.724006 
L 662.027077 297.467585 
L 664.921969 271.724006 
L 664.921969 297.467585 
L 670.711268 271.724006 
L 670.711268 297.467585 
L 670.711268 297.467585 
" clip-path="url(#p1c105a2b08)" style="fill: none; stroke: #2ca02c; stroke-width: 1.5; stroke-linecap: round"/>
   </g>
   <g id="line2d_19">
    <path d="M 92.749123 271.724006 
L 92.749123 297.467585 
L 92.75086 297.467585 
L 103.922837 271.724006 
L 103.922837 297.467585 
L 106.817729 271.724006 
L 106.817729 297.467585 
L 111.641096 271.724006 
L 111.641096 297.467585 
L 114.646455 271.724006 
L 114.646455 297.467585 
L 117.541346 271.724006 
L 117.541346 297.467585 
L 122.749382 271.724006 
L 122.749382 297.467585 
L 125.644274 271.724006 
L 125.644274 297.467585 
L 128.539165 271.724006 
L 128.539165 297.467585 
L 131.434056 271.724006 
L 131.434056 297.467585 
L 134.328948 271.724006 
L 134.328948 297.467585 
L 137.223839 271.724006 
L 137.223839 297.467585 
L 140.118731 271.724006 
L 140.118731 297.467585 
L 143.013622 271.724006 
L 143.013622 297.467585 
L 145.908514 271.724006 
L 145.908514 297.467585 
L 148.803405 271.724006 
L 148.803405 297.467585 
L 151.698297 271.724006 
L 151.698297 297.467585 
L 154.593188 271.724006 
L 154.593188 297.467585 
L 157.48808 271.724006 
L 157.48808 297.467585 
L 160.382971 271.724006 
L 160.382971 297.467585 
L 171.048727 271.724006 
L 171.048727 297.467585 
L 173.943619 271.724006 
L 173.943619 297.467585 
L 177.230668 271.724006 
L 177.230668 297.467585 
L 180.187602 271.724006 
L 180.187602 297.467585 
L 183.082494 271.724006 
L 183.082494 297.467585 
L 191.091911 271.724006 
L 191.091911 297.467585 
L 193.986802 271.724006 
L 193.986802 297.467585 
L 197.257883 271.724006 
L 197.257883 297.467585 
L 200.152775 271.724006 
L 200.152775 297.467585 
L 203.047666 271.724006 
L 203.047666 297.467585 
L 205.942558 271.724006 
L 205.942558 297.467585 
L 208.837449 271.724006 
L 208.837449 297.467585 
L 211.732341 271.724006 
L 211.732341 297.467585 
L 214.627232 271.724006 
L 214.627232 297.467585 
L 217.522124 271.724006 
L 217.522124 297.467585 
L 220.417015 271.724006 
L 220.417015 297.467585 
L 223.311907 271.724006 
L 223.311907 297.467585 
L 226.206798 271.724006 
L 226.206798 297.467585 
L 229.10169 271.724006 
L 229.10169 297.467585 
L 233.269202 271.724006 
L 233.269202 297.467585 
L 236.164094 271.724006 
L 236.164094 297.467585 
L 239.058985 271.724006 
L 239.058985 297.467585 
L 241.953877 271.724006 
L 241.953877 297.467585 
L 244.848768 271.724006 
L 244.848768 297.467585 
L 247.743659 271.724006 
L 247.743659 297.467585 
L 250.638551 271.724006 
L 250.638551 297.467585 
L 253.533442 271.724006 
L 253.533442 297.467585 
L 256.428334 271.724006 
L 256.428334 297.467585 
L 259.323225 271.724006 
L 259.323225 297.467585 
L 262.218117 271.724006 
L 262.218117 297.467585 
L 265.113008 271.724006 
L 265.113008 297.467585 
L 268.0079 271.724006 
L 268.0079 297.467585 
L 270.902791 271.724006 
L 270.902791 297.467585 
L 274.063936 271.724006 
L 274.063936 297.467585 
L 276.958827 271.724006 
L 276.958827 297.467585 
L 279.853719 271.724006 
L 279.853719 297.467585 
L 282.74861 271.724006 
L 282.74861 297.467585 
L 285.643502 271.724006 
L 285.643502 297.467585 
L 288.538393 271.724006 
L 288.538393 297.467585 
L 291.433285 271.724006 
L 291.433285 297.467585 
L 294.328176 271.724006 
L 294.328176 297.467585 
L 297.223068 271.724006 
L 297.223068 297.467585 
L 300.117959 271.724006 
L 300.117959 297.467585 
L 303.01285 271.724006 
L 303.01285 297.467585 
L 307.820221 271.724006 
L 307.820221 297.467585 
L 310.715112 271.724006 
L 310.715112 297.467585 
L 313.610004 271.724006 
L 313.610004 297.467585 
L 322.60399 271.724006 
L 322.60399 297.467585 
L 325.498882 271.724006 
L 325.498882 297.467585 
L 328.393773 271.724006 
L 328.393773 297.467585 
L 331.288665 271.724006 
L 331.288665 297.467585 
L 334.183556 271.724006 
L 334.183556 297.467585 
L 337.078448 271.724006 
L 337.078448 297.467585 
L 339.973339 271.724006 
L 339.973339 297.467585 
L 342.86823 271.724006 
L 342.86823 297.467585 
L 345.763122 271.724006 
L 345.763122 297.467585 
L 348.658013 271.724006 
L 348.658013 297.467585 
L 351.552905 271.724006 
L 351.552905 297.467585 
L 354.447796 271.724006 
L 354.447796 297.467585 
L 357.342688 271.724006 
L 357.342688 297.467585 
L 360.237579 271.724006 
L 360.237579 297.467585 
L 363.132471 271.724006 
L 363.132471 297.467585 
L 366.027362 271.724006 
L 366.027362 297.467585 
L 368.922254 271.724006 
L 368.922254 297.467585 
L 371.817145 271.724006 
L 371.817145 297.467585 
L 374.712037 271.724006 
L 374.712037 297.467585 
L 377.606928 271.724006 
L 377.606928 297.467585 
L 380.50182 271.724006 
L 380.50182 297.467585 
L 383.396711 271.724006 
L 383.396711 297.467585 
L 386.291603 271.724006 
L 386.291603 297.467585 
L 389.186494 271.724006 
L 389.186494 297.467585 
L 392.081385 271.724006 
L 392.081385 297.467585 
L 394.976277 271.724006 
L 394.976277 297.467585 
L 397.871168 271.724006 
L 397.871168 297.467585 
L 400.76606 271.724006 
L 400.76606 297.467585 
L 403.660951 271.724006 
L 403.660951 297.467585 
L 406.555843 271.724006 
L 406.555843 297.467585 
L 409.450734 271.724006 
L 409.450734 297.467585 
L 412.345626 271.724006 
L 412.345626 297.467585 
L 415.240517 271.724006 
L 415.240517 297.467585 
L 418.135409 271.724006 
L 418.135409 297.467585 
L 421.0303 271.724006 
L 421.0303 297.467585 
L 423.925192 271.724006 
L 423.925192 297.467585 
L 426.820083 271.724006 
L 426.820083 297.467585 
L 429.714975 271.724006 
L 429.714975 297.467585 
L 432.609866 271.724006 
L 432.609866 297.467585 
L 435.504758 271.724006 
L 435.504758 297.467585 
L 438.399649 271.724006 
L 438.399649 297.467585 
L 441.29454 271.724006 
L 441.29454 297.467585 
L 444.189432 271.724006 
L 444.189432 297.467585 
L 447.084323 271.724006 
L 447.084323 297.467585 
L 449.979215 271.724006 
L 449.979215 297.467585 
L 452.874106 271.724006 
L 452.874106 297.467585 
L 455.768998 271.724006 
L 455.768998 297.467585 
L 458.663889 271.724006 
L 458.663889 297.467585 
L 461.558781 271.724006 
L 461.558781 297.467585 
L 464.453672 271.724006 
L 464.453672 297.467585 
L 468.069638 271.724006 
L 468.069638 297.467585 
L 470.96453 271.724006 
L 470.96453 297.467585 
L 473.859421 271.724006 
L 473.859421 297.467585 
L 476.754313 271.724006 
L 476.754313 297.467585 
L 479.649204 271.724006 
L 479.649204 297.467585 
L 482.544096 271.724006 
L 482.544096 297.467585 
L 485.438987 271.724006 
L 485.438987 297.467585 
L 488.333879 271.724006 
L 488.333879 297.467585 
L 491.22877 271.724006 
L 491.22877 297.467585 
L 494.123662 271.724006 
L 494.123662 297.467585 
L 497.018553 271.724006 
L 497.018553 297.467585 
L 499.913445 271.724006 
L 499.913445 297.467585 
L 502.808336 271.724006 
L 502.808336 297.467585 
L 505.703227 271.724006 
L 505.703227 297.467585 
L 508.598119 271.724006 
L 508.598119 297.467585 
L 511.49301 271.724006 
L 511.49301 297.467585 
L 514.387902 271.724006 
L 514.387902 297.467585 
L 517.282793 271.724006 
L 517.282793 297.467585 
L 520.177685 271.724006 
L 520.177685 297.467585 
L 523.072576 271.724006 
L 523.072576 297.467585 
L 525.967468 271.724006 
L 525.967468 297.467585 
L 528.862359 271.724006 
L 528.862359 297.467585 
L 531.757251 271.724006 
L 531.757251 297.467585 
L 534.652142 271.724006 
L 534.652142 297.467585 
L 537.547034 271.724006 
L 537.547034 297.467585 
L 540.441925 271.724006 
L 540.441925 297.467585 
L 543.336817 271.724006 
L 543.336817 297.467585 
L 546.231708 271.724006 
L 546.231708 297.467585 
L 549.1266 271.724006 
L 549.1266 297.467585 
L 552.021491 271.724006 
L 552.021491 297.467585 
L 554.916382 271.724006 
L 554.916382 297.467585 
L 557.811274 271.724006 
L 557.811274 297.467585 
L 560.706165 271.724006 
L 560.706165 297.467585 
L 563.601057 271.724006 
L 563.601057 297.467585 
L 566.495948 271.724006 
L 566.495948 297.467585 
L 569.39084 271.724006 
L 569.39084 297.467585 
L 572.285731 271.724006 
L 572.285731 297.467585 
L 575.180623 271.724006 
L 575.180623 297.467585 
L 578.075514 271.724006 
L 578.075514 297.467585 
L 580.970406 271.724006 
L 580.970406 297.467585 
L 583.865297 271.724006 
L 583.865297 297.467585 
L 586.760189 271.724006 
L 586.760189 297.467585 
L 589.65508 271.724006 
L 589.65508 297.467585 
L 592.549972 271.724006 
L 592.549972 297.467585 
L 595.444863 271.724006 
L 595.444863 297.467585 
L 598.339755 271.724006 
L 598.339755 297.467585 
L 601.234646 271.724006 
L 601.234646 297.467585 
L 604.129538 271.724006 
L 604.129538 297.467585 
L 607.024429 271.724006 
L 607.024429 297.467585 
L 609.91932 271.724006 
L 609.91932 297.467585 
L 612.814212 271.724006 
L 612.814212 297.467585 
L 615.709103 271.724006 
L 615.709103 297.467585 
L 618.603995 271.724006 
L 618.603995 297.467585 
L 621.498886 271.724006 
L 621.498886 297.467585 
L 624.393778 271.724006 
L 624.393778 297.467585 
L 627.288669 271.724006 
L 627.288669 297.467585 
L 630.183561 271.724006 
L 630.183561 297.467585 
L 633.078452 271.724006 
L 633.078452 297.467585 
L 635.973344 271.724006 
L 635.973344 297.467585 
L 638.868235 271.724006 
L 638.868235 297.467585 
L 641.763127 271.724006 
L 641.763127 297.467585 
L 644.658018 271.724006 
L 644.658018 297.467585 
L 647.55291 271.724006 
L 647.55291 297.467585 
L 650.447801 271.724006 
L 650.447801 297.467585 
L 653.342693 271.724006 
L 653.342693 297.467585 
L 656.237584 271.724006 
L 656.237584 297.467585 
L 659.132475 271.724006 
L 659.132475 297.467585 
L 662.027367 271.724006 
L 662.027367 297.467585 
L 664.922258 271.724006 
L 664.922258 297.467585 
L 667.81715 271.724006 
L 667.81715 297.467585 
L 667.81715 297.467585 
" clip-path="url(#p1c105a2b08)" style="fill: none; stroke: #d62728; stroke-width: 1.5; stroke-linecap: round"/>
   </g>
   <g id="line2d_20">
    <path d="M 92.749123 271.724006 
L 92.749123 297.467585 
L 92.751149 297.467585 
L 101.14072 271.724006 
L 101.14072 297.467585 
L 104.035611 271.724006 
L 104.035611 297.467585 
L 109.462862 271.724006 
L 109.462862 297.467585 
L 112.357754 271.724006 
L 112.357754 297.467585 
L 115.252645 271.724006 
L 115.252645 297.467585 
L 118.147537 271.724006 
L 118.147537 297.467585 
L 121.042428 271.724006 
L 121.042428 297.467585 
L 123.93732 271.724006 
L 123.93732 297.467585 
L 126.832211 271.724006 
L 126.832211 297.467585 
L 130.620279 271.724006 
L 130.620279 297.467585 
L 133.51517 271.724006 
L 133.51517 297.467585 
L 136.410062 271.724006 
L 136.410062 297.467585 
L 140.464288 271.724006 
L 140.464288 297.467585 
L 143.35918 271.724006 
L 143.35918 297.467585 
L 146.254071 271.724006 
L 146.254071 297.467585 
L 149.148963 271.724006 
L 149.148963 297.467585 
L 152.043854 271.724006 
L 152.043854 297.467585 
L 154.938746 271.724006 
L 154.938746 297.467585 
L 160.184576 271.724006 
L 160.184576 297.467585 
L 163.079467 271.724006 
L 163.079467 297.467585 
L 166.689249 271.724006 
L 166.689249 297.467585 
L 171.361609 271.724006 
L 171.361609 297.467585 
L 174.256501 271.724006 
L 174.256501 297.467585 
L 177.151392 271.724006 
L 177.151392 297.467585 
L 180.046284 271.724006 
L 180.046284 297.467585 
L 182.941175 271.724006 
L 182.941175 297.467585 
L 185.836067 271.724006 
L 185.836067 297.467585 
L 188.730958 271.724006 
L 188.730958 297.467585 
L 191.62585 271.724006 
L 191.62585 297.467585 
L 194.520741 271.724006 
L 194.520741 297.467585 
L 197.415633 271.724006 
L 197.415633 297.467585 
L 200.310524 271.724006 
L 200.310524 297.467585 
L 203.205416 271.724006 
L 203.205416 297.467585 
L 206.100307 271.724006 
L 206.100307 297.467585 
L 208.995198 271.724006 
L 208.995198 297.467585 
L 211.89009 271.724006 
L 211.89009 297.467585 
L 214.784981 271.724006 
L 214.784981 297.467585 
L 217.679873 271.724006 
L 217.679873 297.467585 
L 220.574764 271.724006 
L 220.574764 297.467585 
L 223.469656 271.724006 
L 223.469656 297.467585 
L 226.364547 271.724006 
L 226.364547 297.467585 
L 229.259439 271.724006 
L 229.259439 297.467585 
L 232.15433 271.724006 
L 232.15433 297.467585 
L 235.049222 271.724006 
L 235.049222 297.467585 
L 237.944113 271.724006 
L 237.944113 297.467585 
L 240.839005 271.724006 
L 240.839005 297.467585 
L 243.733896 271.724006 
L 243.733896 297.467585 
L 246.628788 271.724006 
L 246.628788 297.467585 
L 249.523679 271.724006 
L 249.523679 297.467585 
L 252.418571 271.724006 
L 252.418571 297.467585 
L 255.313462 271.724006 
L 255.313462 297.467585 
L 258.208354 271.724006 
L 258.208354 297.467585 
L 261.103245 271.724006 
L 261.103245 297.467585 
L 263.998136 271.724006 
L 263.998136 297.467585 
L 266.893028 271.724006 
L 266.893028 297.467585 
L 269.787919 271.724006 
L 269.787919 297.467585 
L 272.682811 271.724006 
L 272.682811 297.467585 
L 275.577702 271.724006 
L 275.577702 297.467585 
L 278.472594 271.724006 
L 278.472594 297.467585 
L 281.367485 271.724006 
L 281.367485 297.467585 
L 284.262377 271.724006 
L 284.262377 297.467585 
L 287.157268 271.724006 
L 287.157268 297.467585 
L 290.05216 271.724006 
L 290.05216 297.467585 
L 292.947051 271.724006 
L 292.947051 297.467585 
L 295.841943 271.724006 
L 295.841943 297.467585 
L 298.736834 271.724006 
L 298.736834 297.467585 
L 301.631726 271.724006 
L 301.631726 297.467585 
L 304.526617 271.724006 
L 304.526617 297.467585 
L 307.421509 271.724006 
L 307.421509 297.467585 
L 310.3164 271.724006 
L 310.3164 297.467585 
L 313.211291 271.724006 
L 313.211291 297.467585 
L 316.106183 271.724006 
L 316.106183 297.467585 
L 319.001074 271.724006 
L 319.001074 297.467585 
L 321.895966 271.724006 
L 321.895966 297.467585 
L 324.790857 271.724006 
L 324.790857 297.467585 
L 327.685749 271.724006 
L 327.685749 297.467585 
L 330.58064 271.724006 
L 330.58064 297.467585 
L 333.475532 271.724006 
L 333.475532 297.467585 
L 336.370423 271.724006 
L 336.370423 297.467585 
L 339.265315 271.724006 
L 339.265315 297.467585 
L 342.160206 271.724006 
L 342.160206 297.467585 
L 345.055098 271.724006 
L 345.055098 297.467585 
L 347.949989 271.724006 
L 347.949989 297.467585 
L 350.844881 271.724006 
L 350.844881 297.467585 
L 353.739772 271.724006 
L 353.739772 297.467585 
L 356.634664 271.724006 
L 356.634664 297.467585 
L 359.529555 271.724006 
L 359.529555 297.467585 
L 362.424447 271.724006 
L 362.424447 297.467585 
L 365.319338 271.724006 
L 365.319338 297.467585 
L 368.214229 271.724006 
L 368.214229 297.467585 
L 371.109121 271.724006 
L 371.109121 297.467585 
L 374.004012 271.724006 
L 374.004012 297.467585 
L 376.898904 271.724006 
L 376.898904 297.467585 
L 379.793795 271.724006 
L 379.793795 297.467585 
L 382.688687 271.724006 
L 382.688687 297.467585 
L 385.583578 271.724006 
L 385.583578 297.467585 
L 388.47847 271.724006 
L 388.47847 297.467585 
L 391.373361 271.724006 
L 391.373361 297.467585 
L 394.268253 271.724006 
L 394.268253 297.467585 
L 397.163144 271.724006 
L 397.163144 297.467585 
L 400.058036 271.724006 
L 400.058036 297.467585 
L 402.952927 271.724006 
L 402.952927 297.467585 
L 405.847819 271.724006 
L 405.847819 297.467585 
L 408.74271 271.724006 
L 408.74271 297.467585 
L 411.637602 271.724006 
L 411.637602 297.467585 
L 414.532493 271.724006 
L 414.532493 297.467585 
L 417.427384 271.724006 
L 417.427384 297.467585 
L 420.322276 271.724006 
L 420.322276 297.467585 
L 423.217167 271.724006 
L 423.217167 297.467585 
L 426.112059 271.724006 
L 426.112059 297.467585 
L 429.00695 271.724006 
L 429.00695 297.467585 
L 431.901842 271.724006 
L 431.901842 297.467585 
L 434.796733 271.724006 
L 434.796733 297.467585 
L 437.691625 271.724006 
L 437.691625 297.467585 
L 440.586516 271.724006 
L 440.586516 297.467585 
L 443.481408 271.724006 
L 443.481408 297.467585 
L 446.376299 271.724006 
L 446.376299 297.467585 
L 449.271191 271.724006 
L 449.271191 297.467585 
L 452.166082 271.724006 
L 452.166082 297.467585 
L 455.060974 271.724006 
L 455.060974 297.467585 
L 457.955865 271.724006 
L 457.955865 297.467585 
L 460.850757 271.724006 
L 460.850757 297.467585 
L 463.745648 271.724006 
L 463.745648 297.467585 
L 466.640539 271.724006 
L 466.640539 297.467585 
L 469.535431 271.724006 
L 469.535431 297.467585 
L 472.430322 271.724006 
L 472.430322 297.467585 
L 475.325214 271.724006 
L 475.325214 297.467585 
L 478.220105 271.724006 
L 478.220105 297.467585 
L 481.114997 271.724006 
L 481.114997 297.467585 
L 484.009888 271.724006 
L 484.009888 297.467585 
L 486.90478 271.724006 
L 486.90478 297.467585 
L 489.799671 271.724006 
L 489.799671 297.467585 
L 492.694563 271.724006 
L 492.694563 297.467585 
L 495.589454 271.724006 
L 495.589454 297.467585 
L 498.484346 271.724006 
L 498.484346 297.467585 
L 501.379237 271.724006 
L 501.379237 297.467585 
L 504.274129 271.724006 
L 504.274129 297.467585 
L 507.16902 271.724006 
L 507.16902 297.467585 
L 510.063912 271.724006 
L 510.063912 297.467585 
L 512.958803 271.724006 
L 512.958803 297.467585 
L 515.853695 271.724006 
L 515.853695 297.467585 
L 518.748586 271.724006 
L 518.748586 297.467585 
L 521.643477 271.724006 
L 521.643477 297.467585 
L 524.538369 271.724006 
L 524.538369 297.467585 
L 527.43326 271.724006 
L 527.43326 297.467585 
L 530.328152 271.724006 
L 530.328152 297.467585 
L 533.223043 271.724006 
L 533.223043 297.467585 
L 536.117935 271.724006 
L 536.117935 297.467585 
L 539.012826 271.724006 
L 539.012826 297.467585 
L 541.907718 271.724006 
L 541.907718 297.467585 
L 544.802609 271.724006 
L 544.802609 297.467585 
L 547.697501 271.724006 
L 547.697501 297.467585 
L 550.592392 271.724006 
L 550.592392 297.467585 
L 553.487284 271.724006 
L 553.487284 297.467585 
L 556.382175 271.724006 
L 556.382175 297.467585 
L 559.277067 271.724006 
L 559.277067 297.467585 
L 562.171958 271.724006 
L 562.171958 297.467585 
L 565.06685 271.724006 
L 565.06685 297.467585 
L 567.961741 271.724006 
L 567.961741 297.467585 
L 570.856632 271.724006 
L 570.856632 297.467585 
L 573.751524 271.724006 
L 573.751524 297.467585 
L 576.646415 271.724006 
L 576.646415 297.467585 
L 579.541307 271.724006 
L 579.541307 297.467585 
L 582.436198 271.724006 
L 582.436198 297.467585 
L 585.33109 271.724006 
L 585.33109 297.467585 
L 588.225981 271.724006 
L 588.225981 297.467585 
L 591.120873 271.724006 
L 591.120873 297.467585 
L 594.015764 271.724006 
L 594.015764 297.467585 
L 596.910656 271.724006 
L 596.910656 297.467585 
L 599.805547 271.724006 
L 599.805547 297.467585 
L 602.700439 271.724006 
L 602.700439 297.467585 
L 605.59533 271.724006 
L 605.59533 297.467585 
L 608.490222 271.724006 
L 608.490222 297.467585 
L 611.385113 271.724006 
L 611.385113 297.467585 
L 614.280005 271.724006 
L 614.280005 297.467585 
L 617.174896 271.724006 
L 617.174896 297.467585 
L 620.069787 271.724006 
L 620.069787 297.467585 
L 622.964679 271.724006 
L 622.964679 297.467585 
L 625.85957 271.724006 
L 625.85957 297.467585 
L 628.754462 271.724006 
L 628.754462 297.467585 
L 631.649353 271.724006 
L 631.649353 297.467585 
L 634.544245 271.724006 
L 634.544245 297.467585 
L 637.439136 271.724006 
L 637.439136 297.467585 
L 640.334028 271.724006 
L 640.334028 297.467585 
L 643.228919 271.724006 
L 643.228919 297.467585 
L 646.123811 271.724006 
L 646.123811 297.467585 
L 649.018702 271.724006 
L 649.018702 297.467585 
L 651.913594 271.724006 
L 651.913594 297.467585 
L 654.808485 271.724006 
L 654.808485 297.467585 
L 657.703377 271.724006 
L 657.703377 297.467585 
L 660.598268 271.724006 
L 660.598268 297.467585 
L 663.49316 271.724006 
L 663.49316 297.467585 
L 666.388051 271.724006 
L 666.388051 297.467585 
L 669.282943 271.724006 
L 669.282943 297.467585 
L 669.282943 297.467585 
" clip-path="url(#p1c105a2b08)" style="fill: none; stroke: #9467bd; stroke-width: 1.5; stroke-linecap: round"/>
   </g>
   <g id="line2d_21">
    <path d="M 92.749123 271.724006 
L 92.749123 297.467585 
L 92.751149 297.467585 
L 98.245539 271.724006 
L 98.245539 297.467585 
L 101.14043 271.724006 
L 101.14043 297.467585 
L 106.567681 271.724006 
L 106.567681 297.467585 
L 109.462573 271.724006 
L 109.462573 297.467585 
L 112.357464 271.724006 
L 112.357464 297.467585 
L 115.252356 271.724006 
L 115.252356 297.467585 
L 118.147247 271.724006 
L 118.147247 297.467585 
L 121.042139 271.724006 
L 121.042139 297.467585 
L 123.93703 271.724006 
L 123.93703 297.467585 
L 127.725098 271.724006 
L 127.725098 297.467585 
L 130.619989 271.724006 
L 130.619989 297.467585 
L 133.514881 271.724006 
L 133.514881 297.467585 
L 137.569107 271.724006 
L 137.569107 297.467585 
L 140.463999 271.724006 
L 140.463999 297.467585 
L 143.35889 271.724006 
L 143.35889 297.467585 
L 146.253782 271.724006 
L 146.253782 297.467585 
L 149.148673 271.724006 
L 149.148673 297.467585 
L 152.043565 271.724006 
L 152.043565 297.467585 
L 157.289395 271.724006 
L 157.289395 297.467585 
L 160.184286 271.724006 
L 160.184286 297.467585 
L 163.794068 271.724006 
L 163.794068 297.467585 
L 168.466428 271.724006 
L 168.466428 297.467585 
L 171.36132 271.724006 
L 171.36132 297.467585 
L 174.256211 271.724006 
L 174.256211 297.467585 
L 177.151103 271.724006 
L 177.151103 297.467585 
L 180.045994 271.724006 
L 180.045994 297.467585 
L 182.940886 271.724006 
L 182.940886 297.467585 
L 185.835777 271.724006 
L 185.835777 297.467585 
L 188.730669 271.724006 
L 188.730669 297.467585 
L 191.62556 271.724006 
L 191.62556 297.467585 
L 194.520452 271.724006 
L 194.520452 297.467585 
L 197.415343 271.724006 
L 197.415343 297.467585 
L 200.310235 271.724006 
L 200.310235 297.467585 
L 203.205126 271.724006 
L 203.205126 297.467585 
L 206.100018 271.724006 
L 206.100018 297.467585 
L 208.994909 271.724006 
L 208.994909 297.467585 
L 211.8898 271.724006 
L 211.8898 297.467585 
L 214.784692 271.724006 
L 214.784692 297.467585 
L 217.679583 271.724006 
L 217.679583 297.467585 
L 220.574475 271.724006 
L 220.574475 297.467585 
L 223.469366 271.724006 
L 223.469366 297.467585 
L 226.364258 271.724006 
L 226.364258 297.467585 
L 229.259149 271.724006 
L 229.259149 297.467585 
L 232.154041 271.724006 
L 232.154041 297.467585 
L 235.048932 271.724006 
L 235.048932 297.467585 
L 237.943824 271.724006 
L 237.943824 297.467585 
L 240.838715 271.724006 
L 240.838715 297.467585 
L 243.733607 271.724006 
L 243.733607 297.467585 
L 246.628498 271.724006 
L 246.628498 297.467585 
L 249.52339 271.724006 
L 249.52339 297.467585 
L 252.418281 271.724006 
L 252.418281 297.467585 
L 255.313173 271.724006 
L 255.313173 297.467585 
L 258.208064 271.724006 
L 258.208064 297.467585 
L 261.102956 271.724006 
L 261.102956 297.467585 
L 263.997847 271.724006 
L 263.997847 297.467585 
L 266.892738 271.724006 
L 266.892738 297.467585 
L 269.78763 271.724006 
L 269.78763 297.467585 
L 272.682521 271.724006 
L 272.682521 297.467585 
L 275.577413 271.724006 
L 275.577413 297.467585 
L 278.472304 271.724006 
L 278.472304 297.467585 
L 281.367196 271.724006 
L 281.367196 297.467585 
L 284.262087 271.724006 
L 284.262087 297.467585 
L 287.156979 271.724006 
L 287.156979 297.467585 
L 290.05187 271.724006 
L 290.05187 297.467585 
L 292.946762 271.724006 
L 292.946762 297.467585 
L 295.841653 271.724006 
L 295.841653 297.467585 
L 298.736545 271.724006 
L 298.736545 297.467585 
L 301.631436 271.724006 
L 301.631436 297.467585 
L 304.526328 271.724006 
L 304.526328 297.467585 
L 307.421219 271.724006 
L 307.421219 297.467585 
L 310.316111 271.724006 
L 310.316111 297.467585 
L 313.211002 271.724006 
L 313.211002 297.467585 
L 316.105893 271.724006 
L 316.105893 297.467585 
L 319.000785 271.724006 
L 319.000785 297.467585 
L 321.895676 271.724006 
L 321.895676 297.467585 
L 324.790568 271.724006 
L 324.790568 297.467585 
L 327.685459 271.724006 
L 327.685459 297.467585 
L 330.580351 271.724006 
L 330.580351 297.467585 
L 333.475242 271.724006 
L 333.475242 297.467585 
L 336.370134 271.724006 
L 336.370134 297.467585 
L 339.265025 271.724006 
L 339.265025 297.467585 
L 342.159917 271.724006 
L 342.159917 297.467585 
L 345.054808 271.724006 
L 345.054808 297.467585 
L 347.9497 271.724006 
L 347.9497 297.467585 
L 350.844591 271.724006 
L 350.844591 297.467585 
L 353.739483 271.724006 
L 353.739483 297.467585 
L 356.634374 271.724006 
L 356.634374 297.467585 
L 359.529266 271.724006 
L 359.529266 297.467585 
L 362.424157 271.724006 
L 362.424157 297.467585 
L 365.319048 271.724006 
L 365.319048 297.467585 
L 368.21394 271.724006 
L 368.21394 297.467585 
L 371.108831 271.724006 
L 371.108831 297.467585 
L 374.003723 271.724006 
L 374.003723 297.467585 
L 376.898614 271.724006 
L 376.898614 297.467585 
L 379.793506 271.724006 
L 379.793506 297.467585 
L 382.688397 271.724006 
L 382.688397 297.467585 
L 385.583289 271.724006 
L 385.583289 297.467585 
L 388.47818 271.724006 
L 388.47818 297.467585 
L 391.373072 271.724006 
L 391.373072 297.467585 
L 394.267963 271.724006 
L 394.267963 297.467585 
L 397.162855 271.724006 
L 397.162855 297.467585 
L 400.057746 271.724006 
L 400.057746 297.467585 
L 402.952638 271.724006 
L 402.952638 297.467585 
L 405.847529 271.724006 
L 405.847529 297.467585 
L 408.742421 271.724006 
L 408.742421 297.467585 
L 411.637312 271.724006 
L 411.637312 297.467585 
L 414.532204 271.724006 
L 414.532204 297.467585 
L 417.427095 271.724006 
L 417.427095 297.467585 
L 420.321986 271.724006 
L 420.321986 297.467585 
L 423.216878 271.724006 
L 423.216878 297.467585 
L 426.111769 271.724006 
L 426.111769 297.467585 
L 429.006661 271.724006 
L 429.006661 297.467585 
L 431.901552 271.724006 
L 431.901552 297.467585 
L 434.796444 271.724006 
L 434.796444 297.467585 
L 437.691335 271.724006 
L 437.691335 297.467585 
L 440.586227 271.724006 
L 440.586227 297.467585 
L 443.481118 271.724006 
L 443.481118 297.467585 
L 446.37601 271.724006 
L 446.37601 297.467585 
L 449.270901 271.724006 
L 449.270901 297.467585 
L 452.165793 271.724006 
L 452.165793 297.467585 
L 455.060684 271.724006 
L 455.060684 297.467585 
L 457.955576 271.724006 
L 457.955576 297.467585 
L 460.850467 271.724006 
L 460.850467 297.467585 
L 463.745359 271.724006 
L 463.745359 297.467585 
L 466.64025 271.724006 
L 466.64025 297.467585 
L 469.535141 271.724006 
L 469.535141 297.467585 
L 472.430033 271.724006 
L 472.430033 297.467585 
L 475.324924 271.724006 
L 475.324924 297.467585 
L 478.219816 271.724006 
L 478.219816 297.467585 
L 481.114707 271.724006 
L 481.114707 297.467585 
L 484.009599 271.724006 
L 484.009599 297.467585 
L 486.90449 271.724006 
L 486.90449 297.467585 
L 489.799382 271.724006 
L 489.799382 297.467585 
L 492.694273 271.724006 
L 492.694273 297.467585 
L 495.589165 271.724006 
L 495.589165 297.467585 
L 498.484056 271.724006 
L 498.484056 297.467585 
L 501.378948 271.724006 
L 501.378948 297.467585 
L 504.273839 271.724006 
L 504.273839 297.467585 
L 507.168731 271.724006 
L 507.168731 297.467585 
L 510.063622 271.724006 
L 510.063622 297.467585 
L 512.958514 271.724006 
L 512.958514 297.467585 
L 515.853405 271.724006 
L 515.853405 297.467585 
L 518.748296 271.724006 
L 518.748296 297.467585 
L 521.643188 271.724006 
L 521.643188 297.467585 
L 524.538079 271.724006 
L 524.538079 297.467585 
L 527.432971 271.724006 
L 527.432971 297.467585 
L 530.327862 271.724006 
L 530.327862 297.467585 
L 533.222754 271.724006 
L 533.222754 297.467585 
L 536.117645 271.724006 
L 536.117645 297.467585 
L 539.012537 271.724006 
L 539.012537 297.467585 
L 541.907428 271.724006 
L 541.907428 297.467585 
L 544.80232 271.724006 
L 544.80232 297.467585 
L 547.697211 271.724006 
L 547.697211 297.467585 
L 550.592103 271.724006 
L 550.592103 297.467585 
L 553.486994 271.724006 
L 553.486994 297.467585 
L 556.381886 271.724006 
L 556.381886 297.467585 
L 559.276777 271.724006 
L 559.276777 297.467585 
L 562.171669 271.724006 
L 562.171669 297.467585 
L 565.06656 271.724006 
L 565.06656 297.467585 
L 567.961452 271.724006 
L 567.961452 297.467585 
L 570.856343 271.724006 
L 570.856343 297.467585 
L 573.751234 271.724006 
L 573.751234 297.467585 
L 576.646126 271.724006 
L 576.646126 297.467585 
L 579.541017 271.724006 
L 579.541017 297.467585 
L 582.435909 271.724006 
L 582.435909 297.467585 
L 585.3308 271.724006 
L 585.3308 297.467585 
L 588.225692 271.724006 
L 588.225692 297.467585 
L 591.120583 271.724006 
L 591.120583 297.467585 
L 594.015475 271.724006 
L 594.015475 297.467585 
L 596.910366 271.724006 
L 596.910366 297.467585 
L 599.805258 271.724006 
L 599.805258 297.467585 
L 602.700149 271.724006 
L 602.700149 297.467585 
L 605.595041 271.724006 
L 605.595041 297.467585 
L 608.489932 271.724006 
L 608.489932 297.467585 
L 611.384824 271.724006 
L 611.384824 297.467585 
L 614.279715 271.724006 
L 614.279715 297.467585 
L 617.174607 271.724006 
L 617.174607 297.467585 
L 620.069498 271.724006 
L 620.069498 297.467585 
L 622.964389 271.724006 
L 622.964389 297.467585 
L 625.859281 271.724006 
L 625.859281 297.467585 
L 628.754172 271.724006 
L 628.754172 297.467585 
L 631.649064 271.724006 
L 631.649064 297.467585 
L 634.543955 271.724006 
L 634.543955 297.467585 
L 637.438847 271.724006 
L 637.438847 297.467585 
L 640.333738 271.724006 
L 640.333738 297.467585 
L 643.22863 271.724006 
L 643.22863 297.467585 
L 646.123521 271.724006 
L 646.123521 297.467585 
L 649.018413 271.724006 
L 649.018413 297.467585 
L 651.913304 271.724006 
L 651.913304 297.467585 
L 654.808196 271.724006 
L 654.808196 297.467585 
L 657.703087 271.724006 
L 657.703087 297.467585 
L 660.597979 271.724006 
L 660.597979 297.467585 
L 663.49287 271.724006 
L 663.49287 297.467585 
L 666.387762 271.724006 
L 666.387762 297.467585 
L 669.282653 271.724006 
L 669.282653 297.467585 
L 669.282653 297.467585 
" clip-path="url(#p1c105a2b08)" style="fill: none; stroke: #8c564b; stroke-width: 1.5; stroke-linecap: round"/>
   </g>
   <g id="patch_3">
    <path d="M 63.851016 310.339375 
L 63.851016 27.16 
" style="fill: none"/>
   </g>
   <g id="patch_4">
    <path d="M 699.609375 310.339375 
L 699.609375 27.16 
" style="fill: none"/>
   </g>
   <g id="patch_5">
    <path d="M 63.851016 310.339375 
L 699.609375 310.339375 
" style="fill: none"/>
   </g>
   <g id="patch_6">
    <path d="M 63.851016 27.16 
L 699.609375 27.16 
" style="fill: none"/>
   </g>
   <g id="text_18">
    <!-- Network Usage - Buffer Size for each node -->
    <g style="fill: #262626" transform="translate(254.15707 21.16) scale(0.12 -0.12)">
     <defs>
      <path id="DejaVuSans-4e" d="M 628 4666 
L 1478 4666 
L 3547 763 
L 3547 4666 
L 4159 4666 
L 4159 0 
L 3309 0 
L 1241 3903 
L 1241 0 
L 628 0 
L 628 4666 
z
" transform="scale(0.015625)"/>
      <path id="DejaVuSans-77" d="M 269 3500 
L 844 3500 
L 1563 769 
L 2278 3500 
L 2956 3500 
L 3675 769 
L 4391 3500 
L 4966 3500 
L 4050 0 
L 3372 0 
L 2619 2869 
L 1863 0 
L 1184 0 
L 269 3500 
z
" transform="scale(0.015625)"/>
      <path id="DejaVuSans-55" d="M 556 4666 
L 1191 4666 
L 1191 1831 
Q 1191 1081 1462 751 
Q 1734 422 2344 422 
Q 2950 422 3222 751 
Q 3494 1081 3494 1831 
L 3494 4666 
L 4128 4666 
L 4128 1753 
Q 4128 841 3676 375 
Q 3225 -91 2344 -91 
Q 1459 -91 1007 375 
Q 556 841 556 1753 
L 556 4666 
z
" transform="scale(0.015625)"/>
      <path id="DejaVuSans-67" d="M 2906 1791 
Q 2906 2416 2648 2759 
Q 2391 3103 1925 3103 
Q 1463 3103 1205 2759 
Q 947 2416 947 1791 
Q 947 1169 1205 825 
Q 1463 481 1925 481 
Q 2391 481 2648 825 
Q 2906 1169 2906 1791 
z
M 3481 434 
Q 3481 -459 3084 -895 
Q 2688 -1331 1869 -1331 
Q 1566 -1331 1297 -1286 
Q 1028 -1241 775 -1147 
L 775 -588 
Q 1028 -725 1275 -790 
Q 1522 -856 1778 -856 
Q 2344 -856 2625 -561 
Q 2906 -266 2906 331 
L 2906 616 
Q 2728 306 2450 153 
Q 2172 0 1784 0 
Q 1141 0 747 490 
Q 353 981 353 1791 
Q 353 2603 747 3093 
Q 1141 3584 1784 3584 
Q 2172 3584 2450 3431 
Q 2728 3278 2906 2969 
L 2906 3500 
L 3481 3500 
L 3481 434 
z
" transform="scale(0.015625)"/>
      <path id="DejaVuSans-2d" d="M 313 2009 
L 1997 2009 
L 1997 1497 
L 313 1497 
L 313 2009 
z
" transform="scale(0.015625)"/>
      <path id="DejaVuSans-68" d="M 3513 2113 
L 3513 0 
L 2938 0 
L 2938 2094 
Q 2938 2591 2744 2837 
Q 2550 3084 2163 3084 
Q 1697 3084 1428 2787 
Q 1159 2491 1159 1978 
L 1159 0 
L 581 0 
L 581 4863 
L 1159 4863 
L 1159 2956 
Q 1366 3272 1645 3428 
Q 1925 3584 2291 3584 
Q 2894 3584 3203 3211 
Q 3513 2838 3513 2113 
z
" transform="scale(0.015625)"/>
      <path id="DejaVuSans-64" d="M 2906 2969 
L 2906 4863 
L 3481 4863 
L 3481 0 
L 2906 0 
L 2906 525 
Q 2725 213 2448 61 
Q 2172 -91 1784 -91 
Q 1150 -91 751 415 
Q 353 922 353 1747 
Q 353 2572 751 3078 
Q 1150 3584 1784 3584 
Q 2172 3584 2448 3432 
Q 2725 3281 2906 2969 
z
M 947 1747 
Q 947 1113 1208 752 
Q 1469 391 1925 391 
Q 2381 391 2643 752 
Q 2906 1113 2906 1747 
Q 2906 2381 2643 2742 
Q 2381 3103 1925 3103 
Q 1469 3103 1208 2742 
Q 947 2381 947 1747 
z
" transform="scale(0.015625)"/>
     </defs>
     <use xlink:href="#DejaVuSans-4e"/>
     <use xlink:href="#DejaVuSans-65" x="74.804688"/>
     <use xlink:href="#DejaVuSans-74" x="136.328125"/>
     <use xlink:href="#DejaVuSans-77" x="175.537109"/>
     <use xlink:href="#DejaVuSans-6f" x="257.324219"/>
     <use xlink:href="#DejaVuSans-72" x="318.505859"/>
     <use xlink:href="#DejaVuSans-6b" x="359.619141"/>
     <use xlink:href="#DejaVuSans-20" x="417.529297"/>
     <use xlink:href="#DejaVuSans-55" x="449.316406"/>
     <use xlink:href="#DejaVuSans-73" x="522.509766"/>
     <use xlink:href="#DejaVuSans-61" x="574.609375"/>
     <use xlink:href="#DejaVuSans-67" x="635.888672"/>
     <use xlink:href="#DejaVuSans-65" x="699.365234"/>
     <use xlink:href="#DejaVuSans-20" x="760.888672"/>
     <use xlink:href="#DejaVuSans-2d" x="792.675781"/>
     <use xlink:href="#DejaVuSans-20" x="828.759766"/>
     <use xlink:href="#DejaVuSans-42" x="860.546875"/>
     <use xlink:href="#DejaVuSans-75" x="929.150391"/>
     <use xlink:href="#DejaVuSans-66" x="992.529297"/>
     <use xlink:href="#DejaVuSans-66" x="1027.734375"/>
     <use xlink:href="#DejaVuSans-65" x="1062.939453"/>
     <use xlink:href="#DejaVuSans-72" x="1124.462891"/>
     <use xlink:href="#DejaVuSans-20" x="1165.576172"/>
     <use xlink:href="#DejaVuSans-53" x="1197.363281"/>
     <use xlink:href="#DejaVuSans-69" x="1260.839844"/>
     <use xlink:href="#DejaVuSans-7a" x="1288.623047"/>
     <use xlink:href="#DejaVuSans-65" x="1341.113281"/>
     <use xlink:href="#DejaVuSans-20" x="1402.636719"/>
     <use xlink:href="#DejaVuSans-66" x="1434.423828"/>
     <use xlink:href="#DejaVuSans-6f" x="1469.628906"/>
     <use xlink:href="#DejaVuSans-72" x="1530.810547"/>
     <use xlink:href="#DejaVuSans-20" x="1571.923828"/>
     <use xlink:href="#DejaVuSans-65" x="1603.710938"/>
     <use xlink:href="#DejaVuSans-61" x="1665.234375"/>
     <use xlink:href="#DejaVuSans-63" x="1726.513672"/>
     <use xlink:href="#DejaVuSans-68" x="1781.494141"/>
     <use xlink:href="#DejaVuSans-20" x="1844.873047"/>
     <use xlink:href="#DejaVuSans-6e" x="1876.660156"/>
     <use xlink:href="#DejaVuSans-6f" x="1940.039062"/>
     <use xlink:href="#DejaVuSans-64" x="2001.220703"/>
     <use xlink:href="#DejaVuSans-65" x="2064.697266"/>
    </g>
   </g>
   <g id="legend_1">
    <g id="patch_7">
     <path d="M 72.851016 125.22875 
L 221.155703 125.22875 
Q 223.155703 125.22875 223.155703 123.22875 
L 223.155703 36.16 
Q 223.155703 34.16 221.155703 34.16 
L 72.851016 34.16 
Q 70.851016 34.16 70.851016 36.16 
L 70.851016 123.22875 
Q 70.851016 125.22875 72.851016 125.22875 
z
" style="fill: #464649; opacity: 0.5; stroke: #464649; stroke-linejoin: miter"/>
    </g>
    <g id="patch_8">
     <path d="M 70.851016 123.22875 
L 219.155703 123.22875 
Q 221.155703 123.22875 221.155703 121.22875 
L 221.155703 34.16 
Q 221.155703 32.16 219.155703 32.16 
L 70.851016 32.16 
Q 68.851016 32.16 68.851016 34.16 
L 68.851016 121.22875 
Q 68.851016 123.22875 70.851016 123.22875 
z
" style="fill: #eaeaf2; opacity: 0.8; stroke: #cccccc; stroke-linejoin: miter"/>
    </g>
    <g id="line2d_22">
     <path d="M 72.851016 40.258437 
L 82.851016 40.258437 
L 92.851016 40.258437 
" style="fill: none; stroke: #1f77b4; stroke-width: 1.5; stroke-linecap: round"/>
    </g>
    <g id="text_19">
     <!-- Network.node[0].lnk[0] -->
     <g style="fill: #262626" transform="translate(100.851016 43.758437) scale(0.1 -0.1)">
      <defs>
       <path id="DejaVuSans-2e" d="M 684 794 
L 1344 794 
L 1344 0 
L 684 0 
L 684 794 
z
" transform="scale(0.015625)"/>
       <path id="DejaVuSans-5b" d="M 550 4863 
L 1875 4863 
L 1875 4416 
L 1125 4416 
L 1125 -397 
L 1875 -397 
L 1875 -844 
L 550 -844 
L 550 4863 
z
" transform="scale(0.015625)"/>
       <path id="DejaVuSans-5d" d="M 1947 4863 
L 1947 -844 
L 622 -844 
L 622 -397 
L 1369 -397 
L 1369 4416 
L 622 4416 
L 622 4863 
L 1947 4863 
z
" transform="scale(0.015625)"/>
      </defs>
      <use xlink:href="#DejaVuSans-4e"/>
      <use xlink:href="#DejaVuSans-65" x="74.804688"/>
      <use xlink:href="#DejaVuSans-74" x="136.328125"/>
      <use xlink:href="#DejaVuSans-77" x="175.537109"/>
      <use xlink:href="#DejaVuSans-6f" x="257.324219"/>
      <use xlink:href="#DejaVuSans-72" x="318.505859"/>
      <use xlink:href="#DejaVuSans-6b" x="359.619141"/>
      <use xlink:href="#DejaVuSans-2e" x="417.529297"/>
      <use xlink:href="#DejaVuSans-6e" x="449.316406"/>
      <use xlink:href="#DejaVuSans-6f" x="512.695312"/>
      <use xlink:href="#DejaVuSans-64" x="573.876953"/>
      <use xlink:href="#DejaVuSans-65" x="637.353516"/>
      <use xlink:href="#DejaVuSans-5b" x="698.876953"/>
      <use xlink:href="#DejaVuSans-30" x="737.890625"/>
      <use xlink:href="#DejaVuSans-5d" x="801.513672"/>
      <use xlink:href="#DejaVuSans-2e" x="840.527344"/>
      <use xlink:href="#DejaVuSans-6c" x="872.314453"/>
      <use xlink:href="#DejaVuSans-6e" x="900.097656"/>
      <use xlink:href="#DejaVuSans-6b" x="963.476562"/>
      <use xlink:href="#DejaVuSans-5b" x="1021.386719"/>
      <use xlink:href="#DejaVuSans-30" x="1060.400391"/>
      <use xlink:href="#DejaVuSans-5d" x="1124.023438"/>
     </g>
    </g>
    <g id="line2d_23">
     <path d="M 72.851016 54.936562 
L 82.851016 54.936562 
L 92.851016 54.936562 
" style="fill: none; stroke: #ff7f0e; stroke-width: 1.5; stroke-linecap: round"/>
    </g>
    <g id="text_20">
     <!-- Network.node[2].lnk[1] -->
     <g style="fill: #262626" transform="translate(100.851016 58.436562) scale(0.1 -0.1)">
      <use xlink:href="#DejaVuSans-4e"/>
      <use xlink:href="#DejaVuSans-65" x="74.804688"/>
      <use xlink:href="#DejaVuSans-74" x="136.328125"/>
      <use xlink:href="#DejaVuSans-77" x="175.537109"/>
      <use xlink:href="#DejaVuSans-6f" x="257.324219"/>
      <use xlink:href="#DejaVuSans-72" x="318.505859"/>
      <use xlink:href="#DejaVuSans-6b" x="359.619141"/>
      <use xlink:href="#DejaVuSans-2e" x="417.529297"/>
      <use xlink:href="#DejaVuSans-6e" x="449.316406"/>
      <use xlink:href="#DejaVuSans-6f" x="512.695312"/>
      <use xlink:href="#DejaVuSans-64" x="573.876953"/>
      <use xlink:href="#DejaVuSans-65" x="637.353516"/>
      <use xlink:href="#DejaVuSans-5b" x="698.876953"/>
      <use xlink:href="#DejaVuSans-32" x="737.890625"/>
      <use xlink:href="#DejaVuSans-5d" x="801.513672"/>
      <use xlink:href="#DejaVuSans-2e" x="840.527344"/>
      <use xlink:href="#DejaVuSans-6c" x="872.314453"/>
      <use xlink:href="#DejaVuSans-6e" x="900.097656"/>
      <use xlink:href="#DejaVuSans-6b" x="963.476562"/>
      <use xlink:href="#DejaVuSans-5b" x="1021.386719"/>
      <use xlink:href="#DejaVuSans-31" x="1060.400391"/>
      <use xlink:href="#DejaVuSans-5d" x="1124.023438"/>
     </g>
    </g>
    <g id="line2d_24">
     <path d="M 72.851016 69.614687 
L 82.851016 69.614687 
L 92.851016 69.614687 
" style="fill: none; stroke: #2ca02c; stroke-width: 1.5; stroke-linecap: round"/>
    </g>
    <g id="text_21">
     <!-- Network.node[3].lnk[1] -->
     <g style="fill: #262626" transform="translate(100.851016 73.114687) scale(0.1 -0.1)">
      <defs>
       <path id="DejaVuSans-33" d="M 2597 2516 
Q 3050 2419 3304 2112 
Q 3559 1806 3559 1356 
Q 3559 666 3084 287 
Q 2609 -91 1734 -91 
Q 1441 -91 1130 -33 
Q 819 25 488 141 
L 488 750 
Q 750 597 1062 519 
Q 1375 441 1716 441 
Q 2309 441 2620 675 
Q 2931 909 2931 1356 
Q 2931 1769 2642 2001 
Q 2353 2234 1838 2234 
L 1294 2234 
L 1294 2753 
L 1863 2753 
Q 2328 2753 2575 2939 
Q 2822 3125 2822 3475 
Q 2822 3834 2567 4026 
Q 2313 4219 1838 4219 
Q 1578 4219 1281 4162 
Q 984 4106 628 3988 
L 628 4550 
Q 988 4650 1302 4700 
Q 1616 4750 1894 4750 
Q 2613 4750 3031 4423 
Q 3450 4097 3450 3541 
Q 3450 3153 3228 2886 
Q 3006 2619 2597 2516 
z
" transform="scale(0.015625)"/>
      </defs>
      <use xlink:href="#DejaVuSans-4e"/>
      <use xlink:href="#DejaVuSans-65" x="74.804688"/>
      <use xlink:href="#DejaVuSans-74" x="136.328125"/>
      <use xlink:href="#DejaVuSans-77" x="175.537109"/>
      <use xlink:href="#DejaVuSans-6f" x="257.324219"/>
      <use xlink:href="#DejaVuSans-72" x="318.505859"/>
      <use xlink:href="#DejaVuSans-6b" x="359.619141"/>
      <use xlink:href="#DejaVuSans-2e" x="417.529297"/>
      <use xlink:href="#DejaVuSans-6e" x="449.316406"/>
      <use xlink:href="#DejaVuSans-6f" x="512.695312"/>
      <use xlink:href="#DejaVuSans-64" x="573.876953"/>
      <use xlink:href="#DejaVuSans-65" x="637.353516"/>
      <use xlink:href="#DejaVuSans-5b" x="698.876953"/>
      <use xlink:href="#DejaVuSans-33" x="737.890625"/>
      <use xlink:href="#DejaVuSans-5d" x="801.513672"/>
      <use xlink:href="#DejaVuSans-2e" x="840.527344"/>
      <use xlink:href="#DejaVuSans-6c" x="872.314453"/>
      <use xlink:href="#DejaVuSans-6e" x="900.097656"/>
      <use xlink:href="#DejaVuSans-6b" x="963.476562"/>
      <use xlink:href="#DejaVuSans-5b" x="1021.386719"/>
      <use xlink:href="#DejaVuSans-31" x="1060.400391"/>
      <use xlink:href="#DejaVuSans-5d" x="1124.023438"/>
     </g>
    </g>
    <g id="line2d_25">
     <path d="M 72.851016 84.292812 
L 82.851016 84.292812 
L 92.851016 84.292812 
" style="fill: none; stroke: #d62728; stroke-width: 1.5; stroke-linecap: round"/>
    </g>
    <g id="text_22">
     <!-- Network.node[4].lnk[1] -->
     <g style="fill: #262626" transform="translate(100.851016 87.792812) scale(0.1 -0.1)">
      <use xlink:href="#DejaVuSans-4e"/>
      <use xlink:href="#DejaVuSans-65" x="74.804688"/>
      <use xlink:href="#DejaVuSans-74" x="136.328125"/>
      <use xlink:href="#DejaVuSans-77" x="175.537109"/>
      <use xlink:href="#DejaVuSans-6f" x="257.324219"/>
      <use xlink:href="#DejaVuSans-72" x="318.505859"/>
      <use xlink:href="#DejaVuSans-6b" x="359.619141"/>
      <use xlink:href="#DejaVuSans-2e" x="417.529297"/>
      <use xlink:href="#DejaVuSans-6e" x="449.316406"/>
      <use xlink:href="#DejaVuSans-6f" x="512.695312"/>
      <use xlink:href="#DejaVuSans-64" x="573.876953"/>
      <use xlink:href="#DejaVuSans-65" x="637.353516"/>
      <use xlink:href="#DejaVuSans-5b" x="698.876953"/>
      <use xlink:href="#DejaVuSans-34" x="737.890625"/>
      <use xlink:href="#DejaVuSans-5d" x="801.513672"/>
      <use xlink:href="#DejaVuSans-2e" x="840.527344"/>
      <use xlink:href="#DejaVuSans-6c" x="872.314453"/>
      <use xlink:href="#DejaVuSans-6e" x="900.097656"/>
      <use xlink:href="#DejaVuSans-6b" x="963.476562"/>
      <use xlink:href="#DejaVuSans-5b" x="1021.386719"/>
      <use xlink:href="#DejaVuSans-31" x="1060.400391"/>
      <use xlink:href="#DejaVuSans-5d" x="1124.023438"/>
     </g>
    </g>
    <g id="line2d_26">
     <path d="M 72.851016 98.970937 
L 82.851016 98.970937 
L 92.851016 98.970937 
" style="fill: none; stroke: #9467bd; stroke-width: 1.5; stroke-linecap: round"/>
    </g>
    <g id="text_23">
     <!-- Network.node[6].lnk[0] -->
     <g style="fill: #262626" transform="translate(100.851016 102.470937) scale(0.1 -0.1)">
      <use xlink:href="#DejaVuSans-4e"/>
      <use xlink:href="#DejaVuSans-65" x="74.804688"/>
      <use xlink:href="#DejaVuSans-74" x="136.328125"/>
      <use xlink:href="#DejaVuSans-77" x="175.537109"/>
      <use xlink:href="#DejaVuSans-6f" x="257.324219"/>
      <use xlink:href="#DejaVuSans-72" x="318.505859"/>
      <use xlink:href="#DejaVuSans-6b" x="359.619141"/>
      <use xlink:href="#DejaVuSans-2e" x="417.529297"/>
      <use xlink:href="#DejaVuSans-6e" x="449.316406"/>
      <use xlink:href="#DejaVuSans-6f" x="512.695312"/>
      <use xlink:href="#DejaVuSans-64" x="573.876953"/>
      <use xlink:href="#DejaVuSans-65" x="637.353516"/>
      <use xlink:href="#DejaVuSans-5b" x="698.876953"/>
      <use xlink:href="#DejaVuSans-36" x="737.890625"/>
      <use xlink:href="#DejaVuSans-5d" x="801.513672"/>
      <use xlink:href="#DejaVuSans-2e" x="840.527344"/>
      <use xlink:href="#DejaVuSans-6c" x="872.314453"/>
      <use xlink:href="#DejaVuSans-6e" x="900.097656"/>
      <use xlink:href="#DejaVuSans-6b" x="963.476562"/>
      <use xlink:href="#DejaVuSans-5b" x="1021.386719"/>
      <use xlink:href="#DejaVuSans-30" x="1060.400391"/>
      <use xlink:href="#DejaVuSans-5d" x="1124.023438"/>
     </g>
    </g>
    <g id="line2d_27">
     <path d="M 72.851016 113.649062 
L 82.851016 113.649062 
L 92.851016 113.649062 
" style="fill: none; stroke: #8c564b; stroke-width: 1.5; stroke-linecap: round"/>
    </g>
    <g id="text_24">
     <!-- Network.node[7].lnk[0] -->
     <g style="fill: #262626" transform="translate(100.851016 117.149062) scale(0.1 -0.1)">
      <use xlink:href="#DejaVuSans-4e"/>
      <use xlink:href="#DejaVuSans-65" x="74.804688"/>
      <use xlink:href="#DejaVuSans-74" x="136.328125"/>
      <use xlink:href="#DejaVuSans-77" x="175.537109"/>
      <use xlink:href="#DejaVuSans-6f" x="257.324219"/>
      <use xlink:href="#DejaVuSans-72" x="318.505859"/>
      <use xlink:href="#DejaVuSans-6b" x="359.619141"/>
      <use xlink:href="#DejaVuSans-2e" x="417.529297"/>
      <use xlink:href="#DejaVuSans-6e" x="449.316406"/>
      <use xlink:href="#DejaVuSans-6f" x="512.695312"/>
      <use xlink:href="#DejaVuSans-64" x="573.876953"/>
      <use xlink:href="#DejaVuSans-65" x="637.353516"/>
      <use xlink:href="#DejaVuSans-5b" x="698.876953"/>
      <use xlink:href="#DejaVuSans-37" x="737.890625"/>
      <use xlink:href="#DejaVuSans-5d" x="801.513672"/>
      <use xlink:href="#DejaVuSans-2e" x="840.527344"/>
      <use xlink:href="#DejaVuSans-6c" x="872.314453"/>
      <use xlink:href="#DejaVuSans-6e" x="900.097656"/>
      <use xlink:href="#DejaVuSans-6b" x="963.476562"/>
      <use xlink:href="#DejaVuSans-5b" x="1021.386719"/>
      <use xlink:href="#DejaVuSans-30" x="1060.400391"/>
      <use xlink:href="#DejaVuSans-5d" x="1124.023438"/>
     </g>
    </g>
   </g>
  </g>
 </g>
 <defs>
  <clipPath id="p1c105a2b08">
   <rect x="63.851016" y="27.16" width="635.758359" height="283.179375"/>
  </clipPath>
 </defs>
</svg>
