<?xml version="1.0" encoding="utf-8" standalone="no"?>
<!DOCTYPE svg PUBLIC "-//W3C//DTD SVG 1.1//EN"
  "http://www.w3.org/Graphics/SVG/1.1/DTD/svg11.dtd">
<svg xmlns:xlink="http://www.w3.org/1999/xlink" width="716.4pt" height="349.2pt" viewBox="0 0 716.4 349.2" xmlns="http://www.w3.org/2000/svg" version="1.1">
 <metadata>
  <rdf:RDF xmlns:dc="http://purl.org/dc/elements/1.1/" xmlns:cc="http://creativecommons.org/ns#" xmlns:rdf="http://www.w3.org/1999/02/22-rdf-syntax-ns#">
   <cc:Work>
    <dc:type rdf:resource="http://purl.org/dc/dcmitype/StillImage"/>
    <dc:date>2023-06-07T22:28:12.454378</dc:date>
    <dc:format>image/svg+xml</dc:format>
    <dc:creator>
     <cc:Agent>
      <dc:title>Matplotlib v3.7.1, https://matplotlib.org/</dc:title>
     </cc:Agent>
    </dc:creator>
   </cc:Work>
  </rdf:RDF>
 </metadata>
 <defs>
  <style type="text/css">*{stroke-linejoin: round; stroke-linecap: butt}</style>
 </defs>
 <g id="figure_1">
  <g id="patch_1">
   <path d="M 0 349.2 
L 716.4 349.2 
L 716.4 0 
L 0 0 
z
" style="fill: #ffffff"/>
  </g>
  <g id="axes_1">
   <g id="patch_2">
    <path d="M 63.851016 310.339375 
L 699.609375 310.339375 
L 699.609375 27.16 
L 63.851016 27.16 
z
" style="fill: #eaeaf2"/>
   </g>
   <g id="matplotlib.axis_1">
    <g id="xtick_1">
     <g id="line2d_1"/>
     <g id="text_1">
      <!-- 0 -->
      <g style="fill: #262626" transform="translate(78.056312 321.437813) scale(0.1 -0.1)">
       <defs>
        <path id="DejaVuSans-30" d="M 2034 4250 
Q 1547 4250 1301 3770 
Q 1056 3291 1056 2328 
Q 1056 1369 1301 889 
Q 1547 409 2034 409 
Q 2525 409 2770 889 
Q 3016 1369 3016 2328 
Q 3016 3291 2770 3770 
Q 2525 4250 2034 4250 
z
M 2034 4750 
Q 2819 4750 3233 4129 
Q 3647 3509 3647 2328 
Q 3647 1150 3233 529 
Q 2819 -91 2034 -91 
Q 1250 -91 836 529 
Q 422 1150 422 2328 
Q 422 3509 836 4129 
Q 1250 4750 2034 4750 
z
" transform="scale(0.015625)"/>
       </defs>
       <use xlink:href="#DejaVuSans-30"/>
      </g>
     </g>
    </g>
    <g id="xtick_2">
     <g id="line2d_2"/>
     <g id="text_2">
      <!-- 25 -->
      <g style="fill: #262626" transform="translate(148.688688 321.437813) scale(0.1 -0.1)">
       <defs>
        <path id="DejaVuSans-32" d="M 1228 531 
L 3431 531 
L 3431 0 
L 469 0 
L 469 531 
Q 828 903 1448 1529 
Q 2069 2156 2228 2338 
Q 2531 2678 2651 2914 
Q 2772 3150 2772 3378 
Q 2772 3750 2511 3984 
Q 2250 4219 1831 4219 
Q 1534 4219 1204 4116 
Q 875 4013 500 3803 
L 500 4441 
Q 881 4594 1212 4672 
Q 1544 4750 1819 4750 
Q 2544 4750 2975 4387 
Q 3406 4025 3406 3419 
Q 3406 3131 3298 2873 
Q 3191 2616 2906 2266 
Q 2828 2175 2409 1742 
Q 1991 1309 1228 531 
z
" transform="scale(0.015625)"/>
        <path id="DejaVuSans-35" d="M 691 4666 
L 3169 4666 
L 3169 4134 
L 1269 4134 
L 1269 2991 
Q 1406 3038 1543 3061 
Q 1681 3084 1819 3084 
Q 2600 3084 3056 2656 
Q 3513 2228 3513 1497 
Q 3513 744 3044 326 
Q 2575 -91 1722 -91 
Q 1428 -91 1123 -41 
Q 819 9 494 109 
L 494 744 
Q 775 591 1075 516 
Q 1375 441 1709 441 
Q 2250 441 2565 725 
Q 2881 1009 2881 1497 
Q 2881 1984 2565 2268 
Q 2250 2553 1709 2553 
Q 1456 2553 1204 2497 
Q 953 2441 691 2322 
L 691 4666 
z
" transform="scale(0.015625)"/>
       </defs>
       <use xlink:href="#DejaVuSans-32"/>
       <use xlink:href="#DejaVuSans-35" x="63.623047"/>
      </g>
     </g>
    </g>
    <g id="xtick_3">
     <g id="line2d_3"/>
     <g id="text_3">
      <!-- 50 -->
      <g style="fill: #262626" transform="translate(222.502314 321.437813) scale(0.1 -0.1)">
       <use xlink:href="#DejaVuSans-35"/>
       <use xlink:href="#DejaVuSans-30" x="63.623047"/>
      </g>
     </g>
    </g>
    <g id="xtick_4">
     <g id="line2d_4"/>
     <g id="text_4">
      <!-- 75 -->
      <g style="fill: #262626" transform="translate(296.31594 321.437813) scale(0.1 -0.1)">
       <defs>
        <path id="DejaVuSans-37" d="M 525 4666 
L 3525 4666 
L 3525 4397 
L 1831 0 
L 1172 0 
L 2766 4134 
L 525 4134 
L 525 4666 
z
" transform="scale(0.015625)"/>
       </defs>
       <use xlink:href="#DejaVuSans-37"/>
       <use xlink:href="#DejaVuSans-35" x="63.623047"/>
      </g>
     </g>
    </g>
    <g id="xtick_5">
     <g id="line2d_5"/>
     <g id="text_5">
      <!-- 100 -->
      <g style="fill: #262626" transform="translate(366.948316 321.437813) scale(0.1 -0.1)">
       <defs>
        <path id="DejaVuSans-31" d="M 794 531 
L 1825 531 
L 1825 4091 
L 703 3866 
L 703 4441 
L 1819 4666 
L 2450 4666 
L 2450 531 
L 3481 531 
L 3481 0 
L 794 0 
L 794 531 
z
" transform="scale(0.015625)"/>
       </defs>
       <use xlink:href="#DejaVuSans-31"/>
       <use xlink:href="#DejaVuSans-30" x="63.623047"/>
       <use xlink:href="#DejaVuSans-30" x="127.246094"/>
      </g>
     </g>
    </g>
    <g id="xtick_6">
     <g id="line2d_6"/>
     <g id="text_6">
      <!-- 125 -->
      <g style="fill: #262626" transform="translate(440.761942 321.437813) scale(0.1 -0.1)">
       <use xlink:href="#DejaVuSans-31"/>
       <use xlink:href="#DejaVuSans-32" x="63.623047"/>
       <use xlink:href="#DejaVuSans-35" x="127.246094"/>
      </g>
     </g>
    </g>
    <g id="xtick_7">
     <g id="line2d_7"/>
     <g id="text_7">
      <!-- 150 -->
      <g style="fill: #262626" transform="translate(514.575568 321.437813) scale(0.1 -0.1)">
       <use xlink:href="#DejaVuSans-31"/>
       <use xlink:href="#DejaVuSans-35" x="63.623047"/>
       <use xlink:href="#DejaVuSans-30" x="127.246094"/>
      </g>
     </g>
    </g>
    <g id="xtick_8">
     <g id="line2d_8"/>
     <g id="text_8">
      <!-- 175 -->
      <g style="fill: #262626" transform="translate(588.389194 321.437813) scale(0.1 -0.1)">
       <use xlink:href="#DejaVuSans-31"/>
       <use xlink:href="#DejaVuSans-37" x="63.623047"/>
       <use xlink:href="#DejaVuSans-35" x="127.246094"/>
      </g>
     </g>
    </g>
    <g id="xtick_9">
     <g id="line2d_9"/>
     <g id="text_9">
      <!-- 200 -->
      <g style="fill: #262626" transform="translate(662.20282 321.437813) scale(0.1 -0.1)">
       <use xlink:href="#DejaVuSans-32"/>
       <use xlink:href="#DejaVuSans-30" x="63.623047"/>
       <use xlink:href="#DejaVuSans-30" x="127.246094"/>
      </g>
     </g>
    </g>
    <g id="text_10">
     <!-- Simulation time (s) -->
     <g style="fill: #262626" transform="translate(334.116914 335.115938) scale(0.1 -0.1)">
      <defs>
       <path id="DejaVuSans-53" d="M 3425 4513 
L 3425 3897 
Q 3066 4069 2747 4153 
Q 2428 4238 2131 4238 
Q 1616 4238 1336 4038 
Q 1056 3838 1056 3469 
Q 1056 3159 1242 3001 
Q 1428 2844 1947 2747 
L 2328 2669 
Q 3034 2534 3370 2195 
Q 3706 1856 3706 1288 
Q 3706 609 3251 259 
Q 2797 -91 1919 -91 
Q 1588 -91 1214 -16 
Q 841 59 441 206 
L 441 856 
Q 825 641 1194 531 
Q 1563 422 1919 422 
Q 2459 422 2753 634 
Q 3047 847 3047 1241 
Q 3047 1584 2836 1778 
Q 2625 1972 2144 2069 
L 1759 2144 
Q 1053 2284 737 2584 
Q 422 2884 422 3419 
Q 422 4038 858 4394 
Q 1294 4750 2059 4750 
Q 2388 4750 2728 4690 
Q 3069 4631 3425 4513 
z
" transform="scale(0.015625)"/>
       <path id="DejaVuSans-69" d="M 603 3500 
L 1178 3500 
L 1178 0 
L 603 0 
L 603 3500 
z
M 603 4863 
L 1178 4863 
L 1178 4134 
L 603 4134 
L 603 4863 
z
" transform="scale(0.015625)"/>
       <path id="DejaVuSans-6d" d="M 3328 2828 
Q 3544 3216 3844 3400 
Q 4144 3584 4550 3584 
Q 5097 3584 5394 3201 
Q 5691 2819 5691 2113 
L 5691 0 
L 5113 0 
L 5113 2094 
Q 5113 2597 4934 2840 
Q 4756 3084 4391 3084 
Q 3944 3084 3684 2787 
Q 3425 2491 3425 1978 
L 3425 0 
L 2847 0 
L 2847 2094 
Q 2847 2600 2669 2842 
Q 2491 3084 2119 3084 
Q 1678 3084 1418 2786 
Q 1159 2488 1159 1978 
L 1159 0 
L 581 0 
L 581 3500 
L 1159 3500 
L 1159 2956 
Q 1356 3278 1631 3431 
Q 1906 3584 2284 3584 
Q 2666 3584 2933 3390 
Q 3200 3197 3328 2828 
z
" transform="scale(0.015625)"/>
       <path id="DejaVuSans-75" d="M 544 1381 
L 544 3500 
L 1119 3500 
L 1119 1403 
Q 1119 906 1312 657 
Q 1506 409 1894 409 
Q 2359 409 2629 706 
Q 2900 1003 2900 1516 
L 2900 3500 
L 3475 3500 
L 3475 0 
L 2900 0 
L 2900 538 
Q 2691 219 2414 64 
Q 2138 -91 1772 -91 
Q 1169 -91 856 284 
Q 544 659 544 1381 
z
M 1991 3584 
L 1991 3584 
z
" transform="scale(0.015625)"/>
       <path id="DejaVuSans-6c" d="M 603 4863 
L 1178 4863 
L 1178 0 
L 603 0 
L 603 4863 
z
" transform="scale(0.015625)"/>
       <path id="DejaVuSans-61" d="M 2194 1759 
Q 1497 1759 1228 1600 
Q 959 1441 959 1056 
Q 959 750 1161 570 
Q 1363 391 1709 391 
Q 2188 391 2477 730 
Q 2766 1069 2766 1631 
L 2766 1759 
L 2194 1759 
z
M 3341 1997 
L 3341 0 
L 2766 0 
L 2766 531 
Q 2569 213 2275 61 
Q 1981 -91 1556 -91 
Q 1019 -91 701 211 
Q 384 513 384 1019 
Q 384 1609 779 1909 
Q 1175 2209 1959 2209 
L 2766 2209 
L 2766 2266 
Q 2766 2663 2505 2880 
Q 2244 3097 1772 3097 
Q 1472 3097 1187 3025 
Q 903 2953 641 2809 
L 641 3341 
Q 956 3463 1253 3523 
Q 1550 3584 1831 3584 
Q 2591 3584 2966 3190 
Q 3341 2797 3341 1997 
z
" transform="scale(0.015625)"/>
       <path id="DejaVuSans-74" d="M 1172 4494 
L 1172 3500 
L 2356 3500 
L 2356 3053 
L 1172 3053 
L 1172 1153 
Q 1172 725 1289 603 
Q 1406 481 1766 481 
L 2356 481 
L 2356 0 
L 1766 0 
Q 1100 0 847 248 
Q 594 497 594 1153 
L 594 3053 
L 172 3053 
L 172 3500 
L 594 3500 
L 594 4494 
L 1172 4494 
z
" transform="scale(0.015625)"/>
       <path id="DejaVuSans-6f" d="M 1959 3097 
Q 1497 3097 1228 2736 
Q 959 2375 959 1747 
Q 959 1119 1226 758 
Q 1494 397 1959 397 
Q 2419 397 2687 759 
Q 2956 1122 2956 1747 
Q 2956 2369 2687 2733 
Q 2419 3097 1959 3097 
z
M 1959 3584 
Q 2709 3584 3137 3096 
Q 3566 2609 3566 1747 
Q 3566 888 3137 398 
Q 2709 -91 1959 -91 
Q 1206 -91 779 398 
Q 353 888 353 1747 
Q 353 2609 779 3096 
Q 1206 3584 1959 3584 
z
" transform="scale(0.015625)"/>
       <path id="DejaVuSans-6e" d="M 3513 2113 
L 3513 0 
L 2938 0 
L 2938 2094 
Q 2938 2591 2744 2837 
Q 2550 3084 2163 3084 
Q 1697 3084 1428 2787 
Q 1159 2491 1159 1978 
L 1159 0 
L 581 0 
L 581 3500 
L 1159 3500 
L 1159 2956 
Q 1366 3272 1645 3428 
Q 1925 3584 2291 3584 
Q 2894 3584 3203 3211 
Q 3513 2838 3513 2113 
z
" transform="scale(0.015625)"/>
       <path id="DejaVuSans-20" transform="scale(0.015625)"/>
       <path id="DejaVuSans-65" d="M 3597 1894 
L 3597 1613 
L 953 1613 
Q 991 1019 1311 708 
Q 1631 397 2203 397 
Q 2534 397 2845 478 
Q 3156 559 3463 722 
L 3463 178 
Q 3153 47 2828 -22 
Q 2503 -91 2169 -91 
Q 1331 -91 842 396 
Q 353 884 353 1716 
Q 353 2575 817 3079 
Q 1281 3584 2069 3584 
Q 2775 3584 3186 3129 
Q 3597 2675 3597 1894 
z
M 3022 2063 
Q 3016 2534 2758 2815 
Q 2500 3097 2075 3097 
Q 1594 3097 1305 2825 
Q 1016 2553 972 2059 
L 3022 2063 
z
" transform="scale(0.015625)"/>
       <path id="DejaVuSans-28" d="M 1984 4856 
Q 1566 4138 1362 3434 
Q 1159 2731 1159 2009 
Q 1159 1288 1364 580 
Q 1569 -128 1984 -844 
L 1484 -844 
Q 1016 -109 783 600 
Q 550 1309 550 2009 
Q 550 2706 781 3412 
Q 1013 4119 1484 4856 
L 1984 4856 
z
" transform="scale(0.015625)"/>
       <path id="DejaVuSans-73" d="M 2834 3397 
L 2834 2853 
Q 2591 2978 2328 3040 
Q 2066 3103 1784 3103 
Q 1356 3103 1142 2972 
Q 928 2841 928 2578 
Q 928 2378 1081 2264 
Q 1234 2150 1697 2047 
L 1894 2003 
Q 2506 1872 2764 1633 
Q 3022 1394 3022 966 
Q 3022 478 2636 193 
Q 2250 -91 1575 -91 
Q 1294 -91 989 -36 
Q 684 19 347 128 
L 347 722 
Q 666 556 975 473 
Q 1284 391 1588 391 
Q 1994 391 2212 530 
Q 2431 669 2431 922 
Q 2431 1156 2273 1281 
Q 2116 1406 1581 1522 
L 1381 1569 
Q 847 1681 609 1914 
Q 372 2147 372 2553 
Q 372 3047 722 3315 
Q 1072 3584 1716 3584 
Q 2034 3584 2315 3537 
Q 2597 3491 2834 3397 
z
" transform="scale(0.015625)"/>
       <path id="DejaVuSans-29" d="M 513 4856 
L 1013 4856 
Q 1481 4119 1714 3412 
Q 1947 2706 1947 2009 
Q 1947 1309 1714 600 
Q 1481 -109 1013 -844 
L 513 -844 
Q 928 -128 1133 580 
Q 1338 1288 1338 2009 
Q 1338 2731 1133 3434 
Q 928 4138 513 4856 
z
" transform="scale(0.015625)"/>
      </defs>
      <use xlink:href="#DejaVuSans-53"/>
      <use xlink:href="#DejaVuSans-69" x="63.476562"/>
      <use xlink:href="#DejaVuSans-6d" x="91.259766"/>
      <use xlink:href="#DejaVuSans-75" x="188.671875"/>
      <use xlink:href="#DejaVuSans-6c" x="252.050781"/>
      <use xlink:href="#DejaVuSans-61" x="279.833984"/>
      <use xlink:href="#DejaVuSans-74" x="341.113281"/>
      <use xlink:href="#DejaVuSans-69" x="380.322266"/>
      <use xlink:href="#DejaVuSans-6f" x="408.105469"/>
      <use xlink:href="#DejaVuSans-6e" x="469.287109"/>
      <use xlink:href="#DejaVuSans-20" x="532.666016"/>
      <use xlink:href="#DejaVuSans-74" x="564.453125"/>
      <use xlink:href="#DejaVuSans-69" x="603.662109"/>
      <use xlink:href="#DejaVuSans-6d" x="631.445312"/>
      <use xlink:href="#DejaVuSans-65" x="728.857422"/>
      <use xlink:href="#DejaVuSans-20" x="790.380859"/>
      <use xlink:href="#DejaVuSans-28" x="822.167969"/>
      <use xlink:href="#DejaVuSans-73" x="861.181641"/>
      <use xlink:href="#DejaVuSans-29" x="913.28125"/>
     </g>
    </g>
   </g>
   <g id="matplotlib.axis_2">
    <g id="ytick_1">
     <g id="line2d_10"/>
     <g id="text_11">
      <!-- 4 -->
      <g style="fill: #262626" transform="translate(53.988516 273.91287) scale(0.1 -0.1)">
       <defs>
        <path id="DejaVuSans-34" d="M 2419 4116 
L 825 1625 
L 2419 1625 
L 2419 4116 
z
M 2253 4666 
L 3047 4666 
L 3047 1625 
L 3713 1625 
L 3713 1100 
L 3047 1100 
L 3047 0 
L 2419 0 
L 2419 1100 
L 313 1100 
L 313 1709 
L 2253 4666 
z
" transform="scale(0.015625)"/>
       </defs>
       <use xlink:href="#DejaVuSans-34"/>
      </g>
     </g>
    </g>
    <g id="ytick_2">
     <g id="line2d_11"/>
     <g id="text_12">
      <!-- 6 -->
      <g style="fill: #262626" transform="translate(53.988516 219.188584) scale(0.1 -0.1)">
       <defs>
        <path id="DejaVuSans-36" d="M 2113 2584 
Q 1688 2584 1439 2293 
Q 1191 2003 1191 1497 
Q 1191 994 1439 701 
Q 1688 409 2113 409 
Q 2538 409 2786 701 
Q 3034 994 3034 1497 
Q 3034 2003 2786 2293 
Q 2538 2584 2113 2584 
z
M 3366 4563 
L 3366 3988 
Q 3128 4100 2886 4159 
Q 2644 4219 2406 4219 
Q 1781 4219 1451 3797 
Q 1122 3375 1075 2522 
Q 1259 2794 1537 2939 
Q 1816 3084 2150 3084 
Q 2853 3084 3261 2657 
Q 3669 2231 3669 1497 
Q 3669 778 3244 343 
Q 2819 -91 2113 -91 
Q 1303 -91 875 529 
Q 447 1150 447 2328 
Q 447 3434 972 4092 
Q 1497 4750 2381 4750 
Q 2619 4750 2861 4703 
Q 3103 4656 3366 4563 
z
" transform="scale(0.015625)"/>
       </defs>
       <use xlink:href="#DejaVuSans-36"/>
      </g>
     </g>
    </g>
    <g id="ytick_3">
     <g id="line2d_12"/>
     <g id="text_13">
      <!-- 8 -->
      <g style="fill: #262626" transform="translate(53.988516 164.464298) scale(0.1 -0.1)">
       <defs>
        <path id="DejaVuSans-38" d="M 2034 2216 
Q 1584 2216 1326 1975 
Q 1069 1734 1069 1313 
Q 1069 891 1326 650 
Q 1584 409 2034 409 
Q 2484 409 2743 651 
Q 3003 894 3003 1313 
Q 3003 1734 2745 1975 
Q 2488 2216 2034 2216 
z
M 1403 2484 
Q 997 2584 770 2862 
Q 544 3141 544 3541 
Q 544 4100 942 4425 
Q 1341 4750 2034 4750 
Q 2731 4750 3128 4425 
Q 3525 4100 3525 3541 
Q 3525 3141 3298 2862 
Q 3072 2584 2669 2484 
Q 3125 2378 3379 2068 
Q 3634 1759 3634 1313 
Q 3634 634 3220 271 
Q 2806 -91 2034 -91 
Q 1263 -91 848 271 
Q 434 634 434 1313 
Q 434 1759 690 2068 
Q 947 2378 1403 2484 
z
M 1172 3481 
Q 1172 3119 1398 2916 
Q 1625 2713 2034 2713 
Q 2441 2713 2670 2916 
Q 2900 3119 2900 3481 
Q 2900 3844 2670 4047 
Q 2441 4250 2034 4250 
Q 1625 4250 1398 4047 
Q 1172 3844 1172 3481 
z
" transform="scale(0.015625)"/>
       </defs>
       <use xlink:href="#DejaVuSans-38"/>
      </g>
     </g>
    </g>
    <g id="ytick_4">
     <g id="line2d_13"/>
     <g id="text_14">
      <!-- 10 -->
      <g style="fill: #262626" transform="translate(47.626016 109.740012) scale(0.1 -0.1)">
       <use xlink:href="#DejaVuSans-31"/>
       <use xlink:href="#DejaVuSans-30" x="63.623047"/>
      </g>
     </g>
    </g>
    <g id="ytick_5">
     <g id="line2d_14"/>
     <g id="text_15">
      <!-- 12 -->
      <g style="fill: #262626" transform="translate(47.626016 55.015726) scale(0.1 -0.1)">
       <use xlink:href="#DejaVuSans-31"/>
       <use xlink:href="#DejaVuSans-32" x="63.623047"/>
      </g>
     </g>
    </g>
    <g id="text_16">
     <!-- Delay time (s)  -->
     <g style="fill: #262626" transform="translate(41.546328 205.658281) rotate(-90) scale(0.1 -0.1)">
      <defs>
       <path id="DejaVuSans-44" d="M 1259 4147 
L 1259 519 
L 2022 519 
Q 2988 519 3436 956 
Q 3884 1394 3884 2338 
Q 3884 3275 3436 3711 
Q 2988 4147 2022 4147 
L 1259 4147 
z
M 628 4666 
L 1925 4666 
Q 3281 4666 3915 4102 
Q 4550 3538 4550 2338 
Q 4550 1131 3912 565 
Q 3275 0 1925 0 
L 628 0 
L 628 4666 
z
" transform="scale(0.015625)"/>
       <path id="DejaVuSans-79" d="M 2059 -325 
Q 1816 -950 1584 -1140 
Q 1353 -1331 966 -1331 
L 506 -1331 
L 506 -850 
L 844 -850 
Q 1081 -850 1212 -737 
Q 1344 -625 1503 -206 
L 1606 56 
L 191 3500 
L 800 3500 
L 1894 763 
L 2988 3500 
L 3597 3500 
L 2059 -325 
z
" transform="scale(0.015625)"/>
      </defs>
      <use xlink:href="#DejaVuSans-44"/>
      <use xlink:href="#DejaVuSans-65" x="77.001953"/>
      <use xlink:href="#DejaVuSans-6c" x="138.525391"/>
      <use xlink:href="#DejaVuSans-61" x="166.308594"/>
      <use xlink:href="#DejaVuSans-79" x="227.587891"/>
      <use xlink:href="#DejaVuSans-20" x="286.767578"/>
      <use xlink:href="#DejaVuSans-74" x="318.554688"/>
      <use xlink:href="#DejaVuSans-69" x="357.763672"/>
      <use xlink:href="#DejaVuSans-6d" x="385.546875"/>
      <use xlink:href="#DejaVuSans-65" x="482.958984"/>
      <use xlink:href="#DejaVuSans-20" x="544.482422"/>
      <use xlink:href="#DejaVuSans-28" x="576.269531"/>
      <use xlink:href="#DejaVuSans-73" x="615.283203"/>
      <use xlink:href="#DejaVuSans-29" x="667.382812"/>
      <use xlink:href="#DejaVuSans-20" x="706.396484"/>
     </g>
    </g>
   </g>
   <g id="line2d_15">
    <path d="M 92.749123 297.467585 
L 95.586648 297.467585 
L 95.701668 295.366806 
L 98.539193 291.644952 
L 101.237006 297.467585 
L 103.458621 297.467585 
L 104.189551 285.18331 
L 106.523833 297.467585 
L 107.142096 284.554156 
L 109.476378 285.852881 
L 110.094641 270.46616 
L 113.047186 252.767207 
L 114.788135 297.467585 
L 115.999731 227.002594 
L 117.74068 278.816349 
L 118.952276 290.343555 
L 120.693225 264.686595 
L 122.815786 297.467585 
L 123.64577 255.094696 
L 125.768331 290.700219 
L 126.598315 273.487835 
L 128.720876 286.306758 
L 129.550861 264.017321 
L 132.503406 250.305385 
L 132.855845 297.467585 
L 135.455951 294.037042 
L 135.80839 272.121632 
L 138.408496 267.233787 
L 138.760935 256.021145 
L 141.361041 252.437657 
L 141.71348 231.153363 
L 144.313586 273.985007 
L 144.666025 232.374056 
L 147.266131 287.824348 
L 147.61857 291.207313 
L 150.218676 264.600205 
L 152.968874 297.467585 
L 153.171221 293.065433 
L 155.921419 287.66398 
L 159.603092 297.467585 
L 164.368505 297.467585 
L 167.001937 287.040679 
L 167.32105 290.215644 
L 170.273596 293.935225 
L 170.35445 297.467585 
L 173.226141 270.017275 
L 173.370274 297.467585 
L 176.178686 277.548095 
L 176.322819 293.97402 
L 179.131231 254.419688 
L 182.083776 248.149233 
L 184.491748 297.467585 
L 185.036321 259.678673 
L 187.444293 287.663584 
L 187.988866 252.505066 
L 190.78052 297.467585 
L 190.941411 228.20601 
L 193.733065 276.783132 
L 193.893956 215.498093 
L 196.68561 272.414347 
L 196.846501 196.543799 
L 199.638155 249.488606 
L 199.799046 174.82382 
L 202.5907 248.038322 
L 202.751591 183.998078 
L 205.543245 246.931468 
L 205.704136 173.301735 
L 208.49579 283.293385 
L 208.656681 149.91471 
L 211.448335 287.264698 
L 211.609226 123.071588 
L 214.40088 285.882762 
L 214.561771 106.429134 
L 217.353425 291.248691 
L 217.514316 105.372434 
L 220.30597 266.747568 
L 220.466861 84.890281 
L 223.258515 241.085032 
L 223.419406 70.896106 
L 226.371951 122.279885 
L 227.509027 297.467585 
L 229.324496 111.273356 
L 230.461572 275.233821 
L 232.277041 96.101554 
L 233.414117 254.3348 
L 235.229586 84.459848 
L 236.366662 239.105141 
L 238.182131 120.751656 
L 239.319207 222.11221 
L 241.134677 123.458113 
L 242.271752 220.362717 
L 244.087222 125.067941 
L 245.224297 203.756976 
L 247.039767 128.094124 
L 248.176842 177.466968 
L 249.992312 104.508742 
L 251.129387 165.901656 
L 252.944857 115.153783 
L 254.081932 166.062299 
L 255.897402 100.162122 
L 257.034477 226.066018 
L 258.849947 95.905333 
L 259.987022 201.649003 
L 261.802492 190.427769 
L 262.939567 203.231257 
L 264.755037 169.476618 
L 265.892112 180.682486 
L 267.707582 169.696042 
L 269.116213 297.467585 
L 270.660127 171.303368 
L 272.068758 274.84258 
L 273.612672 167.798711 
L 275.021303 250.680588 
L 276.565217 148.428518 
L 277.973848 254.050737 
L 279.517762 135.706891 
L 280.926393 237.128779 
L 282.470307 125.526575 
L 283.878938 215.755679 
L 285.422852 115.77966 
L 286.831483 270.129453 
L 288.375397 96.086497 
L 289.784028 243.141202 
L 291.327942 95.453448 
L 292.736573 218.573962 
L 294.280487 79.378223 
L 295.689118 217.892697 
L 297.233032 81.240824 
L 298.641663 240.3247 
L 300.185577 57.947768 
L 303.138122 71.810396 
L 303.544775 297.467585 
L 306.090667 57.035221 
L 306.49732 287.407527 
L 309.043212 59.395736 
L 309.449865 279.543198 
L 311.995758 79.105554 
L 314.948303 82.383931 
L 317.900848 57.786316 
L 318.622973 297.467585 
L 320.853393 128.205209 
L 321.575518 279.200899 
L 323.805938 158.449169 
L 324.528063 255.342663 
L 326.758483 132.655613 
L 327.480608 240.168151 
L 329.711028 130.698632 
L 330.433153 222.414939 
L 332.663573 119.752321 
L 333.385698 212.992683 
L 335.616118 129.17161 
L 336.338243 189.088804 
L 338.568663 102.361912 
L 339.290788 193.654822 
L 341.521208 76.093606 
L 342.243333 176.764197 
L 344.473753 64.680265 
L 345.195878 207.525736 
L 347.426298 143.79982 
L 348.148423 181.977632 
L 350.378843 131.07326 
L 351.100968 161.302672 
L 353.331388 172.223509 
L 354.053513 166.205681 
L 356.283933 167.649749 
L 357.006058 161.720959 
L 359.236478 195.10056 
L 359.958603 142.797707 
L 362.189023 170.437701 
L 362.911148 134.896831 
L 365.141568 212.583733 
L 365.863693 127.803441 
L 368.094113 187.595816 
L 368.816238 168.452157 
L 371.046658 232.722993 
L 371.768783 164.563878 
L 373.999203 209.227961 
L 374.721328 146.103746 
L 376.951748 210.371169 
L 377.673873 129.236632 
L 379.904293 217.483515 
L 380.626418 102.131714 
L 382.856839 199.469763 
L 383.578963 104.891074 
L 385.809384 180.521964 
L 386.531509 128.075774 
L 388.761929 158.696562 
L 389.484054 151.095066 
L 391.714474 155.498723 
L 392.436599 137.611005 
L 394.667019 128.692372 
L 395.389144 132.269844 
L 397.619564 106.262317 
L 398.341689 117.541647 
L 400.572109 127.214634 
L 401.294234 90.308285 
L 403.524654 122.921049 
L 404.246779 67.278705 
L 406.477199 131.916569 
L 407.199324 70.90786 
L 409.429744 120.093501 
L 410.151869 52.157176 
L 412.382289 100.557504 
L 413.104414 58.081317 
L 415.334834 111.804013 
L 416.056959 40.03179 
L 418.287379 107.929341 
L 419.009504 102.284583 
L 421.239924 94.367126 
L 421.962049 99.455087 
L 424.192469 128.945584 
L 424.914594 95.329446 
L 427.145014 108.490193 
L 427.867139 95.839988 
L 430.097559 164.645017 
L 430.819684 129.263035 
L 433.050104 153.498338 
L 433.772229 133.083008 
L 436.002649 177.398072 
L 436.724774 122.039083 
L 439.677319 199.829836 
L 441.907739 158.949563 
L 442.629864 218.461326 
L 444.860284 141.246808 
L 445.582409 221.889311 
L 447.812829 153.746342 
L 448.534954 202.391334 
L 450.765374 140.905904 
L 451.487499 198.848917 
L 453.71792 127.362157 
L 454.440044 181.767794 
L 456.670465 158.26768 
L 457.39259 246.462036 
L 459.62301 189.319073 
L 460.345135 254.4493 
L 462.575555 194.227375 
L 463.29768 246.125721 
L 465.5281 191.159023 
L 466.98566 297.467585 
L 468.480645 193.288752 
L 469.938205 295.617983 
L 471.43319 186.772944 
L 472.89075 268.786113 
L 474.385735 166.581249 
L 475.843295 258.802425 
L 477.33828 167.478645 
L 478.79584 265.890411 
L 480.290825 153.860802 
L 481.748385 247.822223 
L 483.24337 141.586035 
L 484.70093 233.693389 
L 486.195915 140.613408 
L 487.653475 244.17252 
L 489.14846 130.875351 
L 490.60602 220.793593 
L 492.101005 113.334225 
L 493.558565 196.401532 
L 495.05355 115.504596 
L 496.51111 178.73172 
L 498.006095 97.516713 
L 499.463655 154.021591 
L 500.95864 96.487214 
L 502.4162 149.750046 
L 503.911185 84.446806 
L 505.368745 134.345926 
L 506.86373 114.748946 
L 508.32129 128.943325 
L 509.816275 111.841145 
L 511.273836 102.517061 
L 512.76882 107.848454 
L 514.226381 104.131684 
L 515.721365 175.502323 
L 517.178926 105.659849 
L 518.67391 152.30726 
L 520.131471 88.890415 
L 521.626455 137.481709 
L 523.084016 76.977225 
L 524.579 112.919278 
L 526.036561 56.457848 
L 527.531546 101.22091 
L 528.989106 91.170392 
L 530.484091 187.078109 
L 531.941651 124.686682 
L 533.436636 180.786919 
L 534.894196 105.576029 
L 536.389181 169.6799 
L 537.846741 123.11236 
L 539.341726 145.207545 
L 540.799286 129.050479 
L 542.294271 186.77836 
L 543.751831 104.558128 
L 545.246816 209.755249 
L 546.704376 89.080612 
L 548.199361 186.822218 
L 549.656921 95.992496 
L 551.151906 223.765962 
L 552.609466 85.963247 
L 554.104451 251.837026 
L 555.562011 243.716687 
L 557.056996 225.522385 
L 558.514556 235.77942 
L 560.009541 203.01225 
L 561.467101 213.411924 
L 564.419646 189.666611 
L 565.914631 215.75726 
L 567.372191 213.852799 
L 568.867176 243.173757 
L 570.324736 231.54842 
L 571.819721 230.313629 
L 573.277281 227.221944 
L 574.772266 207.077451 
L 577.724811 194.022153 
L 579.182371 175.383329 
L 580.677356 199.369771 
L 582.134917 258.833674 
L 583.629901 184.793206 
L 585.087462 232.89197 
L 586.582446 173.965981 
L 588.040007 260.603602 
L 589.534991 161.512297 
L 590.992552 233.700262 
L 592.487536 169.182841 
L 593.945097 259.327022 
L 595.440081 154.268061 
L 596.897642 239.142771 
L 598.392627 228.41839 
L 599.850187 212.103042 
L 601.345172 213.266681 
L 602.802732 224.355648 
L 604.297717 264.833697 
L 605.755277 232.818714 
L 607.250262 242.623708 
L 608.707822 243.388473 
L 610.202807 226.606253 
L 611.660367 234.426291 
L 613.155352 219.386234 
L 614.612912 218.391499 
L 616.107897 193.552816 
L 617.565457 191.540904 
L 619.060442 172.29624 
L 620.518002 169.309681 
L 622.012987 150.347136 
L 623.470547 158.983136 
L 624.965532 166.173748 
L 626.423092 138.557452 
L 627.918077 150.403771 
L 629.375637 167.999968 
L 630.870622 201.968941 
L 632.328182 212.660974 
L 633.823167 200.248922 
L 635.280727 218.647723 
L 636.775712 197.73062 
L 638.233272 196.209599 
L 639.728257 171.253829 
L 641.185817 187.814887 
L 642.680802 185.778509 
L 644.138362 187.034578 
L 645.633347 159.830521 
L 647.090907 192.533572 
L 648.585892 156.025093 
L 650.043452 239.633349 
L 651.538437 136.096371 
L 652.995998 220.779952 
L 654.490982 242.23776 
L 655.948543 219.46191 
L 657.443527 235.86456 
L 658.901088 223.199482 
L 660.396072 263.149322 
L 661.853633 220.227368 
L 663.348617 271.625713 
L 664.806178 230.889767 
L 666.301162 254.493906 
L 667.758723 294.860661 
L 669.253708 249.239829 
L 670.711268 273.135996 
L 670.711268 273.135996 
" clip-path="url(#p4389d2a683)" style="fill: none; stroke: #1f77b4; stroke-width: 1.5; stroke-linecap: round"/>
   </g>
   <g id="patch_3">
    <path d="M 63.851016 310.339375 
L 63.851016 27.16 
" style="fill: none"/>
   </g>
   <g id="patch_4">
    <path d="M 699.609375 310.339375 
L 699.609375 27.16 
" style="fill: none"/>
   </g>
   <g id="patch_5">
    <path d="M 63.851016 310.339375 
L 699.609375 310.339375 
" style="fill: none"/>
   </g>
   <g id="patch_6">
    <path d="M 63.851016 27.16 
L 699.609375 27.16 
" style="fill: none"/>
   </g>
   <g id="text_17">
    <!-- Packets Delay to receptor node -->
    <g style="fill: #262626" transform="translate(287.833945 21.16) scale(0.12 -0.12)">
     <defs>
      <path id="DejaVuSans-50" d="M 1259 4147 
L 1259 2394 
L 2053 2394 
Q 2494 2394 2734 2622 
Q 2975 2850 2975 3272 
Q 2975 3691 2734 3919 
Q 2494 4147 2053 4147 
L 1259 4147 
z
M 628 4666 
L 2053 4666 
Q 2838 4666 3239 4311 
Q 3641 3956 3641 3272 
Q 3641 2581 3239 2228 
Q 2838 1875 2053 1875 
L 1259 1875 
L 1259 0 
L 628 0 
L 628 4666 
z
" transform="scale(0.015625)"/>
      <path id="DejaVuSans-63" d="M 3122 3366 
L 3122 2828 
Q 2878 2963 2633 3030 
Q 2388 3097 2138 3097 
Q 1578 3097 1268 2742 
Q 959 2388 959 1747 
Q 959 1106 1268 751 
Q 1578 397 2138 397 
Q 2388 397 2633 464 
Q 2878 531 3122 666 
L 3122 134 
Q 2881 22 2623 -34 
Q 2366 -91 2075 -91 
Q 1284 -91 818 406 
Q 353 903 353 1747 
Q 353 2603 823 3093 
Q 1294 3584 2113 3584 
Q 2378 3584 2631 3529 
Q 2884 3475 3122 3366 
z
" transform="scale(0.015625)"/>
      <path id="DejaVuSans-6b" d="M 581 4863 
L 1159 4863 
L 1159 1991 
L 2875 3500 
L 3609 3500 
L 1753 1863 
L 3688 0 
L 2938 0 
L 1159 1709 
L 1159 0 
L 581 0 
L 581 4863 
z
" transform="scale(0.015625)"/>
      <path id="DejaVuSans-72" d="M 2631 2963 
Q 2534 3019 2420 3045 
Q 2306 3072 2169 3072 
Q 1681 3072 1420 2755 
Q 1159 2438 1159 1844 
L 1159 0 
L 581 0 
L 581 3500 
L 1159 3500 
L 1159 2956 
Q 1341 3275 1631 3429 
Q 1922 3584 2338 3584 
Q 2397 3584 2469 3576 
Q 2541 3569 2628 3553 
L 2631 2963 
z
" transform="scale(0.015625)"/>
      <path id="DejaVuSans-70" d="M 1159 525 
L 1159 -1331 
L 581 -1331 
L 581 3500 
L 1159 3500 
L 1159 2969 
Q 1341 3281 1617 3432 
Q 1894 3584 2278 3584 
Q 2916 3584 3314 3078 
Q 3713 2572 3713 1747 
Q 3713 922 3314 415 
Q 2916 -91 2278 -91 
Q 1894 -91 1617 61 
Q 1341 213 1159 525 
z
M 3116 1747 
Q 3116 2381 2855 2742 
Q 2594 3103 2138 3103 
Q 1681 3103 1420 2742 
Q 1159 2381 1159 1747 
Q 1159 1113 1420 752 
Q 1681 391 2138 391 
Q 2594 391 2855 752 
Q 3116 1113 3116 1747 
z
" transform="scale(0.015625)"/>
      <path id="DejaVuSans-64" d="M 2906 2969 
L 2906 4863 
L 3481 4863 
L 3481 0 
L 2906 0 
L 2906 525 
Q 2725 213 2448 61 
Q 2172 -91 1784 -91 
Q 1150 -91 751 415 
Q 353 922 353 1747 
Q 353 2572 751 3078 
Q 1150 3584 1784 3584 
Q 2172 3584 2448 3432 
Q 2725 3281 2906 2969 
z
M 947 1747 
Q 947 1113 1208 752 
Q 1469 391 1925 391 
Q 2381 391 2643 752 
Q 2906 1113 2906 1747 
Q 2906 2381 2643 2742 
Q 2381 3103 1925 3103 
Q 1469 3103 1208 2742 
Q 947 2381 947 1747 
z
" transform="scale(0.015625)"/>
     </defs>
     <use xlink:href="#DejaVuSans-50"/>
     <use xlink:href="#DejaVuSans-61" x="55.802734"/>
     <use xlink:href="#DejaVuSans-63" x="117.082031"/>
     <use xlink:href="#DejaVuSans-6b" x="172.0625"/>
     <use xlink:href="#DejaVuSans-65" x="226.347656"/>
     <use xlink:href="#DejaVuSans-74" x="287.871094"/>
     <use xlink:href="#DejaVuSans-73" x="327.080078"/>
     <use xlink:href="#DejaVuSans-20" x="379.179688"/>
     <use xlink:href="#DejaVuSans-44" x="410.966797"/>
     <use xlink:href="#DejaVuSans-65" x="487.96875"/>
     <use xlink:href="#DejaVuSans-6c" x="549.492188"/>
     <use xlink:href="#DejaVuSans-61" x="577.275391"/>
     <use xlink:href="#DejaVuSans-79" x="638.554688"/>
     <use xlink:href="#DejaVuSans-20" x="697.734375"/>
     <use xlink:href="#DejaVuSans-74" x="729.521484"/>
     <use xlink:href="#DejaVuSans-6f" x="768.730469"/>
     <use xlink:href="#DejaVuSans-20" x="829.912109"/>
     <use xlink:href="#DejaVuSans-72" x="861.699219"/>
     <use xlink:href="#DejaVuSans-65" x="900.5625"/>
     <use xlink:href="#DejaVuSans-63" x="962.085938"/>
     <use xlink:href="#DejaVuSans-65" x="1017.066406"/>
     <use xlink:href="#DejaVuSans-70" x="1078.589844"/>
     <use xlink:href="#DejaVuSans-74" x="1142.066406"/>
     <use xlink:href="#DejaVuSans-6f" x="1181.275391"/>
     <use xlink:href="#DejaVuSans-72" x="1242.457031"/>
     <use xlink:href="#DejaVuSans-20" x="1283.570312"/>
     <use xlink:href="#DejaVuSans-6e" x="1315.357422"/>
     <use xlink:href="#DejaVuSans-6f" x="1378.736328"/>
     <use xlink:href="#DejaVuSans-64" x="1439.917969"/>
     <use xlink:href="#DejaVuSans-65" x="1503.394531"/>
    </g>
   </g>
  </g>
 </g>
 <defs>
  <clipPath id="p4389d2a683">
   <rect x="63.851016" y="27.16" width="635.758359" height="283.179375"/>
  </clipPath>
 </defs>
</svg>
