<?xml version="1.0" encoding="utf-8" standalone="no"?>
<!DOCTYPE svg PUBLIC "-//W3C//DTD SVG 1.1//EN"
  "http://www.w3.org/Graphics/SVG/1.1/DTD/svg11.dtd">
<svg xmlns:xlink="http://www.w3.org/1999/xlink" width="901.44pt" height="591.84pt" viewBox="0 0 901.44 591.84" xmlns="http://www.w3.org/2000/svg" version="1.1">
 <metadata>
  <rdf:RDF xmlns:dc="http://purl.org/dc/elements/1.1/" xmlns:cc="http://creativecommons.org/ns#" xmlns:rdf="http://www.w3.org/1999/02/22-rdf-syntax-ns#">
   <cc:Work>
    <dc:type rdf:resource="http://purl.org/dc/dcmitype/StillImage"/>
    <dc:date>2023-05-29T01:27:53.059975</dc:date>
    <dc:format>image/svg+xml</dc:format>
    <dc:creator>
     <cc:Agent>
      <dc:title>Matplotlib v3.7.1, https://matplotlib.org/</dc:title>
     </cc:Agent>
    </dc:creator>
   </cc:Work>
  </rdf:RDF>
 </metadata>
 <defs>
  <style type="text/css">*{stroke-linejoin: round; stroke-linecap: butt}</style>
 </defs>
 <g id="figure_1">
  <g id="patch_1">
   <path d="M 0 591.84 
L 901.44 591.84 
L 901.44 0 
L 0 0 
z
" style="fill: #ffffff"/>
  </g>
  <g id="axes_1">
   <g id="patch_2">
    <path d="M 66.610313 525.97725 
L 880.3125 525.97725 
L 880.3125 43.566 
L 66.610313 43.566 
z
" style="fill: #eaeaf2"/>
   </g>
   <g id="matplotlib.axis_1">
    <g id="xtick_1">
     <g id="line2d_1"/>
     <g id="text_1">
      <!-- 0 -->
      <g style="fill: #262626" transform="translate(63.845446 536.724125) scale(0.1 -0.1)">
       <defs>
        <path id="LiberationSans-30" d="M 3309 2203 
Q 3309 1100 2920 518 
Q 2531 -63 1772 -63 
Q 1013 -63 631 515 
Q 250 1094 250 2203 
Q 250 3338 620 3903 
Q 991 4469 1791 4469 
Q 2569 4469 2939 3897 
Q 3309 3325 3309 2203 
z
M 2738 2203 
Q 2738 3156 2517 3584 
Q 2297 4013 1791 4013 
Q 1272 4013 1045 3591 
Q 819 3169 819 2203 
Q 819 1266 1048 831 
Q 1278 397 1778 397 
Q 2275 397 2506 840 
Q 2738 1284 2738 2203 
z
" transform="scale(0.015625)"/>
       </defs>
       <use xlink:href="#LiberationSans-30"/>
      </g>
     </g>
    </g>
    <g id="xtick_2">
     <g id="line2d_2"/>
     <g id="text_2">
      <!-- 25 -->
      <g style="fill: #262626" transform="translate(162.46309 536.724125) scale(0.1 -0.1)">
       <defs>
        <path id="LiberationSans-32" d="M 322 0 
L 322 397 
Q 481 763 711 1042 
Q 941 1322 1194 1548 
Q 1447 1775 1695 1969 
Q 1944 2163 2144 2356 
Q 2344 2550 2467 2762 
Q 2591 2975 2591 3244 
Q 2591 3606 2378 3806 
Q 2166 4006 1788 4006 
Q 1428 4006 1195 3811 
Q 963 3616 922 3263 
L 347 3316 
Q 409 3844 795 4156 
Q 1181 4469 1788 4469 
Q 2453 4469 2811 4155 
Q 3169 3841 3169 3263 
Q 3169 3006 3051 2753 
Q 2934 2500 2703 2247 
Q 2472 1994 1819 1463 
Q 1459 1169 1246 933 
Q 1034 697 941 478 
L 3238 478 
L 3238 0 
L 322 0 
z
" transform="scale(0.015625)"/>
        <path id="LiberationSans-35" d="M 3291 1434 
Q 3291 738 2877 337 
Q 2463 -63 1728 -63 
Q 1113 -63 734 206 
Q 356 475 256 984 
L 825 1050 
Q 1003 397 1741 397 
Q 2194 397 2450 670 
Q 2706 944 2706 1422 
Q 2706 1838 2448 2094 
Q 2191 2350 1753 2350 
Q 1525 2350 1328 2278 
Q 1131 2206 934 2034 
L 384 2034 
L 531 4403 
L 3034 4403 
L 3034 3925 
L 1044 3925 
L 959 2528 
Q 1325 2809 1869 2809 
Q 2519 2809 2905 2428 
Q 3291 2047 3291 1434 
z
" transform="scale(0.015625)"/>
       </defs>
       <use xlink:href="#LiberationSans-32"/>
       <use xlink:href="#LiberationSans-35" x="55.615234"/>
      </g>
     </g>
    </g>
    <g id="xtick_3">
     <g id="line2d_3"/>
     <g id="text_3">
      <!-- 50 -->
      <g style="fill: #262626" transform="translate(263.861203 536.724125) scale(0.1 -0.1)">
       <use xlink:href="#LiberationSans-35"/>
       <use xlink:href="#LiberationSans-30" x="55.615234"/>
      </g>
     </g>
    </g>
    <g id="xtick_4">
     <g id="line2d_4"/>
     <g id="text_4">
      <!-- 75 -->
      <g style="fill: #262626" transform="translate(365.259317 536.724125) scale(0.1 -0.1)">
       <defs>
        <path id="LiberationSans-37" d="M 3238 3947 
Q 2563 2916 2284 2331 
Q 2006 1747 1867 1178 
Q 1728 609 1728 0 
L 1141 0 
Q 1141 844 1498 1776 
Q 1856 2709 2694 3925 
L 328 3925 
L 328 4403 
L 3238 4403 
L 3238 3947 
z
" transform="scale(0.015625)"/>
       </defs>
       <use xlink:href="#LiberationSans-37"/>
       <use xlink:href="#LiberationSans-35" x="55.615234"/>
      </g>
     </g>
    </g>
    <g id="xtick_5">
     <g id="line2d_5"/>
     <g id="text_5">
      <!-- 100 -->
      <g style="fill: #262626" transform="translate(463.876961 536.724125) scale(0.1 -0.1)">
       <defs>
        <path id="LiberationSans-31" d="M 488 0 
L 488 478 
L 1609 478 
L 1609 3866 
L 616 3156 
L 616 3688 
L 1656 4403 
L 2175 4403 
L 2175 478 
L 3247 478 
L 3247 0 
L 488 0 
z
" transform="scale(0.015625)"/>
       </defs>
       <use xlink:href="#LiberationSans-31"/>
       <use xlink:href="#LiberationSans-30" x="55.615234"/>
       <use xlink:href="#LiberationSans-30" x="111.230469"/>
      </g>
     </g>
    </g>
    <g id="xtick_6">
     <g id="line2d_6"/>
     <g id="text_6">
      <!-- 125 -->
      <g style="fill: #262626" transform="translate(565.275075 536.724125) scale(0.1 -0.1)">
       <use xlink:href="#LiberationSans-31"/>
       <use xlink:href="#LiberationSans-32" x="55.615234"/>
       <use xlink:href="#LiberationSans-35" x="111.230469"/>
      </g>
     </g>
    </g>
    <g id="xtick_7">
     <g id="line2d_7"/>
     <g id="text_7">
      <!-- 150 -->
      <g style="fill: #262626" transform="translate(666.673188 536.724125) scale(0.1 -0.1)">
       <use xlink:href="#LiberationSans-31"/>
       <use xlink:href="#LiberationSans-35" x="55.615234"/>
       <use xlink:href="#LiberationSans-30" x="111.230469"/>
      </g>
     </g>
    </g>
    <g id="xtick_8">
     <g id="line2d_8"/>
     <g id="text_8">
      <!-- 175 -->
      <g style="fill: #262626" transform="translate(768.071301 536.724125) scale(0.1 -0.1)">
       <use xlink:href="#LiberationSans-31"/>
       <use xlink:href="#LiberationSans-37" x="55.615234"/>
       <use xlink:href="#LiberationSans-35" x="111.230469"/>
      </g>
     </g>
    </g>
    <g id="xtick_9">
     <g id="line2d_9"/>
     <g id="text_9">
      <!-- 200 -->
      <g style="fill: #262626" transform="translate(869.469415 536.724125) scale(0.1 -0.1)">
       <use xlink:href="#LiberationSans-32"/>
       <use xlink:href="#LiberationSans-30" x="55.615234"/>
       <use xlink:href="#LiberationSans-30" x="111.230469"/>
      </g>
     </g>
    </g>
    <g id="text_10">
     <!-- Arrived time (s) -->
     <g style="fill: #262626" transform="translate(439.571562 550.046) scale(0.1 -0.1)">
      <defs>
       <path id="LiberationSans-41" d="M 3647 0 
L 3144 1288 
L 1138 1288 
L 631 0 
L 13 0 
L 1809 4403 
L 2488 4403 
L 4256 0 
L 3647 0 
z
M 2141 3953 
L 2113 3866 
Q 2034 3606 1881 3200 
L 1319 1753 
L 2966 1753 
L 2400 3206 
Q 2313 3422 2225 3694 
L 2141 3953 
z
" transform="scale(0.015625)"/>
       <path id="LiberationSans-72" d="M 444 0 
L 444 2594 
Q 444 2950 425 3381 
L 956 3381 
Q 981 2806 981 2691 
L 994 2691 
Q 1128 3125 1303 3284 
Q 1478 3444 1797 3444 
Q 1909 3444 2025 3413 
L 2025 2897 
Q 1913 2928 1725 2928 
Q 1375 2928 1190 2626 
Q 1006 2325 1006 1763 
L 1006 0 
L 444 0 
z
" transform="scale(0.015625)"/>
       <path id="LiberationSans-69" d="M 428 4100 
L 428 4638 
L 991 4638 
L 991 4100 
L 428 4100 
z
M 428 0 
L 428 3381 
L 991 3381 
L 991 0 
L 428 0 
z
" transform="scale(0.015625)"/>
       <path id="LiberationSans-76" d="M 1916 0 
L 1250 0 
L 22 3381 
L 622 3381 
L 1366 1181 
Q 1406 1056 1581 441 
L 1691 806 
L 1813 1175 
L 2581 3381 
L 3178 3381 
L 1916 0 
z
" transform="scale(0.015625)"/>
       <path id="LiberationSans-65" d="M 863 1572 
Q 863 991 1103 675 
Q 1344 359 1806 359 
Q 2172 359 2392 506 
Q 2613 653 2691 878 
L 3184 738 
Q 2881 -63 1806 -63 
Q 1056 -63 664 384 
Q 272 831 272 1713 
Q 272 2550 664 2997 
Q 1056 3444 1784 3444 
Q 3275 3444 3275 1647 
L 3275 1572 
L 863 1572 
z
M 2694 2003 
Q 2647 2538 2422 2783 
Q 2197 3028 1775 3028 
Q 1366 3028 1127 2754 
Q 888 2481 869 2003 
L 2694 2003 
z
" transform="scale(0.015625)"/>
       <path id="LiberationSans-64" d="M 2566 544 
Q 2409 219 2151 78 
Q 1894 -63 1513 -63 
Q 872 -63 570 368 
Q 269 800 269 1675 
Q 269 3444 1513 3444 
Q 1897 3444 2153 3303 
Q 2409 3163 2566 2856 
L 2572 2856 
L 2566 3234 
L 2566 4638 
L 3128 4638 
L 3128 697 
Q 3128 169 3147 0 
L 2609 0 
Q 2600 50 2589 231 
Q 2578 413 2578 544 
L 2566 544 
z
M 859 1694 
Q 859 984 1046 678 
Q 1234 372 1656 372 
Q 2134 372 2350 703 
Q 2566 1034 2566 1731 
Q 2566 2403 2350 2715 
Q 2134 3028 1663 3028 
Q 1238 3028 1048 2714 
Q 859 2400 859 1694 
z
" transform="scale(0.015625)"/>
       <path id="LiberationSans-20" transform="scale(0.015625)"/>
       <path id="LiberationSans-74" d="M 1731 25 
Q 1453 -50 1163 -50 
Q 488 -50 488 716 
L 488 2972 
L 97 2972 
L 97 3381 
L 509 3381 
L 675 4138 
L 1050 4138 
L 1050 3381 
L 1675 3381 
L 1675 2972 
L 1050 2972 
L 1050 838 
Q 1050 594 1129 495 
Q 1209 397 1406 397 
Q 1519 397 1731 441 
L 1731 25 
z
" transform="scale(0.015625)"/>
       <path id="LiberationSans-6d" d="M 2400 0 
L 2400 2144 
Q 2400 2634 2265 2821 
Q 2131 3009 1781 3009 
Q 1422 3009 1212 2734 
Q 1003 2459 1003 1959 
L 1003 0 
L 444 0 
L 444 2659 
Q 444 3250 425 3381 
L 956 3381 
Q 959 3366 962 3297 
Q 966 3228 970 3139 
Q 975 3050 981 2803 
L 991 2803 
Q 1172 3163 1406 3303 
Q 1641 3444 1978 3444 
Q 2363 3444 2586 3291 
Q 2809 3138 2897 2803 
L 2906 2803 
Q 3081 3144 3329 3294 
Q 3578 3444 3931 3444 
Q 4444 3444 4676 3166 
Q 4909 2888 4909 2253 
L 4909 0 
L 4353 0 
L 4353 2144 
Q 4353 2634 4218 2821 
Q 4084 3009 3734 3009 
Q 3366 3009 3161 2736 
Q 2956 2463 2956 1959 
L 2956 0 
L 2400 0 
z
" transform="scale(0.015625)"/>
       <path id="LiberationSans-28" d="M 397 1663 
Q 397 2566 680 3284 
Q 963 4003 1550 4638 
L 2094 4638 
Q 1509 3988 1236 3256 
Q 963 2525 963 1656 
Q 963 791 1233 62 
Q 1503 -666 2094 -1325 
L 1550 -1325 
Q 959 -688 678 32 
Q 397 753 397 1650 
L 397 1663 
z
" transform="scale(0.015625)"/>
       <path id="LiberationSans-73" d="M 2969 934 
Q 2969 456 2608 196 
Q 2247 -63 1597 -63 
Q 966 -63 623 145 
Q 281 353 178 794 
L 675 891 
Q 747 619 972 492 
Q 1197 366 1597 366 
Q 2025 366 2223 497 
Q 2422 628 2422 891 
Q 2422 1091 2284 1216 
Q 2147 1341 1841 1422 
L 1438 1528 
Q 953 1653 748 1773 
Q 544 1894 428 2066 
Q 313 2238 313 2488 
Q 313 2950 642 3192 
Q 972 3434 1603 3434 
Q 2163 3434 2492 3237 
Q 2822 3041 2909 2606 
L 2403 2544 
Q 2356 2769 2151 2889 
Q 1947 3009 1603 3009 
Q 1222 3009 1040 2893 
Q 859 2778 859 2544 
Q 859 2400 934 2306 
Q 1009 2213 1156 2147 
Q 1303 2081 1775 1966 
Q 2222 1853 2419 1758 
Q 2616 1663 2730 1547 
Q 2844 1431 2906 1279 
Q 2969 1128 2969 934 
z
" transform="scale(0.015625)"/>
       <path id="LiberationSans-29" d="M 1734 1650 
Q 1734 747 1451 28 
Q 1169 -691 581 -1325 
L 38 -1325 
Q 625 -669 897 57 
Q 1169 784 1169 1656 
Q 1169 2528 895 3256 
Q 622 3984 38 4638 
L 581 4638 
Q 1172 4000 1453 3279 
Q 1734 2559 1734 1663 
L 1734 1650 
z
" transform="scale(0.015625)"/>
      </defs>
      <use xlink:href="#LiberationSans-41"/>
      <use xlink:href="#LiberationSans-72" x="66.699219"/>
      <use xlink:href="#LiberationSans-72" x="100"/>
      <use xlink:href="#LiberationSans-69" x="133.300781"/>
      <use xlink:href="#LiberationSans-76" x="155.517578"/>
      <use xlink:href="#LiberationSans-65" x="205.517578"/>
      <use xlink:href="#LiberationSans-64" x="261.132812"/>
      <use xlink:href="#LiberationSans-20" x="316.748047"/>
      <use xlink:href="#LiberationSans-74" x="344.53125"/>
      <use xlink:href="#LiberationSans-69" x="372.314453"/>
      <use xlink:href="#LiberationSans-6d" x="394.53125"/>
      <use xlink:href="#LiberationSans-65" x="477.832031"/>
      <use xlink:href="#LiberationSans-20" x="533.447266"/>
      <use xlink:href="#LiberationSans-28" x="561.230469"/>
      <use xlink:href="#LiberationSans-73" x="594.53125"/>
      <use xlink:href="#LiberationSans-29" x="644.53125"/>
     </g>
    </g>
   </g>
   <g id="matplotlib.axis_2">
    <g id="ytick_1">
     <g id="line2d_10"/>
     <g id="text_11">
      <!-- 1 -->
      <g style="fill: #262626" transform="translate(57.549375 523.426994) scale(0.1 -0.1)">
       <use xlink:href="#LiberationSans-31"/>
      </g>
     </g>
    </g>
    <g id="ytick_2">
     <g id="line2d_11"/>
     <g id="text_12">
      <!-- 2 -->
      <g style="fill: #262626" transform="translate(57.549375 445.069885) scale(0.1 -0.1)">
       <use xlink:href="#LiberationSans-32"/>
      </g>
     </g>
    </g>
    <g id="ytick_3">
     <g id="line2d_12"/>
     <g id="text_13">
      <!-- 3 -->
      <g style="fill: #262626" transform="translate(57.549375 366.712776) scale(0.1 -0.1)">
       <defs>
        <path id="LiberationSans-33" d="M 3278 1216 
Q 3278 606 2890 271 
Q 2503 -63 1784 -63 
Q 1116 -63 717 239 
Q 319 541 244 1131 
L 825 1184 
Q 938 403 1784 403 
Q 2209 403 2451 612 
Q 2694 822 2694 1234 
Q 2694 1594 2417 1795 
Q 2141 1997 1619 1997 
L 1300 1997 
L 1300 2484 
L 1606 2484 
Q 2069 2484 2323 2686 
Q 2578 2888 2578 3244 
Q 2578 3597 2370 3801 
Q 2163 4006 1753 4006 
Q 1381 4006 1151 3815 
Q 922 3625 884 3278 
L 319 3322 
Q 381 3863 767 4166 
Q 1153 4469 1759 4469 
Q 2422 4469 2789 4161 
Q 3156 3853 3156 3303 
Q 3156 2881 2920 2617 
Q 2684 2353 2234 2259 
L 2234 2247 
Q 2728 2194 3003 1916 
Q 3278 1638 3278 1216 
z
" transform="scale(0.015625)"/>
       </defs>
       <use xlink:href="#LiberationSans-33"/>
      </g>
     </g>
    </g>
    <g id="ytick_4">
     <g id="line2d_13"/>
     <g id="text_14">
      <!-- 4 -->
      <g style="fill: #262626" transform="translate(57.549375 288.355667) scale(0.1 -0.1)">
       <defs>
        <path id="LiberationSans-34" d="M 2753 997 
L 2753 0 
L 2222 0 
L 2222 997 
L 147 997 
L 147 1434 
L 2163 4403 
L 2753 4403 
L 2753 1441 
L 3372 1441 
L 3372 997 
L 2753 997 
z
M 2222 3769 
Q 2216 3750 2134 3603 
Q 2053 3456 2013 3397 
L 884 1734 
L 716 1503 
L 666 1441 
L 2222 1441 
L 2222 3769 
z
" transform="scale(0.015625)"/>
       </defs>
       <use xlink:href="#LiberationSans-34"/>
      </g>
     </g>
    </g>
    <g id="ytick_5">
     <g id="line2d_14"/>
     <g id="text_15">
      <!-- 5 -->
      <g style="fill: #262626" transform="translate(57.549375 209.998558) scale(0.1 -0.1)">
       <use xlink:href="#LiberationSans-35"/>
      </g>
     </g>
    </g>
    <g id="ytick_6">
     <g id="line2d_15"/>
     <g id="text_16">
      <!-- 6 -->
      <g style="fill: #262626" transform="translate(57.549375 131.641449) scale(0.1 -0.1)">
       <defs>
        <path id="LiberationSans-36" d="M 3278 1441 
Q 3278 744 2900 340 
Q 2522 -63 1856 -63 
Q 1113 -63 719 490 
Q 325 1044 325 2100 
Q 325 3244 734 3856 
Q 1144 4469 1900 4469 
Q 2897 4469 3156 3572 
L 2619 3475 
Q 2453 4013 1894 4013 
Q 1413 4013 1148 3564 
Q 884 3116 884 2266 
Q 1038 2550 1316 2698 
Q 1594 2847 1953 2847 
Q 2563 2847 2920 2465 
Q 3278 2084 3278 1441 
z
M 2706 1416 
Q 2706 1894 2472 2153 
Q 2238 2413 1819 2413 
Q 1425 2413 1183 2183 
Q 941 1953 941 1550 
Q 941 1041 1192 716 
Q 1444 391 1838 391 
Q 2244 391 2475 664 
Q 2706 938 2706 1416 
z
" transform="scale(0.015625)"/>
       </defs>
       <use xlink:href="#LiberationSans-36"/>
      </g>
     </g>
    </g>
    <g id="ytick_7">
     <g id="line2d_16"/>
     <g id="text_17">
      <!-- 7 -->
      <g style="fill: #262626" transform="translate(57.549375 53.284339) scale(0.1 -0.1)">
       <use xlink:href="#LiberationSans-37"/>
      </g>
     </g>
    </g>
    <g id="text_18">
     <!-- Jumps -->
     <g style="fill: #262626" transform="translate(51.474375 299.497406) rotate(-90) scale(0.1 -0.1)">
      <defs>
       <path id="LiberationSans-4a" d="M 1428 -63 
Q 309 -63 100 1094 
L 684 1191 
Q 741 828 937 625 
Q 1134 422 1431 422 
Q 1756 422 1943 645 
Q 2131 869 2131 1300 
L 2131 3916 
L 1284 3916 
L 1284 4403 
L 2725 4403 
L 2725 1313 
Q 2725 672 2378 304 
Q 2031 -63 1428 -63 
z
" transform="scale(0.015625)"/>
       <path id="LiberationSans-75" d="M 981 3381 
L 981 1238 
Q 981 903 1047 718 
Q 1113 534 1256 453 
Q 1400 372 1678 372 
Q 2084 372 2318 650 
Q 2553 928 2553 1422 
L 2553 3381 
L 3116 3381 
L 3116 722 
Q 3116 131 3134 0 
L 2603 0 
Q 2600 16 2597 84 
Q 2594 153 2589 242 
Q 2584 331 2578 578 
L 2569 578 
Q 2375 228 2120 82 
Q 1866 -63 1488 -63 
Q 931 -63 673 214 
Q 416 491 416 1128 
L 416 3381 
L 981 3381 
z
" transform="scale(0.015625)"/>
       <path id="LiberationSans-70" d="M 3291 1706 
Q 3291 -63 2047 -63 
Q 1266 -63 997 525 
L 981 525 
Q 994 500 994 -6 
L 994 -1328 
L 431 -1328 
L 431 2691 
Q 431 3213 413 3381 
L 956 3381 
Q 959 3369 965 3292 
Q 972 3216 980 3056 
Q 988 2897 988 2838 
L 1000 2838 
Q 1150 3150 1397 3295 
Q 1644 3441 2047 3441 
Q 2672 3441 2981 3022 
Q 3291 2603 3291 1706 
z
M 2700 1694 
Q 2700 2400 2509 2703 
Q 2319 3006 1903 3006 
Q 1569 3006 1380 2865 
Q 1191 2725 1092 2426 
Q 994 2128 994 1650 
Q 994 984 1206 668 
Q 1419 353 1897 353 
Q 2316 353 2508 661 
Q 2700 969 2700 1694 
z
" transform="scale(0.015625)"/>
      </defs>
      <use xlink:href="#LiberationSans-4a"/>
      <use xlink:href="#LiberationSans-75" x="50"/>
      <use xlink:href="#LiberationSans-6d" x="105.615234"/>
      <use xlink:href="#LiberationSans-70" x="188.916016"/>
      <use xlink:href="#LiberationSans-73" x="244.53125"/>
     </g>
    </g>
   </g>
   <g id="line2d_17">
    <path d="M 72.649888 519.803557 
L 76.705812 519.803557 
L 84.817661 363.089338 
L 88.873586 519.803557 
L 92.92951 441.446448 
L 96.985435 519.803557 
L 101.041359 363.089338 
L 105.097284 363.089338 
L 109.153208 519.803557 
L 113.209133 519.803557 
L 117.265057 363.089338 
L 121.320982 519.803557 
L 125.376907 441.446448 
L 129.432831 519.803557 
L 133.488756 284.732229 
L 137.54468 519.803557 
L 141.600605 441.446448 
L 145.656529 206.37512 
L 149.712454 441.446448 
L 153.768378 519.803557 
L 157.824303 363.089338 
L 161.880227 519.803557 
L 165.936152 441.446448 
L 169.992076 284.732229 
L 174.048001 441.446448 
L 178.103925 519.803557 
L 182.15985 206.37512 
L 186.215775 441.446448 
L 190.271699 206.37512 
L 194.327624 519.803557 
L 198.383548 519.803557 
L 202.439473 441.446448 
L 206.495397 519.803557 
L 214.607246 519.803557 
L 218.663171 128.018011 
L 222.719095 519.803557 
L 226.77502 519.803557 
L 230.830944 441.446448 
L 234.886869 519.803557 
L 238.942793 441.446448 
L 242.998718 441.446448 
L 247.054643 519.803557 
L 251.110567 363.089338 
L 255.166492 519.803557 
L 259.222416 519.803557 
L 263.278341 441.446448 
L 267.334265 519.803557 
L 271.39019 363.089338 
L 275.446114 519.803557 
L 279.502039 363.089338 
L 287.613888 363.089338 
L 295.725737 519.803557 
L 299.781661 284.732229 
L 303.837586 519.803557 
L 307.893511 363.089338 
L 311.949435 519.803557 
L 320.061284 363.089338 
L 328.173133 519.803557 
L 332.229058 284.732229 
L 336.284982 519.803557 
L 340.340907 441.446448 
L 344.396831 519.803557 
L 348.452756 363.089338 
L 352.50868 519.803557 
L 356.564605 519.803557 
L 360.620529 441.446448 
L 364.676454 519.803557 
L 368.732379 519.803557 
L 372.788303 363.089338 
L 376.844228 441.446448 
L 380.900152 206.37512 
L 384.956077 519.803557 
L 393.067926 363.089338 
L 397.12385 519.803557 
L 401.179775 441.446448 
L 405.235699 519.803557 
L 409.291624 441.446448 
L 413.347548 519.803557 
L 417.403473 284.732229 
L 421.459397 441.446448 
L 425.515322 441.446448 
L 429.571247 519.803557 
L 433.627171 519.803557 
L 437.683096 363.089338 
L 441.73902 519.803557 
L 445.794945 519.803557 
L 449.850869 441.446448 
L 453.906794 441.446448 
L 457.962718 284.732229 
L 462.018643 441.446448 
L 466.074567 441.446448 
L 470.130492 519.803557 
L 474.186416 363.089338 
L 482.298265 519.803557 
L 486.35419 441.446448 
L 490.410115 519.803557 
L 494.466039 284.732229 
L 498.521964 519.803557 
L 502.577888 519.803557 
L 506.633813 363.089338 
L 514.745662 519.803557 
L 518.801586 519.803557 
L 522.857511 363.089338 
L 530.96936 519.803557 
L 535.025284 49.660902 
L 539.081209 519.803557 
L 543.137133 284.732229 
L 547.193058 519.803557 
L 551.248983 519.803557 
L 555.304907 441.446448 
L 559.360832 519.803557 
L 563.416756 519.803557 
L 567.472681 128.018011 
L 571.528605 519.803557 
L 575.58453 519.803557 
L 579.640454 441.446448 
L 583.696379 519.803557 
L 587.752303 284.732229 
L 591.808228 519.803557 
L 595.864152 441.446448 
L 599.920077 206.37512 
L 603.976001 519.803557 
L 608.031926 519.803557 
L 612.087851 441.446448 
L 616.143775 519.803557 
L 620.1997 441.446448 
L 624.255624 519.803557 
L 628.311549 519.803557 
L 632.367473 441.446448 
L 636.423398 519.803557 
L 640.479322 363.089338 
L 644.535247 441.446448 
L 648.591171 284.732229 
L 652.647096 441.446448 
L 656.70302 519.803557 
L 660.758945 206.37512 
L 664.814869 519.803557 
L 668.870794 519.803557 
L 672.926719 284.732229 
L 676.982643 441.446448 
L 681.038568 441.446448 
L 685.094492 49.660902 
L 689.150417 519.803557 
L 693.206341 363.089338 
L 697.262266 519.803557 
L 701.31819 441.446448 
L 705.374115 284.732229 
L 709.430039 519.803557 
L 713.485964 284.732229 
L 717.541888 519.803557 
L 725.653737 519.803557 
L 729.709662 441.446448 
L 733.765587 441.446448 
L 737.821511 519.803557 
L 741.877436 363.089338 
L 745.93336 519.803557 
L 749.989285 206.37512 
L 754.045209 519.803557 
L 758.101134 363.089338 
L 762.157058 519.803557 
L 766.212983 284.732229 
L 770.268907 519.803557 
L 774.324832 519.803557 
L 782.436681 363.089338 
L 786.492605 519.803557 
L 790.54853 128.018011 
L 794.604455 363.089338 
L 798.660379 519.803557 
L 802.716304 519.803557 
L 806.772228 441.446448 
L 810.828153 519.803557 
L 814.884077 519.803557 
L 818.940002 284.732229 
L 822.995926 519.803557 
L 827.051851 363.089338 
L 831.107775 519.803557 
L 835.1637 441.446448 
L 839.219624 519.803557 
L 843.275549 206.37512 
L 847.331473 519.803557 
L 851.387398 519.803557 
L 855.443323 441.446448 
L 859.499247 441.446448 
L 863.555172 519.803557 
L 867.611096 363.089338 
L 871.667021 519.803557 
L 875.722945 284.732229 
L 875.722945 284.732229 
" clip-path="url(#p588e5c4b88)" style="fill: none; stroke: #1f77b4; stroke-width: 1.4; stroke-linecap: round"/>
   </g>
   <g id="patch_3">
    <path d="M 66.610313 525.97725 
L 66.610313 43.566 
" style="fill: none"/>
   </g>
   <g id="patch_4">
    <path d="M 880.3125 525.97725 
L 880.3125 43.566 
" style="fill: none"/>
   </g>
   <g id="patch_5">
    <path d="M 66.610313 525.97725 
L 880.3125 525.97725 
" style="fill: none"/>
   </g>
   <g id="patch_6">
    <path d="M 66.610313 43.566 
L 880.3125 43.566 
" style="fill: none"/>
   </g>
   <g id="text_19">
    <!-- Jumps for packet arrived in x time -->
    <g style="fill: #262626" transform="translate(383.768906 37.566) scale(0.12 -0.12)">
     <defs>
      <path id="LiberationSans-66" d="M 1128 2972 
L 1128 0 
L 566 0 
L 566 2972 
L 91 2972 
L 91 3381 
L 566 3381 
L 566 3763 
Q 566 4225 769 4428 
Q 972 4631 1391 4631 
Q 1625 4631 1788 4594 
L 1788 4166 
Q 1647 4191 1538 4191 
Q 1322 4191 1225 4081 
Q 1128 3972 1128 3684 
L 1128 3381 
L 1788 3381 
L 1788 2972 
L 1128 2972 
z
" transform="scale(0.015625)"/>
      <path id="LiberationSans-6f" d="M 3291 1694 
Q 3291 806 2900 371 
Q 2509 -63 1766 -63 
Q 1025 -63 647 389 
Q 269 841 269 1694 
Q 269 3444 1784 3444 
Q 2559 3444 2925 3017 
Q 3291 2591 3291 1694 
z
M 2700 1694 
Q 2700 2394 2492 2711 
Q 2284 3028 1794 3028 
Q 1300 3028 1079 2704 
Q 859 2381 859 1694 
Q 859 1025 1076 689 
Q 1294 353 1759 353 
Q 2266 353 2483 678 
Q 2700 1003 2700 1694 
z
" transform="scale(0.015625)"/>
      <path id="LiberationSans-61" d="M 1294 -63 
Q 784 -63 528 206 
Q 272 475 272 944 
Q 272 1469 617 1750 
Q 963 2031 1731 2050 
L 2491 2063 
L 2491 2247 
Q 2491 2659 2316 2837 
Q 2141 3016 1766 3016 
Q 1388 3016 1216 2887 
Q 1044 2759 1009 2478 
L 422 2531 
Q 566 3444 1778 3444 
Q 2416 3444 2737 3151 
Q 3059 2859 3059 2306 
L 3059 850 
Q 3059 600 3125 473 
Q 3191 347 3375 347 
Q 3456 347 3559 369 
L 3559 19 
Q 3347 -31 3125 -31 
Q 2813 -31 2670 133 
Q 2528 297 2509 647 
L 2491 647 
Q 2275 259 1989 98 
Q 1703 -63 1294 -63 
z
M 1422 359 
Q 1731 359 1972 500 
Q 2213 641 2352 886 
Q 2491 1131 2491 1391 
L 2491 1669 
L 1875 1656 
Q 1478 1650 1273 1575 
Q 1069 1500 959 1344 
Q 850 1188 850 934 
Q 850 659 998 509 
Q 1147 359 1422 359 
z
" transform="scale(0.015625)"/>
      <path id="LiberationSans-63" d="M 859 1706 
Q 859 1031 1071 706 
Q 1284 381 1713 381 
Q 2013 381 2214 543 
Q 2416 706 2463 1044 
L 3031 1006 
Q 2966 519 2616 228 
Q 2266 -63 1728 -63 
Q 1019 -63 645 385 
Q 272 834 272 1694 
Q 272 2547 647 2995 
Q 1022 3444 1722 3444 
Q 2241 3444 2583 3175 
Q 2925 2906 3013 2434 
L 2434 2391 
Q 2391 2672 2212 2837 
Q 2034 3003 1706 3003 
Q 1259 3003 1059 2706 
Q 859 2409 859 1706 
z
" transform="scale(0.015625)"/>
      <path id="LiberationSans-6b" d="M 2550 0 
L 1406 1544 
L 994 1203 
L 994 0 
L 431 0 
L 431 4638 
L 994 4638 
L 994 1741 
L 2478 3381 
L 3138 3381 
L 1766 1928 
L 3209 0 
L 2550 0 
z
" transform="scale(0.015625)"/>
      <path id="LiberationSans-6e" d="M 2578 0 
L 2578 2144 
Q 2578 2478 2512 2662 
Q 2447 2847 2303 2928 
Q 2159 3009 1881 3009 
Q 1475 3009 1240 2731 
Q 1006 2453 1006 1959 
L 1006 0 
L 444 0 
L 444 2659 
Q 444 3250 425 3381 
L 956 3381 
Q 959 3366 962 3297 
Q 966 3228 970 3139 
Q 975 3050 981 2803 
L 991 2803 
Q 1184 3153 1439 3298 
Q 1694 3444 2072 3444 
Q 2628 3444 2886 3167 
Q 3144 2891 3144 2253 
L 3144 0 
L 2578 0 
z
" transform="scale(0.015625)"/>
      <path id="LiberationSans-78" d="M 2503 0 
L 1594 1388 
L 678 0 
L 72 0 
L 1275 1738 
L 128 3381 
L 750 3381 
L 1594 2066 
L 2431 3381 
L 3059 3381 
L 1913 1744 
L 3131 0 
L 2503 0 
z
" transform="scale(0.015625)"/>
     </defs>
     <use xlink:href="#LiberationSans-4a"/>
     <use xlink:href="#LiberationSans-75" x="50"/>
     <use xlink:href="#LiberationSans-6d" x="105.615234"/>
     <use xlink:href="#LiberationSans-70" x="188.916016"/>
     <use xlink:href="#LiberationSans-73" x="244.53125"/>
     <use xlink:href="#LiberationSans-20" x="294.53125"/>
     <use xlink:href="#LiberationSans-66" x="322.314453"/>
     <use xlink:href="#LiberationSans-6f" x="350.097656"/>
     <use xlink:href="#LiberationSans-72" x="405.712891"/>
     <use xlink:href="#LiberationSans-20" x="439.013672"/>
     <use xlink:href="#LiberationSans-70" x="466.796875"/>
     <use xlink:href="#LiberationSans-61" x="522.412109"/>
     <use xlink:href="#LiberationSans-63" x="578.027344"/>
     <use xlink:href="#LiberationSans-6b" x="628.027344"/>
     <use xlink:href="#LiberationSans-65" x="678.027344"/>
     <use xlink:href="#LiberationSans-74" x="733.642578"/>
     <use xlink:href="#LiberationSans-20" x="761.425781"/>
     <use xlink:href="#LiberationSans-61" x="789.208984"/>
     <use xlink:href="#LiberationSans-72" x="844.824219"/>
     <use xlink:href="#LiberationSans-72" x="878.125"/>
     <use xlink:href="#LiberationSans-69" x="911.425781"/>
     <use xlink:href="#LiberationSans-76" x="933.642578"/>
     <use xlink:href="#LiberationSans-65" x="983.642578"/>
     <use xlink:href="#LiberationSans-64" x="1039.257812"/>
     <use xlink:href="#LiberationSans-20" x="1094.873047"/>
     <use xlink:href="#LiberationSans-69" x="1122.65625"/>
     <use xlink:href="#LiberationSans-6e" x="1144.873047"/>
     <use xlink:href="#LiberationSans-20" x="1200.488281"/>
     <use xlink:href="#LiberationSans-78" x="1228.271484"/>
     <use xlink:href="#LiberationSans-20" x="1278.271484"/>
     <use xlink:href="#LiberationSans-74" x="1306.054688"/>
     <use xlink:href="#LiberationSans-69" x="1333.837891"/>
     <use xlink:href="#LiberationSans-6d" x="1356.054688"/>
     <use xlink:href="#LiberationSans-65" x="1439.355469"/>
    </g>
   </g>
  </g>
 </g>
 <defs>
  <clipPath id="p588e5c4b88">
   <rect x="66.610313" y="43.566" width="813.702187" height="482.41125"/>
  </clipPath>
 </defs>
</svg>
